<svg width="35" height="34" viewBox="0 0 35 34" fill="none" xmlns="http://www.w3.org/2000/svg">
<g filter="url(#filter0_d_608_144)">
<rect x="4.71875" y="0.072876" width="25.7748" height="25.3352" rx="8" fill="#24BDDE"/>
</g>
<path d="M17.5749 16.963C17.3733 16.9644 17.1717 16.9292 16.9839 16.8589C16.7961 16.7885 16.6268 16.6859 16.4822 16.555L10.3256 10.9288C10.1824 10.798 10.0685 10.6419 9.99155 10.4703C9.91306 10.2987 9.87305 10.1158 9.87305 9.93013C9.87305 9.74447 9.91306 9.56161 9.99155 9.39001C10.0685 9.21841 10.1824 9.06229 10.3256 8.93148C10.4687 8.80067 10.6395 8.69656 10.8273 8.62483C11.0151 8.5545 11.2152 8.51794 11.4183 8.51794C11.6215 8.51794 11.8231 8.5545 12.0094 8.62483C12.1972 8.69656 12.368 8.80067 12.5111 8.93148L17.5749 13.5872L22.6541 9.11434C22.7957 8.97087 22.9681 8.8555 23.1605 8.77532C23.3544 8.69515 23.5623 8.65155 23.7747 8.64874C23.9855 8.64592 24.1963 8.68249 24.3918 8.75704C24.5873 8.83158 24.7643 8.94132 24.9105 9.08198C25.0567 9.22123 25.1706 9.38721 25.243 9.56866C25.3168 9.75011 25.3476 9.9442 25.3353 10.1369C25.323 10.3296 25.2676 10.5195 25.1706 10.6911C25.0752 10.8641 24.9413 11.016 24.7781 11.1398L18.6216 16.5691C18.3399 16.8167 17.9659 16.9573 17.5749 16.963Z" fill="#041339"/>
<defs>
<filter id="filter0_d_608_144" x="0.71875" y="0.072876" width="33.7744" height="33.3352" filterUnits="userSpaceOnUse" color-interpolation-filters="sRGB">
<feFlood flood-opacity="0" result="BackgroundImageFix"/>
<feColorMatrix in="SourceAlpha" type="matrix" values="0 0 0 0 0 0 0 0 0 0 0 0 0 0 0 0 0 0 127 0" result="hardAlpha"/>
<feOffset dy="4"/>
<feGaussianBlur stdDeviation="2"/>
<feComposite in2="hardAlpha" operator="out"/>
<feColorMatrix type="matrix" values="0 0 0 0 0 0 0 0 0 0 0 0 0 0 0 0 0 0 0.25 0"/>
<feBlend mode="normal" in2="BackgroundImageFix" result="effect1_dropShadow_608_144"/>
<feBlend mode="normal" in="SourceGraphic" in2="effect1_dropShadow_608_144" result="shape"/>
</filter>
</defs>
</svg>
