<svg width="17" height="9" viewBox="0 0 17 9" fill="none" xmlns="http://www.w3.org/2000/svg">
<path d="M8.57494 8.96296C8.37331 8.96436 8.17168 8.92919 7.9839 8.85886C7.79613 8.78854 7.62684 8.68585 7.48216 8.55504L1.32557 2.92878C1.18243 2.79797 1.06851 2.64186 0.991555 2.47026C0.913058 2.29866 0.873047 2.1158 0.873047 1.93013C0.873047 1.74447 0.913058 1.56161 0.991555 1.39001C1.06851 1.21841 1.18243 1.06229 1.32557 0.931483C1.46871 0.800673 1.63954 0.696562 1.82731 0.624827C2.01509 0.554499 2.21518 0.517944 2.41835 0.517944C2.62152 0.517944 2.82315 0.554499 3.00939 0.624827C3.19716 0.696562 3.36799 0.800673 3.51113 0.931483L8.57494 5.58721L13.6541 1.11434C13.7957 0.970874 13.9681 0.855497 14.1605 0.775322C14.3544 0.695148 14.5623 0.65155 14.7747 0.648737C14.9855 0.645924 15.1963 0.682488 15.3918 0.757036C15.5873 0.831584 15.7643 0.941322 15.9105 1.08198C16.0567 1.22123 16.1706 1.38721 16.243 1.56866C16.3168 1.75011 16.3476 1.9442 16.3353 2.1369C16.323 2.3296 16.2676 2.51946 16.1706 2.69106C16.0752 2.86407 15.9413 3.01598 15.7781 3.13976L9.62155 8.56912C9.33989 8.81668 8.96589 8.95733 8.57494 8.96296Z" fill="#041339"/>
</svg>
