<svg width="176" height="48" viewBox="0 0 176 48" fill="none" xmlns="http://www.w3.org/2000/svg">
<mask id="mask0_3052_11" style="mask-type:luminance" maskUnits="userSpaceOnUse" x="128" y="0" width="48" height="48">
<path d="M175.789 0.944214H128.905V47.0145H175.789V0.944214Z" fill="white"/>
</mask>
<g mask="url(#mask0_3052_11)">
<path d="M155.101 23.9789L163.501 15.7438C163.869 15.3829 164.075 14.8915 164.075 14.3809C164.075 13.8703 163.869 13.3789 163.501 13.018C163.133 12.6571 162.634 12.4536 162.114 12.4536C161.594 12.4536 161.095 12.6571 160.727 13.018L152.346 21.2722L143.966 13.018C143.598 12.6571 143.099 12.4536 142.579 12.4536C142.059 12.4536 141.56 12.6571 141.192 13.018C140.824 13.3789 140.618 13.8703 140.618 14.3809C140.618 14.8915 140.824 15.3829 141.192 15.7438L149.592 23.9789L141.192 32.2139C141.009 32.3925 140.864 32.6055 140.764 32.8378C140.665 33.072 140.614 33.3235 140.614 33.5768C140.614 33.8302 140.665 34.0817 140.764 34.3159C140.864 34.5482 141.009 34.7612 141.192 34.9397C141.374 35.1202 141.59 35.2622 141.828 35.3601C142.066 35.458 142.321 35.508 142.579 35.508C142.837 35.508 143.092 35.458 143.33 35.3601C143.569 35.2622 143.785 35.1202 143.966 34.9397L152.346 26.6855L160.727 34.9397C160.909 35.1202 161.125 35.2622 161.363 35.3601C161.601 35.458 161.856 35.508 162.114 35.508C162.372 35.508 162.627 35.458 162.865 35.3601C163.103 35.2622 163.319 35.1202 163.501 34.9397C163.684 34.7612 163.829 34.5482 163.928 34.3159C164.028 34.0817 164.079 33.8302 164.079 33.5768C164.079 33.3235 164.028 33.072 163.928 32.8378C163.829 32.6055 163.684 32.3925 163.501 32.2139L155.101 23.9789Z" fill="#F3F2FF"/>
</g>
<path d="M93.2493 41.2559H81.5284C79.9734 41.2559 78.483 40.6493 77.3851 39.5685C76.2853 38.4897 75.668 37.0251 75.668 35.4971V23.9795C75.668 22.4515 76.2853 20.9868 77.3851 19.908C78.483 18.8273 79.9734 18.2207 81.5284 18.2207H93.2493C94.8042 18.2207 96.2947 18.8273 97.3925 19.908C98.4923 20.9868 99.1097 22.4515 99.1097 23.9795V35.4971C99.1097 37.0251 98.4923 38.4897 97.3925 39.5685C96.2947 40.6493 94.8042 41.2559 93.2493 41.2559ZM81.5284 22.0599C81.0107 22.0599 80.5126 22.2615 80.1473 22.6223C79.7801 22.9813 79.5749 23.4708 79.5749 23.9795V35.4971C79.5749 36.0058 79.7801 36.4953 80.1473 36.8542C80.5126 37.2151 81.0107 37.4167 81.5284 37.4167H93.2493C93.7669 37.4167 94.265 37.2151 94.6303 36.8542C94.9976 36.4953 95.2027 36.0058 95.2027 35.4971V23.9795C95.2027 23.4708 94.9976 22.9813 94.6303 22.6223C94.265 22.2615 93.7669 22.0599 93.2493 22.0599H81.5284Z" fill="#F3F2FF"/>
<path d="M77.0951 29.7382H69.164C67.7829 29.7324 66.4584 29.1911 65.4817 28.2313C64.5049 27.2715 63.9541 25.97 63.9482 24.6128V11.8284C63.9541 10.4712 64.5049 9.16969 65.4817 8.20989C66.4584 7.25009 67.7829 6.70876 69.164 6.703H82.1742C83.5553 6.70876 84.8798 7.25009 85.8565 8.20989C86.8333 9.16969 87.3841 10.4712 87.39 11.8284V18.9884H83.483V11.8284C83.483 11.4867 83.3443 11.1603 83.1002 10.9185C82.854 10.6785 82.5219 10.5422 82.1742 10.5422H69.164C68.8163 10.5422 68.4842 10.6785 68.238 10.9185C67.9939 11.1603 67.8552 11.4867 67.8552 11.8284V24.6128C67.8552 24.9545 67.9939 25.2808 68.238 25.5227C68.4842 25.7626 68.8163 25.899 69.164 25.899H77.0951V29.7382Z" fill="#F3F2FF"/>
<path d="M1.43555 32.7651H20.6573" stroke="#F3F2FF" stroke-width="2" stroke-linecap="round"/>
</svg>
