<svg width="11" height="21" viewBox="0 0 11 21" fill="none" xmlns="http://www.w3.org/2000/svg">
<path d="M0.125226 10.4391C0.123448 10.1842 0.167897 9.92942 0.256775 9.69211C0.345655 9.45481 0.475425 9.24086 0.640741 9.05802L7.75109 1.27745C7.9164 1.09655 8.11369 0.952591 8.33056 0.855334C8.54743 0.756132 8.77852 0.705566 9.01316 0.705566C9.2478 0.705566 9.47889 0.756132 9.69576 0.855334C9.91262 0.952591 10.1099 1.09655 10.2752 1.27745C10.4405 1.45835 10.5721 1.67424 10.6628 1.91155C10.7517 2.14885 10.7979 2.40173 10.7979 2.65849C10.7979 2.91524 10.7517 3.17006 10.6628 3.40543C10.5721 3.64273 10.4405 3.85862 10.2752 4.03952L4.39142 10.4391L10.0441 16.858C10.2254 17.037 10.3713 17.2548 10.4726 17.498C10.5739 17.7431 10.629 18.0057 10.6326 18.2741C10.6361 18.5406 10.5899 18.807 10.4957 19.0541C10.4015 19.3011 10.2628 19.5248 10.085 19.7096C9.90906 19.8944 9.69929 20.0383 9.46998 20.1297C9.24067 20.2231 8.99538 20.262 8.75185 20.2464C8.50832 20.2309 8.26838 20.1609 8.05151 20.0383C7.83287 19.9177 7.64089 19.7485 7.48446 19.5423L0.622947 11.7617C0.310092 11.4058 0.132335 10.9331 0.125226 10.4391Z" fill="#041339"/>
</svg>
