<svg width="12" height="21" viewBox="0 0 12 21" fill="none" xmlns="http://www.w3.org/2000/svg">
<path d="M11.4422 10.5177C11.4439 10.7725 11.3995 11.0274 11.3106 11.2647C11.2217 11.502 11.092 11.7159 10.9266 11.8988L3.8163 19.6793C3.65098 19.8602 3.45369 20.0042 3.23682 20.1015C3.01996 20.2007 2.78887 20.2512 2.55422 20.2512C2.31958 20.2512 2.08849 20.2007 1.87163 20.1015C1.65476 20.0042 1.45747 19.8602 1.29215 19.6793C1.12684 19.4984 0.995265 19.2825 0.904608 19.0452C0.815728 18.8079 0.769531 18.5551 0.769531 18.2983C0.769531 18.0415 0.815728 17.7867 0.904608 17.5514C0.995265 17.3141 1.12684 17.0982 1.29215 16.9173L7.17596 10.5177L1.52325 4.09879C1.34193 3.91983 1.19612 3.70196 1.0948 3.45881C0.993477 3.21373 0.938378 2.9511 0.934823 2.68267C0.931268 2.41618 0.977478 2.14976 1.07169 1.90272C1.1659 1.65569 1.30459 1.43199 1.48234 1.2472C1.65833 1.06241 1.8681 0.918465 2.0974 0.827042C2.32671 0.733675 2.572 0.694776 2.81553 0.710339C3.05906 0.725899 3.29901 0.795914 3.51587 0.918459C3.73451 1.03906 3.92649 1.20829 4.08292 1.41448L10.9444 9.19505C11.2573 9.55101 11.435 10.0237 11.4422 10.5177Z" fill="#041339"/>
</svg>
