<svg width="41" height="41" viewBox="0 0 41 41" fill="none" xmlns="http://www.w3.org/2000/svg">
<g filter="url(#filter0_d_791_613)">
<rect x="4.0957" y="32.7651" width="32.5737" height="32.018" rx="8" transform="rotate(-90 4.0957 32.7651)" fill="#24BDDE"/>
</g>
<path d="M25.4422 16.5177C25.4439 16.7725 25.3995 17.0274 25.3106 17.2647C25.2217 17.502 25.092 17.7159 24.9266 17.8988L17.8163 25.6793C17.651 25.8602 17.4537 26.0042 17.2368 26.1015C17.02 26.2007 16.7889 26.2512 16.5542 26.2512C16.3196 26.2512 16.0885 26.2007 15.8716 26.1015C15.6548 26.0042 15.4575 25.8602 15.2922 25.6793C15.1268 25.4984 14.9953 25.2825 14.9046 25.0452C14.8157 24.8079 14.7695 24.5551 14.7695 24.2983C14.7695 24.0415 14.8157 23.7867 14.9046 23.5514C14.9953 23.3141 15.1268 23.0982 15.2922 22.9173L21.176 16.5177L15.5232 10.0988C15.3419 9.91983 15.1961 9.70196 15.0948 9.45881C14.9935 9.21373 14.9384 8.9511 14.9348 8.68267C14.9313 8.41618 14.9775 8.14976 15.0717 7.90272C15.1659 7.65569 15.3046 7.43199 15.4823 7.2472C15.6583 7.06241 15.8681 6.91846 16.0974 6.82704C16.3267 6.73367 16.572 6.69478 16.8155 6.71034C17.0591 6.7259 17.299 6.79591 17.5159 6.91846C17.7345 7.03906 17.9265 7.20829 18.0829 7.41448L24.9444 15.195C25.2573 15.551 25.435 16.0237 25.4422 16.5177Z" fill="#041339"/>
<defs>
<filter id="filter0_d_791_613" x="0.0957031" y="0.191406" width="40.0176" height="40.5737" filterUnits="userSpaceOnUse" color-interpolation-filters="sRGB">
<feFlood flood-opacity="0" result="BackgroundImageFix"/>
<feColorMatrix in="SourceAlpha" type="matrix" values="0 0 0 0 0 0 0 0 0 0 0 0 0 0 0 0 0 0 127 0" result="hardAlpha"/>
<feOffset dy="4"/>
<feGaussianBlur stdDeviation="2"/>
<feComposite in2="hardAlpha" operator="out"/>
<feColorMatrix type="matrix" values="0 0 0 0 0 0 0 0 0 0 0 0 0 0 0 0 0 0 0.25 0"/>
<feBlend mode="normal" in2="BackgroundImageFix" result="effect1_dropShadow_791_613"/>
<feBlend mode="normal" in="SourceGraphic" in2="effect1_dropShadow_791_613" result="shape"/>
</filter>
</defs>
</svg>
