<svg width="106" height="73" viewBox="0 0 106 73" fill="none"
    xmlns="http://www.w3.org/2000/svg">
    <g>
        <g fill="#10B2F9" stroke="#10B2F9" stroke-width="0.02" stroke-miterlimit="10">
            <path d="M10.8626 68.6926H8.62061v2.9122h2.24199v-2.9122Z"/>
            <path d="M2.49009 68.6926H.248047v2.9122H2.49009v-2.9122Z"/>
            <path d="M19.6657 70.2728c-.6867 0-1.2327-.1985-1.6216-.6039-.2564-.2648-.4302-.5874-.5212-.9763H15.314c.1241.9101.4798 1.6381 1.0838 2.1924.7528.6867 1.7042 1.0259 2.8459 1.0259.786 0 1.5968-.182 2.4158-.5378.8273-.3557 1.4975-.8025 2.027-1.3319l.2978 1.5636h1.8615v-2.9122h-2.3579c-1.0755 1.0507-2.3496 1.5802-3.8139 1.5802h-.0083Z"/>
            <path d="M39.9349 71.6048h2.8046l-2.515-2.9122h-2.6723l2.3827 2.9122Z"/>
            <path d="M33.1009 68.6926h-2.242v2.9122h2.242v-2.9122Z"/>
            <path d="M49.9372 70.2728c-.6867 0-1.2327-.1985-1.6216-.6039-.2565-.2648-.4302-.5874-.5212-.9763h-2.209c.1241.9101.4799 1.6381 1.0838 2.1924.7529.6867 1.7043 1.0259 2.846 1.0259.786 0 1.5968-.182 2.4158-.5378.8273-.3557 1.4975-.8025 2.0269-1.3319l.2979 1.5636h1.8614v-2.9122h-2.3578c-1.0755 1.0507-2.3496 1.5802-3.814 1.5802h-.0082Z"/>
            <path d="M64.4897 70.3222c.7694.8522 2.3165 1.2824 4.6412 1.2824h2.2669l.1241-1.7208h-2.4737c-.7032 0-1.2658-.0497-1.6712-.149-.4136-.0992-.7446-.2895-1.001-.5791-.1241-.1324-.2234-.2896-.3061-.455h-2.3331c.1655.7032.4137 1.2492.7529 1.6298v-.0083Z"/>
            <path d="M81.2097 70.1899c-1.2989 0-2.2007-.5047-2.7302-1.4892h-2.3413c.182.4054.4054.7859.6536 1.1334.4715.6453 1.0755 1.1583 1.8366 1.5306.7529.3723 1.6133.5543 2.5895.5543 1.8119 0 3.2514-.6536 4.3104-1.9608.3061-.3806.5708-.8025.786-1.2492h-2.3c-.6122.9927-1.5471 1.4891-2.7964 1.4891l-.0082-.0082Z"/>
            <path d="M93.4627 68.6926h-2.242v2.9122h2.242v-2.9122Z"/>
            <path d="M101.785 68.6926h-2.242v2.9122h2.242v-2.9122Z"/>
            <path d="M10.6146 66.8228H8.37256v1.8697h2.24204v-1.8697Z"/>
            <path d="M2.24205 66.8228H0v1.8697h2.24205v-1.8697Z"/>
            <path d="M23.3473 66.8228v1.7622s-.0745.0744-.1159.1075h2.3579v-1.8697h-2.242Z"/>
            <path d="M17.2002 68.0472c0-.4716.1324-.877.3806-1.2244h-2.3993c-.1158.3474-.1737.728-.1737 1.1499 0 .2482.0166.4882.0496.7198h2.209c-.0496-.1986-.0745-.4137-.0745-.6536l.0083.0083Z"/>
            <path d="M32.8529 66.8228h-2.2421v1.8697h2.2421v-1.8697Z"/>
            <path d="m35.7734 66.8228 1.5306 1.8697h2.6722l-1.6215-1.8697h-2.5813Z"/>
            <path d="M47.4717 68.0472c0-.4716.1324-.877.3806-1.2244H45.453c-.1158.3474-.1737.728-.1737 1.1499 0 .2482.0165.4882.0496.7198h2.209c-.0497-.1986-.0745-.4137-.0745-.6536l.0083.0083Z"/>
            <path d="M53.6105 66.8228v1.7622s-.0745.0744-.1159.1075h2.3579v-1.8697h-2.242Z"/>
            <path d="M65.4823 66.8228h-2.2255c.0166.2895.0331.5625.058.8025.033.3888.091.7445.1654 1.0672h2.3331c-.0993-.1986-.1655-.4137-.2151-.6619-.058-.3226-.0993-.728-.1159-1.2078Z"/>
            <path d="M84.4445 66.8228c-.0745.3474-.1655.6866-.2896 1.0258-.1158.3144-.2482.5957-.4054.8439h2.3c.273-.5708.4798-1.1913.6122-1.8697h-2.2255.0083Z"/>
            <path d="M78.1653 68.585c-.2482-.513-.4385-1.1004-.5626-1.7539H75.311c.1241.6784.3227 1.2989.5792 1.8697h2.3413s-.0414-.0745-.0662-.1158Z"/>
            <path d="M93.2142 66.8228h-2.242v1.8697h2.242v-1.8697Z"/>
            <path d="M101.537 66.8228h-2.2421v1.8697h2.2421v-1.8697Z"/>
            <g>
                <path d="M33.1009 55.447h-2.242v5.5596h2.242V55.447Z"/>
                <path d="m33.1009 52.3364-2.242.2399v2.482h2.242v-2.7219Z"/>
                <path d="m65.7225 52.7749-2.242.6701v1.6133h2.242v-2.2834Z"/>
                <path d="M65.7225 55.447h-2.2421v2.6475h-3.574l-.2482 1.7291h3.8222v1.183h2.2421v-1.183h5.6837v-1.7291h-5.6837V55.447Z"/>
                <path d="M85.6445 59.6582c-.3557-.4799-.7777-.8687-1.2575-1.1748H78.24c-.4881.2978-.9266.6867-1.2989 1.1582-.3309.4137-.604.8687-.8273 1.3651h2.333c.604-1.0589 1.5223-1.5884 2.7716-1.5884 1.1003 0 1.9276.3557 2.4902 1.0589.1323.1655.2482.3475.364.5295h2.3413c-.2068-.4881-.4633-.9348-.7611-1.3485h-.0083Z"/>
                <path d="M83.6088 58.0946c-.6702-.2647-1.423-.4054-2.2752-.4054-.8521 0-1.6215.1407-2.2999.4054h4.5751Z"/>
                <path d="M82.3596 58.0945h-4.5751c-.2813.1075-.5461.2399-.7943.3888h6.1471c-.24-.1572-.5047-.2813-.7777-.3888Z"/>
                <path d="M31.3719 55.0583h-2.242v.3889h2.242v-.3889Z"/>
                <path d="M63.993 55.0583h-2.242v.3889h2.242v-.3889Z"/>
                <g>
                    <path d="M8.43018 61.5281c.12409.5873.19029 1.3154.19029 2.2089v3.0859h2.24203v-3.3755c0-.7115-.0496-1.3485-.1406-1.9276H8.43018v.0083Z"/>
                    <path d="M.248047 61.5281v5.3031H2.49009v-4.4096c0-.3061.06619-.604.18202-.8935H.248047Z"/>
                    <path d="M6.71773 57.6892c-1.7622 0-3.16865.6784-4.21935 2.0435v-7.3963l-2.242032.2482v8.4304H2.96168c.14892-.2151.33093-.4302.5543-.637.67841-.637 1.47265-.9514 2.39097-.9514.91833 0 1.58845.2978 2.04348.9017.14064.1821.2482.4137.34748.695h2.32479c-.5047-2.2089-1.80358-3.3176-3.90497-3.3176v-.0165Z"/>
                    <path d="M23.5457 61.5281c.0331.2399.0496.4881.0496.7694v1.4312l-1.7952.2069c-1.2079.1489-2.1842.2978-2.937.4467-.7529.149-1.4561.4302-2.1262.8439-.6536.3888-1.0838.9183-1.3072 1.5967h2.3992c.273-.3723.695-.6701 1.2658-.8852.4964-.182 1.3816-.364 2.6557-.5378l1.8367-.2564v1.6877h2.242v-4.9639c0-.1159 0-.2234-.0165-.3392h-2.2834.0165Z"/>
                    <path d="M24.4803 58.7151c-.9017-.6784-2.1014-1.0259-3.5988-1.0259-1.4975 0-3.0942.2813-4.7902.8521l.5295 1.6464c.3806-.1654 1.0341-.3392 1.9607-.5212.9349-.182 1.7871-.273 2.5565-.273 1.2161 0 1.9773.5378 2.2916 1.605h2.3331c-.1489-.9928-.5791-1.7622-1.2906-2.2917l.0082.0083Z"/>
                    <path d="m35.343 61.5281-2.2421 2.0517v-2.0517h-2.242v5.2948h2.242v-1.0341l1.2079-1.059 1.7126 2.0931h2.5812l-2.7053-3.1272 2.333-2.1676H35.343Z"/>
                    <path d="m39.0827 58.0945-3.1769 2.9122H38.7931l3.1273-2.9122h-2.8377Z"/>
                    <path d="M54.7523 58.7151c-.9018-.6784-2.1014-1.0259-3.5988-1.0259-1.4975 0-3.0942.2813-4.7902.8521l.5295 1.6464c.3805-.1654 1.0341-.3392 1.9607-.5212.9349-.182 1.787-.273 2.5564-.273 1.2162 0 1.9773.5378 2.2917 1.605h2.3331c-.1489-.9928-.5792-1.7622-1.2906-2.2917l.0082.0083Z"/>
                    <path d="M53.8089 61.5281c.0331.2399.0496.4881.0496.7694v1.4312l-1.7953.2069c-1.2078.1489-2.1841.2978-2.937.4467-.7528.149-1.456.4302-2.1262.8439-.6535.3888-1.0838.9183-1.3071 1.5967h2.3992c.273-.3723.6949-.6701 1.2658-.8852.4964-.182 1.3816-.364 2.6557-.5378l1.8367-.2564v1.6877h2.242v-4.9639c0-.1159 0-.2234-.0165-.3392h-2.2835.0166Z"/>
                    <path d="M63.48 61.5281v4.0704c0 .455.0082.8604.0248 1.2327h2.2255c0-.2068-.0166-.4219-.0166-.6618v-4.6331h-2.242l.0083-.0082Z"/>
                    <path d="M84.8666 65.2674c0 .5295-.0579 1.0424-.1654 1.5553h2.2255c.1075-.5294.1654-1.092.182-1.6877h-2.2338v.1324h-.0083Z"/>
                    <path d="M86.6037 61.5281h-2.2834c.2151.4964.364 1.0589.4468 1.6794.0496.3889.0827.9018.091 1.5306h2.242c0-1.1996-.1737-2.2669-.4964-3.21Z"/>
                    <path d="M76.7669 64.7298h.877v-.2482c0-.9349.1489-1.8284.4467-2.6805.0331-.0993.0662-.1903.1076-.273h-2.2917c-.3392.9431-.5212 2.0104-.5212 3.21 0 .7446.0661 1.4478.182 2.0931h2.2917c-.0993-.5212-.1655-1.0838-.1986-1.6877h-.8852v-.4054l-.0083-.0083Z"/>
                    <path d="M93.8263 61.0068c.1572-.2813.3723-.5295.6371-.7529.6618-.5543 1.4809-.8356 2.4406-.8356.9597 0 1.6381.273 2.06.8108.1572.2151.2813.4716.3806.7777h2.2664c-.463-2.209-1.8031-3.3176-4.0038-3.3176-1.8946 0-3.2927.6205-4.1862 1.8698l-.1241-1.4644h-2.0601v2.9122h2.6061-.0166Z"/>
                    <path d="M101.785 63.009c0-.5378-.033-1.0259-.099-1.4809h-2.2339c.0662.4136.091 1.001.091 1.7539v1.4561h2.2419V63.009Z"/>
                    <path d="M101.785 65.1433h-2.242v1.6877h2.242v-1.6877Z"/>
                    <path d="M93.4622 65.1433h-2.242v1.6877h2.242v-1.6877Z"/>
                    <path d="M93.4622 62.4712c0-.3392.0497-.6536.1324-.9431h-2.3744v3.21h2.242v-2.2669Z"/>
                    <path d="M10.9288 61.0066H8.604c.05792.1572.09928.3309.14065.5212h2.29165c-.0331-.182-.0662-.3557-.0993-.5212h-.0082Z"/>
                    <path d="M.5625 61.0066v.5212h2.42405c.07445-.1737.16547-.3475.28129-.5212H.5625Z"/>
                    <path d="M26.0855 61.0066h-2.3331c.0497.1572.0828.3309.1076.5212h2.2834c-.0083-.182-.0248-.3557-.0496-.5212h-.0083Z"/>
                    <path d="M33.4154 61.5278v-.5212h-2.2421v.5212H33.4154Z"/>
                    <path d="M35.6489 61.5278h2.8957l.5543-.5212h-2.8791l-.5709.5212Z"/>
                    <path d="M56.6631 61.0066h-2.333c.0496.1572.0827.3309.1075.5212h2.2834c-.0082-.182-.0248-.3557-.0496-.5212h-.0083Z"/>
                    <path d="M64.1011 61.5278h2.242v-.5212h-2.242v.5212Z"/>
                    <path d="M87.8529 61.5278c-.0579-.182-.1324-.3475-.1986-.5212H85.313c.091.1655.182.3392.2565.5212h2.2834Z"/>
                    <path d="M79.4313 61.5278c.0745-.182.1572-.3557.2482-.5212h-2.333c-.0745.1655-.149.3392-.2152.5212H79.4313Z"/>
                    <path d="M101.942 61.5278h2.234c-.025-.182-.058-.3557-.091-.5212h-2.267c.025.0745.05.1489.067.2316.016.0828.041.1821.057.2896Z"/>
                    <path d="M93.7192 61.0066v.5212h2.3744c.0579-.182.1324-.3557.2234-.5212h-2.6061.0083Z"/>
                    <path d="M88.0433 64.7297h-2.242v.4054h2.2337V64.7297h.0083Z"/>
                    <path d="M77.7021 64.7297v.4054h.8853c0-.1323 0-.273-.0083-.4054h-.877Z"/>
                    <path d="M102.72 64.7297h-2.242v.4054h2.242v-.4054Z"/>
                    <path d="M94.3973 64.7297h-2.242v.4054h2.242v-.4054Z"/>
                </g>
            </g>
            <path d="M75.725 62.2312h-2.2172v1.2079h2.2172v-1.2079Z"/>
            <path d="M74.6161 64.4153h-.6039v1.4312h.6039v-1.4312Z"/>
            <path d="M75.7248 66.4009h-1.1086v.8604h1.1086v-.8604Z"/>
            <path d="M95.4892 64.1753h-1.7704v.968h1.7704v-.968Z"/>
            <path d="M90.9722 67.0212h-1.605v.1572h1.605v-.1572Z"/>
            <path d="M91.5099 64.1753h-.8522v.4798h.8522v-.4798Z"/>
            <path d="M91.2206 65.8467h-1.3485v.1406h1.3485v-.1406Z"/>
            <path d="M63.8111 62.6199h-3.3423v.2564h3.3423v-.2564Z"/>
            <path d="M76.1053 65.3916H71.522v.2482h4.5833v-.2482Z"/>
            <path d="M85.1317 66.4009h-2.2338v.2895h2.2338v-.2895Z"/>
            <path d="M101.049 63.2571h-3.9216v.182h3.9216v-.182Z"/>
        </g>
        <g fill="#fff" stroke="#fff" stroke-width="0.05" stroke-miterlimit="10" stroke-linecap="square">
            <path d="M55.1331 71.9437h1.8614v-.3971h-1.9359l.0745.3971Z"/>
            <path d="M56.9942 69.0317h-2.3578c-1.0756 1.0507-2.3496 1.5802-3.814 1.5802-.6867 0-1.2327-.1985-1.6215-.6039-.2565-.2648-.4302-.5874-.5213-.9763h-2.2089c.1241.9101.4798 1.6381 1.0838 2.1924.7529.6867 1.7043 1.0259 2.846 1.0259.7859 0 1.5967-.182 2.4158-.5377.8273-.3558 1.4974-.8025 2.0269-1.332l.1075.5625h2.0518v-1.9111h-.0083Z"/>
            <path d="m55.5713 70.9429.1075.6039h1.936v-.6039h-2.0435Z"/>
            <path d="M103.887 63.4639h-1.464v.3392h1.464v-.3392Z"/>
            <path d="M103.531 63.8113h-1.464v.3392h1.464v-.3392Z"/>
            <path d="M104.483 62.4956h-.224v.3475h.224v-.3475Z"/>
            <path d="M100.561 61.8672h-.7529v.5212h.7529v-.5212Z"/>
            <path d="M100.495 67.8237h-.6869v.273h.6869v-.273Z"/>
            <path d="M33.9945 55.7861h-2.2421v5.5596H33.9945v-5.5596Z"/>
            <path d="M33.9945 55.3974v-2.7302l-2.2421.2482v2.482h2.2421Z"/>
            <path d="M66.6078 55.3974V53.114l-2.2421.6619v1.6215h2.2421Z"/>
            <path d="M66.6078 55.7861h-2.2421v2.6475H60.8l-.2482 1.7208h3.8139v1.1913H66.6078v-1.1913h5.6919v-1.7208h-5.6919v-2.6475Z"/>
            <path d="M86.5298 59.9973c-.3558-.4798-.7777-.8687-1.2576-1.1748h-6.147c-.4881.2978-.9266.6867-1.2989 1.1583-.3309.4136-.6039.8686-.8273 1.365h2.3331c.6039-1.0589 1.5223-1.5884 2.7715-1.5884 1.1003 0 1.9276.3557 2.4902 1.059.1324.1654.2482.3474.3641.5294h2.3413c-.2068-.4881-.4633-.9348-.7612-1.3485h-.0082Z"/>
            <path d="M84.5023 58.4337c-.6701-.2647-1.423-.4054-2.2751-.4054-.8521 0-1.6216.1407-2.3.4054h4.5751Z"/>
            <path d="M83.2536 58.4336h-4.5751c-.2813.1075-.546.2399-.7942.3888h6.147c-.24-.1572-.5047-.2813-.7777-.3888Z"/>
            <path d="M32.8861 55.3975H30.644v.3888h2.2421v-.3888Z"/>
            <path d="M64.8871 55.3975H62.645v.3888h2.2421v-.3888Z"/>
            <path d="M9.32373 61.8672c.1241.5874.19028 1.3154.19028 2.2089v3.0859h2.24209v-3.3755c0-.7114-.0497-1.3485-.1407-1.9276H9.32373v.0083Z"/>
            <path d="M1.1416 61.8672v5.3031h2.24205v-4.4096c0-.3061.06619-.6039.18201-.8935H1.1416Z"/>
            <path d="M7.60298 58.0283c-1.76219 0-3.16863.6784-4.21933 2.0435v-7.3963l-2.24205.2482v8.4304h2.70535c.14891-.2151.33092-.4302.5543-.637.6784-.637 1.47263-.9514 2.39096-.9514.91833 0 1.58846.2978 2.04348.9018.14065.182.2482.4136.34748.6949h2.32473c-.5046-2.2089-1.80352-3.3175-3.90492-3.3175v-.0166Z"/>
            <path d="M24.431 61.8672c.0331.2399.0496.4881.0496.7694v1.4313l-1.7953.2068c-1.2079.1489-2.1841.2978-2.937.4468-.7528.1489-1.4561.4302-2.1262.8438-.6536.3889-1.0838.9183-1.3072 1.5967h2.3993c.273-.3722.6949-.6701 1.2658-.8852.4964-.182 1.3816-.364 2.6557-.5377l1.8366-.2565v1.6877h2.2421v-4.9639c0-.1158 0-.2234-.0166-.3392h-2.2834.0166Z"/>
            <path d="M25.3744 59.0459c-.9018-.6784-2.1014-1.0259-3.5989-1.0259-1.4974 0-3.0941.2813-4.7901.8522l.5294 1.6463c.3806-.1654 1.0342-.3392 1.9608-.5212.9349-.182 1.787-.273 2.5564-.273 1.2162 0 1.9773.5378 2.2917 1.605h2.333c-.1489-.9928-.5791-1.7622-1.2906-2.2917l.0083.0083Z"/>
            <path d="M36.9153 67.1619h2.5813l-1.4644-1.6878h-2.4985l1.3816 1.6878Z"/>
            <path d="m39.9762 58.4336-3.1769 2.9122h2.8791l3.1273-2.9122h-2.8295Z"/>
            <path d="M55.6371 59.0459c-.9018-.6784-2.1014-1.0259-3.5989-1.0259-1.4974 0-3.0941.2813-4.7902.8522l.5295 1.6463c.3806-.1654 1.0342-.3392 1.9608-.5212.9349-.182 1.787-.273 2.5564-.273 1.2162 0 1.9773.5378 2.2917 1.605h2.333c-.1489-.9928-.5791-1.7622-1.2906-2.2917l.0083.0083Z"/>
            <path d="M54.7026 61.8672c.0248.1655.0331.3392.0414.5212h2.2503v-.182c0-.1158 0-.2234-.0165-.3392h-2.2835.0083Z"/>
            <path d="M66.6078 62.8848h-2.2421v3.0445c0 .455.0083.8604.0248 1.2327h2.2255c0-.2068-.0165-.4219-.0165-.6618V62.893l.0083-.0082Z"/>
            <path d="M64.3657 61.8672v.5129h2.2421v-.5129H64.3657Z"/>
            <path d="M85.7602 65.4741v.1324c0 .5295-.0579 1.0424-.1655 1.5554h2.2255c.1075-.5295.1655-1.0921.182-1.6878h-2.242Z"/>
            <path d="M87.4973 61.8672h-2.2834c.2151.4964.364 1.059.4467 1.6794.0497.3889.0827.9018.091 1.5306h2.2421c0-1.1996-.1738-2.2669-.4964-3.21Z"/>
            <path d="M77.6609 65.4743v-.4054h.877v-.2482c0-.6701.0745-1.3072.2316-1.9359h-2.2586c-.1489.6701-.2316 1.3981-.2316 2.1841 0 .7859.0662 1.4478.182 2.0931h2.2917c-.0993-.5212-.1655-1.0838-.1986-1.6877h-.8935Z"/>
            <path d="M76.7837 61.8672c-.058.1655-.1076.3475-.1572.5212h2.2751c.0248-.0827.0414-.1655.0745-.2399.0331-.0993.0661-.1903.1075-.273h-2.2917l-.0082-.0083Z"/>
            <path d="M98.4763 58.0283c-1.8945 0-3.2927.6205-4.1862 1.8698l-.1241-1.4644h-2.06v2.9122h2.606c.1572-.2813.3723-.5295.637-.7529.6619-.5543 1.481-.8356 2.4407-.8356.9596 0 1.638.273 2.06.8108.1573.2151.2813.4716.3803.7777h2.267c-.463-2.209-1.803-3.3176-4.0041-3.3176h-.0166Z"/>
            <path d="M102.679 63.3481c0-.5378-.033-1.0259-.1-1.4809h-2.233c.066.4136.091 1.001.091 1.7539v1.4561h2.242v-1.7291Z"/>
            <path d="M100.437 65.4741v1.6878h2.242v-1.6878h-2.242Z"/>
            <path d="M92.1138 65.4741v1.6878h2.242v-1.6878h-2.242Z"/>
            <path d="M94.3558 62.802c0-.3392.0497-.6536.1324-.9431h-2.3744v3.21h2.242V62.802Z"/>
            <path d="M11.8223 61.3457H9.49756c.05791.1572.09928.3309.14064.5212h2.2917c-.0331-.182-.0662-.3557-.0993-.5212h-.0083Z"/>
            <path d="M1.44775 61.3457v.5212h2.42406c.07446-.1737.16546-.3475.28129-.5212H1.44775Z"/>
            <path d="M26.9707 61.3457h-2.333c.0496.1572.0827.3309.1075.5212h2.2835c-.0083-.182-.0249-.3557-.0497-.5212h-.0083Z"/>
            <path d="M34.3006 61.8669v-.5212h-2.242v.5212h2.242Z"/>
            <path d="M36.543 61.8669H39.4303l.5626-.5212h-2.8791l-.5708.5212Z"/>
            <path d="M64.9946 61.8669H67.2367v-.5212H64.9946v.5212Z"/>
            <path d="M88.7469 61.8669c-.0579-.182-.1324-.3475-.1986-.5212H86.207c.091.1655.182.3392.2565.5212h2.2834Z"/>
            <path d="M78.2483 61.3457c-.0744.1655-.1489.3392-.2151.5212h2.2917c.0744-.182.1572-.3557.2482-.5212H78.24h.0083Z"/>
            <path d="M102.836 61.8669h2.234c-.025-.182-.058-.3557-.091-.5212h-2.267c.025.0745.05.1489.066.2317.017.0827.041.182.058.2895Z"/>
            <path d="M94.604 61.3457v.5212h2.3744c.0579-.182.1324-.3557.2234-.5212h-2.6061.0083Z"/>
            <path d="M87.9942 65.0688H86.687v.4054h2.2338V65.0688h-.9349.0083Z"/>
            <path d="M78.5957 65.0688v.4054h.8852c0-.1323 0-.273-.0082-.4054h-.877Z"/>
            <path d="M101.372 65.0688v.4054h2.242v-.4054h-2.242Z"/>
            <path d="M92.7759 65.0688v.4054h2.242v-.4054h-2.242Z"/>
            <path d="M73.772 62.8845h2.2585c.0414-.1737.0911-.3392.1407-.5046h-2.2751c-.0497.1654-.091.3309-.1241.5046Z"/>
            <path d="m54.7521 64.0596-1.7953.2068c-1.2079.1489-2.1841.2978-2.937.4467-.7529.149-1.4561.4302-2.1262.8439-.6536.3889-1.0838.9183-1.3072 1.5967h2.3993c.273-.3723.6949-.6701 1.2658-.8852.4963-.182 1.3816-.364 2.6557-.5378l1.8366-.2564v1.6877h2.242v-4.2772h-2.242v1.1748h.0083Z"/>
            <path d="M57.5489 61.3457h-2.3331c.0497.1572.0828.3309.1076.5212h2.2834c-.0083-.182-.0248-.3557-.0497-.5212h-.0082Z"/>
            <path d="M54.2969 62.3799c.0165.0827.0496.1654.0496.2482v.2564h2.0766v-.5046h-2.1262Z"/>
            <path d="M63.8939 62.3799h-2.242v.5046h2.242v-.5046Z"/>
            <g>
                <path d="m36.2283 61.8672-2.2338 2.0435v-2.0435H31.7524v5.2948h2.2421v-1.0341l1.1169-.9845v-.0745h2.5729l-.9017-1.0341 2.3413-2.1676h-2.8956Z"/>
                <path d="M36.2445 65.4742h2.5068l-.3558-.4054h-2.4819l.3309.4054Z"/>
            </g>
            <path d="M35.1113 65.0688v.0745l.0828-.0745h-.0828Z"/>
            <path d="M11.7562 69.0317H9.51416v2.9122h2.24204v-2.9122Z"/>
            <path d="M3.38365 69.0317H1.1416v2.9122h2.24205v-2.9122Z"/>
            <path d="M20.5592 70.6119c-.6867 0-1.2327-.1985-1.6215-.6039-.2565-.2648-.4302-.5874-.5212-.9763h-2.209c.1241.9101.4799 1.6381 1.0838 2.1924.7529.6867 1.7043 1.0259 2.846 1.0259.786 0 1.5967-.182 2.4158-.5377.8273-.3558 1.4974-.8025 2.0269-1.332l.2978 1.5636h1.8615v-2.9122h-2.3579c-1.0755 1.0507-2.3495 1.5802-3.8139 1.5802h-.0083Z"/>
            <path d="M40.8285 71.9439h2.8046l-2.515-2.9122h-2.6723l2.3827 2.9122Z"/>
            <path d="M33.9945 69.0317h-2.2421v2.9122h2.2421v-2.9122Z"/>
            <path d="M65.3749 70.6616c.7694.8521 2.3165 1.2823 4.6413 1.2823h2.2669l.1241-1.7208h-2.4737c-.7033 0-1.2658-.0496-1.6712-.1489-.4137-.0993-.7446-.2896-1.0011-.5791-.1241-.1324-.2233-.2896-.3061-.4551h-2.333c.1654.7033.4136 1.2493.7528 1.6299v-.0083Z"/>
            <path d="M82.1032 70.5292c-1.2989 0-2.2007-.5046-2.7302-1.4892h-2.3413c.182.4054.4054.786.6536 1.1335.4716.6453 1.0755 1.1582 1.8367 1.5305.7528.3723 1.6132.5543 2.5895.5543 1.8118 0 3.2514-.6536 4.3103-1.9607.3062-.3806.5709-.8025.786-1.2493h-2.3c-.6122.9928-1.5471 1.4892-2.7963 1.4892l-.0083-.0083Z"/>
            <path d="M11.5081 67.1619H9.26611v1.8697h2.24199v-1.8697Z"/>
            <path d="M3.1356 67.1619H.893555v1.8697H3.1356v-1.8697Z"/>
            <path d="M24.232 67.1619v1.7622s-.0744.0744-.1158.1075h2.3579v-1.8697H24.232Z"/>
            <path d="M18.0938 68.3863c0-.4716.1323-.877.3805-1.2244h-2.3992c-.1158.3474-.1737.728-.1737 1.1499 0 .2482.0165.4882.0496.7198h2.209c-.0497-.1985-.0745-.4136-.0745-.6536l.0083.0083Z"/>
            <path d="M33.7464 67.1619h-2.242v1.8697h2.242v-1.8697Z"/>
            <path d="m36.6587 67.1619 1.5305 1.8697h2.6723l-1.6133-1.8697h-2.5895Z"/>
            <path d="M48.357 68.3863c0-.4716.1323-.877.3805-1.2244h-2.3992c-.1158.3474-.1737.728-.1737 1.1499 0 .2482.0165.4882.0496.7198h2.2089c-.0496-.1985-.0744-.4136-.0744-.6536l.0083.0083Z"/>
            <path d="M54.504 67.1619v1.7622s.1324.1075-.1158.1075h2.3579v-1.8697H54.504Z"/>
            <path d="M66.3759 67.1619h-2.2255c.0165.2895.0331.5625.0579.8025.0331.3888.091.7446.1655 1.0672h2.333c-.0993-.1985-.1654-.4136-.2151-.6618-.0579-.3227-.0993-.7281-.1158-1.2079Z"/>
            <path d="M85.338 67.1619c-.0744.3474-.1654.6866-.2895 1.0258-.1159.3144-.2482.5957-.4054.8439h2.2999c.273-.5708.4799-1.1913.6123-1.8697h-2.2255.0082Z"/>
            <path d="M79.0506 68.9158c-.2482-.513-.4385-1.1004-.5626-1.7539h-2.2917c.1241.6784.3227 1.2989.5791 1.8697h2.3413s-.0413-.0744-.0661-.1158Z"/>
            <path d="M94.1 67.1619h-2.2421v1.8697H94.1v-1.8697Z"/>
            <path d="M102.431 67.1619h-2.243v1.8697h2.243v-1.8697Z"/>
            <path d="M94.3558 69.0317h-2.242v1.1914h2.242v-1.1914Z"/>
            <path d="M102.679 69.0317h-2.242v1.1914h2.242v-1.1914Z"/>
            <path d="M102.679 70.4878h-2.242v1.4561h2.242v-1.4561Z"/>
            <path d="M91.8578 70.2312h-2.2421v.2565h2.2421v-.2565Z"/>
            <path d="M100.18 70.2312h-2.242v.2565h2.242v-.2565Z"/>
            <path d="M94.3558 70.4878h-2.242v1.4561h2.242v-1.4561Z"/>
        </g>
        <path d="M103.085 9.72915c-1.018-1.03415-8.9685 0-8.9685 0s.1489 13.41085-.2731 20.33555L81.6487 9.57196s-4.36.38057-7.0819 2.78804c-.6618.5792-.4384 1.2658-.6949 1.8367 2.0352 4.087 3.2017 8.8027 3.2017 13.8245 0 5.3694-1.332 10.3829-3.6402 14.6684l-.637 4.9309h9.63l.0745-18.3252s9.6134 17.109 10.6724 17.8536c.4054.2813 9.9117.5791 10.3337.1324.512-.5543.752-36.3443-.431-37.54387l.009-.00828Z" fill="#fff"/>
        <path d="M47.861 2.77173c-13.4192 0-24.2902 10.87927-24.2902 24.29017S34.4501 51.352 47.861 51.352c13.4108 0 24.2901-10.8792 24.2901-24.2901 0-13.4109-10.8793-24.29017-24.2901-24.29017Zm0 46.44587c-12.2361 0-22.1557-9.9196-22.1557-22.1557 0-12.2361 9.9196-22.15568 22.1557-22.15568 12.236 0 22.1556 9.91958 22.1556 22.15568S60.097 49.2176 47.861 49.2176Z" fill="url(#a)"/>
        <path d="M30.1975 34.5737c-1.9028-4.5255-2.0848-9.7707-.091-14.6767 1.8615-4.5668 5.2866-8.0333 9.3984-10.02713" stroke="url(#b)" stroke-width="0.47" stroke-miterlimit="10" stroke-linecap="round"/>
        <path d="M55.0915 9.36523C64.8953 13.3612 69.611 24.5466 65.6233 34.3503c-4.3931 10.7883-16.1907 14.1059-24.9851 10.5318" stroke="url(#c)" stroke-width="0.47" stroke-miterlimit="10" stroke-linecap="round"/>
        <path d="M65.3997 8.86067c2.2834-1.95248 4.6909-3.76431 7.2556-5.34449.3226-.19029.6536-.38057.9928-.55431.1737-.08273.3392-.16546.5294-.23165.0911-.03309.1903-.06619.3062-.07446h.0992c.0414.01655.0993.04137.1159.07446.0496.06619.0661.13237.0661.19028-.0248.45503-.2316.76941-.4053 1.10862-.1821.33092-.3806.65358-.5874.96796-.8274 1.2658-1.7291 2.46542-2.6392 3.65676-1.8201 2.39096-3.7229 4.71576-5.6589 7.02396-1.9773 2.2669-3.9297 4.5503-5.9732 6.7509l-.0331-.0248c1.878-2.3496 3.8222-4.633 5.7085-6.9743 1.9194-2.3082 3.8388-4.6165 5.7085-6.95777.9266-1.18307 1.8449-2.36614 2.6805-3.60712.2069-.30611.4054-.62876.5957-.95142.1737-.31438.3723-.67013.3889-.97624 0-.04136-.0001-.05791-.0166-.06618h-.0414c-.0744 0-.1572.02482-.2399.05791-.1737.05791-.3392.13237-.5047.2151-.3309.16547-.6618.34748-.9845.52949-2.5812 1.52227-5.0135 3.30101-7.33 5.20385l-.0249-.03309-.0082.01654Z" fill="url(#d)"/>
        <path d="M47.8851 16.8938c.091 2.2751-.1903 4.5502-.6536 6.7757-.4633 2.2255-1.1417 4.4262-2.1841 6.4531-2.0518 4.0953-5.2204 7.4873-8.4718 10.6311-1.6298 1.5719-3.21 3.2348-5.0797 4.5668-1.845 1.3568-3.8885 2.4324-6.0147 3.2597-1.0755.3888-2.1427.8108-3.3423.8604-.149 0-.3062-.0083-.4716-.0662-.0828-.0248-.1655-.0662-.2399-.1241-.0414-.0248-.0662-.0744-.0993-.1075-.0414-.0579-.0579-.1572-.0497-.1986.0579-.3557.2151-.5791.3475-.8439.2813-.5046.5957-.9845.9101-1.4561 1.2906-1.878 2.7219-3.6567 4.3434-5.2534l.0248.0248c-1.5388 1.6712-2.9039 3.483-4.1614 5.3693-.3061.4716-.6122.9514-.8687 1.4478-.1241.2399-.2647.5212-.2978.7198.0165.0165.0248.0331.0496.0496.0331.0248.0828.0497.1407.0662.1075.0331.2399.0414.3723.0414 1.0837-.0662 2.1593-.5047 3.2017-.9018 2.1014-.8191 4.1118-1.878 5.9319-3.21 1.8532-1.2906 3.4416-2.9205 5.088-4.4841 3.2762-3.1107 6.4448-6.4531 8.5131-10.4987 1.059-2.0021 1.7457-4.178 2.2421-6.3869.4881-2.209.7942-4.4758.728-6.7427h.0414v.0083Z" fill="url(#e)"/>
        <path d="M56.1916 20.4928 47.8604 0l-8.3228 20.4928 8.2732-6.0809 8.3808 6.0809Z" fill="#fff"/>
        <path d="M10.5317 28.6252v-6.1304c.637-.3889 2.606-1.0424 3.7725-1.3568.7115-.1903 1.5968-.3971 2.6227-.455h2.5233c1.1003-4.2938 3.1769-7.7934 5.9898-11.05306-.0331-.13237-.0662-.22338-.1076-.23992-1.8449-.61222-9.3404 0-9.3404 0-1.5968.04964-5.8492.38884-9.97752 3.43338C2.49009 15.4212.248047 20.1535.248047 20.1535v27.5994H10.5399V34.6564h8.8027c-.4715-1.9938-.728-4.0621-.7528-6.1884-2.7881.0166-8.0499.1572-8.0499.1572h-.0082Z" fill="#fff"/>
    </g>
    <defs>
        <linearGradient id="a" x1="23.5708" y1="27.0619" x2="72.1594" y2="27.0619" gradientUnits="userSpaceOnUse">
            <stop stop-color="#0093F9"/>
            <stop offset="0.09" stop-color="#0896F9"/>
            <stop offset="0.23" stop-color="#1E9FF9" stop-opacity="0.99"/>
            <stop offset="0.39" stop-color="#43AFFA" stop-opacity="0.97"/>
            <stop offset="0.58" stop-color="#76C5FB" stop-opacity="0.95"/>
            <stop offset="0.78" stop-color="#B7E0FD" stop-opacity="0.93"/>
            <stop offset="0.98" stop-color="#fff" stop-opacity="0.9"/>
        </linearGradient>
        <linearGradient id="b" x1="34.0942" y1="34.764" x2="34.0942" y2="9.67959" gradientUnits="userSpaceOnUse">
            <stop stop-color="#10B2F9" stop-opacity="0.8"/>
            <stop offset="0.06" stop-color="#1FB7F9" stop-opacity="0.8"/>
            <stop offset="0.16" stop-color="#49C4FA" stop-opacity="0.8"/>
            <stop offset="0.3" stop-color="#8CDAFC" stop-opacity="0.8"/>
            <stop offset="0.47" stop-color="#E9F7FE" stop-opacity="0.8"/>
            <stop offset="0.5" stop-color="#fff" stop-opacity="0.8"/>
            <stop offset="0.52" stop-color="#F2FAFE" stop-opacity="0.8"/>
            <stop offset="0.65" stop-color="#A2E1FC" stop-opacity="0.8"/>
            <stop offset="0.76" stop-color="#63CCFB" stop-opacity="0.8"/>
            <stop offset="0.86" stop-color="#35BEF9" stop-opacity="0.8"/>
            <stop offset="0.94" stop-color="#1AB5F9" stop-opacity="0.8"/>
            <stop offset="0.99" stop-color="#10B2F9" stop-opacity="0.8"/>
        </linearGradient>
        <linearGradient id="c" x1="47.6975" y1="27.0503" x2="65.812" y2="34.4242" gradientUnits="userSpaceOnUse">
            <stop stop-color="#0093F9" stop-opacity="0.8"/>
            <stop offset="0.52" stop-color="#fff" stop-opacity="0.8"/>
            <stop offset="0.97" stop-color="#0094F9" stop-opacity="0.8"/>
        </linearGradient>
        <linearGradient id="d" x1="56.9775" y1="18.2342" x2="77.0484" y2="6.64346" gradientUnits="userSpaceOnUse">
            <stop stop-color="#fff"/>
            <stop offset="0.22" stop-color="#fff"/>
            <stop offset="0.38" stop-color="#C2E5FD" stop-opacity="0.98"/>
            <stop offset="0.75" stop-color="#2CA6FA" stop-opacity="0.94"/>
            <stop offset="0.85" stop-color="#0094F9" stop-opacity="0.93"/>
            <stop offset="0.87" stop-color="#0094F9" stop-opacity="0.94"/>
            <stop offset="1" stop-color="#0094F9"/>
        </linearGradient>
        <linearGradient id="e" x1="21.2453" y1="33.1672" x2="48.0671" y2="33.1672" gradientUnits="userSpaceOnUse">
            <stop stop-color="#0094F9"/>
            <stop offset="0.07" stop-color="#059DF9"/>
            <stop offset="0.22" stop-color="#0DABFA"/>
            <stop offset="0.35" stop-color="#10B0FB"/>
            <stop offset="0.39" stop-color="#15B1FB"/>
            <stop offset="0.44" stop-color="#24B6FB"/>
            <stop offset="0.49" stop-color="#3EBFFB"/>
            <stop offset="0.55" stop-color="#62CBFC"/>
            <stop offset="0.61" stop-color="#8FDAFD"/>
            <stop offset="0.67" stop-color="#C6ECFE"/>
            <stop offset="0.72" stop-color="#fff"/>
        </linearGradient>
    </defs>
</svg>