<svg width="25" height="25" viewBox="0 0 25 25" fill="none" xmlns="http://www.w3.org/2000/svg">
<path d="M14.8297 18.5128L12.8361 17.4683C12.4906 17.2868 12.0741 17.2868 11.7286 17.4683L9.735 18.5173C8.86226 18.9776 7.84331 18.234 8.00723 17.2647L8.38824 15.0473C8.45469 14.6623 8.32621 14.2684 8.04711 13.994L6.43452 12.4228C5.73012 11.7367 6.11997 10.5373 7.09461 10.3957L9.323 10.0726C9.70843 10.0151 10.0451 9.77163 10.2179 9.42198L11.2147 7.40376C11.6489 6.51857 12.9114 6.51857 13.3456 7.40376L14.3424 9.42198C14.5152 9.77163 14.8518 10.0151 15.2373 10.0726L17.4657 10.3957C18.4403 10.5373 18.8301 11.7367 18.1258 12.4228L16.5132 13.994C16.2341 14.2684 16.1056 14.6623 16.172 15.0473L16.553 17.2647C16.7258 18.2296 15.7024 18.9687 14.8297 18.5128Z" fill="white"/>
<path d="M16.6644 22.6909L13.2398 20.894C12.6462 20.5797 11.9329 20.5797 11.3348 20.894L7.91033 22.6953C6.4085 23.4831 4.65858 22.2129 4.94211 20.5443L5.59777 16.7336C5.71295 16.0697 5.49146 15.397 5.00857 14.9278L2.23528 12.228C1.02141 11.0463 1.69037 8.98824 3.3694 8.74482L7.20149 8.18715C7.86601 8.08978 8.44195 7.67374 8.73877 7.06739L10.4532 3.59746C11.2019 2.07937 13.3683 2.07937 14.1214 3.59746L15.8359 7.06296C16.1327 7.66489 16.7087 8.08535 17.3776 8.1783L21.2097 8.73153C22.8888 8.97496 23.5577 11.033 22.3438 12.2147L19.5705 14.9146C19.0877 15.3837 18.8706 16.0609 18.9813 16.7248L19.637 20.5355C19.9161 22.2085 18.1662 23.4787 16.6644 22.6909Z" stroke="white" stroke-width="3" stroke-miterlimit="10"/>
</svg>
