<svg width="2500" height="800" viewBox="0 0 2500 800" fill="none" xmlns="http://www.w3.org/2000/svg">
<path fill-rule="evenodd" clip-rule="evenodd" d="M226 725C272 727 291.517 766.207 286.134 800H317.346C326.033 795.451 334.157 789.764 341.487 783.027C411.92 721.587 374.241 598.065 281.543 586.291C276.792 557.752 266.853 534.816 253.497 517.018C259.494 504.437 263.121 489.389 262.997 471.4C262.792 441.68 248.575 413.31 226.078 392.999L255.182 392.999C283.8 392.999 307 369.717 307 340.999C307 312.281 282.889 289.008 254.271 289.008C253.115 280.892 250.891 273.121 247.748 265.843C257.169 256.427 263 243.397 263 228.999C263 200.281 238.889 177.008 210.271 177.008C205.696 144.892 184.408 118.185 155.532 106.039C158.035 99.226 159.3 91.9522 158.94 84.4003C157.581 55.8469 128.387 21.7427 85.2183 23.6219C82.7246 14.7058 78.6458 6.67192 73.1072 0.000297546H54.7556C63.8538 12.0163 70.0435 26.3709 72.271 42.0075C104 42.0075 125 65.2813 125 93.9994C125 122.717 104 145.999 69.3411 145.999C74.8491 155.694 78.6323 166.504 80.271 178.008C110 178.008 133 201.281 133 229.999C133 232.754 132.787 235.458 132.375 238.096C161 238.096 182.078 257.001 185.583 281.719C185.753 281.716 185.92 281.714 186.091 281.714C202.057 281.714 215 294.762 215 310.857C215 326.952 202.057 340 186.091 340L146.659 340C148.146 346.671 148.949 353.499 148.997 360.4C149.338 409.995 121.169 437.24 93.4368 452.038C107.025 455.852 116.966 464.5 116.966 484.931C124.08 487.217 129.448 493.48 130.529 501.145L130.597 501.144L130.727 501.143C136.953 501.143 142 506.26 142 512.571C142 518.883 136.953 524 130.727 524L108.639 524C115.661 539.361 118.938 557.28 116.954 577.358C185.458 571.817 259.626 631.072 226 725ZM195 447.572C195 441.26 189.953 436.143 183.727 436.143C183.661 436.143 183.596 436.144 183.529 436.145C182.162 426.452 173.939 419 164 419C156.119 419 149.318 423.686 146.158 430.46C138.811 430.947 133 437.142 133 444.714C133 452.604 139.309 459 147.091 459L183.727 459C189.953 459 195 453.883 195 447.572Z" fill="black" fill-opacity="0.5"/>
<path fill-rule="evenodd" clip-rule="evenodd" d="M2213.87 800C2208.48 766.206 2228 727 2274 725C2240.37 631.072 2314.54 571.817 2383.05 577.358C2381.06 557.28 2384.34 539.361 2391.36 524L2369.27 524C2363.05 524 2358 518.883 2358 512.571C2358 506.26 2363.05 501.143 2369.27 501.143L2369.4 501.144L2369.47 501.145C2370.55 493.48 2375.92 487.216 2383.03 484.931C2383.03 464.5 2392.97 455.852 2406.56 452.038C2378.83 437.24 2350.66 409.994 2351 360.4C2351.05 353.499 2351.85 346.671 2353.34 340L2313.91 339.999C2297.94 339.999 2285 326.952 2285 310.857C2285 294.762 2297.94 281.714 2313.91 281.714C2314.08 281.714 2314.25 281.716 2314.42 281.719C2317.92 257.001 2339 238.096 2367.62 238.096C2367.21 235.457 2367 232.753 2367 229.999C2367 201.281 2390 178.007 2419.73 178.007C2421.37 166.504 2425.15 155.694 2430.66 145.999C2396 145.999 2375 122.717 2375 93.9992C2375 65.2811 2396 42.0074 2427.73 42.0074C2429.96 26.3707 2436.15 12.0162 2445.24 0.000148773H2426.89C2421.35 6.67177 2417.28 14.7057 2414.78 23.6217C2371.61 21.7425 2342.42 55.8467 2341.06 84.4001C2340.7 91.952 2341.97 99.2259 2344.47 106.039C2315.59 118.185 2294.3 144.892 2289.73 177.007C2261.11 177.007 2237 200.281 2237 228.999C2237 243.396 2242.83 256.427 2252.25 265.843C2249.11 273.121 2246.89 280.891 2245.73 289.007C2217.11 289.007 2193 312.281 2193 340.999C2193 369.717 2216.2 392.999 2244.82 392.999L2273.92 392.999C2251.43 413.31 2237.21 441.68 2237 471.4C2236.88 489.389 2240.51 504.437 2246.5 517.017C2233.15 534.816 2223.21 557.752 2218.46 586.291C2125.76 598.065 2088.08 721.587 2158.51 783.026C2165.84 789.764 2173.97 795.451 2182.65 800H2213.87ZM2305 447.571C2305 441.26 2310.05 436.143 2316.27 436.143C2316.34 436.143 2316.4 436.143 2316.47 436.145C2317.84 426.452 2326.06 419 2336 419C2343.88 419 2350.68 423.686 2353.84 430.46C2361.19 430.947 2367 437.142 2367 444.714C2367 452.604 2360.69 459 2352.91 459L2316.27 459C2310.05 459 2305 453.883 2305 447.571Z" fill="black" fill-opacity="0.5"/>
<path d="M2344.47 106.039C2341.97 99.2259 2340.7 91.952 2341.06 84.4001C2342.42 55.8467 2371.61 21.7425 2414.78 23.6217C2417.28 14.7057 2421.35 6.67177 2426.89 0.000148773L2167.94 0C2166.51 3.52681 2165.49 7.26191 2164.94 11.1471C2149.77 11.1471 2137 23.4233 2137 38.5713C2137 53.7194 2149.29 65.9997 2164.45 65.9997L2191.24 65.9999C2182.98 75.6409 2178 88.1662 2178 101.857C2178 128.526 2196.92 150.773 2222.05 155.891C2206.24 167.743 2196.02 188.172 2196.02 209.5C2157.98 216.509 2128.24 247.338 2122.73 286.008C2094.11 286.008 2070 309.281 2070 337.999C2070 366.718 2093.2 389.999 2121.82 389.999L2150.92 389.999C2128.43 410.31 2114.21 438.68 2114 468.4C2113.8 497.855 2123.65 519.426 2137.5 535.189C2082.64 558.988 2056.64 626.487 2076.79 681.067C2070.67 691.25 2066.48 702.734 2064.73 715.008C2036.11 715.008 2012 738.281 2012 766.999C2012 779.528 2016.42 791.022 2023.77 800L2182.65 800C2173.97 795.451 2165.84 789.764 2158.51 783.026C2088.08 721.587 2125.76 598.065 2218.46 586.291C2223.21 557.752 2233.15 534.816 2246.5 517.017C2240.51 504.437 2236.88 489.389 2237 471.4C2237.21 441.68 2251.43 413.31 2273.92 392.999L2244.82 392.999C2216.2 392.999 2193 369.717 2193 340.999C2193 312.281 2217.11 289.007 2245.73 289.007C2246.89 280.891 2249.11 273.121 2252.25 265.843C2242.83 256.427 2237 243.396 2237 228.999C2237 200.281 2261.11 177.007 2289.73 177.007C2294.3 144.892 2315.59 118.185 2344.47 106.039Z" fill="black" fill-opacity="0.7"/>
<path d="M158.94 84.4003C159.3 91.9522 158.035 99.226 155.532 106.039C184.408 118.185 205.696 144.892 210.271 177.008C238.889 177.008 263 200.281 263 228.999C263 243.397 257.169 256.427 247.748 265.843C250.891 273.121 253.115 280.892 254.271 289.008C282.889 289.008 307 312.281 307 340.999C307 369.717 283.8 392.999 255.182 392.999L226.078 392.999C248.575 413.31 262.792 441.68 262.997 471.4C263.121 489.389 259.494 504.437 253.497 517.018C266.853 534.816 276.792 557.752 281.543 586.291C374.241 598.065 411.92 721.587 341.487 783.027C334.157 789.764 326.033 795.451 317.346 800L476.229 800C483.584 791.023 488 779.528 488 767C488 738.281 463.889 715.008 435.271 715.008C433.522 702.734 429.333 691.25 423.211 681.067C443.358 626.487 417.357 558.988 362.5 535.189C376.346 519.426 386.199 497.855 385.997 468.4C385.791 438.68 371.575 410.31 349.078 389.999L378.182 389.999C406.8 389.999 430 366.718 430 338C430 309.282 405.889 286.008 377.271 286.008C371.762 247.338 342.023 216.51 303.983 209.5C303.983 188.172 293.762 167.743 277.95 155.891C303.084 150.773 322 128.526 322 101.857C322 88.1664 317.015 75.6411 308.763 66.0001L335.545 65.9999C350.708 65.9999 363 53.7195 363 38.5715C363 23.4235 350.225 11.1472 335.063 11.1472C334.507 7.26206 333.485 3.52696 332.056 0.000148773L73.1072 0.000297546C78.6458 6.67192 82.7246 14.7058 85.2183 23.6219C128.387 21.7427 157.581 55.8469 158.94 84.4003Z" fill="black" fill-opacity="0.7"/>
<path d="M2012 766.999C2012 738.281 2036.11 715.008 2064.73 715.008C2066.48 702.734 2070.67 691.25 2076.79 681.067C2056.64 626.487 2082.64 558.988 2137.5 535.189C2123.65 519.426 2113.8 497.855 2114 468.4C2114.21 438.68 2128.43 410.31 2150.92 389.999L2121.82 389.999C2093.2 389.999 2070 366.718 2070 337.999C2070 309.281 2094.11 286.008 2122.73 286.008C2128.24 247.338 2157.98 216.509 2196.02 209.5C2196.02 188.172 2206.24 167.743 2222.05 155.891C2196.92 150.773 2178 128.526 2178 101.857C2178 88.1662 2182.98 75.6409 2191.24 65.9999L2164.45 65.9997C2149.29 65.9997 2137 53.7194 2137 38.5713C2137 23.4233 2149.77 11.1471 2164.94 11.1471C2165.49 7.26191 2166.51 3.52681 2167.94 0L332.056 0.000148773C333.485 3.52696 334.507 7.26206 335.063 11.1472C350.225 11.1472 363 23.4235 363 38.5715C363 53.7195 350.708 65.9999 335.545 65.9999L308.763 66.0001C317.015 75.6411 322 88.1664 322 101.857C322 128.526 303.084 150.773 277.95 155.891C293.762 167.743 303.983 188.172 303.983 209.5C342.023 216.51 371.762 247.338 377.271 286.008C405.889 286.008 430 309.282 430 338C430 366.718 406.8 389.999 378.182 389.999L349.078 389.999C371.575 410.31 385.791 438.68 385.997 468.4C386.199 497.855 376.346 519.426 362.5 535.189C417.357 558.988 443.358 626.487 423.211 681.067C429.333 691.25 433.522 702.734 435.271 715.008C463.889 715.008 488 738.281 488 767C488 779.528 483.584 791.023 476.229 800L2023.77 800C2016.42 791.022 2012 779.528 2012 766.999Z" fill="black"/>
</svg>
