<svg width="731" height="383" viewBox="0 0 731 383" fill="none" xmlns="http://www.w3.org/2000/svg">
<path d="M79.5503 271.29C78.5303 269.82 75.9503 266.54 71.3103 264.55C67.5003 262.92 64.0803 262.92 62.3203 263.05" stroke="#002440" stroke-width="3.74" stroke-miterlimit="10" stroke-linecap="round"/>
<path d="M58.9598 269.42C62.268 269.42 64.9498 268.077 64.9498 266.42C64.9498 264.763 62.268 263.42 58.9598 263.42C55.6516 263.42 52.9697 264.763 52.9697 266.42C52.9697 268.077 55.6516 269.42 58.9598 269.42Z" fill="#002440" stroke="#002440" stroke-width="4.99" stroke-miterlimit="10" stroke-linecap="round"/>
<path d="M58.5798 272.04C61.888 272.04 64.5698 270.697 64.5698 269.04C64.5698 267.383 61.888 266.04 58.5798 266.04C55.2716 266.04 52.5898 267.383 52.5898 269.04C52.5898 270.697 55.2716 272.04 58.5798 272.04Z" fill="#F3F2FF"/>
<path opacity="0.4" d="M0.910156 380.64H64.5702V269.04H52.5902L0.910156 380.64Z" fill="url(#paint0_linear_893_17)"/>
<path d="M400.41 317.29C401.42 315.84 403.97 312.59 408.57 310.62C412.34 309 415.72 309.01 417.47 309.14" stroke="#002440" stroke-width="3.71" stroke-miterlimit="10" stroke-linecap="round"/>
<path d="M420.8 315.44C424.075 315.44 426.73 314.111 426.73 312.47C426.73 310.83 424.075 309.5 420.8 309.5C417.525 309.5 414.87 310.83 414.87 312.47C414.87 314.111 417.525 315.44 420.8 315.44Z" fill="#002440" stroke="#002440" stroke-width="4.94" stroke-miterlimit="10" stroke-linecap="round"/>
<path d="M421.17 318.04C424.445 318.04 427.1 316.71 427.1 315.07C427.1 313.43 424.445 312.1 421.17 312.1C417.895 312.1 415.24 313.43 415.24 315.07C415.24 316.71 417.895 318.04 421.17 318.04Z" fill="#F3F2FF"/>
<path opacity="0.4" d="M435.32 380.64H404.62L415.1 316.23H427.09L435.32 380.64Z" fill="url(#paint1_linear_893_17)"/>
<path d="M604.6 72.8C605.62 71.33 608.2 68.05 612.84 66.06C616.65 64.43 620.07 64.43 621.83 64.56" stroke="#002440" stroke-width="3.74" stroke-miterlimit="10" stroke-linecap="round"/>
<path d="M625.189 70.9399C628.497 70.9399 631.179 69.5968 631.179 67.9399C631.179 66.2831 628.497 64.9399 625.189 64.9399C621.881 64.9399 619.199 66.2831 619.199 67.9399C619.199 69.5968 621.881 70.9399 625.189 70.9399Z" fill="#002440" stroke="#002440" stroke-width="4.99" stroke-miterlimit="10" stroke-linecap="round"/>
<path d="M625.57 73.5601C628.878 73.5601 631.56 72.2169 631.56 70.5601C631.56 68.9032 628.878 67.5601 625.57 67.5601C622.262 67.5601 619.58 68.9032 619.58 70.5601C619.58 72.2169 622.262 73.5601 625.57 73.5601Z" fill="#F3F2FF"/>
<path opacity="0.4" d="M651.78 110.25H619.58V71.3101H631.56L651.78 110.25Z" fill="url(#paint2_linear_893_17)"/>
<path d="M259.69 120.37C252.56 147.5 229.36 165.76 205.01 165.31C178.89 164.83 163.26 143.04 161.57 140.59" stroke="#002440" stroke-width="0.75" stroke-miterlimit="10"/>
<path d="M259.69 136.84C258.98 138.96 247.44 171.5 214 179.53C187.42 185.92 166.49 172.13 163.07 169.79" stroke="#002440" stroke-width="0.75" stroke-miterlimit="10"/>
<path d="M712.081 255.93C698.701 289.15 688.341 305.11 680.991 303.83C677.401 303.2 674.541 298.47 672.391 289.64" stroke="#002440" stroke-width="0.75" stroke-miterlimit="10"/>
<path d="M730.92 176.17H710.2V382.14H730.92V176.17Z" fill="#002440"/>
<path d="M675 128.08V382.89H536.44V72.35L605.651 53.3301H606.09V110.31H657.23C667.04 110.31 675 118.27 675 128.08Z" fill="#002440"/>
<g opacity="0.43">
<path opacity="0.35" d="M569.04 94.5801H552.65V102.46H569.04V94.5801Z" fill="#F3F2FF"/>
<path opacity="0.35" d="M568.96 140.33H552.57V148.21H568.96V140.33Z" fill="#0C5775"/>
<path opacity="0.35" d="M659.29 163.43H643.07V171.31H659.29V163.43Z" fill="#F3F2FF"/>
<path opacity="0.35" d="M629.5 186.15H613.04V194.03H629.5V186.15Z" fill="#0C5775"/>
<path opacity="0.35" d="M659.26 232.35H643.04V240.23H659.26V232.35Z" fill="#0C5775"/>
<path opacity="0.35" d="M568.84 232.35H552.45V240.23H568.84V232.35Z" fill="#0C5775"/>
<path opacity="0.35" d="M598.96 278.11H582.5V285.99H598.96V278.11Z" fill="#F3F2FF"/>
<path opacity="0.35" d="M599.45 323.77H582.99V331.65H599.45V323.77Z" fill="#0C5775"/>
</g>
<path d="M536.43 220.36H436.07V381.39H536.43V220.36Z" fill="#002440"/>
<path d="M443.561 220.36C443.561 215.39 462.671 211.37 486.251 211.37C509.831 211.37 528.941 215.39 528.941 220.36H443.551H443.561Z" fill="#002440"/>
<g opacity="0.46">
<path d="M497.61 226.35H447.681C445.405 226.35 443.561 228.195 443.561 230.47C443.561 232.746 445.405 234.59 447.681 234.59H497.61C499.886 234.59 501.73 232.746 501.73 230.47C501.73 228.195 499.886 226.35 497.61 226.35Z" fill="url(#paint3_linear_893_17)"/>
<path d="M524.83 240.58H505.85C503.575 240.58 501.73 242.425 501.73 244.7C501.73 246.975 503.575 248.82 505.85 248.82H524.83C527.106 248.82 528.95 246.975 528.95 244.7C528.95 242.425 527.106 240.58 524.83 240.58Z" fill="url(#paint4_linear_893_17)"/>
<path d="M497.591 269.04H476.331C474.056 269.04 472.211 270.885 472.211 273.16C472.211 275.435 474.056 277.28 476.331 277.28H497.591C499.866 277.28 501.711 275.435 501.711 273.16C501.711 270.885 499.866 269.04 497.591 269.04Z" fill="#0C5775"/>
<path d="M524.831 283.27H476.331C474.056 283.27 472.211 285.115 472.211 287.39C472.211 289.666 474.056 291.51 476.331 291.51H524.831C527.106 291.51 528.951 289.666 528.951 287.39C528.951 285.115 527.106 283.27 524.831 283.27Z" fill="url(#paint5_linear_893_17)"/>
<path d="M497.561 297.5H447.681C445.405 297.5 443.561 299.345 443.561 301.62C443.561 303.896 445.405 305.74 447.681 305.74H497.561C499.836 305.74 501.681 303.896 501.681 301.62C501.681 299.345 499.836 297.5 497.561 297.5Z" fill="url(#paint6_linear_893_17)"/>
<path d="M468.08 325.96H447.681C445.405 325.96 443.561 327.805 443.561 330.08C443.561 332.356 445.405 334.2 447.681 334.2H468.08C470.356 334.2 472.2 332.356 472.2 330.08C472.2 327.805 470.356 325.96 468.08 325.96Z" fill="#0C5775"/>
<path d="M524.831 340.19H476.331C474.056 340.19 472.211 342.035 472.211 344.31C472.211 346.586 474.056 348.43 476.331 348.43H524.831C527.106 348.43 528.951 346.586 528.951 344.31C528.951 342.035 527.106 340.19 524.831 340.19Z" fill="url(#paint7_linear_893_17)"/>
<path d="M497.51 354.43H447.681C445.405 354.43 443.561 356.275 443.561 358.55C443.561 360.826 445.405 362.67 447.681 362.67H497.51C499.786 362.67 501.63 360.826 501.63 358.55C501.63 356.275 499.786 354.43 497.51 354.43Z" fill="url(#paint8_linear_893_17)"/>
</g>
<path d="M410.61 108.76C407.25 108.76 404.42 110.96 403.46 114V381.39H256.31V116.25C256.31 112.11 252.96 108.76 248.82 108.76H410.6H410.61Z" fill="#002440"/>
<path d="M397.88 72.0601C393.74 72.0601 390.391 75.41 390.391 79.55V108.76H269.051V79.55C269.051 75.41 265.701 72.0601 261.561 72.0601H397.88Z" fill="#002440"/>
<path d="M382.15 36.1001C378.01 36.1001 374.66 39.4501 374.66 43.5901V72.0501H284.78V43.5901C284.78 39.4501 281.43 36.1001 277.29 36.1001H382.15Z" fill="#002440"/>
<path d="M358.931 13.4001V36.1001H300.511V13.4001C300.511 6.08015 306.441 0.150146 313.761 0.150146H345.681C353.001 0.150146 358.931 6.08015 358.931 13.4001Z" fill="#002440"/>
<path opacity="0.6" d="M389.641 120.74H269.051V230.09H389.641V120.74Z" fill="url(#paint9_linear_893_17)"/>
<path d="M246.58 262.06V381.39H175.42V252.56H181.06L246.58 262.06Z" fill="#002440"/>
<g opacity="0.49">
<path opacity="0.6" d="M239.09 270.54V275.78H182.91V262.3L239.09 270.54Z" fill="url(#paint10_linear_893_17)"/>
<path opacity="0.6" d="M182.91 285.52V280.28H239.09V293.76L182.91 285.52Z" fill="#0C5775"/>
<path opacity="0.6" d="M182.91 315.48V310.24H239.09V323.72L182.91 315.48Z" fill="url(#paint11_linear_893_17)"/>
<path opacity="0.6" d="M239.09 331.96V337.2H182.91V323.72L239.09 331.96Z" fill="url(#paint12_linear_893_17)"/>
</g>
<path d="M98.6005 83.29H164.941V381.39H75.8105V106.08C75.8105 93.5001 86.0205 83.29 98.6005 83.29Z" fill="#002440"/>
<path d="M156.701 72.0601H134.23V94.5301H156.701V72.0601Z" fill="#002440"/>
<path d="M145.47 77.3C150.435 77.3 154.461 74.954 154.461 72.0601C154.461 69.1661 150.435 66.8201 145.47 66.8201C140.505 66.8201 136.48 69.1661 136.48 72.0601C136.48 74.954 140.505 77.3 145.47 77.3Z" fill="#002440"/>
<g opacity="0.61">
<path opacity="0.6" d="M91.3108 105.39H149.441C153.031 105.39 155.951 108.31 155.951 111.9V116.17H84.8008V111.9C84.8008 108.31 87.7208 105.39 91.3108 105.39Z" fill="#0C5775"/>
<path opacity="0.6" d="M91.3108 149.95H149.441C153.031 149.95 155.951 152.87 155.951 156.46V160.73H84.8008V156.46C84.8008 152.87 87.7208 149.95 91.3108 149.95Z" fill="url(#paint13_linear_893_17)"/>
<path opacity="0.6" d="M91.3108 172.23H149.441C153.031 172.23 155.951 175.15 155.951 178.74V183.01H84.8008V178.74C84.8008 175.15 87.7208 172.23 91.3108 172.23Z" fill="#0C5775"/>
<path opacity="0.6" d="M91.3108 236.92H149.441C153.031 236.92 155.951 239.84 155.951 243.43V247.7H84.8008V243.43C84.8008 239.84 87.7208 236.92 91.3108 236.92Z" fill="url(#paint14_linear_893_17)"/>
<path opacity="0.6" d="M91.3108 303.76H149.441C153.031 303.76 155.951 306.68 155.951 310.27V314.54H84.8008V310.27C84.8008 306.68 87.7208 303.76 91.3108 303.76Z" fill="#0C5775"/>
<path opacity="0.6" d="M91.3108 326.04H149.441C153.031 326.04 155.951 328.96 155.951 332.55V336.82H84.8008V332.55C84.8008 328.96 87.7208 326.04 91.3108 326.04Z" fill="url(#paint15_linear_893_17)"/>
</g>
<defs>
<linearGradient id="paint0_linear_893_17" x1="32.7402" y1="269.04" x2="32.7402" y2="380.64" gradientUnits="userSpaceOnUse">
<stop stop-color="#F3F2FF"/>
<stop offset="1" stop-color="#188AA9" stop-opacity="0"/>
</linearGradient>
<linearGradient id="paint1_linear_893_17" x1="419.97" y1="316.23" x2="419.97" y2="380.64" gradientUnits="userSpaceOnUse">
<stop stop-color="#F3F2FF"/>
<stop offset="1" stop-color="#188AA9" stop-opacity="0"/>
</linearGradient>
<linearGradient id="paint2_linear_893_17" x1="635.68" y1="71.3101" x2="635.68" y2="110.25" gradientUnits="userSpaceOnUse">
<stop stop-color="#F3F2FF"/>
<stop offset="1" stop-color="#188AA9" stop-opacity="0"/>
</linearGradient>
<linearGradient id="paint3_linear_893_17" x1="443.561" y1="230.47" x2="501.73" y2="230.47" gradientUnits="userSpaceOnUse">
<stop stop-color="#F3F2FF"/>
<stop offset="1" stop-color="#002440" stop-opacity="0"/>
</linearGradient>
<linearGradient id="paint4_linear_893_17" x1="501.73" y1="244.7" x2="528.95" y2="244.7" gradientUnits="userSpaceOnUse">
<stop stop-color="#0C5775"/>
<stop offset="0.21" stop-color="#094B68" stop-opacity="0.77"/>
<stop offset="0.75" stop-color="#022F4B" stop-opacity="0.22"/>
<stop offset="1" stop-color="#002440" stop-opacity="0"/>
</linearGradient>
<linearGradient id="paint5_linear_893_17" x1="472.211" y1="287.39" x2="528.951" y2="287.39" gradientUnits="userSpaceOnUse">
<stop stop-color="#F3F2FF"/>
<stop offset="1" stop-color="#002440" stop-opacity="0"/>
</linearGradient>
<linearGradient id="paint6_linear_893_17" x1="443.561" y1="301.62" x2="501.681" y2="301.62" gradientUnits="userSpaceOnUse">
<stop stop-color="#0C5775"/>
<stop offset="0.21" stop-color="#094B68" stop-opacity="0.77"/>
<stop offset="0.75" stop-color="#022F4B" stop-opacity="0.22"/>
<stop offset="1" stop-color="#002440" stop-opacity="0"/>
</linearGradient>
<linearGradient id="paint7_linear_893_17" x1="472.211" y1="344.31" x2="528.951" y2="344.31" gradientUnits="userSpaceOnUse">
<stop stop-color="#0C5775"/>
<stop offset="0.21" stop-color="#094B68" stop-opacity="0.77"/>
<stop offset="0.75" stop-color="#022F4B" stop-opacity="0.22"/>
<stop offset="1" stop-color="#002440" stop-opacity="0"/>
</linearGradient>
<linearGradient id="paint8_linear_893_17" x1="443.561" y1="358.55" x2="501.63" y2="358.55" gradientUnits="userSpaceOnUse">
<stop stop-color="#F3F2FF"/>
<stop offset="1" stop-color="#002440" stop-opacity="0"/>
</linearGradient>
<linearGradient id="paint9_linear_893_17" x1="329.341" y1="230.09" x2="329.341" y2="120.74" gradientUnits="userSpaceOnUse">
<stop stop-color="#0C5775"/>
<stop offset="0.21" stop-color="#094B68" stop-opacity="0.77"/>
<stop offset="0.75" stop-color="#022F4B" stop-opacity="0.22"/>
<stop offset="1" stop-color="#002440" stop-opacity="0"/>
</linearGradient>
<linearGradient id="paint10_linear_893_17" x1="182.91" y1="269.04" x2="239.09" y2="269.04" gradientUnits="userSpaceOnUse">
<stop stop-color="#F3F2FF"/>
<stop offset="1" stop-color="#002440" stop-opacity="0"/>
</linearGradient>
<linearGradient id="paint11_linear_893_17" x1="182.91" y1="316.98" x2="239.09" y2="316.98" gradientUnits="userSpaceOnUse">
<stop stop-color="#0C5775"/>
<stop offset="0.21" stop-color="#094B68" stop-opacity="0.77"/>
<stop offset="0.75" stop-color="#022F4B" stop-opacity="0.22"/>
<stop offset="1" stop-color="#002440" stop-opacity="0"/>
</linearGradient>
<linearGradient id="paint12_linear_893_17" x1="182.91" y1="330.46" x2="239.09" y2="330.46" gradientUnits="userSpaceOnUse">
<stop stop-color="#0C5775"/>
<stop offset="0.21" stop-color="#094B68" stop-opacity="0.77"/>
<stop offset="0.75" stop-color="#022F4B" stop-opacity="0.22"/>
<stop offset="1" stop-color="#002440" stop-opacity="0"/>
</linearGradient>
<linearGradient id="paint13_linear_893_17" x1="84.8008" y1="155.34" x2="155.951" y2="155.34" gradientUnits="userSpaceOnUse">
<stop stop-color="#F3F2FF"/>
<stop offset="1" stop-color="#002440" stop-opacity="0"/>
</linearGradient>
<linearGradient id="paint14_linear_893_17" x1="84.8008" y1="242.31" x2="155.951" y2="242.31" gradientUnits="userSpaceOnUse">
<stop stop-color="#0C5775"/>
<stop offset="0.21" stop-color="#094B68" stop-opacity="0.77"/>
<stop offset="0.75" stop-color="#022F4B" stop-opacity="0.22"/>
<stop offset="1" stop-color="#002440" stop-opacity="0"/>
</linearGradient>
<linearGradient id="paint15_linear_893_17" x1="-848" y1="331.43" x2="-847" y2="331.43" gradientUnits="userSpaceOnUse">
<stop stop-color="#F3F2FF"/>
<stop offset="1" stop-color="#002440" stop-opacity="0"/>
</linearGradient>
</defs>
</svg>
