<svg width="731" height="576" viewBox="-139 0 731 576" fill="none" xmlns="http://www.w3.org/2000/svg">
<path d="M375.4 166.13C376.98 188.99 379.5 200.57 382.98 200.86C384.98 201.03 387.3 197.45 389.93 190.12" stroke="#0C5775" stroke-width="0.75" stroke-miterlimit="10"/>
<path d="M375.66 290.79C377.83 304.61 380.05 311.53 382.33 311.55C386.12 311.58 390.08 292.55 394.19 254.45" stroke="#0C5775" stroke-width="0.56" stroke-miterlimit="10"/>
<path d="M374.41 310.49C376.58 324.31 378.8 331.23 381.08 331.25C384.87 331.28 388.83 312.25 392.94 274.15" stroke="#0C5775" stroke-width="0.56" stroke-miterlimit="10"/>
<path d="M591.55 175.95H388.67V575.71H591.55V175.95Z" fill="#0C5775"/>
<path d="M591.55 113.73V175.95H388.67L591.55 113.73Z" fill="#0C5775"/>
<path d="M556.37 117.55H473.27V154.98H556.37V117.55Z" fill="#0C5775"/>
<path d="M514.44 130.28C534.698 130.28 551.12 124.581 551.12 117.55C551.12 110.519 534.698 104.82 514.44 104.82C494.182 104.82 477.76 110.519 477.76 117.55C477.76 124.581 494.182 130.28 514.44 130.28Z" fill="#0C5775"/>
<path d="M514.07 108.94L514.44 62.1602" stroke="#0C5775" stroke-width="0.75" stroke-miterlimit="10"/>
<g opacity="0.21">
<path d="M507.5 197.1C507.5 199.39 508.88 201.24 510.58 201.24H524.77C526.47 201.24 527.85 199.38 527.85 197.09C527.85 194.8 526.47 192.95 524.77 192.95H510.58C508.88 192.95 507.5 194.8 507.5 197.09V197.1Z" fill="url(#paint0_linear_893_24)"/>
<path d="M507.5 240.03C507.5 242.32 508.88 244.17 510.58 244.17H546.84C548.54 244.17 549.92 242.32 549.92 240.03C549.92 237.74 548.54 235.89 546.84 235.89H510.58C508.88 235.89 507.5 237.74 507.5 240.03Z" fill="url(#paint1_linear_893_24)"/>
<path d="M549.92 282.97C549.92 285.26 551.3 287.11 553 287.11H568.25C569.95 287.11 571.33 285.26 571.33 282.97C571.33 280.68 569.95 278.83 568.25 278.83H553C551.3 278.83 549.92 280.68 549.92 282.97Z" fill="url(#paint2_linear_893_24)"/>
<path d="M527.92 311.6C527.92 313.89 529.3 315.74 531 315.74H568.25C569.95 315.74 571.33 313.89 571.33 311.6C571.33 309.31 569.95 307.46 568.25 307.46H531C529.3 307.46 527.92 309.31 527.92 311.6Z" fill="url(#paint3_linear_893_24)"/>
</g>
<g opacity="0.21">
<path d="M405.86 210.85C404.16 210.85 402.78 209 402.78 206.71C402.78 204.42 404.16 202.57 405.86 202.57H443.19C444.89 202.57 446.27 204.43 446.27 206.72C446.27 209.01 444.89 210.86 443.19 210.86" fill="url(#paint4_linear_893_24)"/>
<path d="M466.61 221.01C466.61 223.3 465.23 225.15 463.53 225.15H449.34C447.64 225.15 446.26 223.29 446.26 221C446.26 218.71 447.64 216.86 449.34 216.86H463.53C465.23 216.86 466.61 218.71 466.61 221V221.01Z" fill="url(#paint5_linear_893_24)"/>
<path d="M446.24 249.64C446.24 251.93 444.861 253.78 443.161 253.78H427.271C425.571 253.78 424.19 251.93 424.19 249.64C424.19 247.35 425.571 245.5 427.271 245.5H443.161C444.861 245.5 446.24 247.36 446.24 249.65V249.64Z" fill="url(#paint6_linear_893_24)"/>
<path d="M463.531 259.81C465.231 259.81 466.61 261.66 466.61 263.95C466.61 266.24 465.231 268.09 463.531 268.09H427.271C425.571 268.09 424.19 266.24 424.19 263.95" fill="url(#paint7_linear_893_24)"/>
<path d="M424.19 306.89C424.19 309.18 422.81 311.03 421.11 311.03H405.86C404.16 311.03 402.78 309.18 402.78 306.89C402.78 304.6 404.16 302.75 405.86 302.75H421.11C422.81 302.75 424.19 304.6 424.19 306.89Z" fill="url(#paint8_linear_893_24)"/>
<path d="M466.61 321.2C466.61 323.49 465.231 325.34 463.531 325.34H427.271C425.571 325.34 424.19 323.49 424.19 321.2C424.19 318.91 425.571 317.06 427.271 317.06H463.531C465.231 317.06 466.61 318.91 466.61 321.2Z" fill="url(#paint9_linear_893_24)"/>
</g>
<g opacity="0.21">
<path d="M507.85 412.48C507.85 414.77 509.23 416.62 510.93 416.62H525.12C526.82 416.62 528.2 414.76 528.2 412.47C528.2 410.18 526.82 408.33 525.12 408.33H510.93C509.23 408.33 507.85 410.18 507.85 412.47V412.48Z" fill="url(#paint10_linear_893_24)"/>
<path d="M528.22 441.11C528.22 443.4 529.6 445.25 531.3 445.25H547.19C548.89 445.25 550.27 443.4 550.27 441.11C550.27 438.82 548.89 436.97 547.19 436.97H531.3C529.6 436.97 528.22 438.83 528.22 441.12V441.11Z" fill="url(#paint11_linear_893_24)"/>
<path d="M507.85 455.41C507.85 457.7 509.23 459.55 510.93 459.55H547.19C548.89 459.55 550.27 457.7 550.27 455.41C550.27 453.12 548.89 451.27 547.19 451.27H510.93C509.23 451.27 507.85 453.12 507.85 455.41Z" fill="url(#paint12_linear_893_24)"/>
<path d="M528.239 469.73C528.239 472.02 529.619 473.87 531.319 473.87H568.609C570.309 473.87 571.689 472.02 571.689 469.73C571.689 467.44 570.309 465.59 568.609 465.59H531.319C529.619 465.59 528.239 467.45 528.239 469.74V469.73Z" fill="url(#paint13_linear_893_24)"/>
<path d="M550.27 498.35C550.27 500.64 551.649 502.49 553.349 502.49H568.599C570.299 502.49 571.68 500.64 571.68 498.35C571.68 496.06 570.299 494.21 568.599 494.21H553.349C551.649 494.21 550.27 496.06 550.27 498.35Z" fill="url(#paint14_linear_893_24)"/>
<path d="M507.85 512.67C507.85 514.96 509.23 516.81 510.93 516.81H547.19C548.89 516.81 550.27 514.96 550.27 512.67C550.27 510.38 548.89 508.53 547.19 508.53H510.93C509.23 508.53 507.85 510.38 507.85 512.67Z" fill="url(#paint15_linear_893_24)"/>
<path d="M528.27 526.98C528.27 529.27 529.649 531.12 531.349 531.12H568.599C570.299 531.12 571.68 529.27 571.68 526.98C571.68 524.69 570.299 522.84 568.599 522.84H531.349C529.649 522.84 528.27 524.69 528.27 526.98Z" fill="url(#paint16_linear_893_24)"/>
</g>
<path d="M376.93 131V575.71H276.57V26.7603C276.57 12.4103 288.5 0.770264 303.22 0.770264H327.04V107.31L375.41 130.28L376.93 131Z" fill="#0C5775"/>
<g opacity="0.32">
<path opacity="0.6" d="M364.72 134.35V141.55H287.61V123.04L364.72 134.35Z" fill="url(#paint17_linear_893_24)"/>
<path opacity="0.6" d="M287.61 196.04V188.84H364.72V207.35L287.61 196.04Z" fill="url(#paint18_linear_893_24)"/>
<path opacity="0.6" d="M364.72 218.66V225.85H287.61V207.35L364.72 218.66Z" fill="url(#paint19_linear_893_24)"/>
</g>
<g opacity="0.32">
<path opacity="0.6" d="M287.951 296.83V289.63H365.061V308.14L287.951 296.83Z" fill="url(#paint20_linear_893_24)"/>
<path opacity="0.6" d="M287.951 337.951V330.75H365.061V349.26L287.951 337.951Z" fill="url(#paint21_linear_893_24)"/>
<path opacity="0.6" d="M365.061 360.57V367.77H287.951V349.26L365.061 360.57Z" fill="url(#paint22_linear_893_24)"/>
</g>
<g opacity="0.32">
<path opacity="0.6" d="M363.761 418.03V425.22H286.661V406.72L363.761 418.03Z" fill="url(#paint23_linear_893_24)"/>
<path opacity="0.6" d="M286.661 438.59V431.39H363.761V449.9L286.661 438.59Z" fill="url(#paint24_linear_893_24)"/>
<path opacity="0.6" d="M363.761 502.33V509.53H286.661V491.02L363.761 502.33Z" fill="url(#paint25_linear_893_24)"/>
</g>
<path opacity="0.24" d="M319.801 21.5303H284.221V103.33H319.801V21.5303Z" fill="url(#paint26_linear_893_24)"/>
<path d="M128.901 117.55H86.9805V137.01H128.901V117.55Z" fill="#0C5775"/>
<path d="M102.7 123.92V82.3701" stroke="#0C5775" stroke-width="0.75" stroke-miterlimit="10"/>
<path d="M113.181 124.67V91.3501" stroke="#0C5775" stroke-width="0.75" stroke-miterlimit="10"/>
<path d="M143.881 187.18H0.140625V575.71H143.881V187.18Z" fill="#0C5775"/>
<path d="M12.2207 182.34V187.1" stroke="#0C5775" stroke-width="0.75" stroke-miterlimit="10"/>
<path d="M30.3203 182.34V187.1" stroke="#0C5775" stroke-width="0.75" stroke-miterlimit="10"/>
<path d="M31.751 178.8H10.791V183.56H31.751V178.8Z" fill="#0C5775"/>
<path d="M30.2109 174.33V179.1" stroke="#0C5775" stroke-width="0.75" stroke-miterlimit="10"/>
<path d="M143.881 127.29H72.0107V187.18H143.881V127.29Z" fill="#0C5775"/>
<g opacity="0.21">
<path d="M78.0012 306.95C78.0012 304.8 76.3912 303.07 74.4012 303.07H57.8013C55.8113 303.07 54.2012 304.81 54.2012 306.96C54.2012 309.1 55.8113 310.84 57.8013 310.84H74.4012C76.3912 310.84 78.0012 309.1 78.0012 306.96V306.95Z" fill="url(#paint27_linear_893_24)"/>
<path d="M79.4911 266.69C79.4911 264.54 77.8811 262.81 75.8911 262.81H33.4711C31.4811 262.81 29.8711 264.55 29.8711 266.69C29.8711 268.84 31.4811 270.57 33.4711 270.57H75.8911C77.8811 270.57 79.4911 268.83 79.4911 266.69Z" fill="url(#paint28_linear_893_24)"/>
<path d="M78.0009 213.02C78.0009 210.87 76.3909 209.14 74.4009 209.14H31.9808C29.9908 209.14 28.3809 210.88 28.3809 213.02C28.3809 215.17 29.9908 216.9 31.9808 216.9H74.4009C76.3909 216.9 78.0009 215.16 78.0009 213.02Z" fill="url(#paint29_linear_893_24)"/>
<path d="M54.111 199.6C54.111 197.45 52.501 195.72 50.511 195.72H6.93103C4.94103 195.72 3.33105 197.46 3.33105 199.6C3.33105 201.75 4.94103 203.48 6.93103 203.48H50.511C52.501 203.48 54.111 201.74 54.111 199.6Z" fill="url(#paint30_linear_893_24)"/>
<path d="M124.251 435.55C124.251 433.4 122.641 431.67 120.651 431.67H78.2308C76.2408 431.67 74.6309 433.41 74.6309 435.55C74.6309 437.7 76.2408 439.43 78.2308 439.43H120.651C122.641 439.43 124.251 437.69 124.251 435.55Z" fill="url(#paint31_linear_893_24)"/>
<path d="M124.251 381.87C124.251 379.72 122.641 377.99 120.651 377.99H78.2308C76.2408 377.99 74.6309 379.73 74.6309 381.87C74.6309 384.02 76.2408 385.75 78.2308 385.75H120.651C122.641 385.75 124.251 384.01 124.251 381.87Z" fill="url(#paint32_linear_893_24)"/>
<path d="M100.361 368.45C100.361 366.3 98.751 364.57 96.761 364.57H53.1811C51.1911 364.57 49.5811 366.31 49.5811 368.45C49.5811 370.6 51.1911 372.33 53.1811 372.33H96.761C98.751 372.33 100.361 370.59 100.361 368.45Z" fill="url(#paint33_linear_893_24)"/>
<path d="M136.361 155.06C136.361 152.91 134.751 151.18 132.761 151.18H116.161C114.171 151.18 112.562 152.92 112.562 155.07C112.562 157.21 114.171 158.95 116.161 158.95H132.761C134.751 158.95 136.361 157.21 136.361 155.07V155.06Z" fill="url(#paint34_linear_893_24)"/>
<path d="M102.021 199.74C102.021 197.59 100.411 195.86 98.4208 195.86H81.8207C79.8307 195.86 78.2207 197.6 78.2207 199.75C78.2207 201.89 79.8307 203.63 81.8207 203.63H98.4208C100.411 203.63 102.021 201.89 102.021 199.75V199.74Z" fill="url(#paint35_linear_893_24)"/>
<path d="M131.151 252.99C131.151 250.84 129.541 249.11 127.551 249.11H85.1312C83.1412 249.11 81.5312 250.85 81.5312 252.99C81.5312 255.14 83.1412 256.87 85.1312 256.87H127.551C129.541 256.87 131.151 255.13 131.151 252.99Z" fill="url(#paint36_linear_893_24)"/>
</g>
<defs>
<linearGradient id="paint0_linear_893_24" x1="507.5" y1="197.1" x2="527.85" y2="197.1" gradientUnits="userSpaceOnUse">
<stop stop-color="#188AA9"/>
<stop offset="0.43" stop-color="#127290" stop-opacity="0.54"/>
<stop offset="0.82" stop-color="#0D5E7C" stop-opacity="0.15"/>
<stop offset="1" stop-color="#0C5775" stop-opacity="0"/>
</linearGradient>
<linearGradient id="paint1_linear_893_24" x1="507.5" y1="240.03" x2="549.92" y2="240.03" gradientUnits="userSpaceOnUse">
<stop stop-color="#188AA9"/>
<stop offset="0.43" stop-color="#127290" stop-opacity="0.54"/>
<stop offset="0.82" stop-color="#0D5E7C" stop-opacity="0.15"/>
<stop offset="1" stop-color="#0C5775" stop-opacity="0"/>
</linearGradient>
<linearGradient id="paint2_linear_893_24" x1="549.92" y1="282.97" x2="571.34" y2="282.97" gradientUnits="userSpaceOnUse">
<stop stop-color="#188AA9"/>
<stop offset="0.43" stop-color="#127290" stop-opacity="0.54"/>
<stop offset="0.82" stop-color="#0D5E7C" stop-opacity="0.15"/>
<stop offset="1" stop-color="#0C5775" stop-opacity="0"/>
</linearGradient>
<linearGradient id="paint3_linear_893_24" x1="527.92" y1="311.6" x2="571.33" y2="311.6" gradientUnits="userSpaceOnUse">
<stop stop-color="#188AA9"/>
<stop offset="0.43" stop-color="#127290" stop-opacity="0.54"/>
<stop offset="0.82" stop-color="#0D5E7C" stop-opacity="0.15"/>
<stop offset="1" stop-color="#0C5775" stop-opacity="0"/>
</linearGradient>
<linearGradient id="paint4_linear_893_24" x1="402.78" y1="206.7" x2="446.27" y2="206.7" gradientUnits="userSpaceOnUse">
<stop stop-color="#188AA9"/>
<stop offset="0.43" stop-color="#127290" stop-opacity="0.54"/>
<stop offset="0.82" stop-color="#0D5E7C" stop-opacity="0.15"/>
<stop offset="1" stop-color="#0C5775" stop-opacity="0"/>
</linearGradient>
<linearGradient id="paint5_linear_893_24" x1="446.26" y1="221.01" x2="466.61" y2="221.01" gradientUnits="userSpaceOnUse">
<stop stop-color="#188AA9"/>
<stop offset="0.43" stop-color="#127290" stop-opacity="0.54"/>
<stop offset="0.82" stop-color="#0D5E7C" stop-opacity="0.15"/>
<stop offset="1" stop-color="#0C5775" stop-opacity="0"/>
</linearGradient>
<linearGradient id="paint6_linear_893_24" x1="424.19" y1="249.64" x2="446.24" y2="249.64" gradientUnits="userSpaceOnUse">
<stop stop-color="#188AA9"/>
<stop offset="0.43" stop-color="#127290" stop-opacity="0.54"/>
<stop offset="0.82" stop-color="#0D5E7C" stop-opacity="0.15"/>
<stop offset="1" stop-color="#0C5775" stop-opacity="0"/>
</linearGradient>
<linearGradient id="paint7_linear_893_24" x1="424.19" y1="263.95" x2="466.61" y2="263.95" gradientUnits="userSpaceOnUse">
<stop stop-color="#188AA9"/>
<stop offset="0.43" stop-color="#127290" stop-opacity="0.54"/>
<stop offset="0.82" stop-color="#0D5E7C" stop-opacity="0.15"/>
<stop offset="1" stop-color="#0C5775" stop-opacity="0"/>
</linearGradient>
<linearGradient id="paint8_linear_893_24" x1="402.78" y1="306.89" x2="424.19" y2="306.89" gradientUnits="userSpaceOnUse">
<stop stop-color="#188AA9"/>
<stop offset="0.43" stop-color="#127290" stop-opacity="0.54"/>
<stop offset="0.82" stop-color="#0D5E7C" stop-opacity="0.15"/>
<stop offset="1" stop-color="#0C5775" stop-opacity="0"/>
</linearGradient>
<linearGradient id="paint9_linear_893_24" x1="424.19" y1="321.2" x2="466.61" y2="321.2" gradientUnits="userSpaceOnUse">
<stop stop-color="#188AA9"/>
<stop offset="0.43" stop-color="#127290" stop-opacity="0.54"/>
<stop offset="0.82" stop-color="#0D5E7C" stop-opacity="0.15"/>
<stop offset="1" stop-color="#0C5775" stop-opacity="0"/>
</linearGradient>
<linearGradient id="paint10_linear_893_24" x1="507.85" y1="412.48" x2="528.2" y2="412.48" gradientUnits="userSpaceOnUse">
<stop stop-color="#188AA9"/>
<stop offset="0.43" stop-color="#127290" stop-opacity="0.54"/>
<stop offset="0.82" stop-color="#0D5E7C" stop-opacity="0.15"/>
<stop offset="1" stop-color="#0C5775" stop-opacity="0"/>
</linearGradient>
<linearGradient id="paint11_linear_893_24" x1="528.22" y1="441.1" x2="550.27" y2="441.1" gradientUnits="userSpaceOnUse">
<stop stop-color="#188AA9"/>
<stop offset="0.43" stop-color="#127290" stop-opacity="0.54"/>
<stop offset="0.82" stop-color="#0D5E7C" stop-opacity="0.15"/>
<stop offset="1" stop-color="#0C5775" stop-opacity="0"/>
</linearGradient>
<linearGradient id="paint12_linear_893_24" x1="507.85" y1="455.41" x2="550.27" y2="455.41" gradientUnits="userSpaceOnUse">
<stop stop-color="#188AA9"/>
<stop offset="0.43" stop-color="#127290" stop-opacity="0.54"/>
<stop offset="0.82" stop-color="#0D5E7C" stop-opacity="0.15"/>
<stop offset="1" stop-color="#0C5775" stop-opacity="0"/>
</linearGradient>
<linearGradient id="paint13_linear_893_24" x1="528.229" y1="469.73" x2="571.679" y2="469.73" gradientUnits="userSpaceOnUse">
<stop stop-color="#188AA9"/>
<stop offset="0.43" stop-color="#127290" stop-opacity="0.54"/>
<stop offset="0.82" stop-color="#0D5E7C" stop-opacity="0.15"/>
<stop offset="1" stop-color="#0C5775" stop-opacity="0"/>
</linearGradient>
<linearGradient id="paint14_linear_893_24" x1="550.27" y1="498.35" x2="571.68" y2="498.35" gradientUnits="userSpaceOnUse">
<stop stop-color="#188AA9"/>
<stop offset="0.43" stop-color="#127290" stop-opacity="0.54"/>
<stop offset="0.82" stop-color="#0D5E7C" stop-opacity="0.15"/>
<stop offset="1" stop-color="#0C5775" stop-opacity="0"/>
</linearGradient>
<linearGradient id="paint15_linear_893_24" x1="507.85" y1="512.67" x2="550.27" y2="512.67" gradientUnits="userSpaceOnUse">
<stop stop-color="#188AA9"/>
<stop offset="0.43" stop-color="#127290" stop-opacity="0.54"/>
<stop offset="0.82" stop-color="#0D5E7C" stop-opacity="0.15"/>
<stop offset="1" stop-color="#0C5775" stop-opacity="0"/>
</linearGradient>
<linearGradient id="paint16_linear_893_24" x1="528.27" y1="526.98" x2="571.68" y2="526.98" gradientUnits="userSpaceOnUse">
<stop stop-color="#188AA9"/>
<stop offset="0.43" stop-color="#127290" stop-opacity="0.54"/>
<stop offset="0.82" stop-color="#0D5E7C" stop-opacity="0.15"/>
<stop offset="1" stop-color="#0C5775" stop-opacity="0"/>
</linearGradient>
<linearGradient id="paint17_linear_893_24" x1="287.61" y1="132.3" x2="364.72" y2="132.3" gradientUnits="userSpaceOnUse">
<stop stop-color="#188AA9"/>
<stop offset="0.43" stop-color="#127290" stop-opacity="0.54"/>
<stop offset="0.82" stop-color="#0D5E7C" stop-opacity="0.15"/>
<stop offset="1" stop-color="#0C5775" stop-opacity="0"/>
</linearGradient>
<linearGradient id="paint18_linear_893_24" x1="287.61" y1="198.09" x2="364.72" y2="198.09" gradientUnits="userSpaceOnUse">
<stop stop-color="#188AA9"/>
<stop offset="0.43" stop-color="#127290" stop-opacity="0.54"/>
<stop offset="0.82" stop-color="#0D5E7C" stop-opacity="0.15"/>
<stop offset="1" stop-color="#0C5775" stop-opacity="0"/>
</linearGradient>
<linearGradient id="paint19_linear_893_24" x1="287.61" y1="216.6" x2="364.72" y2="216.6" gradientUnits="userSpaceOnUse">
<stop stop-color="#188AA9"/>
<stop offset="0.43" stop-color="#127290" stop-opacity="0.54"/>
<stop offset="0.82" stop-color="#0D5E7C" stop-opacity="0.15"/>
<stop offset="1" stop-color="#0C5775" stop-opacity="0"/>
</linearGradient>
<linearGradient id="paint20_linear_893_24" x1="287.951" y1="298.88" x2="365.061" y2="298.88" gradientUnits="userSpaceOnUse">
<stop stop-color="#188AA9"/>
<stop offset="0.43" stop-color="#127290" stop-opacity="0.54"/>
<stop offset="0.82" stop-color="#0D5E7C" stop-opacity="0.15"/>
<stop offset="1" stop-color="#0C5775" stop-opacity="0"/>
</linearGradient>
<linearGradient id="paint21_linear_893_24" x1="287.951" y1="340.01" x2="365.061" y2="340.01" gradientUnits="userSpaceOnUse">
<stop stop-color="#188AA9"/>
<stop offset="0.43" stop-color="#127290" stop-opacity="0.54"/>
<stop offset="0.82" stop-color="#0D5E7C" stop-opacity="0.15"/>
<stop offset="1" stop-color="#0C5775" stop-opacity="0"/>
</linearGradient>
<linearGradient id="paint22_linear_893_24" x1="287.951" y1="358.51" x2="365.061" y2="358.51" gradientUnits="userSpaceOnUse">
<stop stop-color="#188AA9"/>
<stop offset="0.43" stop-color="#127290" stop-opacity="0.54"/>
<stop offset="0.82" stop-color="#0D5E7C" stop-opacity="0.15"/>
<stop offset="1" stop-color="#0C5775" stop-opacity="0"/>
</linearGradient>
<linearGradient id="paint23_linear_893_24" x1="286.661" y1="415.97" x2="363.761" y2="415.97" gradientUnits="userSpaceOnUse">
<stop stop-color="#188AA9"/>
<stop offset="0.43" stop-color="#127290" stop-opacity="0.54"/>
<stop offset="0.82" stop-color="#0D5E7C" stop-opacity="0.15"/>
<stop offset="1" stop-color="#0C5775" stop-opacity="0"/>
</linearGradient>
<linearGradient id="paint24_linear_893_24" x1="286.661" y1="440.65" x2="363.761" y2="440.65" gradientUnits="userSpaceOnUse">
<stop stop-color="#188AA9"/>
<stop offset="0.43" stop-color="#127290" stop-opacity="0.54"/>
<stop offset="0.82" stop-color="#0D5E7C" stop-opacity="0.15"/>
<stop offset="1" stop-color="#0C5775" stop-opacity="0"/>
</linearGradient>
<linearGradient id="paint25_linear_893_24" x1="286.661" y1="500.28" x2="363.761" y2="500.28" gradientUnits="userSpaceOnUse">
<stop stop-color="#188AA9"/>
<stop offset="0.43" stop-color="#127290" stop-opacity="0.54"/>
<stop offset="0.82" stop-color="#0D5E7C" stop-opacity="0.15"/>
<stop offset="1" stop-color="#0C5775" stop-opacity="0"/>
</linearGradient>
<linearGradient id="paint26_linear_893_24" x1="302.011" y1="103.33" x2="302.011" y2="21.5303" gradientUnits="userSpaceOnUse">
<stop stop-color="#188AA9"/>
<stop offset="0.43" stop-color="#127290" stop-opacity="0.54"/>
<stop offset="0.82" stop-color="#0D5E7C" stop-opacity="0.15"/>
<stop offset="1" stop-color="#0C5775" stop-opacity="0"/>
</linearGradient>
<linearGradient id="paint27_linear_893_24" x1="54.1912" y1="306.95" x2="78.0012" y2="306.95" gradientUnits="userSpaceOnUse">
<stop stop-color="#188AA9"/>
<stop offset="0.43" stop-color="#127290" stop-opacity="0.54"/>
<stop offset="0.82" stop-color="#0D5E7C" stop-opacity="0.15"/>
<stop offset="1" stop-color="#0C5775" stop-opacity="0"/>
</linearGradient>
<linearGradient id="paint28_linear_893_24" x1="29.8711" y1="266.69" x2="79.4911" y2="266.69" gradientUnits="userSpaceOnUse">
<stop stop-color="#188AA9"/>
<stop offset="0.43" stop-color="#127290" stop-opacity="0.54"/>
<stop offset="0.82" stop-color="#0D5E7C" stop-opacity="0.15"/>
<stop offset="1" stop-color="#0C5775" stop-opacity="0"/>
</linearGradient>
<linearGradient id="paint29_linear_893_24" x1="28.3709" y1="213.02" x2="-972.999" y2="213.02" gradientUnits="userSpaceOnUse">
<stop stop-color="#188AA9"/>
<stop offset="0.43" stop-color="#127290" stop-opacity="0.54"/>
<stop offset="0.82" stop-color="#0D5E7C" stop-opacity="0.15"/>
<stop offset="1" stop-color="#0C5775" stop-opacity="0"/>
</linearGradient>
<linearGradient id="paint30_linear_893_24" x1="3.33105" y1="199.6" x2="54.111" y2="199.6" gradientUnits="userSpaceOnUse">
<stop stop-color="#188AA9"/>
<stop offset="0.43" stop-color="#127290" stop-opacity="0.54"/>
<stop offset="0.82" stop-color="#0D5E7C" stop-opacity="0.15"/>
<stop offset="1" stop-color="#0C5775" stop-opacity="0"/>
</linearGradient>
<linearGradient id="paint31_linear_893_24" x1="74.6209" y1="435.55" x2="124.251" y2="435.55" gradientUnits="userSpaceOnUse">
<stop stop-color="#188AA9"/>
<stop offset="0.43" stop-color="#127290" stop-opacity="0.54"/>
<stop offset="0.82" stop-color="#0D5E7C" stop-opacity="0.15"/>
<stop offset="1" stop-color="#0C5775" stop-opacity="0"/>
</linearGradient>
<linearGradient id="paint32_linear_893_24" x1="74.6209" y1="381.87" x2="124.251" y2="381.87" gradientUnits="userSpaceOnUse">
<stop stop-color="#188AA9"/>
<stop offset="0.43" stop-color="#127290" stop-opacity="0.54"/>
<stop offset="0.82" stop-color="#0D5E7C" stop-opacity="0.15"/>
<stop offset="1" stop-color="#0C5775" stop-opacity="0"/>
</linearGradient>
<linearGradient id="paint33_linear_893_24" x1="49.5811" y1="368.45" x2="100.361" y2="368.45" gradientUnits="userSpaceOnUse">
<stop stop-color="#188AA9"/>
<stop offset="0.43" stop-color="#127290" stop-opacity="0.54"/>
<stop offset="0.82" stop-color="#0D5E7C" stop-opacity="0.15"/>
<stop offset="1" stop-color="#0C5775" stop-opacity="0"/>
</linearGradient>
<linearGradient id="paint34_linear_893_24" x1="112.552" y1="155.06" x2="136.361" y2="155.06" gradientUnits="userSpaceOnUse">
<stop stop-color="#188AA9"/>
<stop offset="0.43" stop-color="#127290" stop-opacity="0.54"/>
<stop offset="0.82" stop-color="#0D5E7C" stop-opacity="0.15"/>
<stop offset="1" stop-color="#0C5775" stop-opacity="0"/>
</linearGradient>
<linearGradient id="paint35_linear_893_24" x1="78.2107" y1="199.74" x2="102.021" y2="199.74" gradientUnits="userSpaceOnUse">
<stop stop-color="#188AA9"/>
<stop offset="0.43" stop-color="#127290" stop-opacity="0.54"/>
<stop offset="0.82" stop-color="#0D5E7C" stop-opacity="0.15"/>
<stop offset="1" stop-color="#0C5775" stop-opacity="0"/>
</linearGradient>
<linearGradient id="paint36_linear_893_24" x1="81.5312" y1="252.99" x2="131.151" y2="252.99" gradientUnits="userSpaceOnUse">
<stop stop-color="#188AA9"/>
<stop offset="0.43" stop-color="#127290" stop-opacity="0.54"/>
<stop offset="0.82" stop-color="#0D5E7C" stop-opacity="0.15"/>
<stop offset="1" stop-color="#0C5775" stop-opacity="0"/>
</linearGradient>
</defs>
</svg>
