<svg width="731" height="637" viewBox="-112 0 731 637" fill="none" xmlns="http://www.w3.org/2000/svg">
<path d="M192.93 147.67C199.64 140.58 207.48 130.8 214.31 118.05C225.32 97.4802 228.03 79.7402 228.56 76.0502C230.64 61.5102 229.69 48.9602 228.18 39.6702" stroke="#188AA9" stroke-width="0.37" stroke-miterlimit="10"/>
<path d="M194.05 151.79C197.35 149.35 201.79 145.77 206.52 140.92C227.12 119.79 232.67 95.6701 233.8 90.2901C237.88 70.9501 235.32 54.69 233.05 45.29" stroke="#188AA9" stroke-width="0.37" stroke-miterlimit="10"/>
<path d="M573.93 9.12016V107.17H490.68V24.7502L441.93 33.9002V636.67H618.93V0.670166L573.93 9.12016Z" fill="#188AA9"/>
<g opacity="0.14">
<path opacity="0.6" d="M452.69 35.1702H479.91C482.13 35.1702 483.92 36.9702 483.92 39.1802V43.4402H448.67V39.1802C448.67 36.9602 450.47 35.1702 452.68 35.1702H452.69Z" fill="url(#paint0_linear_893_27)"/>
<path opacity="0.6" d="M452.69 69.3701H479.91C482.13 69.3701 483.92 71.1701 483.92 73.3801V77.6401H448.67V73.3801C448.67 71.1601 450.47 69.3701 452.68 69.3701H452.69Z" fill="url(#paint1_linear_893_27)"/>
<path opacity="0.6" d="M452.69 136.11H479.91C482.13 136.11 483.92 137.91 483.92 140.12V144.38H448.67V140.12C448.67 137.9 450.47 136.11 452.68 136.11H452.69Z" fill="url(#paint2_linear_893_27)"/>
<path opacity="0.6" d="M452.69 204.51H479.91C482.13 204.51 483.92 206.31 483.92 208.52V212.78H448.67V208.52C448.67 206.3 450.47 204.51 452.68 204.51H452.69Z" fill="url(#paint3_linear_893_27)"/>
</g>
<g opacity="0.14">
<path opacity="0.6" d="M582.78 76.2002H610C612.22 76.2002 614.01 78.0002 614.01 80.2102V84.4702H578.76V80.2102C578.76 77.9902 580.56 76.2002 582.77 76.2002H582.78Z" fill="url(#paint4_linear_893_27)"/>
<path opacity="0.6" d="M582.78 93.3003H610C612.22 93.3003 614.01 95.1003 614.01 97.3103V101.57H578.76V97.3103C578.76 95.0903 580.56 93.3003 582.77 93.3003H582.78Z" fill="url(#paint5_linear_893_27)"/>
<path opacity="0.6" d="M582.78 142.95H610C612.22 142.95 614.01 144.75 614.01 146.96V151.22H578.76V146.96C578.76 144.74 580.56 142.95 582.77 142.95H582.78Z" fill="url(#paint6_linear_893_27)"/>
<path opacity="0.6" d="M582.78 194.25H610C612.22 194.25 614.01 196.05 614.01 198.26V202.52H578.76V198.26C578.76 196.04 580.56 194.25 582.77 194.25H582.78Z" fill="url(#paint7_linear_893_27)"/>
<path opacity="0.6" d="M582.78 211.35H610C612.22 211.35 614.01 213.15 614.01 215.36V219.62H578.76V215.36C578.76 213.14 580.56 211.35 582.77 211.35H582.78Z" fill="url(#paint8_linear_893_27)"/>
</g>
<g opacity="0.14">
<path opacity="0.6" d="M504.249 113.17H559.529C562.799 113.17 565.459 115.83 565.459 119.1V122.64H498.319V119.1C498.319 115.83 500.979 113.17 504.249 113.17Z" fill="url(#paint9_linear_893_27)"/>
<path opacity="0.6" d="M504.249 152.31H559.529C562.799 152.31 565.459 154.97 565.459 158.24V161.78H498.319V158.24C498.319 154.97 500.979 152.31 504.249 152.31Z" fill="url(#paint10_linear_893_27)"/>
<path opacity="0.6" d="M504.249 171.88H559.529C562.799 171.88 565.459 174.54 565.459 177.81V181.35H498.319V177.81C498.319 174.54 500.979 171.88 504.249 171.88Z" fill="url(#paint11_linear_893_27)"/>
<path opacity="0.6" d="M504.249 228.7H559.529C562.799 228.7 565.459 231.36 565.459 234.63V238.17H498.319V234.63C498.319 231.36 500.979 228.7 504.249 228.7Z" fill="url(#paint12_linear_893_27)"/>
<path opacity="0.6" d="M504.249 287.41H559.529C562.799 287.41 565.459 290.07 565.459 293.34V296.88H498.319V293.34C498.319 290.07 500.979 287.41 504.249 287.41Z" fill="url(#paint13_linear_893_27)"/>
<path opacity="0.6" d="M504.249 306.98H559.529C562.799 306.98 565.459 309.64 565.459 312.91V316.45H498.319V312.91C498.319 309.64 500.979 306.98 504.249 306.98Z" fill="url(#paint14_linear_893_27)"/>
</g>
<path d="M488.43 26.92C493.03 29.91 509.44 39.74 531.55 37.04C559.1 33.68 574.09 13.47 576.55 10.04" stroke="#188AA9" stroke-width="0.37" stroke-miterlimit="10"/>
<path d="M485.869 33.6503C490.469 36.6403 506.879 46.4703 528.989 43.7803C556.539 40.4203 571.529 20.2103 573.989 16.7803" stroke="#188AA9" stroke-width="0.37" stroke-miterlimit="10"/>
<path d="M420.93 157.99H229.68V636.67H420.93V157.99Z" fill="#188AA9"/>
<path d="M420.93 35.1702H272.43V158.17H420.93V35.1702Z" fill="#188AA9"/>
<g opacity="0.27">
<g opacity="0.49">
<path opacity="0.6" d="M283.68 171.19V175.18H240.93V164.92L283.68 171.19Z" fill="url(#paint15_linear_893_27)"/>
<path opacity="0.6" d="M240.93 182.59V178.6H283.68V188.86L240.93 182.59Z" fill="url(#paint16_linear_893_27)"/>
<path opacity="0.6" d="M240.93 205.39V201.4H283.68V211.66L240.93 205.39Z" fill="url(#paint17_linear_893_27)"/>
</g>
<g opacity="0.49">
<path opacity="0.6" d="M283.33 239.21V243.2H240.58V232.94L283.33 239.21Z" fill="url(#paint18_linear_893_27)"/>
<path opacity="0.6" d="M283.33 285.95V289.94H240.58V279.68L283.33 285.95Z" fill="url(#paint19_linear_893_27)"/>
</g>
</g>
<path opacity="0.21" d="M407.43 74.1702H286.68V158.17H407.43V74.1702Z" fill="url(#paint20_linear_893_27)"/>
<path d="M268.67 157.99H234.189C234.279 148.55 241.97 140.92 251.43 140.92C260.89 140.92 268.58 148.55 268.67 157.99Z" fill="#188AA9"/>
<path d="M381.76 30.7002V35.4702" stroke="#188AA9" stroke-width="0.75" stroke-miterlimit="10"/>
<path d="M399.89 30.7002V35.4702" stroke="#188AA9" stroke-width="0.75" stroke-miterlimit="10"/>
<path d="M401.33 27.1501H380.33V31.9202H401.33V27.1501Z" fill="#188AA9"/>
<path d="M381.779 23.4302V28.2002" stroke="#188AA9" stroke-width="0.75" stroke-miterlimit="10" stroke-linecap="round"/>
<path d="M218 35.0002L273.61 73.7003V35.1402L218 35.0002Z" fill="#188AA9"/>
<path d="M196.68 144.67V636.2H0.179688V83.1702H51.8897V144.67H196.68Z" fill="#188AA9"/>
<path d="M136.7 144.67H51.8896V83.1702L136.7 144.67Z" fill="#188AA9"/>
<g opacity="0.21">
<g opacity="0.46">
<path d="M81.5396 131.61C81.5396 134.34 79.3295 136.55 76.5995 136.55H16.7095C13.9795 136.55 11.7695 134.34 11.7695 131.61C11.7695 128.88 13.9795 126.67 16.7095 126.67H76.5995C79.3295 126.67 81.5396 128.88 81.5396 131.62V131.61Z" fill="url(#paint21_linear_893_27)"/>
<path d="M114.179 148.68C114.179 151.41 111.969 153.62 109.239 153.62H86.4692C83.7392 153.62 81.5293 151.41 81.5293 148.67C81.5293 145.94 83.7392 143.73 86.4692 143.73H109.239C111.969 143.73 114.179 145.94 114.179 148.67V148.68Z" fill="url(#paint22_linear_893_27)"/>
<path d="M81.5001 182.82C81.5001 185.55 79.2902 187.76 76.5602 187.76H51.0601C48.3301 187.76 46.1201 185.55 46.1201 182.82C46.1201 180.09 48.3301 177.88 51.0601 177.88H76.5602C79.2902 177.88 81.5001 180.09 81.5001 182.83V182.82Z" fill="url(#paint23_linear_893_27)"/>
<path d="M81.4697 216.96C81.4697 219.69 79.2598 221.9 76.5298 221.9H16.6998C13.9698 221.9 11.7598 219.69 11.7598 216.96C11.7598 214.23 13.9698 212.02 16.6998 212.02H76.5298C79.2598 212.02 81.4697 214.23 81.4697 216.97V216.96Z" fill="url(#paint24_linear_893_27)"/>
<path d="M41.1795 246.15H16.7095C13.9812 246.15 11.7695 248.362 11.7695 251.09C11.7695 253.818 13.9812 256.03 16.7095 256.03H41.1795C43.9078 256.03 46.1195 253.818 46.1195 251.09C46.1195 248.362 43.9078 246.15 41.1795 246.15Z" fill="url(#paint25_linear_893_27)"/>
<path d="M109.24 263.22H51.0601C48.3318 263.22 46.1201 265.432 46.1201 268.16C46.1201 270.889 48.3318 273.1 51.0601 273.1H109.24C111.968 273.1 114.18 270.889 114.18 268.16C114.18 265.432 111.968 263.22 109.24 263.22Z" fill="url(#paint26_linear_893_27)"/>
<path d="M76.4795 280.28H16.7095C13.9812 280.28 11.7695 282.492 11.7695 285.22C11.7695 287.949 13.9812 290.16 16.7095 290.16H76.4795C79.2078 290.16 81.4196 287.949 81.4196 285.22C81.4196 282.492 79.2078 280.28 76.4795 280.28Z" fill="url(#paint27_linear_893_27)"/>
</g>
<g opacity="0.46">
<path d="M176.11 156.91H146.92C145.589 156.91 144.51 157.989 144.51 159.32C144.51 160.651 145.589 161.73 146.92 161.73H176.11C177.441 161.73 178.52 160.651 178.52 159.32C178.52 157.989 177.441 156.91 176.11 156.91Z" fill="url(#paint28_linear_893_27)"/>
<path d="M192.02 165.22H180.93C179.599 165.22 178.52 166.299 178.52 167.63C178.52 168.961 179.599 170.04 180.93 170.04H192.02C193.351 170.04 194.43 168.961 194.43 167.63C194.43 166.299 193.351 165.22 192.02 165.22Z" fill="url(#paint29_linear_893_27)"/>
<path d="M192.02 190.18H163.67C162.339 190.18 161.26 191.259 161.26 192.59C161.26 193.921 162.339 195 163.67 195H192.02C193.351 195 194.43 193.921 194.43 192.59C194.43 191.259 193.351 190.18 192.02 190.18Z" fill="url(#paint30_linear_893_27)"/>
<path d="M176.08 198.5H146.92C145.589 198.5 144.51 199.579 144.51 200.91C144.51 202.241 145.589 203.32 146.92 203.32H176.08C177.411 203.32 178.49 202.241 178.49 200.91C178.49 199.579 177.411 198.5 176.08 198.5Z" fill="url(#paint31_linear_893_27)"/>
<path d="M158.84 215.14H146.92C145.589 215.14 144.51 216.219 144.51 217.55C144.51 218.881 145.589 219.96 146.92 219.96H158.84C160.171 219.96 161.25 218.881 161.25 217.55C161.25 216.219 160.171 215.14 158.84 215.14Z" fill="url(#paint32_linear_893_27)"/>
<path d="M176.05 231.78H146.92C145.589 231.78 144.51 232.859 144.51 234.19C144.51 235.521 145.589 236.6 146.92 236.6H176.05C177.381 236.6 178.46 235.521 178.46 234.19C178.46 232.859 177.381 231.78 176.05 231.78Z" fill="url(#paint33_linear_893_27)"/>
</g>
<g opacity="0.46">
<path d="M173.11 246.16H143.92C142.589 246.16 141.51 247.239 141.51 248.57C141.51 249.901 142.589 250.98 143.92 250.98H173.11C174.441 250.98 175.52 249.901 175.52 248.57C175.52 247.239 174.441 246.16 173.11 246.16Z" fill="url(#paint34_linear_893_27)"/>
<path d="M189.02 254.47H177.93C176.599 254.47 175.52 255.549 175.52 256.88C175.52 258.211 176.599 259.29 177.93 259.29H189.02C190.351 259.29 191.43 258.211 191.43 256.88C191.43 255.549 190.351 254.47 189.02 254.47Z" fill="url(#paint35_linear_893_27)"/>
<path d="M189.02 279.43H160.67C159.339 279.43 158.26 280.509 158.26 281.84C158.26 283.171 159.339 284.25 160.67 284.25H189.02C190.351 284.25 191.43 283.171 191.43 281.84C191.43 280.509 190.351 279.43 189.02 279.43Z" fill="url(#paint36_linear_893_27)"/>
<path d="M173.08 287.75H143.92C142.589 287.75 141.51 288.829 141.51 290.16C141.51 291.491 142.589 292.57 143.92 292.57H173.08C174.411 292.57 175.49 291.491 175.49 290.16C175.49 288.829 174.411 287.75 173.08 287.75Z" fill="url(#paint37_linear_893_27)"/>
<path d="M155.84 304.39H143.92C142.589 304.39 141.51 305.469 141.51 306.8C141.51 308.131 142.589 309.21 143.92 309.21H155.84C157.171 309.21 158.25 308.131 158.25 306.8C158.25 305.469 157.171 304.39 155.84 304.39Z" fill="url(#paint38_linear_893_27)"/>
<path d="M189.02 312.71H160.67C159.339 312.71 158.26 313.789 158.26 315.12C158.26 316.451 159.339 317.53 160.67 317.53H189.02C190.351 317.53 191.43 316.451 191.43 315.12C191.43 313.789 190.351 312.71 189.02 312.71Z" fill="url(#paint39_linear_893_27)"/>
<path d="M173.05 321.03H143.92C142.589 321.03 141.51 322.109 141.51 323.44C141.51 324.771 142.589 325.85 143.92 325.85H173.05C174.381 325.85 175.46 324.771 175.46 323.44C175.46 322.109 174.381 321.03 173.05 321.03Z" fill="url(#paint40_linear_893_27)"/>
</g>
</g>
<defs>
<linearGradient id="paint0_linear_893_27" x1="448.68" y1="39.3002" x2="483.93" y2="39.3002" gradientUnits="userSpaceOnUse">
<stop stop-color="#24BDDE"/>
<stop offset="1" stop-color="#188AA9" stop-opacity="0"/>
</linearGradient>
<linearGradient id="paint1_linear_893_27" x1="448.68" y1="73.5001" x2="483.93" y2="73.5001" gradientUnits="userSpaceOnUse">
<stop stop-color="#24BDDE"/>
<stop offset="1" stop-color="#188AA9" stop-opacity="0"/>
</linearGradient>
<linearGradient id="paint2_linear_893_27" x1="448.68" y1="140.25" x2="483.93" y2="140.25" gradientUnits="userSpaceOnUse">
<stop stop-color="#24BDDE"/>
<stop offset="1" stop-color="#188AA9" stop-opacity="0"/>
</linearGradient>
<linearGradient id="paint3_linear_893_27" x1="448.68" y1="208.65" x2="483.93" y2="208.65" gradientUnits="userSpaceOnUse">
<stop stop-color="#24BDDE"/>
<stop offset="1" stop-color="#188AA9" stop-opacity="0"/>
</linearGradient>
<linearGradient id="paint4_linear_893_27" x1="578.77" y1="80.3402" x2="614.02" y2="80.3402" gradientUnits="userSpaceOnUse">
<stop stop-color="#24BDDE"/>
<stop offset="1" stop-color="#188AA9" stop-opacity="0"/>
</linearGradient>
<linearGradient id="paint5_linear_893_27" x1="578.77" y1="97.4403" x2="614.02" y2="97.4403" gradientUnits="userSpaceOnUse">
<stop stop-color="#24BDDE"/>
<stop offset="1" stop-color="#188AA9" stop-opacity="0"/>
</linearGradient>
<linearGradient id="paint6_linear_893_27" x1="578.77" y1="147.08" x2="614.02" y2="147.08" gradientUnits="userSpaceOnUse">
<stop stop-color="#24BDDE"/>
<stop offset="1" stop-color="#188AA9" stop-opacity="0"/>
</linearGradient>
<linearGradient id="paint7_linear_893_27" x1="578.77" y1="198.38" x2="614.02" y2="198.38" gradientUnits="userSpaceOnUse">
<stop stop-color="#24BDDE"/>
<stop offset="1" stop-color="#188AA9" stop-opacity="0"/>
</linearGradient>
<linearGradient id="paint8_linear_893_27" x1="578.77" y1="215.48" x2="614.02" y2="215.48" gradientUnits="userSpaceOnUse">
<stop stop-color="#24BDDE"/>
<stop offset="1" stop-color="#188AA9" stop-opacity="0"/>
</linearGradient>
<linearGradient id="paint9_linear_893_27" x1="498.329" y1="117.9" x2="565.459" y2="117.9" gradientUnits="userSpaceOnUse">
<stop stop-color="#24BDDE"/>
<stop offset="1" stop-color="#188AA9" stop-opacity="0"/>
</linearGradient>
<linearGradient id="paint10_linear_893_27" x1="498.329" y1="157.04" x2="565.459" y2="157.04" gradientUnits="userSpaceOnUse">
<stop stop-color="#24BDDE"/>
<stop offset="1" stop-color="#188AA9" stop-opacity="0"/>
</linearGradient>
<linearGradient id="paint11_linear_893_27" x1="498.329" y1="176.61" x2="565.459" y2="176.61" gradientUnits="userSpaceOnUse">
<stop stop-color="#24BDDE"/>
<stop offset="1" stop-color="#188AA9" stop-opacity="0"/>
</linearGradient>
<linearGradient id="paint12_linear_893_27" x1="498.329" y1="233.43" x2="565.459" y2="233.43" gradientUnits="userSpaceOnUse">
<stop stop-color="#24BDDE"/>
<stop offset="1" stop-color="#188AA9" stop-opacity="0"/>
</linearGradient>
<linearGradient id="paint13_linear_893_27" x1="498.329" y1="292.15" x2="565.459" y2="292.15" gradientUnits="userSpaceOnUse">
<stop stop-color="#24BDDE"/>
<stop offset="1" stop-color="#188AA9" stop-opacity="0"/>
</linearGradient>
<linearGradient id="paint14_linear_893_27" x1="498.329" y1="311.72" x2="565.459" y2="311.72" gradientUnits="userSpaceOnUse">
<stop stop-color="#24BDDE"/>
<stop offset="1" stop-color="#188AA9" stop-opacity="0"/>
</linearGradient>
<linearGradient id="paint15_linear_893_27" x1="240.93" y1="170.05" x2="283.68" y2="170.05" gradientUnits="userSpaceOnUse">
<stop stop-color="#24BDDE"/>
<stop offset="1" stop-color="#188AA9" stop-opacity="0"/>
</linearGradient>
<linearGradient id="paint16_linear_893_27" x1="-960" y1="183.73" x2="-959" y2="183.73" gradientUnits="userSpaceOnUse">
<stop stop-color="#24BDDE"/>
<stop offset="1" stop-color="#188AA9" stop-opacity="0"/>
</linearGradient>
<linearGradient id="paint17_linear_893_27" x1="-960" y1="206.53" x2="-959" y2="206.53" gradientUnits="userSpaceOnUse">
<stop stop-color="#24BDDE"/>
<stop offset="1" stop-color="#188AA9" stop-opacity="0"/>
</linearGradient>
<linearGradient id="paint18_linear_893_27" x1="240.58" y1="238.07" x2="283.33" y2="238.07" gradientUnits="userSpaceOnUse">
<stop stop-color="#24BDDE"/>
<stop offset="1" stop-color="#188AA9" stop-opacity="0"/>
</linearGradient>
<linearGradient id="paint19_linear_893_27" x1="240.58" y1="284.81" x2="283.33" y2="284.81" gradientUnits="userSpaceOnUse">
<stop stop-color="#24BDDE"/>
<stop offset="1" stop-color="#188AA9" stop-opacity="0"/>
</linearGradient>
<linearGradient id="paint20_linear_893_27" x1="347.05" y1="158.17" x2="347.05" y2="74.1702" gradientUnits="userSpaceOnUse">
<stop stop-color="#24BDDE"/>
<stop offset="1" stop-color="#188AA9" stop-opacity="0"/>
</linearGradient>
<linearGradient id="paint21_linear_893_27" x1="11.7695" y1="131.61" x2="81.5396" y2="131.61" gradientUnits="userSpaceOnUse">
<stop stop-color="#24BDDE"/>
<stop offset="1" stop-color="#188AA9" stop-opacity="0"/>
</linearGradient>
<linearGradient id="paint22_linear_893_27" x1="81.5293" y1="148.68" x2="114.179" y2="148.68" gradientUnits="userSpaceOnUse">
<stop stop-color="#24BDDE"/>
<stop offset="1" stop-color="#188AA9" stop-opacity="0"/>
</linearGradient>
<linearGradient id="paint23_linear_893_27" x1="46.1201" y1="182.81" x2="81.5001" y2="182.81" gradientUnits="userSpaceOnUse">
<stop stop-color="#24BDDE"/>
<stop offset="1" stop-color="#188AA9" stop-opacity="0"/>
</linearGradient>
<linearGradient id="paint24_linear_893_27" x1="11.7698" y1="216.95" x2="81.4697" y2="216.95" gradientUnits="userSpaceOnUse">
<stop stop-color="#24BDDE"/>
<stop offset="1" stop-color="#188AA9" stop-opacity="0"/>
</linearGradient>
<linearGradient id="paint25_linear_893_27" x1="11.7695" y1="251.09" x2="46.1195" y2="251.09" gradientUnits="userSpaceOnUse">
<stop stop-color="#24BDDE"/>
<stop offset="1" stop-color="#188AA9" stop-opacity="0"/>
</linearGradient>
<linearGradient id="paint26_linear_893_27" x1="46.1201" y1="268.16" x2="114.18" y2="268.16" gradientUnits="userSpaceOnUse">
<stop stop-color="#24BDDE"/>
<stop offset="1" stop-color="#188AA9" stop-opacity="0"/>
</linearGradient>
<linearGradient id="paint27_linear_893_27" x1="11.7695" y1="285.23" x2="81.4096" y2="285.23" gradientUnits="userSpaceOnUse">
<stop stop-color="#24BDDE"/>
<stop offset="1" stop-color="#188AA9" stop-opacity="0"/>
</linearGradient>
<linearGradient id="paint28_linear_893_27" x1="144.51" y1="159.31" x2="178.52" y2="159.31" gradientUnits="userSpaceOnUse">
<stop stop-color="#24BDDE"/>
<stop offset="1" stop-color="#188AA9" stop-opacity="0"/>
</linearGradient>
<linearGradient id="paint29_linear_893_27" x1="178.52" y1="167.63" x2="194.43" y2="167.63" gradientUnits="userSpaceOnUse">
<stop stop-color="#24BDDE"/>
<stop offset="1" stop-color="#188AA9" stop-opacity="0"/>
</linearGradient>
<linearGradient id="paint30_linear_893_27" x1="161.26" y1="192.59" x2="194.43" y2="192.59" gradientUnits="userSpaceOnUse">
<stop stop-color="#24BDDE"/>
<stop offset="1" stop-color="#188AA9" stop-opacity="0"/>
</linearGradient>
<linearGradient id="paint31_linear_893_27" x1="144.51" y1="200.91" x2="178.49" y2="200.91" gradientUnits="userSpaceOnUse">
<stop stop-color="#24BDDE"/>
<stop offset="1" stop-color="#188AA9" stop-opacity="0"/>
</linearGradient>
<linearGradient id="paint32_linear_893_27" x1="144.51" y1="217.55" x2="161.26" y2="217.55" gradientUnits="userSpaceOnUse">
<stop stop-color="#24BDDE"/>
<stop offset="1" stop-color="#188AA9" stop-opacity="0"/>
</linearGradient>
<linearGradient id="paint33_linear_893_27" x1="144.51" y1="234.19" x2="178.46" y2="234.19" gradientUnits="userSpaceOnUse">
<stop stop-color="#24BDDE"/>
<stop offset="1" stop-color="#188AA9" stop-opacity="0"/>
</linearGradient>
<linearGradient id="paint34_linear_893_27" x1="141.51" y1="248.56" x2="175.52" y2="248.56" gradientUnits="userSpaceOnUse">
<stop stop-color="#24BDDE"/>
<stop offset="1" stop-color="#188AA9" stop-opacity="0"/>
</linearGradient>
<linearGradient id="paint35_linear_893_27" x1="175.52" y1="256.88" x2="191.43" y2="256.88" gradientUnits="userSpaceOnUse">
<stop stop-color="#24BDDE"/>
<stop offset="1" stop-color="#188AA9" stop-opacity="0"/>
</linearGradient>
<linearGradient id="paint36_linear_893_27" x1="158.26" y1="281.84" x2="191.43" y2="281.84" gradientUnits="userSpaceOnUse">
<stop stop-color="#24BDDE"/>
<stop offset="1" stop-color="#188AA9" stop-opacity="0"/>
</linearGradient>
<linearGradient id="paint37_linear_893_27" x1="141.51" y1="290.16" x2="175.49" y2="290.16" gradientUnits="userSpaceOnUse">
<stop stop-color="#24BDDE"/>
<stop offset="1" stop-color="#188AA9" stop-opacity="0"/>
</linearGradient>
<linearGradient id="paint38_linear_893_27" x1="141.51" y1="306.8" x2="158.26" y2="306.8" gradientUnits="userSpaceOnUse">
<stop stop-color="#24BDDE"/>
<stop offset="1" stop-color="#188AA9" stop-opacity="0"/>
</linearGradient>
<linearGradient id="paint39_linear_893_27" x1="158.26" y1="315.12" x2="191.43" y2="315.12" gradientUnits="userSpaceOnUse">
<stop stop-color="#24BDDE"/>
<stop offset="1" stop-color="#188AA9" stop-opacity="0"/>
</linearGradient>
<linearGradient id="paint40_linear_893_27" x1="141.51" y1="323.44" x2="175.46" y2="323.44" gradientUnits="userSpaceOnUse">
<stop stop-color="#24BDDE"/>
<stop offset="1" stop-color="#188AA9" stop-opacity="0"/>
</linearGradient>
</defs>
</svg>
