<svg width="605" height="592" viewBox="0 0 605 592" fill="none" xmlns="http://www.w3.org/2000/svg">
<path d="M597.151 255.896H472.131V592H597.151V255.896Z" fill="#0C5775"/>
<path d="M535.01 309.792C564.779 309.792 588.91 285.662 588.91 255.896C588.91 226.13 564.779 202 535.01 202C505.242 202 481.11 226.13 481.11 255.896C481.11 285.662 505.242 309.792 535.01 309.792Z" fill="#0C5775"/>
<path d="M604.631 255.896C600.491 255.896 597.141 259.245 597.141 263.385V255.896H604.631Z" fill="#0C5775"/>
<path d="M465.391 255.896C469.531 255.896 472.881 259.245 472.881 263.385V255.896H465.391Z" fill="#0C5775"/>
<path opacity="0.24" d="M581.431 266.615H487.851V351.469H581.431V266.615Z" fill="url(#paint0_linear_2452_1667)"/>
<g opacity="0.22">
<path opacity="0.6" d="M567.361 384.316V390.286H503.301V374.917L567.361 384.316Z" fill="url(#paint1_linear_2452_1667)"/>
<path opacity="0.6" d="M503.301 401.395V395.415H567.361V410.784L503.301 401.395Z" fill="url(#paint2_linear_2452_1667)"/>
<path opacity="0.6" d="M503.301 435.562V429.583H567.361V444.951L503.301 435.562Z" fill="url(#paint3_linear_2452_1667)"/>
<path opacity="0.6" d="M567.361 454.351V460.33H503.301V444.952L567.361 454.351Z" fill="url(#paint4_linear_2452_1667)"/>
</g>
<g opacity="0.22">
<path opacity="0.6" d="M567.361 481.268V487.248H503.301V471.869L567.361 481.268Z" fill="url(#paint5_linear_2452_1667)"/>
<path opacity="0.6" d="M503.301 498.347V492.368H567.361V507.746L503.301 498.347Z" fill="url(#paint6_linear_2452_1667)"/>
<path opacity="0.6" d="M503.301 532.515V526.535H567.361V541.914L503.301 532.515Z" fill="url(#paint7_linear_2452_1667)"/>
<path opacity="0.6" d="M567.361 551.303V557.282H503.301V541.914L567.361 551.303Z" fill="url(#paint8_linear_2452_1667)"/>
</g>
<path d="M268.319 88.2471V93.0152" stroke="#0C5775" stroke-width="0.75" stroke-miterlimit="10"/>
<path d="M286.42 88.2471V93.0152" stroke="#0C5775" stroke-width="0.75" stroke-miterlimit="10"/>
<path d="M287.85 84.7085H266.89V89.4666H287.85V84.7085Z" fill="#0C5775"/>
<path d="M268.34 81V85.7581" stroke="#0C5775" stroke-width="0.75" stroke-miterlimit="10" stroke-linecap="round"/>
<path d="M418.98 92.8652V592H244.55V92.8652H311.92V179.671H350.85V92.8652H418.98Z" fill="#0C5775"/>
<g opacity="0.18">
<path d="M359.83 109H408.49V113.288C408.49 114.857 407.21 116.137 405.64 116.137H362.68C361.11 116.137 359.83 114.857 359.83 113.288V109Z" fill="url(#paint9_linear_2452_1667)"/>
<path d="M359.83 137.558H408.49V141.846C408.49 143.416 407.21 144.695 405.64 144.695H362.68C361.11 144.695 359.83 143.416 359.83 141.846V137.558Z" fill="url(#paint10_linear_2452_1667)"/>
<path d="M359.83 180.401H408.49V184.69C408.49 186.259 407.21 187.539 405.64 187.539H362.68C361.11 187.539 359.83 186.259 359.83 184.69V180.401Z" fill="url(#paint11_linear_2452_1667)"/>
<path d="M359.83 237.969H408.49V242.257C408.49 243.826 407.21 245.106 405.64 245.106H362.68C361.11 245.106 359.83 243.826 359.83 242.257V237.969Z" fill="url(#paint12_linear_2452_1667)"/>
</g>
<g opacity="0.18">
<path d="M255.87 151.822H304.53V156.111C304.53 157.68 303.25 158.959 301.68 158.959H258.72C257.15 158.959 255.87 157.68 255.87 156.111V151.822Z" fill="url(#paint13_linear_2452_1667)"/>
<path d="M255.87 223.225H304.53V227.513C304.53 229.082 303.25 230.362 301.68 230.362H258.72C257.15 230.362 255.87 229.082 255.87 227.513V223.225Z" fill="url(#paint14_linear_2452_1667)"/>
</g>
<g opacity="0.18">
<path d="M306.779 266.438H355.439V270.726C355.439 272.295 354.159 273.575 352.589 273.575H309.629C308.059 273.575 306.779 272.295 306.779 270.726V266.438Z" fill="url(#paint15_linear_2452_1667)"/>
<path d="M306.779 337.84H355.439V342.128C355.439 343.698 354.159 344.977 352.589 344.977H309.629C308.059 344.977 306.779 343.698 306.779 342.128V337.84Z" fill="url(#paint16_linear_2452_1667)"/>
</g>
<g opacity="0.18">
<path d="M252.87 308.971H301.53V313.259C301.53 314.828 300.25 316.108 298.68 316.108H255.72C254.15 316.108 252.87 314.828 252.87 313.259V308.971Z" fill="url(#paint17_linear_2452_1667)"/>
<path d="M252.87 408.932H301.53V413.22C301.53 414.789 300.25 416.069 298.68 416.069H255.72C254.15 416.069 252.87 414.789 252.87 413.22V408.932Z" fill="url(#paint18_linear_2452_1667)"/>
</g>
<path d="M213.85 203.697V592H79.0996V143H80.0696L213.85 203.697Z" fill="#0C5775"/>
<g opacity="0.39">
<path opacity="0.35" d="M88.5195 200.928H102.52V195.01H88.5195V200.928Z" fill="url(#paint19_linear_2452_1667)"/>
<path opacity="0.35" d="M166.589 200.928H180.739V195.01H166.589V200.928Z" fill="url(#paint20_linear_2452_1667)"/>
<path opacity="0.35" d="M166.66 235.325H180.81V229.407H166.66V235.325Z" fill="url(#paint21_linear_2452_1667)"/>
<path opacity="0.35" d="M88.6699 252.688H102.67V246.77H88.6699V252.688Z" fill="url(#paint22_linear_2452_1667)"/>
<path opacity="0.35" d="M114.38 269.771H128.6V263.854H114.38V269.771Z" fill="url(#paint23_linear_2452_1667)"/>
<path opacity="0.35" d="M88.6895 304.508H102.689V298.591H88.6895V304.508Z" fill="url(#paint24_linear_2452_1667)"/>
<path opacity="0.35" d="M166.77 304.508H180.92V298.591H166.77V304.508Z" fill="url(#paint25_linear_2452_1667)"/>
<path opacity="0.35" d="M140.75 338.905H154.97V332.988H140.75V338.905Z" fill="url(#paint26_linear_2452_1667)"/>
<path opacity="0.35" d="M140.33 373.232H154.55V367.315H140.33V373.232Z" fill="url(#paint27_linear_2452_1667)"/>
</g>
<g opacity="0.39">
<path opacity="0.35" d="M76.4601 380.51H90.3301V374.642H76.4601V380.51Z" fill="url(#paint28_linear_2452_1667)"/>
<path opacity="0.35" d="M153.79 380.51H167.81V374.642H153.79V380.51Z" fill="url(#paint29_linear_2452_1667)"/>
<path opacity="0.35" d="M153.86 414.587H167.88V408.719H153.86V414.587Z" fill="url(#paint30_linear_2452_1667)"/>
<path opacity="0.35" d="M76.5997 431.78H90.4697V425.913H76.5997V431.78Z" fill="url(#paint31_linear_2452_1667)"/>
<path opacity="0.35" d="M102.08 448.694H116.16V442.826H102.08V448.694Z" fill="url(#paint32_linear_2452_1667)"/>
<path opacity="0.35" d="M76.6398 483.111H90.5098V477.243H76.6398V483.111Z" fill="url(#paint33_linear_2452_1667)"/>
<path opacity="0.35" d="M153.959 483.111H167.979V477.243H153.959V483.111Z" fill="url(#paint34_linear_2452_1667)"/>
<path opacity="0.35" d="M128.2 517.178H142.28V511.31H128.2V517.178Z" fill="url(#paint35_linear_2452_1667)"/>
<path opacity="0.35" d="M127.79 551.185H141.87V545.317H127.79V551.185Z" fill="url(#paint36_linear_2452_1667)"/>
</g>
<path d="M67.87 0V592H0V66.612H9.59001V13.9562C9.59001 6.24833 15.75 0 23.35 0H67.87Z" fill="#0C5775"/>
<g opacity="0.22">
<path opacity="0.6" d="M21.2899 206.645H55.5899C57.7299 206.645 59.4699 208.384 59.4699 210.523V213.113H17.4199V210.523C17.4199 208.384 19.1599 206.645 21.2999 206.645H21.2899Z" fill="url(#paint37_linear_2452_1667)"/>
<path opacity="0.6" d="M21.2899 258.78H55.5899C57.7299 258.78 59.4699 260.52 59.4699 262.659V265.248H17.4199V262.659C17.4199 260.52 19.1599 258.78 21.2999 258.78H21.2899Z" fill="url(#paint38_linear_2452_1667)"/>
<path opacity="0.6" d="M21.2899 312.216H55.5899C57.7299 312.216 59.4699 313.955 59.4699 316.095V318.684H17.4199V316.095C17.4199 313.955 19.1599 312.216 21.2999 312.216H21.2899Z" fill="url(#paint39_linear_2452_1667)"/>
</g>
<path d="M211.23 207.49C215.77 215.75 220.01 219.74 223.96 219.47C232.99 218.85 240.48 195.89 246.42 150.6" stroke="#0C5775" stroke-width="0.56" stroke-miterlimit="10"/>
<path d="M211.371 217.26C215.911 225.52 220.151 229.51 224.101 229.24C233.131 228.62 240.621 205.66 246.561 160.37" stroke="#0C5775" stroke-width="0.56" stroke-miterlimit="10"/>
<defs>
<linearGradient id="paint0_linear_2452_1667" x1="534.641" y1="351.469" x2="534.641" y2="266.615" gradientUnits="userSpaceOnUse">
<stop stop-color="#188AA9"/>
<stop offset="0.43" stop-color="#127290" stop-opacity="0.54"/>
<stop offset="0.82" stop-color="#0D5E7C" stop-opacity="0.15"/>
<stop offset="1" stop-color="#0C5775" stop-opacity="0"/>
</linearGradient>
<linearGradient id="paint1_linear_2452_1667" x1="503.301" y1="382.606" x2="567.361" y2="382.606" gradientUnits="userSpaceOnUse">
<stop stop-color="#188AA9"/>
<stop offset="0.43" stop-color="#127290" stop-opacity="0.54"/>
<stop offset="0.82" stop-color="#0D5E7C" stop-opacity="0.15"/>
<stop offset="1" stop-color="#0C5775" stop-opacity="0"/>
</linearGradient>
<linearGradient id="paint2_linear_2452_1667" x1="503.301" y1="403.104" x2="567.361" y2="403.104" gradientUnits="userSpaceOnUse">
<stop stop-color="#188AA9"/>
<stop offset="0.43" stop-color="#127290" stop-opacity="0.54"/>
<stop offset="0.82" stop-color="#0D5E7C" stop-opacity="0.15"/>
<stop offset="1" stop-color="#0C5775" stop-opacity="0"/>
</linearGradient>
<linearGradient id="paint3_linear_2452_1667" x1="503.301" y1="437.262" x2="567.361" y2="437.262" gradientUnits="userSpaceOnUse">
<stop stop-color="#188AA9"/>
<stop offset="0.43" stop-color="#127290" stop-opacity="0.54"/>
<stop offset="0.82" stop-color="#0D5E7C" stop-opacity="0.15"/>
<stop offset="1" stop-color="#0C5775" stop-opacity="0"/>
</linearGradient>
<linearGradient id="paint4_linear_2452_1667" x1="503.301" y1="452.641" x2="567.361" y2="452.641" gradientUnits="userSpaceOnUse">
<stop stop-color="#188AA9"/>
<stop offset="0.43" stop-color="#127290" stop-opacity="0.54"/>
<stop offset="0.82" stop-color="#0D5E7C" stop-opacity="0.15"/>
<stop offset="1" stop-color="#0C5775" stop-opacity="0"/>
</linearGradient>
<linearGradient id="paint5_linear_2452_1667" x1="503.301" y1="479.559" x2="567.361" y2="479.559" gradientUnits="userSpaceOnUse">
<stop stop-color="#188AA9"/>
<stop offset="0.43" stop-color="#127290" stop-opacity="0.54"/>
<stop offset="0.82" stop-color="#0D5E7C" stop-opacity="0.15"/>
<stop offset="1" stop-color="#0C5775" stop-opacity="0"/>
</linearGradient>
<linearGradient id="paint6_linear_2452_1667" x1="503.301" y1="500.057" x2="567.361" y2="500.057" gradientUnits="userSpaceOnUse">
<stop stop-color="#188AA9"/>
<stop offset="0.43" stop-color="#127290" stop-opacity="0.54"/>
<stop offset="0.82" stop-color="#0D5E7C" stop-opacity="0.15"/>
<stop offset="1" stop-color="#0C5775" stop-opacity="0"/>
</linearGradient>
<linearGradient id="paint7_linear_2452_1667" x1="503.301" y1="534.225" x2="567.361" y2="534.225" gradientUnits="userSpaceOnUse">
<stop stop-color="#188AA9"/>
<stop offset="0.43" stop-color="#127290" stop-opacity="0.54"/>
<stop offset="0.82" stop-color="#0D5E7C" stop-opacity="0.15"/>
<stop offset="1" stop-color="#0C5775" stop-opacity="0"/>
</linearGradient>
<linearGradient id="paint8_linear_2452_1667" x1="503.301" y1="549.593" x2="567.361" y2="549.593" gradientUnits="userSpaceOnUse">
<stop stop-color="#188AA9"/>
<stop offset="0.43" stop-color="#127290" stop-opacity="0.54"/>
<stop offset="0.82" stop-color="#0D5E7C" stop-opacity="0.15"/>
<stop offset="1" stop-color="#0C5775" stop-opacity="0"/>
</linearGradient>
<linearGradient id="paint9_linear_2452_1667" x1="359.83" y1="112.568" x2="408.49" y2="112.568" gradientUnits="userSpaceOnUse">
<stop stop-color="#188AA9"/>
<stop offset="0.43" stop-color="#127290" stop-opacity="0.54"/>
<stop offset="0.82" stop-color="#0D5E7C" stop-opacity="0.15"/>
<stop offset="1" stop-color="#0C5775" stop-opacity="0"/>
</linearGradient>
<linearGradient id="paint10_linear_2452_1667" x1="359.83" y1="141.127" x2="408.49" y2="141.127" gradientUnits="userSpaceOnUse">
<stop stop-color="#188AA9"/>
<stop offset="0.43" stop-color="#127290" stop-opacity="0.54"/>
<stop offset="0.82" stop-color="#0D5E7C" stop-opacity="0.15"/>
<stop offset="1" stop-color="#0C5775" stop-opacity="0"/>
</linearGradient>
<linearGradient id="paint11_linear_2452_1667" x1="359.83" y1="183.97" x2="408.49" y2="183.97" gradientUnits="userSpaceOnUse">
<stop stop-color="#188AA9"/>
<stop offset="0.43" stop-color="#127290" stop-opacity="0.54"/>
<stop offset="0.82" stop-color="#0D5E7C" stop-opacity="0.15"/>
<stop offset="1" stop-color="#0C5775" stop-opacity="0"/>
</linearGradient>
<linearGradient id="paint12_linear_2452_1667" x1="359.83" y1="241.537" x2="408.49" y2="241.537" gradientUnits="userSpaceOnUse">
<stop stop-color="#188AA9"/>
<stop offset="0.43" stop-color="#127290" stop-opacity="0.54"/>
<stop offset="0.82" stop-color="#0D5E7C" stop-opacity="0.15"/>
<stop offset="1" stop-color="#0C5775" stop-opacity="0"/>
</linearGradient>
<linearGradient id="paint13_linear_2452_1667" x1="255.87" y1="155.391" x2="304.53" y2="155.391" gradientUnits="userSpaceOnUse">
<stop stop-color="#188AA9"/>
<stop offset="0.43" stop-color="#127290" stop-opacity="0.54"/>
<stop offset="0.82" stop-color="#0D5E7C" stop-opacity="0.15"/>
<stop offset="1" stop-color="#0C5775" stop-opacity="0"/>
</linearGradient>
<linearGradient id="paint14_linear_2452_1667" x1="255.87" y1="226.793" x2="304.53" y2="226.793" gradientUnits="userSpaceOnUse">
<stop stop-color="#188AA9"/>
<stop offset="0.43" stop-color="#127290" stop-opacity="0.54"/>
<stop offset="0.82" stop-color="#0D5E7C" stop-opacity="0.15"/>
<stop offset="1" stop-color="#0C5775" stop-opacity="0"/>
</linearGradient>
<linearGradient id="paint15_linear_2452_1667" x1="306.779" y1="270.006" x2="355.439" y2="270.006" gradientUnits="userSpaceOnUse">
<stop stop-color="#188AA9"/>
<stop offset="0.43" stop-color="#127290" stop-opacity="0.54"/>
<stop offset="0.82" stop-color="#0D5E7C" stop-opacity="0.15"/>
<stop offset="1" stop-color="#0C5775" stop-opacity="0"/>
</linearGradient>
<linearGradient id="paint16_linear_2452_1667" x1="306.779" y1="341.408" x2="355.439" y2="341.408" gradientUnits="userSpaceOnUse">
<stop stop-color="#188AA9"/>
<stop offset="0.43" stop-color="#127290" stop-opacity="0.54"/>
<stop offset="0.82" stop-color="#0D5E7C" stop-opacity="0.15"/>
<stop offset="1" stop-color="#0C5775" stop-opacity="0"/>
</linearGradient>
<linearGradient id="paint17_linear_2452_1667" x1="252.87" y1="312.539" x2="301.53" y2="312.539" gradientUnits="userSpaceOnUse">
<stop stop-color="#188AA9"/>
<stop offset="0.43" stop-color="#127290" stop-opacity="0.54"/>
<stop offset="0.82" stop-color="#0D5E7C" stop-opacity="0.15"/>
<stop offset="1" stop-color="#0C5775" stop-opacity="0"/>
</linearGradient>
<linearGradient id="paint18_linear_2452_1667" x1="252.87" y1="412.5" x2="301.53" y2="412.5" gradientUnits="userSpaceOnUse">
<stop stop-color="#188AA9"/>
<stop offset="0.43" stop-color="#127290" stop-opacity="0.54"/>
<stop offset="0.82" stop-color="#0D5E7C" stop-opacity="0.15"/>
<stop offset="1" stop-color="#0C5775" stop-opacity="0"/>
</linearGradient>
<linearGradient id="paint19_linear_2452_1667" x1="102.53" y1="197.969" x2="88.5195" y2="197.969" gradientUnits="userSpaceOnUse">
<stop stop-color="#188AA9"/>
<stop offset="0.43" stop-color="#127290" stop-opacity="0.54"/>
<stop offset="0.82" stop-color="#0D5E7C" stop-opacity="0.15"/>
<stop offset="1" stop-color="#0C5775" stop-opacity="0"/>
</linearGradient>
<linearGradient id="paint20_linear_2452_1667" x1="166.589" y1="197.969" x2="180.739" y2="197.969" gradientUnits="userSpaceOnUse">
<stop stop-color="#188AA9"/>
<stop offset="0.43" stop-color="#127290" stop-opacity="0.54"/>
<stop offset="0.82" stop-color="#0D5E7C" stop-opacity="0.15"/>
<stop offset="1" stop-color="#0C5775" stop-opacity="0"/>
</linearGradient>
<linearGradient id="paint21_linear_2452_1667" x1="180.82" y1="232.366" x2="166.66" y2="232.366" gradientUnits="userSpaceOnUse">
<stop stop-color="#188AA9"/>
<stop offset="0.43" stop-color="#127290" stop-opacity="0.54"/>
<stop offset="0.82" stop-color="#0D5E7C" stop-opacity="0.15"/>
<stop offset="1" stop-color="#0C5775" stop-opacity="0"/>
</linearGradient>
<linearGradient id="paint22_linear_2452_1667" x1="88.6599" y1="249.729" x2="102.67" y2="249.729" gradientUnits="userSpaceOnUse">
<stop stop-color="#188AA9"/>
<stop offset="0.43" stop-color="#127290" stop-opacity="0.54"/>
<stop offset="0.82" stop-color="#0D5E7C" stop-opacity="0.15"/>
<stop offset="1" stop-color="#0C5775" stop-opacity="0"/>
</linearGradient>
<linearGradient id="paint23_linear_2452_1667" x1="114.38" y1="266.803" x2="128.6" y2="266.803" gradientUnits="userSpaceOnUse">
<stop stop-color="#188AA9"/>
<stop offset="0.43" stop-color="#127290" stop-opacity="0.54"/>
<stop offset="0.82" stop-color="#0D5E7C" stop-opacity="0.15"/>
<stop offset="1" stop-color="#0C5775" stop-opacity="0"/>
</linearGradient>
<linearGradient id="paint24_linear_2452_1667" x1="102.689" y1="301.539" x2="88.6895" y2="301.539" gradientUnits="userSpaceOnUse">
<stop stop-color="#188AA9"/>
<stop offset="0.43" stop-color="#127290" stop-opacity="0.54"/>
<stop offset="0.82" stop-color="#0D5E7C" stop-opacity="0.15"/>
<stop offset="1" stop-color="#0C5775" stop-opacity="0"/>
</linearGradient>
<linearGradient id="paint25_linear_2452_1667" x1="166.76" y1="301.539" x2="180.91" y2="301.539" gradientUnits="userSpaceOnUse">
<stop stop-color="#188AA9"/>
<stop offset="0.43" stop-color="#127290" stop-opacity="0.54"/>
<stop offset="0.82" stop-color="#0D5E7C" stop-opacity="0.15"/>
<stop offset="1" stop-color="#0C5775" stop-opacity="0"/>
</linearGradient>
<linearGradient id="paint26_linear_2452_1667" x1="154.97" y1="335.936" x2="140.76" y2="335.936" gradientUnits="userSpaceOnUse">
<stop stop-color="#188AA9"/>
<stop offset="0.43" stop-color="#127290" stop-opacity="0.54"/>
<stop offset="0.82" stop-color="#0D5E7C" stop-opacity="0.15"/>
<stop offset="1" stop-color="#0C5775" stop-opacity="0"/>
</linearGradient>
<linearGradient id="paint27_linear_2452_1667" x1="140.33" y1="370.274" x2="154.55" y2="370.274" gradientUnits="userSpaceOnUse">
<stop stop-color="#188AA9"/>
<stop offset="0.43" stop-color="#127290" stop-opacity="0.54"/>
<stop offset="0.82" stop-color="#0D5E7C" stop-opacity="0.15"/>
<stop offset="1" stop-color="#0C5775" stop-opacity="0"/>
</linearGradient>
<linearGradient id="paint28_linear_2452_1667" x1="90.3301" y1="377.581" x2="76.4601" y2="377.581" gradientUnits="userSpaceOnUse">
<stop stop-color="#188AA9"/>
<stop offset="0.43" stop-color="#127290" stop-opacity="0.54"/>
<stop offset="0.82" stop-color="#0D5E7C" stop-opacity="0.15"/>
<stop offset="1" stop-color="#0C5775" stop-opacity="0"/>
</linearGradient>
<linearGradient id="paint29_linear_2452_1667" x1="153.79" y1="377.581" x2="167.81" y2="377.581" gradientUnits="userSpaceOnUse">
<stop stop-color="#188AA9"/>
<stop offset="0.43" stop-color="#127290" stop-opacity="0.54"/>
<stop offset="0.82" stop-color="#0D5E7C" stop-opacity="0.15"/>
<stop offset="1" stop-color="#0C5775" stop-opacity="0"/>
</linearGradient>
<linearGradient id="paint30_linear_2452_1667" x1="167.87" y1="411.648" x2="153.86" y2="411.648" gradientUnits="userSpaceOnUse">
<stop stop-color="#188AA9"/>
<stop offset="0.43" stop-color="#127290" stop-opacity="0.54"/>
<stop offset="0.82" stop-color="#0D5E7C" stop-opacity="0.15"/>
<stop offset="1" stop-color="#0C5775" stop-opacity="0"/>
</linearGradient>
<linearGradient id="paint31_linear_2452_1667" x1="76.6097" y1="428.851" x2="90.4797" y2="428.851" gradientUnits="userSpaceOnUse">
<stop stop-color="#188AA9"/>
<stop offset="0.43" stop-color="#127290" stop-opacity="0.54"/>
<stop offset="0.82" stop-color="#0D5E7C" stop-opacity="0.15"/>
<stop offset="1" stop-color="#0C5775" stop-opacity="0"/>
</linearGradient>
<linearGradient id="paint32_linear_2452_1667" x1="102.08" y1="445.765" x2="116.16" y2="445.765" gradientUnits="userSpaceOnUse">
<stop stop-color="#188AA9"/>
<stop offset="0.43" stop-color="#127290" stop-opacity="0.54"/>
<stop offset="0.82" stop-color="#0D5E7C" stop-opacity="0.15"/>
<stop offset="1" stop-color="#0C5775" stop-opacity="0"/>
</linearGradient>
<linearGradient id="paint33_linear_2452_1667" x1="90.5098" y1="480.172" x2="76.6398" y2="480.172" gradientUnits="userSpaceOnUse">
<stop stop-color="#188AA9"/>
<stop offset="0.43" stop-color="#127290" stop-opacity="0.54"/>
<stop offset="0.82" stop-color="#0D5E7C" stop-opacity="0.15"/>
<stop offset="1" stop-color="#0C5775" stop-opacity="0"/>
</linearGradient>
<linearGradient id="paint34_linear_2452_1667" x1="153.969" y1="480.172" x2="167.979" y2="480.172" gradientUnits="userSpaceOnUse">
<stop stop-color="#188AA9"/>
<stop offset="0.43" stop-color="#127290" stop-opacity="0.54"/>
<stop offset="0.82" stop-color="#0D5E7C" stop-opacity="0.15"/>
<stop offset="1" stop-color="#0C5775" stop-opacity="0"/>
</linearGradient>
<linearGradient id="paint35_linear_2452_1667" x1="142.28" y1="514.249" x2="128.2" y2="514.249" gradientUnits="userSpaceOnUse">
<stop stop-color="#188AA9"/>
<stop offset="0.43" stop-color="#127290" stop-opacity="0.54"/>
<stop offset="0.82" stop-color="#0D5E7C" stop-opacity="0.15"/>
<stop offset="1" stop-color="#0C5775" stop-opacity="0"/>
</linearGradient>
<linearGradient id="paint36_linear_2452_1667" x1="127.78" y1="548.246" x2="141.87" y2="548.246" gradientUnits="userSpaceOnUse">
<stop stop-color="#188AA9"/>
<stop offset="0.43" stop-color="#127290" stop-opacity="0.54"/>
<stop offset="0.82" stop-color="#0D5E7C" stop-opacity="0.15"/>
<stop offset="1" stop-color="#0C5775" stop-opacity="0"/>
</linearGradient>
<linearGradient id="paint37_linear_2452_1667" x1="17.4099" y1="209.874" x2="59.4599" y2="209.874" gradientUnits="userSpaceOnUse">
<stop stop-color="#188AA9"/>
<stop offset="0.43" stop-color="#127290" stop-opacity="0.54"/>
<stop offset="0.82" stop-color="#0D5E7C" stop-opacity="0.15"/>
<stop offset="1" stop-color="#0C5775" stop-opacity="0"/>
</linearGradient>
<linearGradient id="paint38_linear_2452_1667" x1="17.4099" y1="262.019" x2="59.4599" y2="262.019" gradientUnits="userSpaceOnUse">
<stop stop-color="#188AA9"/>
<stop offset="0.43" stop-color="#127290" stop-opacity="0.54"/>
<stop offset="0.82" stop-color="#0D5E7C" stop-opacity="0.15"/>
<stop offset="1" stop-color="#0C5775" stop-opacity="0"/>
</linearGradient>
<linearGradient id="paint39_linear_2452_1667" x1="17.4099" y1="315.445" x2="59.4599" y2="315.445" gradientUnits="userSpaceOnUse">
<stop stop-color="#188AA9"/>
<stop offset="0.43" stop-color="#127290" stop-opacity="0.54"/>
<stop offset="0.82" stop-color="#0D5E7C" stop-opacity="0.15"/>
<stop offset="1" stop-color="#0C5775" stop-opacity="0"/>
</linearGradient>
</defs>
</svg>
