<svg width="671" height="376" viewBox="0 0 671 376" fill="none" xmlns="http://www.w3.org/2000/svg">
<path d="M482.66 104.98C486.82 141.89 498.03 166.43 510.37 167.15C512.78 167.29 520.83 166.84 531.34 148.43" stroke="#002440" stroke-width="0.75" stroke-miterlimit="10"/>
<path d="M481.911 143.92C481.811 163.39 494.771 177.7 508.121 178.37C519.971 178.97 528.601 168.66 529.841 167.14" stroke="#002440" stroke-width="0.75" stroke-miterlimit="10"/>
<path d="M255.721 251.03C263.341 261.05 269.471 260.86 270.701 260.77C280.291 260.07 289.991 243.98 290.171 219.58" stroke="#002440" stroke-width="0.75" stroke-miterlimit="10"/>
<path d="M602.12 172.01C603.14 170.54 605.72 167.26 610.36 165.27C614.17 163.64 617.59 163.64 619.35 163.77" stroke="#002440" stroke-width="3.74" stroke-miterlimit="10" stroke-linecap="round"/>
<path d="M622.721 170.14C626.029 170.14 628.711 168.797 628.711 167.14C628.711 165.483 626.029 164.14 622.721 164.14C619.412 164.14 616.73 165.483 616.73 167.14C616.73 168.797 619.412 170.14 622.721 170.14Z" fill="#002440" stroke="#002440" stroke-width="4.99" stroke-miterlimit="10" stroke-linecap="round"/>
<path d="M623.1 172.76C626.409 172.76 629.09 171.417 629.09 169.76C629.09 168.103 626.409 166.76 623.1 166.76C619.792 166.76 617.11 168.103 617.11 169.76C617.11 171.417 619.792 172.76 623.1 172.76Z" fill="#F3F2FF"/>
<path opacity="0.4" d="M647.81 205.72H617.1V169.76H629.09L647.81 205.72Z" fill="url(#paint0_linear_2453_1904)"/>
<path d="M148.99 95.6103C147.97 94.1403 145.39 90.8603 140.75 88.8703C136.94 87.2403 133.52 87.2403 131.76 87.3703" stroke="#002440" stroke-width="3.74" stroke-miterlimit="10" stroke-linecap="round"/>
<path d="M128.39 93.7505C131.699 93.7505 134.38 92.4073 134.38 90.7505C134.38 89.0936 131.699 87.7505 128.39 87.7505C125.082 87.7505 122.4 89.0936 122.4 90.7505C122.4 92.4073 125.082 93.7505 128.39 93.7505Z" fill="#002440" stroke="#002440" stroke-width="4.99" stroke-miterlimit="10" stroke-linecap="round"/>
<path d="M128.01 96.3701C131.318 96.3701 134 95.027 134 93.3701C134 91.7133 131.318 90.3701 128.01 90.3701C124.701 90.3701 122.02 91.7133 122.02 93.3701C122.02 95.027 124.701 96.3701 128.01 96.3701Z" fill="#F3F2FF"/>
<path opacity="0.4" d="M147.49 185.49L103.3 186.24L122.02 93.3701H134.01L147.49 185.49Z" fill="url(#paint1_linear_2453_1904)"/>
<path d="M670.318 376H612.998V206.773H658.418C664.988 206.773 670.318 212.089 670.318 218.642V375.99V376Z" fill="#002440"/>
<path d="M657.828 200V207.531" stroke="#002440" stroke-width="0.96" stroke-miterlimit="10" stroke-linecap="round"/>
<g opacity="0.43">
<path opacity="0.6" d="M663.179 260.436V264.894H615.269V253.424L663.179 260.436Z" fill="url(#paint2_linear_2453_1904)"/>
<path opacity="0.6" d="M615.269 298.668V294.209H663.179V305.68L615.269 298.668Z" fill="url(#paint3_linear_2453_1904)"/>
<path opacity="0.6" d="M663.179 312.692V317.151H615.269V305.68L663.179 312.692Z" fill="url(#paint4_linear_2453_1904)"/>
<path opacity="0.6" d="M615.468 247.918V243.459H663.388V254.93L615.468 247.918Z" fill="url(#paint5_linear_2453_1904)"/>
<path opacity="0.6" d="M663.148 349.976V354.435H615.238V342.964L663.148 349.976Z" fill="url(#paint6_linear_2453_1904)"/>
</g>
<path d="M612.99 178.725V376H528V146H580.08L612.99 178.725Z" fill="#002440"/>
<g opacity="0.31">
<path d="M605.07 185.04H590.12V191.154H605.07V185.04Z" fill="#F3F2FF"/>
<path d="M550.16 220.582H535.28V226.696H550.16V220.582Z" fill="#F3F2FF"/>
<path d="M604.91 238.523H589.96V244.638H604.91V238.523Z" fill="#0C5775"/>
<path d="M550.05 292.066H535.17V298.181H550.05V292.066Z" fill="#0C5775"/>
<path d="M577.41 327.608H562.46V333.722H577.41V327.608Z" fill="#0C5775"/>
<path d="M577.85 363.081H562.9V369.195H577.85V363.081Z" fill="#F3F2FF"/>
<path d="M577.81 169.414H562.86V175.528H577.81V169.414Z" fill="#0C5775"/>
</g>
<path d="M487.62 77.1362V376H391V77.1362H408.23V127.213H440.44V77.1362H487.62Z" fill="#002440"/>
<path d="M455.35 71.8315V76.9661" stroke="#002440" stroke-width="0.99" stroke-miterlimit="10" stroke-linecap="square"/>
<path d="M473.46 71.8315V76.9661" stroke="#002440" stroke-width="0.99" stroke-miterlimit="10" stroke-linecap="square"/>
<path d="M474.89 67.2065H453.92V72.3511H474.89V67.2065Z" fill="#002440"/>
<path d="M455.37 64V69.1346" stroke="#002440" stroke-width="0.99" stroke-miterlimit="10" stroke-linecap="round"/>
<g opacity="0.4">
<path d="M402.24 150.039H476.39V156.572C476.39 158.97 474.44 160.908 472.05 160.908H406.59C404.19 160.908 402.25 158.96 402.25 156.572V150.039H402.24Z" fill="url(#paint7_linear_2453_1904)"/>
<path d="M402.24 193.522H476.39V200.056C476.39 202.453 474.44 204.391 472.05 204.391H406.59C404.19 204.391 402.25 202.443 402.25 200.056V193.522H402.24Z" fill="#0C5775"/>
<path d="M402.24 237.017H476.39V243.55C476.39 245.947 474.44 247.885 472.05 247.885H406.59C404.19 247.885 402.25 245.937 402.25 243.55V237.017H402.24Z" fill="#0C5775"/>
<path d="M402.24 258.764H476.39V265.297C476.39 267.694 474.44 269.632 472.05 269.632H406.59C404.19 269.632 402.25 267.684 402.25 265.297V258.764H402.24Z" fill="url(#paint8_linear_2453_1904)"/>
<path d="M402.24 302.258H476.39V308.791C476.39 311.188 474.44 313.126 472.05 313.126H406.59C404.19 313.126 402.25 311.178 402.25 308.791V302.258H402.24Z" fill="url(#paint9_linear_2453_1904)"/>
<path d="M402.24 346.431H476.39V352.964C476.39 355.362 474.44 357.3 472.05 357.3H406.59C404.19 357.3 402.25 355.352 402.25 352.964V346.431H402.24Z" fill="#0C5775"/>
</g>
<path d="M375.88 203.861H286V376H375.88V203.861Z" fill="#002440"/>
<path d="M315.96 198H291.24V203.981H315.96V198Z" fill="#002440"/>
<g opacity="0.4">
<path d="M319.391 225.799C319.391 228.116 320.791 229.993 322.521 229.993H360.431C362.161 229.993 363.561 228.116 363.561 225.789C363.561 223.473 362.161 221.585 360.431 221.585H322.521C320.791 221.585 319.391 223.473 319.391 225.789V225.799Z" fill="url(#paint10_linear_2453_1904)"/>
<path d="M298.73 240.308C298.73 242.625 300.13 244.512 301.86 244.512H316.27C318 244.512 319.4 242.625 319.4 240.308C319.4 237.992 318 236.114 316.27 236.114H301.86C300.13 236.114 298.73 237.992 298.73 240.318V240.308Z" fill="url(#paint11_linear_2453_1904)"/>
<path d="M319.421 269.346C319.421 271.662 320.821 273.54 322.551 273.54H338.691C340.421 273.54 341.821 271.662 341.821 269.336C341.821 267.019 340.421 265.132 338.691 265.132H322.551C320.821 265.132 319.421 267.019 319.421 269.336V269.346Z" fill="#0C5775"/>
<path d="M298.73 283.855C298.73 286.171 300.13 288.059 301.86 288.059H338.69C340.42 288.059 341.82 286.181 341.82 283.855C341.82 281.538 340.42 279.651 338.69 279.651H301.86C300.13 279.651 298.73 281.528 298.73 283.855Z" fill="url(#paint12_linear_2453_1904)"/>
<path d="M319.431 298.374C319.431 300.69 320.831 302.567 322.561 302.567H360.431C362.161 302.567 363.561 300.69 363.561 298.364C363.561 296.047 362.161 294.16 360.431 294.16H322.561C320.831 294.16 319.431 296.047 319.431 298.364V298.374Z" fill="url(#paint13_linear_2453_1904)"/>
<path d="M341.811 327.401C341.811 329.717 343.211 331.604 344.941 331.604H360.431C362.161 331.604 363.561 329.727 363.561 327.401C363.561 325.084 362.161 323.197 360.431 323.197H344.941C343.211 323.197 341.811 325.074 341.811 327.401Z" fill="#0C5775"/>
<path d="M298.73 341.92C298.73 344.236 300.13 346.124 301.86 346.124H338.69C340.42 346.124 341.82 344.246 341.82 341.92C341.82 339.603 340.42 337.716 338.69 337.716H301.86C300.13 337.716 298.73 339.593 298.73 341.92Z" fill="url(#paint14_linear_2453_1904)"/>
<path d="M319.471 356.429C319.471 358.746 320.871 360.633 322.601 360.633H360.431C362.161 360.633 363.561 358.756 363.561 356.429C363.561 354.112 362.161 352.225 360.431 352.225H322.601C320.871 352.225 319.471 354.102 319.471 356.429Z" fill="url(#paint15_linear_2453_1904)"/>
</g>
<path d="M262.1 141.494V376H205.92V108.603H206.39L262.1 141.494Z" fill="#002440"/>
<path d="M205.92 0V376H152V26.3607L205.65 0H205.92Z" fill="#002440"/>
<g opacity="0.58">
<path opacity="0.39" d="M176.4 41.1909H162.41V47.1509H176.4V41.1909Z" fill="#0C5775"/>
<path opacity="0.39" d="M198.93 72.0518H184.94V78.0117H198.93V72.0518Z" fill="#F3F2FF"/>
<path opacity="0.39" d="M198.93 160.544H184.94V166.504H198.93V160.544Z" fill="#0C5775"/>
<path opacity="0.39" d="M176.4 206.575H162.41V212.535H176.4V206.575Z" fill="#F3F2FF"/>
<path opacity="0.39" d="M176.4 237.266H162.41V243.226H176.4V237.266Z" fill="#0C5775"/>
<path opacity="0.39" d="M176.4 313.588H162.41V319.548H176.4V313.588Z" fill="#F3F2FF"/>
<path opacity="0.39" d="M236.13 350.639H250.12V344.679H236.13V350.639Z" fill="#0C5775"/>
<path opacity="0.39" d="M211.48 289.168H225.47V283.208H211.48V289.168Z" fill="#0C5775"/>
<path opacity="0.39" d="M236.13 231.276H250.12V225.316H236.13V231.276Z" fill="#F3F2FF"/>
<path opacity="0.39" d="M211.48 154.554H225.47V148.594H211.48V154.554Z" fill="#0C5775"/>
</g>
<path d="M116.85 160.496C116.73 130.225 92.1501 105.725 61.8601 105.725C31.5701 105.725 6.99012 130.215 6.87012 160.496" fill="#002440"/>
<path d="M116.85 160.496C116.73 130.225 92.1501 105.725 61.8601 105.725C31.5701 105.725 6.99012 130.215 6.87012 160.496" stroke="#002440" stroke-width="0.76" stroke-miterlimit="10"/>
<path d="M124.98 159.846H0V376H124.98V159.846Z" fill="#002440"/>
<path d="M55.9698 111.005L59.2398 41.5032C59.3098 40.0531 60.5398 38.9331 61.9798 39.0031C63.3398 39.0631 64.4098 40.1731 64.4798 41.5032L67.7498 111.005C67.7898 119.165 55.9398 119.195 55.9698 111.005Z" fill="#002440"/>
<g opacity="0.4">
<path d="M94.9102 158.365H28.6802C23.7802 158.365 20.3402 153.555 21.9002 148.905C27.4902 132.235 43.2402 120.225 61.7902 120.225C80.3402 120.225 96.0802 132.235 101.68 148.905C103.24 153.555 99.8102 158.365 94.9002 158.365H94.9102Z" fill="url(#paint16_linear_2453_1904)"/>
<path d="M82.6099 352.26C82.6099 349.25 80.3399 346.81 77.5499 346.81H16.2299C13.4399 346.81 11.1699 349.25 11.1699 352.27C11.1699 355.28 13.4399 357.73 16.2299 357.73H77.5499C80.3499 357.73 82.6099 355.28 82.6099 352.27V352.26Z" fill="url(#paint17_linear_2453_1904)"/>
<path d="M116.03 333.419C116.03 330.409 113.76 327.959 110.97 327.959H87.6596C84.8596 327.959 82.5996 330.409 82.5996 333.419C82.5996 336.429 84.8696 338.869 87.6596 338.869H110.97C113.76 338.869 116.03 336.429 116.03 333.409V333.419Z" fill="url(#paint18_linear_2453_1904)"/>
<path d="M46.73 295.719C46.73 292.709 44.46 290.269 41.67 290.269H15.56C12.77 290.269 10.5 292.709 10.5 295.729C10.5 298.739 12.77 301.189 15.56 301.189H41.67C44.47 301.189 46.73 298.739 46.73 295.729V295.719Z" fill="#F3F2FF"/>
<path d="M116.03 276.878C116.03 273.868 113.76 271.418 110.97 271.418H51.3998C48.6098 271.418 46.3398 273.858 46.3398 276.878C46.3398 279.888 48.6098 282.338 51.3998 282.338H110.97C113.76 282.338 116.03 279.898 116.03 276.878Z" fill="url(#paint19_linear_2453_1904)"/>
<path d="M46.3402 220.336C46.3402 217.326 44.0702 214.876 41.2802 214.876H16.2202C13.4302 214.876 11.1602 217.316 11.1602 220.336C11.1602 223.346 13.4302 225.796 16.2202 225.796H41.2802C44.0702 225.796 46.3402 223.356 46.3402 220.336Z" fill="#0C5775"/>
<path d="M116.03 201.486C116.03 198.476 113.76 196.026 110.97 196.026H51.3998C48.6098 196.026 46.3398 198.466 46.3398 201.486C46.3398 204.496 48.6098 206.946 51.3998 206.946H110.97C113.76 206.946 116.03 204.506 116.03 201.486Z" fill="url(#paint20_linear_2453_1904)"/>
<path d="M82.4802 182.646C82.4802 179.636 80.2102 177.186 77.4202 177.186H16.2202C13.4302 177.186 11.1602 179.626 11.1602 182.646C11.1602 185.656 13.4302 188.106 16.2202 188.106H77.4202C80.2102 188.106 82.4802 185.666 82.4802 182.646Z" fill="url(#paint21_linear_2453_1904)"/>
</g>
<defs>
<linearGradient id="paint0_linear_2453_1904" x1="632.46" y1="169.76" x2="632.46" y2="205.72" gradientUnits="userSpaceOnUse">
<stop stop-color="#F3F2FF"/>
<stop offset="1" stop-color="#188AA9" stop-opacity="0"/>
</linearGradient>
<linearGradient id="paint1_linear_2453_1904" x1="125.39" y1="93.3701" x2="125.39" y2="186.24" gradientUnits="userSpaceOnUse">
<stop stop-color="#F3F2FF"/>
<stop offset="1" stop-color="#188AA9" stop-opacity="0"/>
</linearGradient>
<linearGradient id="paint2_linear_2453_1904" x1="615.269" y1="259.159" x2="663.179" y2="259.159" gradientUnits="userSpaceOnUse">
<stop stop-color="#0C5775"/>
<stop offset="0.21" stop-color="#094B68" stop-opacity="0.77"/>
<stop offset="0.75" stop-color="#022F4B" stop-opacity="0.22"/>
<stop offset="1" stop-color="#002440" stop-opacity="0"/>
</linearGradient>
<linearGradient id="paint3_linear_2453_1904" x1="615.269" y1="299.945" x2="663.179" y2="299.945" gradientUnits="userSpaceOnUse">
<stop stop-color="#F3F2FF"/>
<stop offset="1" stop-color="#002440" stop-opacity="0"/>
</linearGradient>
<linearGradient id="paint4_linear_2453_1904" x1="615.269" y1="311.416" x2="663.179" y2="311.416" gradientUnits="userSpaceOnUse">
<stop stop-color="#0C5775"/>
<stop offset="0.21" stop-color="#094B68" stop-opacity="0.77"/>
<stop offset="0.75" stop-color="#022F4B" stop-opacity="0.22"/>
<stop offset="1" stop-color="#002440" stop-opacity="0"/>
</linearGradient>
<linearGradient id="paint5_linear_2453_1904" x1="615.468" y1="249.194" x2="663.388" y2="249.194" gradientUnits="userSpaceOnUse">
<stop stop-color="#0C5775"/>
<stop offset="0.21" stop-color="#094B68" stop-opacity="0.77"/>
<stop offset="0.75" stop-color="#022F4B" stop-opacity="0.22"/>
<stop offset="1" stop-color="#002440" stop-opacity="0"/>
</linearGradient>
<linearGradient id="paint6_linear_2453_1904" x1="615.238" y1="348.7" x2="663.148" y2="348.7" gradientUnits="userSpaceOnUse">
<stop stop-color="#0C5775"/>
<stop offset="0.21" stop-color="#094B68" stop-opacity="0.77"/>
<stop offset="0.75" stop-color="#022F4B" stop-opacity="0.22"/>
<stop offset="1" stop-color="#002440" stop-opacity="0"/>
</linearGradient>
<linearGradient id="paint7_linear_2453_1904" x1="402.24" y1="155.473" x2="476.39" y2="155.473" gradientUnits="userSpaceOnUse">
<stop stop-color="#F3F2FF"/>
<stop offset="1" stop-color="#002440" stop-opacity="0"/>
</linearGradient>
<linearGradient id="paint8_linear_2453_1904" x1="402.24" y1="264.198" x2="476.39" y2="264.198" gradientUnits="userSpaceOnUse">
<stop stop-color="#0C5775"/>
<stop offset="0.21" stop-color="#094B68" stop-opacity="0.77"/>
<stop offset="0.75" stop-color="#022F4B" stop-opacity="0.22"/>
<stop offset="1" stop-color="#002440" stop-opacity="0"/>
</linearGradient>
<linearGradient id="paint9_linear_2453_1904" x1="402.24" y1="307.692" x2="476.39" y2="307.692" gradientUnits="userSpaceOnUse">
<stop stop-color="#F3F2FF"/>
<stop offset="1" stop-color="#002440" stop-opacity="0"/>
</linearGradient>
<linearGradient id="paint10_linear_2453_1904" x1="363.561" y1="225.799" x2="319.391" y2="225.799" gradientUnits="userSpaceOnUse">
<stop stop-color="#002440" stop-opacity="0"/>
<stop offset="1" stop-color="#F3F2FF"/>
</linearGradient>
<linearGradient id="paint11_linear_2453_1904" x1="319.39" y1="240.308" x2="298.73" y2="240.308" gradientUnits="userSpaceOnUse">
<stop stop-color="#002440" stop-opacity="0"/>
<stop offset="0.25" stop-color="#022F4B" stop-opacity="0.22"/>
<stop offset="0.79" stop-color="#094B68" stop-opacity="0.77"/>
<stop offset="1" stop-color="#0C5775"/>
</linearGradient>
<linearGradient id="paint12_linear_2453_1904" x1="341.81" y1="283.855" x2="298.73" y2="283.855" gradientUnits="userSpaceOnUse">
<stop stop-color="#002440" stop-opacity="0"/>
<stop offset="1" stop-color="#F3F2FF"/>
</linearGradient>
<linearGradient id="paint13_linear_2453_1904" x1="363.561" y1="298.374" x2="319.431" y2="298.374" gradientUnits="userSpaceOnUse">
<stop stop-color="#002440" stop-opacity="0"/>
<stop offset="0.25" stop-color="#022F4B" stop-opacity="0.22"/>
<stop offset="0.79" stop-color="#094B68" stop-opacity="0.77"/>
<stop offset="1" stop-color="#0C5775"/>
</linearGradient>
<linearGradient id="paint14_linear_2453_1904" x1="341.81" y1="341.92" x2="546.18" y2="341.92" gradientUnits="userSpaceOnUse">
<stop stop-color="#002440" stop-opacity="0"/>
<stop offset="0.25" stop-color="#022F4B" stop-opacity="0.22"/>
<stop offset="0.79" stop-color="#094B68" stop-opacity="0.77"/>
<stop offset="1" stop-color="#0C5775"/>
</linearGradient>
<linearGradient id="paint15_linear_2453_1904" x1="363.561" y1="356.429" x2="319.471" y2="356.429" gradientUnits="userSpaceOnUse">
<stop stop-color="#002440" stop-opacity="0"/>
<stop offset="0.25" stop-color="#022F4B" stop-opacity="0.22"/>
<stop offset="0.79" stop-color="#094B68" stop-opacity="0.77"/>
<stop offset="1" stop-color="#0C5775"/>
</linearGradient>
<linearGradient id="paint16_linear_2453_1904" x1="21.5302" y1="139.295" x2="102.07" y2="139.295" gradientUnits="userSpaceOnUse">
<stop stop-color="#0C5775"/>
<stop offset="0.21" stop-color="#094B68" stop-opacity="0.77"/>
<stop offset="0.75" stop-color="#022F4B" stop-opacity="0.22"/>
<stop offset="1" stop-color="#002440" stop-opacity="0"/>
</linearGradient>
<linearGradient id="paint17_linear_2453_1904" x1="11.1699" y1="352.26" x2="82.6099" y2="352.26" gradientUnits="userSpaceOnUse">
<stop stop-color="#0C5775"/>
<stop offset="0.21" stop-color="#094B68" stop-opacity="0.77"/>
<stop offset="0.75" stop-color="#022F4B" stop-opacity="0.22"/>
<stop offset="1" stop-color="#002440" stop-opacity="0"/>
</linearGradient>
<linearGradient id="paint18_linear_2453_1904" x1="82.5996" y1="333.419" x2="116.03" y2="333.419" gradientUnits="userSpaceOnUse">
<stop stop-color="#F3F2FF"/>
<stop offset="1" stop-color="#002440" stop-opacity="0"/>
</linearGradient>
<linearGradient id="paint19_linear_2453_1904" x1="46.3398" y1="276.878" x2="116.03" y2="276.878" gradientUnits="userSpaceOnUse">
<stop stop-color="#0C5775"/>
<stop offset="0.21" stop-color="#094B68" stop-opacity="0.77"/>
<stop offset="0.75" stop-color="#022F4B" stop-opacity="0.22"/>
<stop offset="1" stop-color="#002440" stop-opacity="0"/>
</linearGradient>
<linearGradient id="paint20_linear_2453_1904" x1="46.3398" y1="201.486" x2="-137.93" y2="201.486" gradientUnits="userSpaceOnUse">
<stop stop-color="#F3F2FF"/>
<stop offset="1" stop-color="#002440" stop-opacity="0"/>
</linearGradient>
<linearGradient id="paint21_linear_2453_1904" x1="11.1702" y1="182.646" x2="82.4802" y2="182.646" gradientUnits="userSpaceOnUse">
<stop stop-color="#0C5775"/>
<stop offset="0.21" stop-color="#094B68" stop-opacity="0.77"/>
<stop offset="0.75" stop-color="#022F4B" stop-opacity="0.22"/>
<stop offset="1" stop-color="#002440" stop-opacity="0"/>
</linearGradient>
</defs>
</svg>
