<svg width="642" height="670" viewBox="0 0 642 670" fill="none" xmlns="http://www.w3.org/2000/svg">
<path d="M161.621 24.7148C161.121 31.4748 160.911 41.0948 162.371 52.4648C164.441 68.5748 171.031 97.0849 180.371 97.4649C182.411 97.5449 185.321 96.3249 188.991 90.3449" stroke="#188AA9" stroke-width="0.37" stroke-miterlimit="10"/>
<path d="M160.12 55.4648C160.61 58.1848 161.37 62.3748 162.37 67.4648C168.45 98.4448 171.6 113.945 177.37 114.715C179.29 114.965 182.4 113.785 187.12 105.715" stroke="#188AA9" stroke-width="0.37" stroke-miterlimit="10"/>
<path d="M535.12 192.715C544.24 216.025 558.25 230.415 569.62 228.715C571.74 228.395 574.31 227.435 577.12 224.965" stroke="#188AA9" stroke-width="0.37" stroke-miterlimit="10"/>
<path d="M534.37 224.965C535.43 226.365 547.29 241.615 564.37 239.965C569.83 239.435 574.17 237.335 577.12 235.465" stroke="#188AA9" stroke-width="0.37" stroke-miterlimit="10"/>
<path d="M575.25 222H576.07C612.46 222 642 251.556 642 287.967V670H575.25V222Z" fill="#188AA9"/>
<g opacity="0.21">
<path opacity="0.6" d="M629.97 353.703V358.185H581.99V346.669L629.97 353.703Z" fill="url(#paint0_linear_2452_1517)"/>
<path opacity="0.6" d="M581.99 392.114V387.632H629.97V399.148L581.99 392.114Z" fill="url(#paint1_linear_2452_1517)"/>
<path opacity="0.6" d="M629.97 406.192V410.674H581.99V399.148L629.97 406.192Z" fill="url(#paint2_linear_2452_1517)"/>
<path opacity="0.6" d="M629.94 443.653V448.126H581.96V436.609L629.94 443.653Z" fill="url(#paint3_linear_2452_1517)"/>
</g>
<g opacity="0.21">
<path opacity="0.6" d="M583.99 274.739V270.257H631.97V281.783L583.99 274.739Z" fill="url(#paint4_linear_2452_1517)"/>
<path opacity="0.6" d="M631.97 288.827V293.3H583.99V281.783L631.97 288.827Z" fill="url(#paint5_linear_2452_1517)"/>
</g>
<path d="M388.21 216H537V670H333V271.24C333 240.754 357.74 216 388.21 216Z" fill="#188AA9"/>
<g opacity="0.07">
<path d="M485.25 225.115H531V229.157C531 230.638 529.8 231.838 528.32 231.838H487.93C486.45 231.838 485.25 230.638 485.25 229.157V225.115Z" fill="url(#paint6_linear_2452_1517)"/>
<path d="M487.93 299.025C486.45 299.025 485.25 297.825 485.25 296.344V292.302H531V296.344C531 297.825 529.8 299.025 528.32 299.025" fill="url(#paint7_linear_2452_1517)"/>
<path d="M485.25 319.187H531V323.229C531 324.71 529.8 325.91 528.32 325.91H487.93C486.45 325.91 485.25 324.71 485.25 323.229V319.187Z" fill="url(#paint8_linear_2452_1517)"/>
<path d="M485.25 346.481H531V350.524C531 352.004 529.8 353.205 528.32 353.205H487.93C486.45 353.205 485.25 352.004 485.25 350.524V346.481Z" fill="url(#paint9_linear_2452_1517)"/>
</g>
<g opacity="0.07">
<path d="M428.73 238.723H474.48V242.765C474.48 244.246 473.28 245.446 471.8 245.446H431.411C429.931 245.446 428.73 244.246 428.73 242.765V238.723Z" fill="url(#paint10_linear_2452_1517)"/>
<path d="M428.73 265.597H474.48V269.639C474.48 271.12 473.28 272.321 471.8 272.321H431.411C429.931 272.321 428.73 271.12 428.73 269.639V265.597Z" fill="url(#paint11_linear_2452_1517)"/>
<path d="M428.73 305.909H474.48V309.951C474.48 311.432 473.28 312.633 471.8 312.633H431.411C429.931 312.633 428.73 311.432 428.73 309.951V305.909Z" fill="url(#paint12_linear_2452_1517)"/>
<path d="M428.73 360.089H474.48V364.132C474.48 365.612 473.28 366.813 471.8 366.813H431.411C429.931 366.813 428.73 365.612 428.73 364.132V360.089Z" fill="url(#paint13_linear_2452_1517)"/>
</g>
<path d="M308.25 130.343V670H184.5V86H225V130.343H308.25Z" fill="#188AA9"/>
<path d="M269.25 130.343H225V86.0601L269.25 130.343Z" fill="#188AA9"/>
<g opacity="0.35">
<path opacity="0.39" d="M207.4 93.0054H192.5V99.12H207.4V93.0054Z" fill="url(#paint14_linear_2452_1517)"/>
<path opacity="0.39" d="M231.4 124.699H216.5V130.814H231.4V124.699Z" fill="url(#paint15_linear_2452_1517)"/>
<path opacity="0.39" d="M231.4 215.598H216.5V221.712H231.4V215.598Z" fill="url(#paint16_linear_2452_1517)"/>
<path opacity="0.39" d="M207.4 262.874H192.5V268.988H207.4V262.874Z" fill="url(#paint17_linear_2452_1517)"/>
<path opacity="0.39" d="M207.4 294.397H192.5V300.512H207.4V294.397Z" fill="url(#paint18_linear_2452_1517)"/>
<path opacity="0.39" d="M207.4 372.776H192.5V378.891H207.4V372.776Z" fill="url(#paint19_linear_2452_1517)"/>
<path opacity="0.39" d="M271.02 410.825H285.92V404.71H271.02V410.825Z" fill="url(#paint20_linear_2452_1517)"/>
<path opacity="0.39" d="M244.77 347.697H259.67V341.583H244.77V347.697Z" fill="url(#paint21_linear_2452_1517)"/>
<path opacity="0.39" d="M271.02 288.242H285.92V282.128H271.02V288.242Z" fill="url(#paint22_linear_2452_1517)"/>
<path opacity="0.39" d="M244.77 209.443H259.67V203.328H244.77V209.443Z" fill="url(#paint23_linear_2452_1517)"/>
</g>
<path d="M162.75 21.3423V670H0V61.2766L78.86 21.3423H162.75Z" fill="#188AA9"/>
<g opacity="0.19">
<g opacity="0.4">
<path d="M130.42 137.816C130.42 135.986 129.04 134.496 127.34 134.496H90.0302C88.3302 134.496 86.9502 135.986 86.9502 137.816C86.9502 139.646 88.3302 141.136 90.0302 141.136H127.34C129.04 141.136 130.42 139.646 130.42 137.816Z" fill="url(#paint24_linear_2452_1517)"/>
<path d="M150.75 126.358C150.75 124.528 149.37 123.038 147.67 123.038H133.49C131.79 123.038 130.41 124.528 130.41 126.358C130.41 128.188 131.79 129.678 133.49 129.678H147.67C149.37 129.678 150.75 128.188 150.75 126.358Z" fill="url(#paint25_linear_2452_1517)"/>
<path d="M108.59 103.431C108.59 101.601 107.21 100.111 105.51 100.111H89.62C87.92 100.111 86.54 101.601 86.54 103.431C86.54 105.261 87.92 106.751 89.62 106.751H105.51C107.21 106.751 108.59 105.261 108.59 103.431Z" fill="url(#paint26_linear_2452_1517)"/>
<path d="M150.75 46.1091C150.75 44.2791 149.37 42.7891 147.67 42.7891H111.43C109.73 42.7891 108.35 44.2791 108.35 46.1091C108.35 47.9391 109.73 49.4291 111.43 49.4291H147.67C149.37 49.4291 150.75 47.9391 150.75 46.1091Z" fill="url(#paint27_linear_2452_1517)"/>
<path d="M130.34 34.6506C130.34 32.8206 128.96 31.3306 127.26 31.3306H90.0302C88.3302 31.3306 86.9502 32.8206 86.9502 34.6506C86.9502 36.4806 88.3302 37.9706 90.0302 37.9706H127.26C128.96 37.9706 130.34 36.4806 130.34 34.6506Z" fill="url(#paint28_linear_2452_1517)"/>
</g>
<g opacity="0.4">
<path d="M130.79 240.961C130.79 239.131 129.41 237.641 127.71 237.641H90.4003C88.7003 237.641 87.3203 239.131 87.3203 240.961C87.3203 242.791 88.7003 244.281 90.4003 244.281H127.71C129.41 244.281 130.79 242.791 130.79 240.961Z" fill="url(#paint29_linear_2452_1517)"/>
<path d="M151.13 229.503C151.13 227.673 149.75 226.183 148.05 226.183H133.87C132.17 226.183 130.79 227.673 130.79 229.503C130.79 231.333 132.17 232.823 133.87 232.823H148.05C149.75 232.823 151.13 231.333 151.13 229.503Z" fill="url(#paint30_linear_2452_1517)"/>
<path d="M108.97 206.566C108.97 204.736 107.59 203.246 105.89 203.246H89.9999C88.2999 203.246 86.9199 204.736 86.9199 206.566C86.9199 208.396 88.2999 209.886 89.9999 209.886H105.89C107.59 209.886 108.97 208.396 108.97 206.566Z" fill="url(#paint31_linear_2452_1517)"/>
<path d="M151.129 195.108C151.129 193.278 149.75 191.788 148.049 191.788H111.809C110.109 191.788 108.729 193.278 108.729 195.108C108.729 196.938 110.109 198.428 111.809 198.428H148.049C149.75 198.428 151.129 196.938 151.129 195.108Z" fill="url(#paint32_linear_2452_1517)"/>
<path d="M108.73 160.713C108.73 158.883 107.35 157.393 105.65 157.393H90.4101C88.7101 157.393 87.3301 158.883 87.3301 160.713C87.3301 162.543 88.7101 164.033 90.4101 164.033H105.65C107.35 164.033 108.73 162.543 108.73 160.713Z" fill="url(#paint33_linear_2452_1517)"/>
</g>
<g opacity="0.4">
<path d="M51.0999 172.891C51.0999 171.061 49.7199 169.571 48.0199 169.571H10.7099C9.00988 169.571 7.62988 171.061 7.62988 172.891C7.62988 174.721 9.00988 176.211 10.7099 176.211H48.0199C49.7199 176.211 51.0999 174.721 51.0999 172.891Z" fill="url(#paint34_linear_2452_1517)"/>
<path d="M71.4396 161.432C71.4396 159.602 70.0596 158.112 68.3596 158.112H54.1796C52.4796 158.112 51.0996 159.602 51.0996 161.432C51.0996 163.262 52.4796 164.752 54.1796 164.752H68.3596C70.0596 164.752 71.4396 163.262 71.4396 161.432Z" fill="url(#paint35_linear_2452_1517)"/>
<path d="M71.44 127.037C71.44 125.207 70.06 123.717 68.36 123.717H32.12C30.42 123.717 29.04 125.207 29.04 127.037C29.04 128.867 30.42 130.357 32.12 130.357H68.36C70.06 130.357 71.44 128.867 71.44 127.037Z" fill="url(#paint36_linear_2452_1517)"/>
<path d="M71.44 81.1838C71.44 79.3538 70.06 77.8638 68.36 77.8638H32.12C30.42 77.8638 29.04 79.3538 29.04 81.1838C29.04 83.0138 30.42 84.5038 32.12 84.5038H68.36C70.06 84.5038 71.44 83.0138 71.44 81.1838Z" fill="url(#paint37_linear_2452_1517)"/>
<path d="M51.0296 69.7155C51.0296 67.8855 49.6496 66.3955 47.9496 66.3955H10.7196C9.01963 66.3955 7.63965 67.8855 7.63965 69.7155C7.63965 71.5455 9.01963 73.0355 10.7196 73.0355H47.9496C49.6496 73.0355 51.0296 71.5455 51.0296 69.7155Z" fill="url(#paint38_linear_2452_1517)"/>
</g>
<g opacity="0.4">
<path d="M51.4807 276.036C51.4807 274.206 50.1007 272.716 48.4007 272.716H11.0907C9.39074 272.716 8.01074 274.206 8.01074 276.036C8.01074 277.866 9.39074 279.356 11.0907 279.356H48.4007C50.1007 279.356 51.4807 277.866 51.4807 276.036Z" fill="url(#paint39_linear_2452_1517)"/>
<path d="M71.8205 264.568C71.8205 262.738 70.4405 261.248 68.7405 261.248H54.5605C52.8605 261.248 51.4805 262.738 51.4805 264.568C51.4805 266.398 52.8605 267.888 54.5605 267.888H68.7405C70.4405 267.888 71.8205 266.398 71.8205 264.568Z" fill="url(#paint40_linear_2452_1517)"/>
<path d="M29.6604 241.641C29.6604 239.811 28.2804 238.321 26.5804 238.321H10.6904C8.99035 238.321 7.61035 239.811 7.61035 241.641C7.61035 243.471 8.99035 244.961 10.6904 244.961H26.5804C28.2804 244.961 29.6604 243.471 29.6604 241.641Z" fill="url(#paint41_linear_2452_1517)"/>
<path d="M71.8199 230.183C71.8199 228.353 70.4399 226.863 68.7399 226.863H32.4999C30.7999 226.863 29.4199 228.353 29.4199 230.183C29.4199 232.013 30.7999 233.503 32.4999 233.503H68.7399C70.4399 233.503 71.8199 232.013 71.8199 230.183Z" fill="url(#paint42_linear_2452_1517)"/>
<path d="M29.4205 195.788C29.4205 193.958 28.0405 192.468 26.3405 192.468H11.1005C9.40051 192.468 8.02051 193.958 8.02051 195.788C8.02051 197.618 9.40051 199.108 11.1005 199.108H26.3405C28.0405 199.108 29.4205 197.618 29.4205 195.788Z" fill="url(#paint43_linear_2452_1517)"/>
<path d="M71.8199 184.319C71.8199 182.489 70.4399 180.999 68.7399 180.999H32.4999C30.7999 180.999 29.4199 182.489 29.4199 184.319C29.4199 186.149 30.7999 187.639 32.4999 187.639H68.7399C70.4399 187.639 71.8199 186.149 71.8199 184.319Z" fill="url(#paint44_linear_2452_1517)"/>
<path d="M51.4105 172.861C51.4105 171.031 50.0305 169.541 48.3305 169.541H11.1005C9.40051 169.541 8.02051 171.031 8.02051 172.861C8.02051 174.691 9.40051 176.181 11.1005 176.181H48.3305C50.0305 176.181 51.4105 174.691 51.4105 172.861Z" fill="url(#paint45_linear_2452_1517)"/>
</g>
</g>
<path d="M130.5 13.8433H117V24.3418H130.5V13.8433Z" fill="#188AA9"/>
<path d="M122.56 15.3428L123.37 0.344951C123.39 -0.114984 124.1 -0.114984 124.12 0.344951L124.93 15.3428C124.98 16.9826 122.51 16.9926 122.55 15.3428H122.56Z" fill="#188AA9"/>
<g opacity="0.22">
<path opacity="0.6" d="M35.2196 96.9512H69.7496C71.8796 96.9512 73.6196 98.6812 73.6196 100.821V103.361H31.3496V100.821C31.3496 98.6912 33.0796 96.9512 35.2196 96.9512Z" fill="url(#paint46_linear_2452_1517)"/>
<path opacity="0.6" d="M35.2196 136.646H69.7496C71.8796 136.646 73.6196 138.376 73.6196 140.516V143.056H31.3496V140.516C31.3496 138.386 33.0796 136.646 35.2196 136.646Z" fill="url(#paint47_linear_2452_1517)"/>
<path opacity="0.6" d="M35.2196 214.765H69.7496C71.8796 214.765 73.6196 216.495 73.6196 218.635V221.175H31.3496V218.635C31.3496 216.505 33.0796 214.765 35.2196 214.765Z" fill="url(#paint48_linear_2452_1517)"/>
</g>
<defs>
<linearGradient id="paint0_linear_2452_1517" x1="581.99" y1="352.422" x2="629.97" y2="352.422" gradientUnits="userSpaceOnUse">
<stop stop-color="#24BDDE"/>
<stop offset="1" stop-color="#188AA9" stop-opacity="0"/>
</linearGradient>
<linearGradient id="paint1_linear_2452_1517" x1="-138.93" y1="393.395" x2="-137.93" y2="393.395" gradientUnits="userSpaceOnUse">
<stop stop-color="#24BDDE"/>
<stop offset="1" stop-color="#188AA9" stop-opacity="0"/>
</linearGradient>
<linearGradient id="paint2_linear_2452_1517" x1="-138.93" y1="404.911" x2="-137.93" y2="404.911" gradientUnits="userSpaceOnUse">
<stop stop-color="#24BDDE"/>
<stop offset="1" stop-color="#188AA9" stop-opacity="0"/>
</linearGradient>
<linearGradient id="paint3_linear_2452_1517" x1="581.96" y1="442.373" x2="629.94" y2="442.373" gradientUnits="userSpaceOnUse">
<stop stop-color="#24BDDE"/>
<stop offset="1" stop-color="#188AA9" stop-opacity="0"/>
</linearGradient>
<linearGradient id="paint4_linear_2452_1517" x1="583.99" y1="276.02" x2="631.97" y2="276.02" gradientUnits="userSpaceOnUse">
<stop stop-color="#24BDDE"/>
<stop offset="1" stop-color="#188AA9" stop-opacity="0"/>
</linearGradient>
<linearGradient id="paint5_linear_2452_1517" x1="583.99" y1="287.546" x2="631.97" y2="287.546" gradientUnits="userSpaceOnUse">
<stop stop-color="#24BDDE"/>
<stop offset="1" stop-color="#188AA9" stop-opacity="0"/>
</linearGradient>
<linearGradient id="paint6_linear_2452_1517" x1="485.25" y1="228.477" x2="531" y2="228.477" gradientUnits="userSpaceOnUse">
<stop stop-color="#24BDDE"/>
<stop offset="1" stop-color="#188AA9" stop-opacity="0"/>
</linearGradient>
<linearGradient id="paint7_linear_2452_1517" x1="485.25" y1="295.674" x2="531" y2="295.674" gradientUnits="userSpaceOnUse">
<stop stop-color="#24BDDE"/>
<stop offset="1" stop-color="#188AA9" stop-opacity="0"/>
</linearGradient>
<linearGradient id="paint8_linear_2452_1517" x1="485.25" y1="322.548" x2="531" y2="322.548" gradientUnits="userSpaceOnUse">
<stop stop-color="#24BDDE"/>
<stop offset="1" stop-color="#188AA9" stop-opacity="0"/>
</linearGradient>
<linearGradient id="paint9_linear_2452_1517" x1="485.25" y1="349.843" x2="531" y2="349.843" gradientUnits="userSpaceOnUse">
<stop stop-color="#24BDDE"/>
<stop offset="1" stop-color="#188AA9" stop-opacity="0"/>
</linearGradient>
<linearGradient id="paint10_linear_2452_1517" x1="428.73" y1="242.075" x2="474.48" y2="242.075" gradientUnits="userSpaceOnUse">
<stop stop-color="#24BDDE"/>
<stop offset="1" stop-color="#188AA9" stop-opacity="0"/>
</linearGradient>
<linearGradient id="paint11_linear_2452_1517" x1="428.73" y1="268.959" x2="474.48" y2="268.959" gradientUnits="userSpaceOnUse">
<stop stop-color="#24BDDE"/>
<stop offset="1" stop-color="#188AA9" stop-opacity="0"/>
</linearGradient>
<linearGradient id="paint12_linear_2452_1517" x1="428.73" y1="309.271" x2="474.48" y2="309.271" gradientUnits="userSpaceOnUse">
<stop stop-color="#24BDDE"/>
<stop offset="1" stop-color="#188AA9" stop-opacity="0"/>
</linearGradient>
<linearGradient id="paint13_linear_2452_1517" x1="428.73" y1="363.441" x2="474.48" y2="363.441" gradientUnits="userSpaceOnUse">
<stop stop-color="#24BDDE"/>
<stop offset="1" stop-color="#188AA9" stop-opacity="0"/>
</linearGradient>
<linearGradient id="paint14_linear_2452_1517" x1="192.5" y1="96.0677" x2="207.41" y2="96.0677" gradientUnits="userSpaceOnUse">
<stop stop-color="#24BDDE"/>
<stop offset="1" stop-color="#188AA9" stop-opacity="0"/>
</linearGradient>
<linearGradient id="paint15_linear_2452_1517" x1="216.5" y1="127.762" x2="231.41" y2="127.762" gradientUnits="userSpaceOnUse">
<stop stop-color="#24BDDE"/>
<stop offset="1" stop-color="#188AA9" stop-opacity="0"/>
</linearGradient>
<linearGradient id="paint16_linear_2452_1517" x1="216.5" y1="218.65" x2="231.41" y2="218.65" gradientUnits="userSpaceOnUse">
<stop stop-color="#24BDDE"/>
<stop offset="1" stop-color="#188AA9" stop-opacity="0"/>
</linearGradient>
<linearGradient id="paint17_linear_2452_1517" x1="192.5" y1="265.926" x2="207.41" y2="265.926" gradientUnits="userSpaceOnUse">
<stop stop-color="#24BDDE"/>
<stop offset="1" stop-color="#188AA9" stop-opacity="0"/>
</linearGradient>
<linearGradient id="paint18_linear_2452_1517" x1="192.5" y1="297.45" x2="207.41" y2="297.45" gradientUnits="userSpaceOnUse">
<stop stop-color="#24BDDE"/>
<stop offset="1" stop-color="#188AA9" stop-opacity="0"/>
</linearGradient>
<linearGradient id="paint19_linear_2452_1517" x1="192.5" y1="375.839" x2="207.41" y2="375.839" gradientUnits="userSpaceOnUse">
<stop stop-color="#24BDDE"/>
<stop offset="1" stop-color="#188AA9" stop-opacity="0"/>
</linearGradient>
<linearGradient id="paint20_linear_2452_1517" x1="271.02" y1="407.762" x2="285.92" y2="407.762" gradientUnits="userSpaceOnUse">
<stop stop-color="#24BDDE"/>
<stop offset="1" stop-color="#188AA9" stop-opacity="0"/>
</linearGradient>
<linearGradient id="paint21_linear_2452_1517" x1="259.67" y1="344.645" x2="244.76" y2="344.645" gradientUnits="userSpaceOnUse">
<stop stop-color="#24BDDE"/>
<stop offset="1" stop-color="#188AA9" stop-opacity="0"/>
</linearGradient>
<linearGradient id="paint22_linear_2452_1517" x1="285.92" y1="285.19" x2="271.01" y2="285.19" gradientUnits="userSpaceOnUse">
<stop stop-color="#24BDDE"/>
<stop offset="1" stop-color="#188AA9" stop-opacity="0"/>
</linearGradient>
<linearGradient id="paint23_linear_2452_1517" x1="259.67" y1="206.381" x2="244.76" y2="206.381" gradientUnits="userSpaceOnUse">
<stop stop-color="#24BDDE"/>
<stop offset="1" stop-color="#188AA9" stop-opacity="0"/>
</linearGradient>
<linearGradient id="paint24_linear_2452_1517" x1="86.9502" y1="137.826" x2="130.42" y2="137.826" gradientUnits="userSpaceOnUse">
<stop stop-color="#24BDDE"/>
<stop offset="1" stop-color="#188AA9" stop-opacity="0"/>
</linearGradient>
<linearGradient id="paint25_linear_2452_1517" x1="130.41" y1="126.358" x2="150.75" y2="126.358" gradientUnits="userSpaceOnUse">
<stop stop-color="#24BDDE"/>
<stop offset="1" stop-color="#188AA9" stop-opacity="0"/>
</linearGradient>
<linearGradient id="paint26_linear_2452_1517" x1="86.55" y1="103.431" x2="108.59" y2="103.431" gradientUnits="userSpaceOnUse">
<stop stop-color="#24BDDE"/>
<stop offset="1" stop-color="#188AA9" stop-opacity="0"/>
</linearGradient>
<linearGradient id="paint27_linear_2452_1517" x1="108.35" y1="46.1091" x2="150.75" y2="46.1091" gradientUnits="userSpaceOnUse">
<stop stop-color="#24BDDE"/>
<stop offset="1" stop-color="#188AA9" stop-opacity="0"/>
</linearGradient>
<linearGradient id="paint28_linear_2452_1517" x1="86.9502" y1="34.6506" x2="130.34" y2="34.6506" gradientUnits="userSpaceOnUse">
<stop stop-color="#24BDDE"/>
<stop offset="1" stop-color="#188AA9" stop-opacity="0"/>
</linearGradient>
<linearGradient id="paint29_linear_2452_1517" x1="87.3303" y1="240.961" x2="130.79" y2="240.961" gradientUnits="userSpaceOnUse">
<stop stop-color="#24BDDE"/>
<stop offset="1" stop-color="#188AA9" stop-opacity="0"/>
</linearGradient>
<linearGradient id="paint30_linear_2452_1517" x1="130.79" y1="229.503" x2="151.13" y2="229.503" gradientUnits="userSpaceOnUse">
<stop stop-color="#24BDDE"/>
<stop offset="1" stop-color="#188AA9" stop-opacity="0"/>
</linearGradient>
<linearGradient id="paint31_linear_2452_1517" x1="86.9299" y1="206.566" x2="108.97" y2="206.566" gradientUnits="userSpaceOnUse">
<stop stop-color="#24BDDE"/>
<stop offset="1" stop-color="#188AA9" stop-opacity="0"/>
</linearGradient>
<linearGradient id="paint32_linear_2452_1517" x1="108.729" y1="195.108" x2="151.129" y2="195.108" gradientUnits="userSpaceOnUse">
<stop stop-color="#24BDDE"/>
<stop offset="1" stop-color="#188AA9" stop-opacity="0"/>
</linearGradient>
<linearGradient id="paint33_linear_2452_1517" x1="87.3301" y1="160.713" x2="108.73" y2="160.713" gradientUnits="userSpaceOnUse">
<stop stop-color="#24BDDE"/>
<stop offset="1" stop-color="#188AA9" stop-opacity="0"/>
</linearGradient>
<linearGradient id="paint34_linear_2452_1517" x1="7.63988" y1="172.901" x2="51.0999" y2="172.901" gradientUnits="userSpaceOnUse">
<stop stop-color="#24BDDE"/>
<stop offset="1" stop-color="#188AA9" stop-opacity="0"/>
</linearGradient>
<linearGradient id="paint35_linear_2452_1517" x1="51.0996" y1="161.432" x2="71.4396" y2="161.432" gradientUnits="userSpaceOnUse">
<stop stop-color="#24BDDE"/>
<stop offset="1" stop-color="#188AA9" stop-opacity="0"/>
</linearGradient>
<linearGradient id="paint36_linear_2452_1517" x1="29.04" y1="127.037" x2="71.44" y2="127.037" gradientUnits="userSpaceOnUse">
<stop stop-color="#24BDDE"/>
<stop offset="1" stop-color="#188AA9" stop-opacity="0"/>
</linearGradient>
<linearGradient id="paint37_linear_2452_1517" x1="29.04" y1="81.1838" x2="71.44" y2="81.1838" gradientUnits="userSpaceOnUse">
<stop stop-color="#24BDDE"/>
<stop offset="1" stop-color="#188AA9" stop-opacity="0"/>
</linearGradient>
<linearGradient id="paint38_linear_2452_1517" x1="7.63965" y1="69.7155" x2="51.0296" y2="69.7155" gradientUnits="userSpaceOnUse">
<stop stop-color="#24BDDE"/>
<stop offset="1" stop-color="#188AA9" stop-opacity="0"/>
</linearGradient>
<linearGradient id="paint39_linear_2452_1517" x1="8.02074" y1="276.036" x2="51.4807" y2="276.036" gradientUnits="userSpaceOnUse">
<stop stop-color="#24BDDE"/>
<stop offset="1" stop-color="#188AA9" stop-opacity="0"/>
</linearGradient>
<linearGradient id="paint40_linear_2452_1517" x1="51.4805" y1="264.568" x2="71.8205" y2="264.568" gradientUnits="userSpaceOnUse">
<stop stop-color="#24BDDE"/>
<stop offset="1" stop-color="#188AA9" stop-opacity="0"/>
</linearGradient>
<linearGradient id="paint41_linear_2452_1517" x1="7.61035" y1="241.641" x2="29.6604" y2="241.641" gradientUnits="userSpaceOnUse">
<stop stop-color="#24BDDE"/>
<stop offset="1" stop-color="#188AA9" stop-opacity="0"/>
</linearGradient>
<linearGradient id="paint42_linear_2452_1517" x1="29.4199" y1="230.183" x2="71.8199" y2="230.183" gradientUnits="userSpaceOnUse">
<stop stop-color="#24BDDE"/>
<stop offset="1" stop-color="#188AA9" stop-opacity="0"/>
</linearGradient>
<linearGradient id="paint43_linear_2452_1517" x1="8.02051" y1="195.788" x2="29.4205" y2="195.788" gradientUnits="userSpaceOnUse">
<stop stop-color="#24BDDE"/>
<stop offset="1" stop-color="#188AA9" stop-opacity="0"/>
</linearGradient>
<linearGradient id="paint44_linear_2452_1517" x1="29.4199" y1="184.319" x2="71.8199" y2="184.319" gradientUnits="userSpaceOnUse">
<stop stop-color="#24BDDE"/>
<stop offset="1" stop-color="#188AA9" stop-opacity="0"/>
</linearGradient>
<linearGradient id="paint45_linear_2452_1517" x1="8.02051" y1="172.861" x2="51.4105" y2="172.861" gradientUnits="userSpaceOnUse">
<stop stop-color="#24BDDE"/>
<stop offset="1" stop-color="#188AA9" stop-opacity="0"/>
</linearGradient>
<linearGradient id="paint46_linear_2452_1517" x1="31.3496" y1="100.151" x2="73.6196" y2="100.151" gradientUnits="userSpaceOnUse">
<stop stop-color="#188AA9"/>
<stop offset="0.43" stop-color="#127290" stop-opacity="0.54"/>
<stop offset="0.82" stop-color="#0D5E7C" stop-opacity="0.15"/>
<stop offset="1" stop-color="#0C5775" stop-opacity="0"/>
</linearGradient>
<linearGradient id="paint47_linear_2452_1517" x1="31.3496" y1="139.846" x2="73.6196" y2="139.846" gradientUnits="userSpaceOnUse">
<stop stop-color="#188AA9"/>
<stop offset="0.43" stop-color="#127290" stop-opacity="0.54"/>
<stop offset="0.82" stop-color="#0D5E7C" stop-opacity="0.15"/>
<stop offset="1" stop-color="#0C5775" stop-opacity="0"/>
</linearGradient>
<linearGradient id="paint48_linear_2452_1517" x1="31.3496" y1="217.965" x2="73.6196" y2="217.965" gradientUnits="userSpaceOnUse">
<stop stop-color="#188AA9"/>
<stop offset="0.43" stop-color="#127290" stop-opacity="0.54"/>
<stop offset="0.82" stop-color="#0D5E7C" stop-opacity="0.15"/>
<stop offset="1" stop-color="#0C5775" stop-opacity="0"/>
</linearGradient>
</defs>
</svg>
