<svg width="671" height="671" viewBox="0 0 671 671" fill="none" xmlns="http://www.w3.org/2000/svg">
<path d="M161.55 25.29C161.05 32.05 160.84 41.67 162.3 53.04C164.37 69.15 170.96 97.6601 180.3 98.0401C182.34 98.1201 185.25 96.9001 188.92 90.9201" stroke="#188AA9" stroke-width="0.37" stroke-miterlimit="10"/>
<path d="M160.05 56.04C160.54 58.76 161.3 62.95 162.3 68.04C168.38 99.02 171.53 114.52 177.3 115.29C179.22 115.54 182.33 114.36 187.05 106.29" stroke="#188AA9" stroke-width="0.37" stroke-miterlimit="10"/>
<path d="M535.05 193.29C544.17 216.6 558.18 230.99 569.55 229.29C571.67 228.97 574.24 228.01 577.05 225.54" stroke="#188AA9" stroke-width="0.37" stroke-miterlimit="10"/>
<path d="M534.3 225.54C535.36 226.94 547.22 242.19 564.3 240.54C569.76 240.01 574.1 237.91 577.05 236.04" stroke="#188AA9" stroke-width="0.37" stroke-miterlimit="10"/>
<path d="M575.18 222.17H576C612.39 222.17 641.93 251.71 641.93 288.1V669.92H575.18V222.17Z" fill="#188AA9"/>
<g opacity="0.21">
<path opacity="0.6" d="M629.9 353.8V358.28H581.92V346.77L629.9 353.8Z" fill="url(#paint0_linear_893_26)"/>
<path opacity="0.6" d="M581.92 392.19V387.71H629.9V399.22L581.92 392.19Z" fill="url(#paint1_linear_893_26)"/>
<path opacity="0.6" d="M629.9 406.26V410.74H581.92V399.22L629.9 406.26Z" fill="url(#paint2_linear_893_26)"/>
<path opacity="0.6" d="M629.87 443.7V448.17H581.89V436.66L629.87 443.7Z" fill="url(#paint3_linear_893_26)"/>
</g>
<g opacity="0.21">
<path opacity="0.6" d="M583.92 274.88V270.4H631.9V281.92L583.92 274.88Z" fill="url(#paint4_linear_893_26)"/>
<path opacity="0.6" d="M631.9 288.96V293.43H583.92V281.92L631.9 288.96Z" fill="url(#paint5_linear_893_26)"/>
</g>
<path d="M388.14 188.42H536.93V642.17H332.93V243.63C332.93 213.16 357.67 188.42 388.14 188.42Z" fill="#188AA9"/>
<g opacity="0.07">
<path d="M485.18 197.53H530.93V201.57C530.93 203.05 529.73 204.25 528.25 204.25H487.86C486.38 204.25 485.18 203.05 485.18 201.57V197.53Z" fill="url(#paint6_linear_893_26)"/>
<path d="M487.86 271.4C486.38 271.4 485.18 270.2 485.18 268.72V264.68H530.93V268.72C530.93 270.2 529.73 271.4 528.25 271.4" fill="url(#paint7_linear_893_26)"/>
<path d="M485.18 291.55H530.93V295.59C530.93 297.07 529.73 298.27 528.25 298.27H487.86C486.38 298.27 485.18 297.07 485.18 295.59V291.55Z" fill="url(#paint8_linear_893_26)"/>
<path d="M485.18 318.83H530.93V322.87C530.93 324.35 529.73 325.55 528.25 325.55H487.86C486.38 325.55 485.18 324.35 485.18 322.87V318.83Z" fill="url(#paint9_linear_893_26)"/>
</g>
<g opacity="0.07">
<path d="M428.66 211.13H474.41V215.17C474.41 216.65 473.21 217.85 471.73 217.85H431.34C429.86 217.85 428.66 216.65 428.66 215.17V211.13Z" fill="url(#paint10_linear_893_26)"/>
<path d="M428.66 237.99H474.41V242.03C474.41 243.51 473.21 244.71 471.73 244.71H431.34C429.86 244.71 428.66 243.51 428.66 242.03V237.99Z" fill="url(#paint11_linear_893_26)"/>
<path d="M428.66 278.28H474.41V282.32C474.41 283.8 473.21 285 471.73 285H431.34C429.86 285 428.66 283.8 428.66 282.32V278.28Z" fill="url(#paint12_linear_893_26)"/>
<path d="M428.66 332.43H474.41V336.47C474.41 337.95 473.21 339.15 471.73 339.15H431.34C429.86 339.15 428.66 337.95 428.66 336.47V332.43Z" fill="url(#paint13_linear_893_26)"/>
</g>
<path d="M308.18 131.42V670.67H184.43V87.1101H224.93V131.42H308.18Z" fill="#188AA9"/>
<path d="M269.18 131.42H224.93V87.1702L269.18 131.42Z" fill="#188AA9"/>
<g opacity="0.35">
<path opacity="0.39" d="M207.33 94.1101H192.43V100.22H207.33V94.1101Z" fill="url(#paint14_linear_893_26)"/>
<path opacity="0.39" d="M231.33 125.78H216.43V131.89H231.33V125.78Z" fill="url(#paint15_linear_893_26)"/>
<path opacity="0.39" d="M231.33 216.61H216.43V222.72H231.33V216.61Z" fill="url(#paint16_linear_893_26)"/>
<path opacity="0.39" d="M207.33 263.85H192.43V269.96H207.33V263.85Z" fill="url(#paint17_linear_893_26)"/>
<path opacity="0.39" d="M207.33 295.35H192.43V301.46H207.33V295.35Z" fill="url(#paint18_linear_893_26)"/>
<path opacity="0.39" d="M207.33 373.67H192.43V379.78H207.33V373.67Z" fill="url(#paint19_linear_893_26)"/>
<path opacity="0.39" d="M270.95 411.69H285.85V405.58H270.95V411.69Z" fill="url(#paint20_linear_893_26)"/>
<path opacity="0.39" d="M244.7 348.61H259.6V342.5H244.7V348.61Z" fill="url(#paint21_linear_893_26)"/>
<path opacity="0.39" d="M270.95 289.2H285.85V283.09H270.95V289.2Z" fill="url(#paint22_linear_893_26)"/>
<path opacity="0.39" d="M244.7 210.46H259.6V204.35H244.7V210.46Z" fill="url(#paint23_linear_893_26)"/>
</g>
<path d="M162.68 21.9202V670.67H-0.0698242V61.8602L78.7902 21.9202H162.68Z" fill="#188AA9"/>
<g opacity="0.19">
<g opacity="0.4">
<path d="M130.35 138.41C130.35 136.58 128.97 135.09 127.27 135.09H89.9604C88.2604 135.09 86.8804 136.58 86.8804 138.41C86.8804 140.24 88.2604 141.73 89.9604 141.73H127.27C128.97 141.73 130.35 140.24 130.35 138.41Z" fill="url(#paint24_linear_893_26)"/>
<path d="M150.68 126.95C150.68 125.12 149.3 123.63 147.6 123.63H133.42C131.72 123.63 130.34 125.12 130.34 126.95C130.34 128.78 131.72 130.27 133.42 130.27H147.6C149.3 130.27 150.68 128.78 150.68 126.95Z" fill="url(#paint25_linear_893_26)"/>
<path d="M108.52 104.02C108.52 102.19 107.14 100.7 105.44 100.7H89.5502C87.8502 100.7 86.4702 102.19 86.4702 104.02C86.4702 105.85 87.8502 107.34 89.5502 107.34H105.44C107.14 107.34 108.52 105.85 108.52 104.02Z" fill="url(#paint26_linear_893_26)"/>
<path d="M150.68 46.6901C150.68 44.8601 149.3 43.3701 147.6 43.3701H111.36C109.66 43.3701 108.28 44.8601 108.28 46.6901C108.28 48.5201 109.66 50.0101 111.36 50.0101H147.6C149.3 50.0101 150.68 48.5201 150.68 46.6901Z" fill="url(#paint27_linear_893_26)"/>
<path d="M130.27 35.2301C130.27 33.4001 128.89 31.9102 127.19 31.9102H89.9604C88.2604 31.9102 86.8804 33.4001 86.8804 35.2301C86.8804 37.0601 88.2604 38.5502 89.9604 38.5502H127.19C128.89 38.5502 130.27 37.0601 130.27 35.2301Z" fill="url(#paint28_linear_893_26)"/>
</g>
<g opacity="0.4">
<path d="M130.72 241.57C130.72 239.74 129.34 238.25 127.64 238.25H90.33C88.63 238.25 87.25 239.74 87.25 241.57C87.25 243.4 88.63 244.89 90.33 244.89H127.64C129.34 244.89 130.72 243.4 130.72 241.57Z" fill="url(#paint29_linear_893_26)"/>
<path d="M151.06 230.11C151.06 228.28 149.68 226.79 147.98 226.79H133.8C132.1 226.79 130.72 228.28 130.72 230.11C130.72 231.94 132.1 233.43 133.8 233.43H147.98C149.68 233.43 151.06 231.94 151.06 230.11Z" fill="url(#paint30_linear_893_26)"/>
<path d="M108.9 207.17C108.9 205.34 107.52 203.85 105.82 203.85H89.9301C88.2301 203.85 86.8501 205.34 86.8501 207.17C86.8501 209 88.2301 210.49 89.9301 210.49H105.82C107.52 210.49 108.9 209 108.9 207.17Z" fill="url(#paint31_linear_893_26)"/>
<path d="M151.06 195.71C151.06 193.88 149.68 192.39 147.98 192.39H111.74C110.04 192.39 108.66 193.88 108.66 195.71C108.66 197.54 110.04 199.03 111.74 199.03H147.98C149.68 199.03 151.06 197.54 151.06 195.71Z" fill="url(#paint32_linear_893_26)"/>
<path d="M108.66 161.31C108.66 159.48 107.28 157.99 105.58 157.99H90.3403C88.6403 157.99 87.2603 159.48 87.2603 161.31C87.2603 163.14 88.6403 164.63 90.3403 164.63H105.58C107.28 164.63 108.66 163.14 108.66 161.31Z" fill="url(#paint33_linear_893_26)"/>
</g>
<g opacity="0.4">
<path d="M51.0301 173.49C51.0301 171.66 49.6501 170.17 47.9501 170.17H10.6401C8.94006 170.17 7.56006 171.66 7.56006 173.49C7.56006 175.32 8.94006 176.81 10.6401 176.81H47.9501C49.6501 176.81 51.0301 175.32 51.0301 173.49Z" fill="url(#paint34_linear_893_26)"/>
<path d="M71.3703 162.03C71.3703 160.2 69.9903 158.71 68.2903 158.71H54.1103C52.4103 158.71 51.0303 160.2 51.0303 162.03C51.0303 163.86 52.4103 165.35 54.1103 165.35H68.2903C69.9903 165.35 71.3703 163.86 71.3703 162.03Z" fill="url(#paint35_linear_893_26)"/>
<path d="M71.3702 127.63C71.3702 125.8 69.9902 124.31 68.2902 124.31H32.0502C30.3502 124.31 28.9702 125.8 28.9702 127.63C28.9702 129.46 30.3502 130.95 32.0502 130.95H68.2902C69.9902 130.95 71.3702 129.46 71.3702 127.63Z" fill="url(#paint36_linear_893_26)"/>
<path d="M71.3702 81.7702C71.3702 79.9402 69.9902 78.4502 68.2902 78.4502H32.0502C30.3502 78.4502 28.9702 79.9402 28.9702 81.7702C28.9702 83.6002 30.3502 85.0902 32.0502 85.0902H68.2902C69.9902 85.0902 71.3702 83.6002 71.3702 81.7702Z" fill="url(#paint37_linear_893_26)"/>
<path d="M50.9603 70.3002C50.9603 68.4702 49.5803 66.9802 47.8803 66.9802H10.6503C8.9503 66.9802 7.57031 68.4702 7.57031 70.3002C7.57031 72.1302 8.9503 73.6202 10.6503 73.6202H47.8803C49.5803 73.6202 50.9603 72.1302 50.9603 70.3002Z" fill="url(#paint38_linear_893_26)"/>
</g>
<g opacity="0.4">
<path d="M51.4099 276.65C51.4099 274.82 50.0299 273.33 48.3299 273.33H11.0199C9.31994 273.33 7.93994 274.82 7.93994 276.65C7.93994 278.48 9.31994 279.97 11.0199 279.97H48.3299C50.0299 279.97 51.4099 278.48 51.4099 276.65Z" fill="url(#paint39_linear_893_26)"/>
<path d="M71.7502 265.18C71.7502 263.35 70.3702 261.86 68.6702 261.86H54.4902C52.7902 261.86 51.4102 263.35 51.4102 265.18C51.4102 267.01 52.7902 268.5 54.4902 268.5H68.6702C70.3702 268.5 71.7502 267.01 71.7502 265.18Z" fill="url(#paint40_linear_893_26)"/>
<path d="M29.59 242.25C29.59 240.42 28.21 238.93 26.51 238.93H10.62C8.92004 238.93 7.54004 240.42 7.54004 242.25C7.54004 244.08 8.92004 245.57 10.62 245.57H26.51C28.21 245.57 29.59 244.08 29.59 242.25Z" fill="url(#paint41_linear_893_26)"/>
<path d="M71.7501 230.79C71.7501 228.96 70.3701 227.47 68.6701 227.47H32.4301C30.7301 227.47 29.3501 228.96 29.3501 230.79C29.3501 232.62 30.7301 234.11 32.4301 234.11H68.6701C70.3701 234.11 71.7501 232.62 71.7501 230.79Z" fill="url(#paint42_linear_893_26)"/>
<path d="M29.3502 196.39C29.3502 194.56 27.9702 193.07 26.2702 193.07H11.0302C9.3302 193.07 7.9502 194.56 7.9502 196.39C7.9502 198.22 9.3302 199.71 11.0302 199.71H26.2702C27.9702 199.71 29.3502 198.22 29.3502 196.39Z" fill="url(#paint43_linear_893_26)"/>
<path d="M71.7501 184.92C71.7501 183.09 70.3701 181.6 68.6701 181.6H32.4301C30.7301 181.6 29.3501 183.09 29.3501 184.92C29.3501 186.75 30.7301 188.24 32.4301 188.24H68.6701C70.3701 188.24 71.7501 186.75 71.7501 184.92Z" fill="url(#paint44_linear_893_26)"/>
<path d="M51.3402 173.46C51.3402 171.63 49.9602 170.14 48.2602 170.14H11.0302C9.3302 170.14 7.9502 171.63 7.9502 173.46C7.9502 175.29 9.3302 176.78 11.0302 176.78H48.2602C49.9602 176.78 51.3402 175.29 51.3402 173.46Z" fill="url(#paint45_linear_893_26)"/>
</g>
</g>
<path d="M130.43 14.4202H116.93V24.9202H130.43V14.4202Z" fill="#188AA9"/>
<path d="M122.49 15.9202L123.3 0.920195C123.32 0.460195 124.03 0.460195 124.05 0.920195L124.86 15.9202C124.91 17.5602 122.44 17.5702 122.48 15.9202H122.49Z" fill="#188AA9"/>
<g opacity="0.22">
<path opacity="0.6" d="M35.1503 97.5403H69.6803C71.8103 97.5403 73.5503 99.2703 73.5503 101.41V103.95H31.2803V101.41C31.2803 99.2803 33.0103 97.5403 35.1503 97.5403Z" fill="url(#paint46_linear_893_26)"/>
<path opacity="0.6" d="M35.1503 137.24H69.6803C71.8103 137.24 73.5503 138.97 73.5503 141.11V143.65H31.2803V141.11C31.2803 138.98 33.0103 137.24 35.1503 137.24Z" fill="url(#paint47_linear_893_26)"/>
<path opacity="0.6" d="M35.1503 215.37H69.6803C71.8103 215.37 73.5503 217.1 73.5503 219.24V221.78H31.2803V219.24C31.2803 217.11 33.0103 215.37 35.1503 215.37Z" fill="url(#paint48_linear_893_26)"/>
</g>
<defs>
<linearGradient id="paint0_linear_893_26" x1="581.92" y1="352.52" x2="629.9" y2="352.52" gradientUnits="userSpaceOnUse">
<stop stop-color="#24BDDE"/>
<stop offset="1" stop-color="#188AA9" stop-opacity="0"/>
</linearGradient>
<linearGradient id="paint1_linear_893_26" x1="-139.001" y1="393.47" x2="-138.001" y2="393.47" gradientUnits="userSpaceOnUse">
<stop stop-color="#24BDDE"/>
<stop offset="1" stop-color="#188AA9" stop-opacity="0"/>
</linearGradient>
<linearGradient id="paint2_linear_893_26" x1="-139.001" y1="404.98" x2="-138.001" y2="404.98" gradientUnits="userSpaceOnUse">
<stop stop-color="#24BDDE"/>
<stop offset="1" stop-color="#188AA9" stop-opacity="0"/>
</linearGradient>
<linearGradient id="paint3_linear_893_26" x1="581.89" y1="442.42" x2="629.87" y2="442.42" gradientUnits="userSpaceOnUse">
<stop stop-color="#24BDDE"/>
<stop offset="1" stop-color="#188AA9" stop-opacity="0"/>
</linearGradient>
<linearGradient id="paint4_linear_893_26" x1="583.92" y1="276.16" x2="631.9" y2="276.16" gradientUnits="userSpaceOnUse">
<stop stop-color="#24BDDE"/>
<stop offset="1" stop-color="#188AA9" stop-opacity="0"/>
</linearGradient>
<linearGradient id="paint5_linear_893_26" x1="583.92" y1="287.68" x2="631.9" y2="287.68" gradientUnits="userSpaceOnUse">
<stop stop-color="#24BDDE"/>
<stop offset="1" stop-color="#188AA9" stop-opacity="0"/>
</linearGradient>
<linearGradient id="paint6_linear_893_26" x1="485.18" y1="200.89" x2="530.93" y2="200.89" gradientUnits="userSpaceOnUse">
<stop stop-color="#24BDDE"/>
<stop offset="1" stop-color="#188AA9" stop-opacity="0"/>
</linearGradient>
<linearGradient id="paint7_linear_893_26" x1="485.18" y1="268.05" x2="530.93" y2="268.05" gradientUnits="userSpaceOnUse">
<stop stop-color="#24BDDE"/>
<stop offset="1" stop-color="#188AA9" stop-opacity="0"/>
</linearGradient>
<linearGradient id="paint8_linear_893_26" x1="485.18" y1="294.91" x2="530.93" y2="294.91" gradientUnits="userSpaceOnUse">
<stop stop-color="#24BDDE"/>
<stop offset="1" stop-color="#188AA9" stop-opacity="0"/>
</linearGradient>
<linearGradient id="paint9_linear_893_26" x1="485.18" y1="322.19" x2="530.93" y2="322.19" gradientUnits="userSpaceOnUse">
<stop stop-color="#24BDDE"/>
<stop offset="1" stop-color="#188AA9" stop-opacity="0"/>
</linearGradient>
<linearGradient id="paint10_linear_893_26" x1="428.66" y1="214.48" x2="474.41" y2="214.48" gradientUnits="userSpaceOnUse">
<stop stop-color="#24BDDE"/>
<stop offset="1" stop-color="#188AA9" stop-opacity="0"/>
</linearGradient>
<linearGradient id="paint11_linear_893_26" x1="428.66" y1="241.35" x2="474.41" y2="241.35" gradientUnits="userSpaceOnUse">
<stop stop-color="#24BDDE"/>
<stop offset="1" stop-color="#188AA9" stop-opacity="0"/>
</linearGradient>
<linearGradient id="paint12_linear_893_26" x1="428.66" y1="281.64" x2="474.41" y2="281.64" gradientUnits="userSpaceOnUse">
<stop stop-color="#24BDDE"/>
<stop offset="1" stop-color="#188AA9" stop-opacity="0"/>
</linearGradient>
<linearGradient id="paint13_linear_893_26" x1="428.66" y1="335.78" x2="474.41" y2="335.78" gradientUnits="userSpaceOnUse">
<stop stop-color="#24BDDE"/>
<stop offset="1" stop-color="#188AA9" stop-opacity="0"/>
</linearGradient>
<linearGradient id="paint14_linear_893_26" x1="192.43" y1="97.1701" x2="207.34" y2="97.1701" gradientUnits="userSpaceOnUse">
<stop stop-color="#24BDDE"/>
<stop offset="1" stop-color="#188AA9" stop-opacity="0"/>
</linearGradient>
<linearGradient id="paint15_linear_893_26" x1="216.43" y1="128.84" x2="231.34" y2="128.84" gradientUnits="userSpaceOnUse">
<stop stop-color="#24BDDE"/>
<stop offset="1" stop-color="#188AA9" stop-opacity="0"/>
</linearGradient>
<linearGradient id="paint16_linear_893_26" x1="216.43" y1="219.66" x2="231.34" y2="219.66" gradientUnits="userSpaceOnUse">
<stop stop-color="#24BDDE"/>
<stop offset="1" stop-color="#188AA9" stop-opacity="0"/>
</linearGradient>
<linearGradient id="paint17_linear_893_26" x1="192.43" y1="266.9" x2="207.34" y2="266.9" gradientUnits="userSpaceOnUse">
<stop stop-color="#24BDDE"/>
<stop offset="1" stop-color="#188AA9" stop-opacity="0"/>
</linearGradient>
<linearGradient id="paint18_linear_893_26" x1="192.43" y1="298.4" x2="207.34" y2="298.4" gradientUnits="userSpaceOnUse">
<stop stop-color="#24BDDE"/>
<stop offset="1" stop-color="#188AA9" stop-opacity="0"/>
</linearGradient>
<linearGradient id="paint19_linear_893_26" x1="192.43" y1="376.73" x2="207.34" y2="376.73" gradientUnits="userSpaceOnUse">
<stop stop-color="#24BDDE"/>
<stop offset="1" stop-color="#188AA9" stop-opacity="0"/>
</linearGradient>
<linearGradient id="paint20_linear_893_26" x1="270.95" y1="408.63" x2="285.85" y2="408.63" gradientUnits="userSpaceOnUse">
<stop stop-color="#24BDDE"/>
<stop offset="1" stop-color="#188AA9" stop-opacity="0"/>
</linearGradient>
<linearGradient id="paint21_linear_893_26" x1="259.6" y1="345.56" x2="244.69" y2="345.56" gradientUnits="userSpaceOnUse">
<stop stop-color="#24BDDE"/>
<stop offset="1" stop-color="#188AA9" stop-opacity="0"/>
</linearGradient>
<linearGradient id="paint22_linear_893_26" x1="285.85" y1="286.15" x2="270.94" y2="286.15" gradientUnits="userSpaceOnUse">
<stop stop-color="#24BDDE"/>
<stop offset="1" stop-color="#188AA9" stop-opacity="0"/>
</linearGradient>
<linearGradient id="paint23_linear_893_26" x1="259.6" y1="207.4" x2="244.69" y2="207.4" gradientUnits="userSpaceOnUse">
<stop stop-color="#24BDDE"/>
<stop offset="1" stop-color="#188AA9" stop-opacity="0"/>
</linearGradient>
<linearGradient id="paint24_linear_893_26" x1="86.8804" y1="138.42" x2="130.35" y2="138.42" gradientUnits="userSpaceOnUse">
<stop stop-color="#24BDDE"/>
<stop offset="1" stop-color="#188AA9" stop-opacity="0"/>
</linearGradient>
<linearGradient id="paint25_linear_893_26" x1="130.34" y1="126.95" x2="150.68" y2="126.95" gradientUnits="userSpaceOnUse">
<stop stop-color="#24BDDE"/>
<stop offset="1" stop-color="#188AA9" stop-opacity="0"/>
</linearGradient>
<linearGradient id="paint26_linear_893_26" x1="86.4802" y1="104.02" x2="108.52" y2="104.02" gradientUnits="userSpaceOnUse">
<stop stop-color="#24BDDE"/>
<stop offset="1" stop-color="#188AA9" stop-opacity="0"/>
</linearGradient>
<linearGradient id="paint27_linear_893_26" x1="108.28" y1="46.6901" x2="150.68" y2="46.6901" gradientUnits="userSpaceOnUse">
<stop stop-color="#24BDDE"/>
<stop offset="1" stop-color="#188AA9" stop-opacity="0"/>
</linearGradient>
<linearGradient id="paint28_linear_893_26" x1="86.8804" y1="35.2302" x2="130.27" y2="35.2302" gradientUnits="userSpaceOnUse">
<stop stop-color="#24BDDE"/>
<stop offset="1" stop-color="#188AA9" stop-opacity="0"/>
</linearGradient>
<linearGradient id="paint29_linear_893_26" x1="87.26" y1="241.57" x2="130.72" y2="241.57" gradientUnits="userSpaceOnUse">
<stop stop-color="#24BDDE"/>
<stop offset="1" stop-color="#188AA9" stop-opacity="0"/>
</linearGradient>
<linearGradient id="paint30_linear_893_26" x1="130.72" y1="230.11" x2="151.06" y2="230.11" gradientUnits="userSpaceOnUse">
<stop stop-color="#24BDDE"/>
<stop offset="1" stop-color="#188AA9" stop-opacity="0"/>
</linearGradient>
<linearGradient id="paint31_linear_893_26" x1="86.8601" y1="207.17" x2="108.9" y2="207.17" gradientUnits="userSpaceOnUse">
<stop stop-color="#24BDDE"/>
<stop offset="1" stop-color="#188AA9" stop-opacity="0"/>
</linearGradient>
<linearGradient id="paint32_linear_893_26" x1="108.66" y1="195.71" x2="151.06" y2="195.71" gradientUnits="userSpaceOnUse">
<stop stop-color="#24BDDE"/>
<stop offset="1" stop-color="#188AA9" stop-opacity="0"/>
</linearGradient>
<linearGradient id="paint33_linear_893_26" x1="87.2603" y1="161.31" x2="108.66" y2="161.31" gradientUnits="userSpaceOnUse">
<stop stop-color="#24BDDE"/>
<stop offset="1" stop-color="#188AA9" stop-opacity="0"/>
</linearGradient>
<linearGradient id="paint34_linear_893_26" x1="7.57006" y1="173.5" x2="51.0301" y2="173.5" gradientUnits="userSpaceOnUse">
<stop stop-color="#24BDDE"/>
<stop offset="1" stop-color="#188AA9" stop-opacity="0"/>
</linearGradient>
<linearGradient id="paint35_linear_893_26" x1="51.0303" y1="162.03" x2="71.3703" y2="162.03" gradientUnits="userSpaceOnUse">
<stop stop-color="#24BDDE"/>
<stop offset="1" stop-color="#188AA9" stop-opacity="0"/>
</linearGradient>
<linearGradient id="paint36_linear_893_26" x1="28.9702" y1="127.63" x2="71.3702" y2="127.63" gradientUnits="userSpaceOnUse">
<stop stop-color="#24BDDE"/>
<stop offset="1" stop-color="#188AA9" stop-opacity="0"/>
</linearGradient>
<linearGradient id="paint37_linear_893_26" x1="28.9702" y1="81.7702" x2="71.3702" y2="81.7702" gradientUnits="userSpaceOnUse">
<stop stop-color="#24BDDE"/>
<stop offset="1" stop-color="#188AA9" stop-opacity="0"/>
</linearGradient>
<linearGradient id="paint38_linear_893_26" x1="7.57031" y1="70.3002" x2="50.9603" y2="70.3002" gradientUnits="userSpaceOnUse">
<stop stop-color="#24BDDE"/>
<stop offset="1" stop-color="#188AA9" stop-opacity="0"/>
</linearGradient>
<linearGradient id="paint39_linear_893_26" x1="7.94994" y1="276.65" x2="51.4099" y2="276.65" gradientUnits="userSpaceOnUse">
<stop stop-color="#24BDDE"/>
<stop offset="1" stop-color="#188AA9" stop-opacity="0"/>
</linearGradient>
<linearGradient id="paint40_linear_893_26" x1="51.4102" y1="265.18" x2="71.7502" y2="265.18" gradientUnits="userSpaceOnUse">
<stop stop-color="#24BDDE"/>
<stop offset="1" stop-color="#188AA9" stop-opacity="0"/>
</linearGradient>
<linearGradient id="paint41_linear_893_26" x1="7.54004" y1="242.25" x2="29.59" y2="242.25" gradientUnits="userSpaceOnUse">
<stop stop-color="#24BDDE"/>
<stop offset="1" stop-color="#188AA9" stop-opacity="0"/>
</linearGradient>
<linearGradient id="paint42_linear_893_26" x1="29.3501" y1="230.79" x2="71.7501" y2="230.79" gradientUnits="userSpaceOnUse">
<stop stop-color="#24BDDE"/>
<stop offset="1" stop-color="#188AA9" stop-opacity="0"/>
</linearGradient>
<linearGradient id="paint43_linear_893_26" x1="7.9502" y1="196.39" x2="29.3502" y2="196.39" gradientUnits="userSpaceOnUse">
<stop stop-color="#24BDDE"/>
<stop offset="1" stop-color="#188AA9" stop-opacity="0"/>
</linearGradient>
<linearGradient id="paint44_linear_893_26" x1="29.3501" y1="184.92" x2="71.7501" y2="184.92" gradientUnits="userSpaceOnUse">
<stop stop-color="#24BDDE"/>
<stop offset="1" stop-color="#188AA9" stop-opacity="0"/>
</linearGradient>
<linearGradient id="paint45_linear_893_26" x1="7.9502" y1="173.46" x2="51.3402" y2="173.46" gradientUnits="userSpaceOnUse">
<stop stop-color="#24BDDE"/>
<stop offset="1" stop-color="#188AA9" stop-opacity="0"/>
</linearGradient>
<linearGradient id="paint46_linear_893_26" x1="31.2803" y1="100.74" x2="73.5503" y2="100.74" gradientUnits="userSpaceOnUse">
<stop stop-color="#188AA9"/>
<stop offset="0.43" stop-color="#127290" stop-opacity="0.54"/>
<stop offset="0.82" stop-color="#0D5E7C" stop-opacity="0.15"/>
<stop offset="1" stop-color="#0C5775" stop-opacity="0"/>
</linearGradient>
<linearGradient id="paint47_linear_893_26" x1="31.2803" y1="140.44" x2="73.5503" y2="140.44" gradientUnits="userSpaceOnUse">
<stop stop-color="#188AA9"/>
<stop offset="0.43" stop-color="#127290" stop-opacity="0.54"/>
<stop offset="0.82" stop-color="#0D5E7C" stop-opacity="0.15"/>
<stop offset="1" stop-color="#0C5775" stop-opacity="0"/>
</linearGradient>
<linearGradient id="paint48_linear_893_26" x1="31.2803" y1="218.57" x2="73.5503" y2="218.57" gradientUnits="userSpaceOnUse">
<stop stop-color="#188AA9"/>
<stop offset="0.43" stop-color="#127290" stop-opacity="0.54"/>
<stop offset="0.82" stop-color="#0D5E7C" stop-opacity="0.15"/>
<stop offset="1" stop-color="#0C5775" stop-opacity="0"/>
</linearGradient>
</defs>
</svg>
