<svg width="671" height="594" viewBox="0 0 671 594" fill="none" xmlns="http://www.w3.org/2000/svg">
<path d="M597.081 256.58H472.061V592.71H597.081V256.58Z" fill="#0C5775"/>
<path d="M534.94 310.48C564.708 310.48 588.84 286.348 588.84 256.58C588.84 226.812 564.708 202.68 534.94 202.68C505.172 202.68 481.04 226.812 481.04 256.58C481.04 286.348 505.172 310.48 534.94 310.48Z" fill="#0C5775"/>
<path d="M604.56 256.58C600.42 256.58 597.07 259.93 597.07 264.07V256.58H604.56Z" fill="#0C5775"/>
<path d="M465.32 256.58C469.46 256.58 472.81 259.93 472.81 264.07V256.58H465.32Z" fill="#0C5775"/>
<path opacity="0.24" d="M581.36 267.3H487.78V352.16H581.36V267.3Z" fill="url(#paint0_linear_893_23)"/>
<g opacity="0.22">
<path opacity="0.6" d="M567.29 385.01V390.98H503.23V375.61L567.29 385.01Z" fill="url(#paint1_linear_893_23)"/>
<path opacity="0.6" d="M503.23 402.09V396.11H567.29V411.48L503.23 402.09Z" fill="url(#paint2_linear_893_23)"/>
<path opacity="0.6" d="M503.23 436.26V430.28H567.29V445.65L503.23 436.26Z" fill="url(#paint3_linear_893_23)"/>
<path opacity="0.6" d="M567.29 455.05V461.03H503.23V445.65L567.29 455.05Z" fill="url(#paint4_linear_893_23)"/>
</g>
<g opacity="0.22">
<path opacity="0.6" d="M567.29 481.97V487.95H503.23V472.57L567.29 481.97Z" fill="url(#paint5_linear_893_23)"/>
<path opacity="0.6" d="M503.23 499.05V493.07H567.29V508.45L503.23 499.05Z" fill="url(#paint6_linear_893_23)"/>
<path opacity="0.6" d="M503.23 533.22V527.24H567.29V542.62L503.23 533.22Z" fill="url(#paint7_linear_893_23)"/>
<path opacity="0.6" d="M567.29 552.01V557.99H503.23V542.62L567.29 552.01Z" fill="url(#paint8_linear_893_23)"/>
</g>
<path d="M268.25 88.76V93.53" stroke="#0C5775" stroke-width="0.75" stroke-miterlimit="10"/>
<path d="M286.35 88.76V93.53" stroke="#0C5775" stroke-width="0.75" stroke-miterlimit="10"/>
<path d="M287.78 85.22H266.82V89.98H287.78V85.22Z" fill="#0C5775"/>
<path d="M268.27 81.51V86.27" stroke="#0C5775" stroke-width="0.75" stroke-miterlimit="10" stroke-linecap="round"/>
<path d="M418.91 93.3799V592.71H244.48V93.3799H311.85V180.22H350.78V93.3799H418.91Z" fill="#0C5775"/>
<g opacity="0.18">
<path d="M359.76 109.52H408.42V113.81C408.42 115.38 407.14 116.66 405.57 116.66H362.61C361.04 116.66 359.76 115.38 359.76 113.81V109.52Z" fill="url(#paint9_linear_893_23)"/>
<path d="M359.76 138.09H408.42V142.38C408.42 143.95 407.14 145.23 405.57 145.23H362.61C361.04 145.23 359.76 143.95 359.76 142.38V138.09Z" fill="url(#paint10_linear_893_23)"/>
<path d="M359.76 180.95H408.42V185.24C408.42 186.81 407.14 188.09 405.57 188.09H362.61C361.04 188.09 359.76 186.81 359.76 185.24V180.95Z" fill="url(#paint11_linear_893_23)"/>
<path d="M359.76 238.54H408.42V242.83C408.42 244.4 407.14 245.68 405.57 245.68H362.61C361.04 245.68 359.76 244.4 359.76 242.83V238.54Z" fill="url(#paint12_linear_893_23)"/>
</g>
<g opacity="0.18">
<path d="M255.8 152.36H304.46V156.65C304.46 158.22 303.18 159.5 301.61 159.5H258.65C257.08 159.5 255.8 158.22 255.8 156.65V152.36Z" fill="url(#paint13_linear_893_23)"/>
<path d="M255.8 223.79H304.46V228.08C304.46 229.65 303.18 230.93 301.61 230.93H258.65C257.08 230.93 255.8 229.65 255.8 228.08V223.79Z" fill="url(#paint14_linear_893_23)"/>
</g>
<g opacity="0.18">
<path d="M306.71 267.02H355.37V271.31C355.37 272.88 354.09 274.16 352.52 274.16H309.56C307.99 274.16 306.71 272.88 306.71 271.31V267.02Z" fill="url(#paint15_linear_893_23)"/>
<path d="M306.71 338.45H355.37V342.74C355.37 344.31 354.09 345.59 352.52 345.59H309.56C307.99 345.59 306.71 344.31 306.71 342.74V338.45Z" fill="url(#paint16_linear_893_23)"/>
</g>
<g opacity="0.18">
<path d="M252.8 309.57H301.46V313.86C301.46 315.43 300.18 316.71 298.61 316.71H255.65C254.08 316.71 252.8 315.43 252.8 313.86V309.57Z" fill="url(#paint17_linear_893_23)"/>
<path d="M252.8 409.57H301.46V413.86C301.46 415.43 300.18 416.71 298.61 416.71H255.65C254.08 416.71 252.8 415.43 252.8 413.86V409.57Z" fill="url(#paint18_linear_893_23)"/>
</g>
<path d="M213.78 205.01V593.46H79.0303V144.29H80.0003L213.78 205.01Z" fill="#0C5775"/>
<g opacity="0.39">
<path opacity="0.35" d="M88.4502 202.24H102.45V196.32H88.4502V202.24Z" fill="url(#paint19_linear_893_23)"/>
<path opacity="0.35" d="M166.52 202.24H180.67V196.32H166.52V202.24Z" fill="url(#paint20_linear_893_23)"/>
<path opacity="0.35" d="M166.59 236.65H180.74V230.73H166.59V236.65Z" fill="url(#paint21_linear_893_23)"/>
<path opacity="0.35" d="M88.6001 254.02H102.6V248.1H88.6001V254.02Z" fill="url(#paint22_linear_893_23)"/>
<path opacity="0.35" d="M114.31 271.11H128.53V265.19H114.31V271.11Z" fill="url(#paint23_linear_893_23)"/>
<path opacity="0.35" d="M88.6201 305.86H102.62V299.94H88.6201V305.86Z" fill="url(#paint24_linear_893_23)"/>
<path opacity="0.35" d="M166.7 305.86H180.85V299.94H166.7V305.86Z" fill="url(#paint25_linear_893_23)"/>
<path opacity="0.35" d="M140.68 340.27H154.9V334.35H140.68V340.27Z" fill="url(#paint26_linear_893_23)"/>
<path opacity="0.35" d="M140.26 374.61H154.48V368.69H140.26V374.61Z" fill="url(#paint27_linear_893_23)"/>
</g>
<g opacity="0.39">
<path opacity="0.35" d="M76.3903 381.89H90.2603V376.02H76.3903V381.89Z" fill="url(#paint28_linear_893_23)"/>
<path opacity="0.35" d="M153.72 381.89H167.74V376.02H153.72V381.89Z" fill="url(#paint29_linear_893_23)"/>
<path opacity="0.35" d="M153.79 415.98H167.81V410.11H153.79V415.98Z" fill="url(#paint30_linear_893_23)"/>
<path opacity="0.35" d="M76.5304 433.18H90.4004V427.31H76.5304V433.18Z" fill="url(#paint31_linear_893_23)"/>
<path opacity="0.35" d="M102.01 450.1H116.09V444.23H102.01V450.1Z" fill="url(#paint32_linear_893_23)"/>
<path opacity="0.35" d="M76.5699 484.53H90.4399V478.66H76.5699V484.53Z" fill="url(#paint33_linear_893_23)"/>
<path opacity="0.35" d="M153.89 484.53H167.91V478.66H153.89V484.53Z" fill="url(#paint34_linear_893_23)"/>
<path opacity="0.35" d="M128.13 518.61H142.21V512.74H128.13V518.61Z" fill="url(#paint35_linear_893_23)"/>
<path opacity="0.35" d="M127.72 552.63H141.8V546.76H127.72V552.63Z" fill="url(#paint36_linear_893_23)"/>
</g>
<path d="M67.8002 0.550049V592.71H-0.0698242V67.1801H9.52019V14.5101C9.52019 6.80007 15.6802 0.550049 23.2802 0.550049H67.8002Z" fill="#0C5775"/>
<g opacity="0.22">
<path opacity="0.6" d="M21.2201 207.25H55.5201C57.6601 207.25 59.4001 208.99 59.4001 211.13V213.72H17.3501V211.13C17.3501 208.99 19.0901 207.25 21.2301 207.25H21.2201Z" fill="url(#paint37_linear_893_23)"/>
<path opacity="0.6" d="M21.2201 259.4H55.5201C57.6601 259.4 59.4001 261.14 59.4001 263.28V265.87H17.3501V263.28C17.3501 261.14 19.0901 259.4 21.2301 259.4H21.2201Z" fill="url(#paint38_linear_893_23)"/>
<path opacity="0.6" d="M21.2201 312.85H55.5201C57.6601 312.85 59.4001 314.59 59.4001 316.73V319.32H17.3501V316.73C17.3501 314.59 19.0901 312.85 21.2301 312.85H21.2201Z" fill="url(#paint39_linear_893_23)"/>
</g>
<path d="M211.16 209.04C215.7 217.3 219.94 221.29 223.89 221.02C232.92 220.4 240.41 197.44 246.35 152.15" stroke="#0C5775" stroke-width="0.56" stroke-miterlimit="10"/>
<path d="M211.3 218.81C215.84 227.07 220.08 231.06 224.03 230.79C233.06 230.17 240.55 207.21 246.49 161.92" stroke="#0C5775" stroke-width="0.56" stroke-miterlimit="10"/>
<defs>
<linearGradient id="paint0_linear_893_23" x1="534.57" y1="352.16" x2="534.57" y2="267.3" gradientUnits="userSpaceOnUse">
<stop stop-color="#188AA9"/>
<stop offset="0.43" stop-color="#127290" stop-opacity="0.54"/>
<stop offset="0.82" stop-color="#0D5E7C" stop-opacity="0.15"/>
<stop offset="1" stop-color="#0C5775" stop-opacity="0"/>
</linearGradient>
<linearGradient id="paint1_linear_893_23" x1="503.23" y1="383.3" x2="567.29" y2="383.3" gradientUnits="userSpaceOnUse">
<stop stop-color="#188AA9"/>
<stop offset="0.43" stop-color="#127290" stop-opacity="0.54"/>
<stop offset="0.82" stop-color="#0D5E7C" stop-opacity="0.15"/>
<stop offset="1" stop-color="#0C5775" stop-opacity="0"/>
</linearGradient>
<linearGradient id="paint2_linear_893_23" x1="503.23" y1="403.8" x2="567.29" y2="403.8" gradientUnits="userSpaceOnUse">
<stop stop-color="#188AA9"/>
<stop offset="0.43" stop-color="#127290" stop-opacity="0.54"/>
<stop offset="0.82" stop-color="#0D5E7C" stop-opacity="0.15"/>
<stop offset="1" stop-color="#0C5775" stop-opacity="0"/>
</linearGradient>
<linearGradient id="paint3_linear_893_23" x1="503.23" y1="437.96" x2="567.29" y2="437.96" gradientUnits="userSpaceOnUse">
<stop stop-color="#188AA9"/>
<stop offset="0.43" stop-color="#127290" stop-opacity="0.54"/>
<stop offset="0.82" stop-color="#0D5E7C" stop-opacity="0.15"/>
<stop offset="1" stop-color="#0C5775" stop-opacity="0"/>
</linearGradient>
<linearGradient id="paint4_linear_893_23" x1="503.23" y1="453.34" x2="567.29" y2="453.34" gradientUnits="userSpaceOnUse">
<stop stop-color="#188AA9"/>
<stop offset="0.43" stop-color="#127290" stop-opacity="0.54"/>
<stop offset="0.82" stop-color="#0D5E7C" stop-opacity="0.15"/>
<stop offset="1" stop-color="#0C5775" stop-opacity="0"/>
</linearGradient>
<linearGradient id="paint5_linear_893_23" x1="503.23" y1="480.26" x2="567.29" y2="480.26" gradientUnits="userSpaceOnUse">
<stop stop-color="#188AA9"/>
<stop offset="0.43" stop-color="#127290" stop-opacity="0.54"/>
<stop offset="0.82" stop-color="#0D5E7C" stop-opacity="0.15"/>
<stop offset="1" stop-color="#0C5775" stop-opacity="0"/>
</linearGradient>
<linearGradient id="paint6_linear_893_23" x1="503.23" y1="500.76" x2="567.29" y2="500.76" gradientUnits="userSpaceOnUse">
<stop stop-color="#188AA9"/>
<stop offset="0.43" stop-color="#127290" stop-opacity="0.54"/>
<stop offset="0.82" stop-color="#0D5E7C" stop-opacity="0.15"/>
<stop offset="1" stop-color="#0C5775" stop-opacity="0"/>
</linearGradient>
<linearGradient id="paint7_linear_893_23" x1="503.23" y1="534.93" x2="567.29" y2="534.93" gradientUnits="userSpaceOnUse">
<stop stop-color="#188AA9"/>
<stop offset="0.43" stop-color="#127290" stop-opacity="0.54"/>
<stop offset="0.82" stop-color="#0D5E7C" stop-opacity="0.15"/>
<stop offset="1" stop-color="#0C5775" stop-opacity="0"/>
</linearGradient>
<linearGradient id="paint8_linear_893_23" x1="503.23" y1="550.3" x2="567.29" y2="550.3" gradientUnits="userSpaceOnUse">
<stop stop-color="#188AA9"/>
<stop offset="0.43" stop-color="#127290" stop-opacity="0.54"/>
<stop offset="0.82" stop-color="#0D5E7C" stop-opacity="0.15"/>
<stop offset="1" stop-color="#0C5775" stop-opacity="0"/>
</linearGradient>
<linearGradient id="paint9_linear_893_23" x1="359.76" y1="113.09" x2="408.42" y2="113.09" gradientUnits="userSpaceOnUse">
<stop stop-color="#188AA9"/>
<stop offset="0.43" stop-color="#127290" stop-opacity="0.54"/>
<stop offset="0.82" stop-color="#0D5E7C" stop-opacity="0.15"/>
<stop offset="1" stop-color="#0C5775" stop-opacity="0"/>
</linearGradient>
<linearGradient id="paint10_linear_893_23" x1="359.76" y1="141.66" x2="408.42" y2="141.66" gradientUnits="userSpaceOnUse">
<stop stop-color="#188AA9"/>
<stop offset="0.43" stop-color="#127290" stop-opacity="0.54"/>
<stop offset="0.82" stop-color="#0D5E7C" stop-opacity="0.15"/>
<stop offset="1" stop-color="#0C5775" stop-opacity="0"/>
</linearGradient>
<linearGradient id="paint11_linear_893_23" x1="359.76" y1="184.52" x2="408.42" y2="184.52" gradientUnits="userSpaceOnUse">
<stop stop-color="#188AA9"/>
<stop offset="0.43" stop-color="#127290" stop-opacity="0.54"/>
<stop offset="0.82" stop-color="#0D5E7C" stop-opacity="0.15"/>
<stop offset="1" stop-color="#0C5775" stop-opacity="0"/>
</linearGradient>
<linearGradient id="paint12_linear_893_23" x1="359.76" y1="242.11" x2="408.42" y2="242.11" gradientUnits="userSpaceOnUse">
<stop stop-color="#188AA9"/>
<stop offset="0.43" stop-color="#127290" stop-opacity="0.54"/>
<stop offset="0.82" stop-color="#0D5E7C" stop-opacity="0.15"/>
<stop offset="1" stop-color="#0C5775" stop-opacity="0"/>
</linearGradient>
<linearGradient id="paint13_linear_893_23" x1="255.8" y1="155.93" x2="304.46" y2="155.93" gradientUnits="userSpaceOnUse">
<stop stop-color="#188AA9"/>
<stop offset="0.43" stop-color="#127290" stop-opacity="0.54"/>
<stop offset="0.82" stop-color="#0D5E7C" stop-opacity="0.15"/>
<stop offset="1" stop-color="#0C5775" stop-opacity="0"/>
</linearGradient>
<linearGradient id="paint14_linear_893_23" x1="255.8" y1="227.36" x2="304.46" y2="227.36" gradientUnits="userSpaceOnUse">
<stop stop-color="#188AA9"/>
<stop offset="0.43" stop-color="#127290" stop-opacity="0.54"/>
<stop offset="0.82" stop-color="#0D5E7C" stop-opacity="0.15"/>
<stop offset="1" stop-color="#0C5775" stop-opacity="0"/>
</linearGradient>
<linearGradient id="paint15_linear_893_23" x1="306.71" y1="270.59" x2="355.37" y2="270.59" gradientUnits="userSpaceOnUse">
<stop stop-color="#188AA9"/>
<stop offset="0.43" stop-color="#127290" stop-opacity="0.54"/>
<stop offset="0.82" stop-color="#0D5E7C" stop-opacity="0.15"/>
<stop offset="1" stop-color="#0C5775" stop-opacity="0"/>
</linearGradient>
<linearGradient id="paint16_linear_893_23" x1="306.71" y1="342.02" x2="355.37" y2="342.02" gradientUnits="userSpaceOnUse">
<stop stop-color="#188AA9"/>
<stop offset="0.43" stop-color="#127290" stop-opacity="0.54"/>
<stop offset="0.82" stop-color="#0D5E7C" stop-opacity="0.15"/>
<stop offset="1" stop-color="#0C5775" stop-opacity="0"/>
</linearGradient>
<linearGradient id="paint17_linear_893_23" x1="252.8" y1="313.14" x2="301.46" y2="313.14" gradientUnits="userSpaceOnUse">
<stop stop-color="#188AA9"/>
<stop offset="0.43" stop-color="#127290" stop-opacity="0.54"/>
<stop offset="0.82" stop-color="#0D5E7C" stop-opacity="0.15"/>
<stop offset="1" stop-color="#0C5775" stop-opacity="0"/>
</linearGradient>
<linearGradient id="paint18_linear_893_23" x1="252.8" y1="413.14" x2="301.46" y2="413.14" gradientUnits="userSpaceOnUse">
<stop stop-color="#188AA9"/>
<stop offset="0.43" stop-color="#127290" stop-opacity="0.54"/>
<stop offset="0.82" stop-color="#0D5E7C" stop-opacity="0.15"/>
<stop offset="1" stop-color="#0C5775" stop-opacity="0"/>
</linearGradient>
<linearGradient id="paint19_linear_893_23" x1="102.46" y1="199.28" x2="88.4502" y2="199.28" gradientUnits="userSpaceOnUse">
<stop stop-color="#188AA9"/>
<stop offset="0.43" stop-color="#127290" stop-opacity="0.54"/>
<stop offset="0.82" stop-color="#0D5E7C" stop-opacity="0.15"/>
<stop offset="1" stop-color="#0C5775" stop-opacity="0"/>
</linearGradient>
<linearGradient id="paint20_linear_893_23" x1="166.52" y1="199.28" x2="180.67" y2="199.28" gradientUnits="userSpaceOnUse">
<stop stop-color="#188AA9"/>
<stop offset="0.43" stop-color="#127290" stop-opacity="0.54"/>
<stop offset="0.82" stop-color="#0D5E7C" stop-opacity="0.15"/>
<stop offset="1" stop-color="#0C5775" stop-opacity="0"/>
</linearGradient>
<linearGradient id="paint21_linear_893_23" x1="180.75" y1="233.69" x2="166.59" y2="233.69" gradientUnits="userSpaceOnUse">
<stop stop-color="#188AA9"/>
<stop offset="0.43" stop-color="#127290" stop-opacity="0.54"/>
<stop offset="0.82" stop-color="#0D5E7C" stop-opacity="0.15"/>
<stop offset="1" stop-color="#0C5775" stop-opacity="0"/>
</linearGradient>
<linearGradient id="paint22_linear_893_23" x1="88.5901" y1="251.06" x2="102.6" y2="251.06" gradientUnits="userSpaceOnUse">
<stop stop-color="#188AA9"/>
<stop offset="0.43" stop-color="#127290" stop-opacity="0.54"/>
<stop offset="0.82" stop-color="#0D5E7C" stop-opacity="0.15"/>
<stop offset="1" stop-color="#0C5775" stop-opacity="0"/>
</linearGradient>
<linearGradient id="paint23_linear_893_23" x1="114.31" y1="268.14" x2="128.53" y2="268.14" gradientUnits="userSpaceOnUse">
<stop stop-color="#188AA9"/>
<stop offset="0.43" stop-color="#127290" stop-opacity="0.54"/>
<stop offset="0.82" stop-color="#0D5E7C" stop-opacity="0.15"/>
<stop offset="1" stop-color="#0C5775" stop-opacity="0"/>
</linearGradient>
<linearGradient id="paint24_linear_893_23" x1="102.62" y1="302.89" x2="88.6201" y2="302.89" gradientUnits="userSpaceOnUse">
<stop stop-color="#188AA9"/>
<stop offset="0.43" stop-color="#127290" stop-opacity="0.54"/>
<stop offset="0.82" stop-color="#0D5E7C" stop-opacity="0.15"/>
<stop offset="1" stop-color="#0C5775" stop-opacity="0"/>
</linearGradient>
<linearGradient id="paint25_linear_893_23" x1="166.69" y1="302.89" x2="180.84" y2="302.89" gradientUnits="userSpaceOnUse">
<stop stop-color="#188AA9"/>
<stop offset="0.43" stop-color="#127290" stop-opacity="0.54"/>
<stop offset="0.82" stop-color="#0D5E7C" stop-opacity="0.15"/>
<stop offset="1" stop-color="#0C5775" stop-opacity="0"/>
</linearGradient>
<linearGradient id="paint26_linear_893_23" x1="154.9" y1="337.3" x2="140.69" y2="337.3" gradientUnits="userSpaceOnUse">
<stop stop-color="#188AA9"/>
<stop offset="0.43" stop-color="#127290" stop-opacity="0.54"/>
<stop offset="0.82" stop-color="#0D5E7C" stop-opacity="0.15"/>
<stop offset="1" stop-color="#0C5775" stop-opacity="0"/>
</linearGradient>
<linearGradient id="paint27_linear_893_23" x1="140.26" y1="371.65" x2="154.48" y2="371.65" gradientUnits="userSpaceOnUse">
<stop stop-color="#188AA9"/>
<stop offset="0.43" stop-color="#127290" stop-opacity="0.54"/>
<stop offset="0.82" stop-color="#0D5E7C" stop-opacity="0.15"/>
<stop offset="1" stop-color="#0C5775" stop-opacity="0"/>
</linearGradient>
<linearGradient id="paint28_linear_893_23" x1="90.2603" y1="378.96" x2="76.3903" y2="378.96" gradientUnits="userSpaceOnUse">
<stop stop-color="#188AA9"/>
<stop offset="0.43" stop-color="#127290" stop-opacity="0.54"/>
<stop offset="0.82" stop-color="#0D5E7C" stop-opacity="0.15"/>
<stop offset="1" stop-color="#0C5775" stop-opacity="0"/>
</linearGradient>
<linearGradient id="paint29_linear_893_23" x1="153.72" y1="378.96" x2="167.74" y2="378.96" gradientUnits="userSpaceOnUse">
<stop stop-color="#188AA9"/>
<stop offset="0.43" stop-color="#127290" stop-opacity="0.54"/>
<stop offset="0.82" stop-color="#0D5E7C" stop-opacity="0.15"/>
<stop offset="1" stop-color="#0C5775" stop-opacity="0"/>
</linearGradient>
<linearGradient id="paint30_linear_893_23" x1="167.8" y1="413.04" x2="153.79" y2="413.04" gradientUnits="userSpaceOnUse">
<stop stop-color="#188AA9"/>
<stop offset="0.43" stop-color="#127290" stop-opacity="0.54"/>
<stop offset="0.82" stop-color="#0D5E7C" stop-opacity="0.15"/>
<stop offset="1" stop-color="#0C5775" stop-opacity="0"/>
</linearGradient>
<linearGradient id="paint31_linear_893_23" x1="76.5404" y1="430.25" x2="90.4104" y2="430.25" gradientUnits="userSpaceOnUse">
<stop stop-color="#188AA9"/>
<stop offset="0.43" stop-color="#127290" stop-opacity="0.54"/>
<stop offset="0.82" stop-color="#0D5E7C" stop-opacity="0.15"/>
<stop offset="1" stop-color="#0C5775" stop-opacity="0"/>
</linearGradient>
<linearGradient id="paint32_linear_893_23" x1="102.01" y1="447.17" x2="116.09" y2="447.17" gradientUnits="userSpaceOnUse">
<stop stop-color="#188AA9"/>
<stop offset="0.43" stop-color="#127290" stop-opacity="0.54"/>
<stop offset="0.82" stop-color="#0D5E7C" stop-opacity="0.15"/>
<stop offset="1" stop-color="#0C5775" stop-opacity="0"/>
</linearGradient>
<linearGradient id="paint33_linear_893_23" x1="90.4399" y1="481.59" x2="76.5699" y2="481.59" gradientUnits="userSpaceOnUse">
<stop stop-color="#188AA9"/>
<stop offset="0.43" stop-color="#127290" stop-opacity="0.54"/>
<stop offset="0.82" stop-color="#0D5E7C" stop-opacity="0.15"/>
<stop offset="1" stop-color="#0C5775" stop-opacity="0"/>
</linearGradient>
<linearGradient id="paint34_linear_893_23" x1="153.9" y1="481.59" x2="167.91" y2="481.59" gradientUnits="userSpaceOnUse">
<stop stop-color="#188AA9"/>
<stop offset="0.43" stop-color="#127290" stop-opacity="0.54"/>
<stop offset="0.82" stop-color="#0D5E7C" stop-opacity="0.15"/>
<stop offset="1" stop-color="#0C5775" stop-opacity="0"/>
</linearGradient>
<linearGradient id="paint35_linear_893_23" x1="142.21" y1="515.68" x2="128.13" y2="515.68" gradientUnits="userSpaceOnUse">
<stop stop-color="#188AA9"/>
<stop offset="0.43" stop-color="#127290" stop-opacity="0.54"/>
<stop offset="0.82" stop-color="#0D5E7C" stop-opacity="0.15"/>
<stop offset="1" stop-color="#0C5775" stop-opacity="0"/>
</linearGradient>
<linearGradient id="paint36_linear_893_23" x1="127.71" y1="549.69" x2="141.8" y2="549.69" gradientUnits="userSpaceOnUse">
<stop stop-color="#188AA9"/>
<stop offset="0.43" stop-color="#127290" stop-opacity="0.54"/>
<stop offset="0.82" stop-color="#0D5E7C" stop-opacity="0.15"/>
<stop offset="1" stop-color="#0C5775" stop-opacity="0"/>
</linearGradient>
<linearGradient id="paint37_linear_893_23" x1="17.3401" y1="210.48" x2="59.3901" y2="210.48" gradientUnits="userSpaceOnUse">
<stop stop-color="#188AA9"/>
<stop offset="0.43" stop-color="#127290" stop-opacity="0.54"/>
<stop offset="0.82" stop-color="#0D5E7C" stop-opacity="0.15"/>
<stop offset="1" stop-color="#0C5775" stop-opacity="0"/>
</linearGradient>
<linearGradient id="paint38_linear_893_23" x1="17.3401" y1="262.64" x2="59.3901" y2="262.64" gradientUnits="userSpaceOnUse">
<stop stop-color="#188AA9"/>
<stop offset="0.43" stop-color="#127290" stop-opacity="0.54"/>
<stop offset="0.82" stop-color="#0D5E7C" stop-opacity="0.15"/>
<stop offset="1" stop-color="#0C5775" stop-opacity="0"/>
</linearGradient>
<linearGradient id="paint39_linear_893_23" x1="17.3401" y1="316.08" x2="59.3901" y2="316.08" gradientUnits="userSpaceOnUse">
<stop stop-color="#188AA9"/>
<stop offset="0.43" stop-color="#127290" stop-opacity="0.54"/>
<stop offset="0.82" stop-color="#0D5E7C" stop-opacity="0.15"/>
<stop offset="1" stop-color="#0C5775" stop-opacity="0"/>
</linearGradient>
</defs>
</svg>
