<svg width="671" height="379" viewBox="0 0 671 379" fill="none" xmlns="http://www.w3.org/2000/svg">
<path d="M482.59 108.13C486.75 145.04 497.96 169.58 510.3 170.3C512.71 170.44 520.76 169.99 531.27 151.58" stroke="#002440" stroke-width="0.75" stroke-miterlimit="10"/>
<path d="M481.84 147.07C481.74 166.54 494.7 180.85 508.05 181.52C519.9 182.12 528.53 171.81 529.77 170.29" stroke="#002440" stroke-width="0.75" stroke-miterlimit="10"/>
<path d="M255.65 254.18C263.27 264.2 269.4 264.01 270.63 263.92C280.22 263.22 289.92 247.13 290.1 222.73" stroke="#002440" stroke-width="0.75" stroke-miterlimit="10"/>
<path d="M602.05 175.16C603.07 173.69 605.65 170.41 610.29 168.42C614.1 166.79 617.52 166.79 619.28 166.92" stroke="#002440" stroke-width="3.74" stroke-miterlimit="10" stroke-linecap="round"/>
<path d="M622.65 173.29C625.958 173.29 628.64 171.947 628.64 170.29C628.64 168.633 625.958 167.29 622.65 167.29C619.342 167.29 616.66 168.633 616.66 170.29C616.66 171.947 619.342 173.29 622.65 173.29Z" fill="#002440" stroke="#002440" stroke-width="4.99" stroke-miterlimit="10" stroke-linecap="round"/>
<path d="M623.03 175.91C626.338 175.91 629.02 174.567 629.02 172.91C629.02 171.253 626.338 169.91 623.03 169.91C619.722 169.91 617.04 171.253 617.04 172.91C617.04 174.567 619.722 175.91 623.03 175.91Z" fill="#F3F2FF"/>
<path opacity="0.4" d="M647.74 208.87H617.03V172.91H629.02L647.74 208.87Z" fill="url(#paint0_linear_893_12)"/>
<path d="M148.92 98.7602C147.9 97.2902 145.32 94.0102 140.68 92.0202C136.87 90.3902 133.45 90.3902 131.69 90.5202" stroke="#002440" stroke-width="3.74" stroke-miterlimit="10" stroke-linecap="round"/>
<path d="M128.32 96.9001C131.628 96.9001 134.31 95.557 134.31 93.9001C134.31 92.2433 131.628 90.9001 128.32 90.9001C125.012 90.9001 122.33 92.2433 122.33 93.9001C122.33 95.557 125.012 96.9001 128.32 96.9001Z" fill="#002440" stroke="#002440" stroke-width="4.99" stroke-miterlimit="10" stroke-linecap="round"/>
<path d="M127.94 99.5203C131.248 99.5203 133.93 98.1771 133.93 96.5203C133.93 94.8634 131.248 93.5203 127.94 93.5203C124.632 93.5203 121.95 94.8634 121.95 96.5203C121.95 98.1771 124.632 99.5203 127.94 99.5203Z" fill="#F3F2FF"/>
<path opacity="0.4" d="M147.42 188.64L103.23 189.39L121.95 96.5203H133.94L147.42 188.64Z" fill="url(#paint1_linear_893_12)"/>
<path d="M670.22 378.14H612.9V208.48H658.32C664.89 208.48 670.22 213.81 670.22 220.38V378.13V378.14Z" fill="#002440"/>
<path d="M657.73 201.69V209.24" stroke="#002440" stroke-width="0.96" stroke-miterlimit="10" stroke-linecap="round"/>
<g opacity="0.43">
<path opacity="0.6" d="M663.08 262.28V266.75H615.17V255.25L663.08 262.28Z" fill="url(#paint2_linear_893_12)"/>
<path opacity="0.6" d="M615.17 300.61V296.14H663.08V307.64L615.17 300.61Z" fill="url(#paint3_linear_893_12)"/>
<path opacity="0.6" d="M663.08 314.67V319.14H615.17V307.64L663.08 314.67Z" fill="url(#paint4_linear_893_12)"/>
<path opacity="0.6" d="M615.371 249.73V245.26H663.291V256.76L615.371 249.73Z" fill="url(#paint5_linear_893_12)"/>
<path opacity="0.6" d="M663.051 352.05V356.52H615.141V345.02L663.051 352.05Z" fill="url(#paint6_linear_893_12)"/>
</g>
<path d="M612.89 180.1V376.92H527.9V147.45H579.98L612.89 180.1Z" fill="#002440"/>
<g opacity="0.31">
<path d="M604.97 186.4H590.021V192.5H604.97V186.4Z" fill="#F3F2FF"/>
<path d="M550.06 221.86H535.18V227.96H550.06V221.86Z" fill="#F3F2FF"/>
<path d="M604.81 239.76H589.86V245.86H604.81V239.76Z" fill="#0C5775"/>
<path d="M549.95 293.18H535.07V299.28H549.95V293.18Z" fill="#0C5775"/>
<path d="M577.31 328.64H562.36V334.74H577.31V328.64Z" fill="#0C5775"/>
<path d="M577.75 364.03H562.8V370.13H577.75V364.03Z" fill="#F3F2FF"/>
<path d="M577.71 170.81H562.76V176.91H577.71V170.81Z" fill="#0C5775"/>
</g>
<path d="M485.46 78.96V378.14H388.84V78.96H406.07V129.09H438.28V78.96H485.46Z" fill="#002440"/>
<path d="M453.19 73.6501V78.7901" stroke="#002440" stroke-width="0.99" stroke-miterlimit="10" stroke-linecap="square"/>
<path d="M471.3 73.6501V78.7901" stroke="#002440" stroke-width="0.99" stroke-miterlimit="10" stroke-linecap="square"/>
<path d="M472.73 69.02H451.76V74.17H472.73V69.02Z" fill="#002440"/>
<path d="M453.21 65.8101V70.9501" stroke="#002440" stroke-width="0.99" stroke-miterlimit="10" stroke-linecap="round"/>
<g opacity="0.4">
<path d="M400.08 151.94H474.23V158.48C474.23 160.88 472.28 162.82 469.89 162.82H404.43C402.03 162.82 400.09 160.87 400.09 158.48V151.94H400.08Z" fill="url(#paint7_linear_893_12)"/>
<path d="M400.08 195.47H474.23V202.01C474.23 204.41 472.28 206.35 469.89 206.35H404.43C402.03 206.35 400.09 204.4 400.09 202.01V195.47H400.08Z" fill="#0C5775"/>
<path d="M400.08 239.01H474.23V245.55C474.23 247.95 472.28 249.89 469.89 249.89H404.43C402.03 249.89 400.09 247.94 400.09 245.55V239.01H400.08Z" fill="#0C5775"/>
<path d="M400.08 260.78H474.23V267.32C474.23 269.72 472.28 271.66 469.89 271.66H404.43C402.03 271.66 400.09 269.71 400.09 267.32V260.78H400.08Z" fill="url(#paint8_linear_893_12)"/>
<path d="M400.08 304.32H474.23V310.86C474.23 313.26 472.28 315.2 469.89 315.2H404.43C402.03 315.2 400.09 313.25 400.09 310.86V304.32H400.08Z" fill="url(#paint9_linear_893_12)"/>
<path d="M400.08 348.54H474.23V355.08C474.23 357.48 472.28 359.42 469.89 359.42H404.43C402.03 359.42 400.09 357.47 400.09 355.08V348.54H400.08Z" fill="#0C5775"/>
</g>
<path d="M378.11 204.25H288.23V376.64H378.11V204.25Z" fill="#002440"/>
<path d="M318.191 198.38H293.471V204.37H318.191V198.38Z" fill="#002440"/>
<g opacity="0.4">
<path d="M321.621 226.22C321.621 228.54 323.021 230.42 324.751 230.42H362.661C364.391 230.42 365.791 228.54 365.791 226.21C365.791 223.89 364.391 222 362.661 222H324.751C323.021 222 321.621 223.89 321.621 226.21V226.22Z" fill="url(#paint10_linear_893_12)"/>
<path d="M300.96 240.75C300.96 243.07 302.36 244.96 304.09 244.96H318.5C320.23 244.96 321.63 243.07 321.63 240.75C321.63 238.43 320.23 236.55 318.5 236.55H304.09C302.36 236.55 300.96 238.43 300.96 240.76V240.75Z" fill="url(#paint11_linear_893_12)"/>
<path d="M321.65 269.83C321.65 272.15 323.05 274.03 324.78 274.03H340.92C342.65 274.03 344.05 272.15 344.05 269.82C344.05 267.5 342.65 265.61 340.92 265.61H324.78C323.05 265.61 321.65 267.5 321.65 269.82V269.83Z" fill="#0C5775"/>
<path d="M300.96 284.36C300.96 286.68 302.36 288.57 304.09 288.57H340.92C342.65 288.57 344.05 286.69 344.05 284.36C344.05 282.04 342.65 280.15 340.92 280.15H304.09C302.36 280.15 300.96 282.03 300.96 284.36Z" fill="url(#paint12_linear_893_12)"/>
<path d="M321.661 298.9C321.661 301.22 323.061 303.1 324.791 303.1H362.661C364.391 303.1 365.791 301.22 365.791 298.89C365.791 296.57 364.391 294.68 362.661 294.68H324.791C323.061 294.68 321.661 296.57 321.661 298.89V298.9Z" fill="url(#paint13_linear_893_12)"/>
<path d="M344.041 327.97C344.041 330.29 345.441 332.18 347.171 332.18H362.661C364.391 332.18 365.791 330.3 365.791 327.97C365.791 325.65 364.391 323.76 362.661 323.76H347.171C345.441 323.76 344.041 325.64 344.041 327.97Z" fill="#0C5775"/>
<path d="M300.96 342.51C300.96 344.83 302.36 346.72 304.09 346.72H340.92C342.65 346.72 344.05 344.84 344.05 342.51C344.05 340.19 342.65 338.3 340.92 338.3H304.09C302.36 338.3 300.96 340.18 300.96 342.51Z" fill="url(#paint14_linear_893_12)"/>
<path d="M321.701 357.04C321.701 359.36 323.101 361.25 324.831 361.25H362.661C364.391 361.25 365.791 359.37 365.791 357.04C365.791 354.72 364.391 352.83 362.661 352.83H324.831C323.101 352.83 321.701 354.71 321.701 357.04Z" fill="url(#paint15_linear_893_12)"/>
</g>
<path d="M257.52 142.14V376.64H201.34V109.25H201.81L257.52 142.14Z" fill="#002440"/>
<path d="M201.34 0.650146V376.64H147.42V27.0102L201.07 0.650146H201.34Z" fill="#002440"/>
<g opacity="0.58">
<path opacity="0.39" d="M171.821 41.8401H157.831V47.8H171.821V41.8401Z" fill="#0C5775"/>
<path opacity="0.39" d="M194.35 72.7002H180.36V78.6602H194.35V72.7002Z" fill="#F3F2FF"/>
<path opacity="0.39" d="M194.35 161.19H180.36V167.15H194.35V161.19Z" fill="#0C5775"/>
<path opacity="0.39" d="M171.821 207.22H157.831V213.18H171.821V207.22Z" fill="#F3F2FF"/>
<path opacity="0.39" d="M171.821 237.91H157.831V243.87H171.821V237.91Z" fill="#0C5775"/>
<path opacity="0.39" d="M171.821 314.23H157.831V320.19H171.821V314.23Z" fill="#F3F2FF"/>
<path opacity="0.39" d="M231.551 351.28H245.541V345.32H231.551V351.28Z" fill="#0C5775"/>
<path opacity="0.39" d="M206.901 289.81H220.891V283.85H206.901V289.81Z" fill="#0C5775"/>
<path opacity="0.39" d="M231.551 231.92H245.541V225.96H231.551V231.92Z" fill="#F3F2FF"/>
<path opacity="0.39" d="M206.901 155.2H220.891V149.24H206.901V155.2Z" fill="#0C5775"/>
</g>
<path d="M116.78 161.14C116.66 130.87 92.0803 106.37 61.7903 106.37C31.5003 106.37 6.92029 130.86 6.80029 161.14" fill="#002440"/>
<path d="M116.78 161.14C116.66 130.87 92.0803 106.37 61.7903 106.37C31.5003 106.37 6.92029 130.86 6.80029 161.14" stroke="#002440" stroke-width="0.76" stroke-miterlimit="10"/>
<path d="M124.91 160.49H-0.0698242V376.64H124.91V160.49Z" fill="#002440"/>
<path d="M55.9 111.65L59.17 42.1501C59.24 40.7001 60.47 39.5801 61.91 39.6501C63.27 39.7101 64.34 40.8201 64.41 42.1501L67.68 111.65C67.72 119.81 55.87 119.84 55.9 111.65Z" fill="#002440"/>
<g opacity="0.4">
<path d="M94.8404 159.01H28.6104C23.7104 159.01 20.2704 154.2 21.8304 149.55C27.4204 132.88 43.1704 120.87 61.7204 120.87C80.2704 120.87 96.0104 132.88 101.61 149.55C103.17 154.2 99.7404 159.01 94.8304 159.01H94.8404Z" fill="url(#paint16_linear_893_12)"/>
<path d="M82.5401 352.9C82.5401 349.89 80.2701 347.45 77.4801 347.45H16.1601C13.3701 347.45 11.1001 349.89 11.1001 352.91C11.1001 355.92 13.3701 358.37 16.1601 358.37H77.4801C80.2801 358.37 82.5401 355.92 82.5401 352.91V352.9Z" fill="url(#paint17_linear_893_12)"/>
<path d="M115.96 334.06C115.96 331.05 113.69 328.6 110.9 328.6H87.5903C84.7903 328.6 82.5303 331.05 82.5303 334.06C82.5303 337.07 84.8003 339.51 87.5903 339.51H110.9C113.69 339.51 115.96 337.07 115.96 334.05V334.06Z" fill="url(#paint18_linear_893_12)"/>
<path d="M46.6602 296.36C46.6602 293.35 44.3902 290.91 41.6002 290.91H15.4902C12.7002 290.91 10.4302 293.35 10.4302 296.37C10.4302 299.38 12.7002 301.83 15.4902 301.83H41.6002C44.4002 301.83 46.6602 299.38 46.6602 296.37V296.36Z" fill="#F3F2FF"/>
<path d="M115.96 277.52C115.96 274.51 113.69 272.06 110.9 272.06H51.33C48.54 272.06 46.27 274.5 46.27 277.52C46.27 280.53 48.54 282.98 51.33 282.98H110.9C113.69 282.98 115.96 280.54 115.96 277.52Z" fill="url(#paint19_linear_893_12)"/>
<path d="M46.2703 220.98C46.2703 217.97 44.0003 215.52 41.2103 215.52H16.1503C13.3603 215.52 11.0903 217.96 11.0903 220.98C11.0903 223.99 13.3603 226.44 16.1503 226.44H41.2103C44.0003 226.44 46.2703 224 46.2703 220.98Z" fill="#0C5775"/>
<path d="M115.96 202.13C115.96 199.12 113.69 196.67 110.9 196.67H51.33C48.54 196.67 46.27 199.11 46.27 202.13C46.27 205.14 48.54 207.59 51.33 207.59H110.9C113.69 207.59 115.96 205.15 115.96 202.13Z" fill="url(#paint20_linear_893_12)"/>
<path d="M82.4103 183.29C82.4103 180.28 80.1403 177.83 77.3503 177.83H16.1503C13.3603 177.83 11.0903 180.27 11.0903 183.29C11.0903 186.3 13.3603 188.75 16.1503 188.75H77.3503C80.1403 188.75 82.4103 186.31 82.4103 183.29Z" fill="url(#paint21_linear_893_12)"/>
</g>
<defs>
<linearGradient id="paint0_linear_893_12" x1="632.39" y1="172.91" x2="632.39" y2="208.87" gradientUnits="userSpaceOnUse">
<stop stop-color="#F3F2FF"/>
<stop offset="1" stop-color="#188AA9" stop-opacity="0"/>
</linearGradient>
<linearGradient id="paint1_linear_893_12" x1="125.32" y1="96.5203" x2="125.32" y2="189.39" gradientUnits="userSpaceOnUse">
<stop stop-color="#F3F2FF"/>
<stop offset="1" stop-color="#188AA9" stop-opacity="0"/>
</linearGradient>
<linearGradient id="paint2_linear_893_12" x1="615.17" y1="261" x2="663.08" y2="261" gradientUnits="userSpaceOnUse">
<stop stop-color="#0C5775"/>
<stop offset="0.21" stop-color="#094B68" stop-opacity="0.77"/>
<stop offset="0.75" stop-color="#022F4B" stop-opacity="0.22"/>
<stop offset="1" stop-color="#002440" stop-opacity="0"/>
</linearGradient>
<linearGradient id="paint3_linear_893_12" x1="615.17" y1="301.89" x2="663.08" y2="301.89" gradientUnits="userSpaceOnUse">
<stop stop-color="#F3F2FF"/>
<stop offset="1" stop-color="#002440" stop-opacity="0"/>
</linearGradient>
<linearGradient id="paint4_linear_893_12" x1="615.17" y1="313.39" x2="663.08" y2="313.39" gradientUnits="userSpaceOnUse">
<stop stop-color="#0C5775"/>
<stop offset="0.21" stop-color="#094B68" stop-opacity="0.77"/>
<stop offset="0.75" stop-color="#022F4B" stop-opacity="0.22"/>
<stop offset="1" stop-color="#002440" stop-opacity="0"/>
</linearGradient>
<linearGradient id="paint5_linear_893_12" x1="615.371" y1="251.01" x2="663.291" y2="251.01" gradientUnits="userSpaceOnUse">
<stop stop-color="#0C5775"/>
<stop offset="0.21" stop-color="#094B68" stop-opacity="0.77"/>
<stop offset="0.75" stop-color="#022F4B" stop-opacity="0.22"/>
<stop offset="1" stop-color="#002440" stop-opacity="0"/>
</linearGradient>
<linearGradient id="paint6_linear_893_12" x1="615.141" y1="350.77" x2="663.051" y2="350.77" gradientUnits="userSpaceOnUse">
<stop stop-color="#0C5775"/>
<stop offset="0.21" stop-color="#094B68" stop-opacity="0.77"/>
<stop offset="0.75" stop-color="#022F4B" stop-opacity="0.22"/>
<stop offset="1" stop-color="#002440" stop-opacity="0"/>
</linearGradient>
<linearGradient id="paint7_linear_893_12" x1="400.08" y1="157.38" x2="474.23" y2="157.38" gradientUnits="userSpaceOnUse">
<stop stop-color="#F3F2FF"/>
<stop offset="1" stop-color="#002440" stop-opacity="0"/>
</linearGradient>
<linearGradient id="paint8_linear_893_12" x1="400.08" y1="266.22" x2="474.23" y2="266.22" gradientUnits="userSpaceOnUse">
<stop stop-color="#0C5775"/>
<stop offset="0.21" stop-color="#094B68" stop-opacity="0.77"/>
<stop offset="0.75" stop-color="#022F4B" stop-opacity="0.22"/>
<stop offset="1" stop-color="#002440" stop-opacity="0"/>
</linearGradient>
<linearGradient id="paint9_linear_893_12" x1="400.08" y1="309.76" x2="474.23" y2="309.76" gradientUnits="userSpaceOnUse">
<stop stop-color="#F3F2FF"/>
<stop offset="1" stop-color="#002440" stop-opacity="0"/>
</linearGradient>
<linearGradient id="paint10_linear_893_12" x1="365.791" y1="226.22" x2="321.621" y2="226.22" gradientUnits="userSpaceOnUse">
<stop stop-color="#002440" stop-opacity="0"/>
<stop offset="1" stop-color="#F3F2FF"/>
</linearGradient>
<linearGradient id="paint11_linear_893_12" x1="321.62" y1="240.75" x2="300.96" y2="240.75" gradientUnits="userSpaceOnUse">
<stop stop-color="#002440" stop-opacity="0"/>
<stop offset="0.25" stop-color="#022F4B" stop-opacity="0.22"/>
<stop offset="0.79" stop-color="#094B68" stop-opacity="0.77"/>
<stop offset="1" stop-color="#0C5775"/>
</linearGradient>
<linearGradient id="paint12_linear_893_12" x1="344.04" y1="284.36" x2="300.96" y2="284.36" gradientUnits="userSpaceOnUse">
<stop stop-color="#002440" stop-opacity="0"/>
<stop offset="1" stop-color="#F3F2FF"/>
</linearGradient>
<linearGradient id="paint13_linear_893_12" x1="365.791" y1="298.9" x2="321.661" y2="298.9" gradientUnits="userSpaceOnUse">
<stop stop-color="#002440" stop-opacity="0"/>
<stop offset="0.25" stop-color="#022F4B" stop-opacity="0.22"/>
<stop offset="0.79" stop-color="#094B68" stop-opacity="0.77"/>
<stop offset="1" stop-color="#0C5775"/>
</linearGradient>
<linearGradient id="paint14_linear_893_12" x1="344.04" y1="342.51" x2="548.41" y2="342.51" gradientUnits="userSpaceOnUse">
<stop stop-color="#002440" stop-opacity="0"/>
<stop offset="0.25" stop-color="#022F4B" stop-opacity="0.22"/>
<stop offset="0.79" stop-color="#094B68" stop-opacity="0.77"/>
<stop offset="1" stop-color="#0C5775"/>
</linearGradient>
<linearGradient id="paint15_linear_893_12" x1="365.791" y1="357.04" x2="321.701" y2="357.04" gradientUnits="userSpaceOnUse">
<stop stop-color="#002440" stop-opacity="0"/>
<stop offset="0.25" stop-color="#022F4B" stop-opacity="0.22"/>
<stop offset="0.79" stop-color="#094B68" stop-opacity="0.77"/>
<stop offset="1" stop-color="#0C5775"/>
</linearGradient>
<linearGradient id="paint16_linear_893_12" x1="21.4604" y1="139.94" x2="102" y2="139.94" gradientUnits="userSpaceOnUse">
<stop stop-color="#0C5775"/>
<stop offset="0.21" stop-color="#094B68" stop-opacity="0.77"/>
<stop offset="0.75" stop-color="#022F4B" stop-opacity="0.22"/>
<stop offset="1" stop-color="#002440" stop-opacity="0"/>
</linearGradient>
<linearGradient id="paint17_linear_893_12" x1="11.1001" y1="352.9" x2="82.5401" y2="352.9" gradientUnits="userSpaceOnUse">
<stop stop-color="#0C5775"/>
<stop offset="0.21" stop-color="#094B68" stop-opacity="0.77"/>
<stop offset="0.75" stop-color="#022F4B" stop-opacity="0.22"/>
<stop offset="1" stop-color="#002440" stop-opacity="0"/>
</linearGradient>
<linearGradient id="paint18_linear_893_12" x1="82.5303" y1="334.06" x2="115.96" y2="334.06" gradientUnits="userSpaceOnUse">
<stop stop-color="#F3F2FF"/>
<stop offset="1" stop-color="#002440" stop-opacity="0"/>
</linearGradient>
<linearGradient id="paint19_linear_893_12" x1="46.27" y1="277.52" x2="115.96" y2="277.52" gradientUnits="userSpaceOnUse">
<stop stop-color="#0C5775"/>
<stop offset="0.21" stop-color="#094B68" stop-opacity="0.77"/>
<stop offset="0.75" stop-color="#022F4B" stop-opacity="0.22"/>
<stop offset="1" stop-color="#002440" stop-opacity="0"/>
</linearGradient>
<linearGradient id="paint20_linear_893_12" x1="46.27" y1="202.13" x2="-138" y2="202.13" gradientUnits="userSpaceOnUse">
<stop stop-color="#F3F2FF"/>
<stop offset="1" stop-color="#002440" stop-opacity="0"/>
</linearGradient>
<linearGradient id="paint21_linear_893_12" x1="11.1003" y1="183.29" x2="82.4103" y2="183.29" gradientUnits="userSpaceOnUse">
<stop stop-color="#0C5775"/>
<stop offset="0.21" stop-color="#094B68" stop-opacity="0.77"/>
<stop offset="0.75" stop-color="#022F4B" stop-opacity="0.22"/>
<stop offset="1" stop-color="#002440" stop-opacity="0"/>
</linearGradient>
</defs>
</svg>
