<svg width="619" height="636" viewBox="0 0 619 636" fill="none" xmlns="http://www.w3.org/2000/svg">
<path d="M193 147.095C199.71 140.005 207.55 130.225 214.38 117.475C225.39 96.9047 228.1 79.1647 228.63 75.4747C230.71 60.9347 229.76 48.3847 228.25 39.0947" stroke="#188AA9" stroke-width="0.37" stroke-miterlimit="10"/>
<path d="M194.12 151.215C197.42 148.775 201.86 145.195 206.59 140.345C227.19 119.215 232.74 95.0949 233.87 89.7149C237.95 70.3749 235.39 54.1148 233.12 44.7148" stroke="#188AA9" stroke-width="0.37" stroke-miterlimit="10"/>
<path d="M574 8.45V106.5H490.75V24.08L442 33.23V636H619V0L574 8.45Z" fill="#188AA9"/>
<g opacity="0.14">
<path opacity="0.6" d="M452.76 34.5H479.98C482.2 34.5 483.99 36.3 483.99 38.51V42.77H448.74V38.51C448.74 36.29 450.54 34.5 452.75 34.5H452.76Z" fill="url(#paint0_linear_2452_1445)"/>
<path opacity="0.6" d="M452.76 68.7002H479.98C482.2 68.7002 483.99 70.5002 483.99 72.7102V76.9702H448.74V72.7102C448.74 70.4902 450.54 68.7002 452.75 68.7002H452.76Z" fill="url(#paint1_linear_2452_1445)"/>
<path opacity="0.6" d="M452.76 135.44H479.98C482.2 135.44 483.99 137.24 483.99 139.45V143.71H448.74V139.45C448.74 137.23 450.54 135.44 452.75 135.44H452.76Z" fill="url(#paint2_linear_2452_1445)"/>
<path opacity="0.6" d="M452.76 203.84H479.98C482.2 203.84 483.99 205.64 483.99 207.85V212.11H448.74V207.85C448.74 205.63 450.54 203.84 452.75 203.84H452.76Z" fill="url(#paint3_linear_2452_1445)"/>
</g>
<g opacity="0.14">
<path opacity="0.6" d="M582.85 75.5298H610.07C612.29 75.5298 614.08 77.3298 614.08 79.5398V83.7998H578.83V79.5398C578.83 77.3198 580.63 75.5298 582.84 75.5298H582.85Z" fill="url(#paint4_linear_2452_1445)"/>
<path opacity="0.6" d="M582.85 92.6299H610.07C612.29 92.6299 614.08 94.4299 614.08 96.6399V100.9H578.83V96.6399C578.83 94.4199 580.63 92.6299 582.84 92.6299H582.85Z" fill="url(#paint5_linear_2452_1445)"/>
<path opacity="0.6" d="M582.85 142.28H610.07C612.29 142.28 614.08 144.08 614.08 146.29V150.55H578.83V146.29C578.83 144.07 580.63 142.28 582.84 142.28H582.85Z" fill="url(#paint6_linear_2452_1445)"/>
<path opacity="0.6" d="M582.85 193.58H610.07C612.29 193.58 614.08 195.38 614.08 197.59V201.85H578.83V197.59C578.83 195.37 580.63 193.58 582.84 193.58H582.85Z" fill="url(#paint7_linear_2452_1445)"/>
<path opacity="0.6" d="M582.85 210.68H610.07C612.29 210.68 614.08 212.48 614.08 214.69V218.95H578.83V214.69C578.83 212.47 580.63 210.68 582.84 210.68H582.85Z" fill="url(#paint8_linear_2452_1445)"/>
</g>
<g opacity="0.14">
<path opacity="0.6" d="M504.32 112.5H559.6C562.87 112.5 565.53 115.16 565.53 118.43V121.97H498.39V118.43C498.39 115.16 501.05 112.5 504.32 112.5Z" fill="url(#paint9_linear_2452_1445)"/>
<path opacity="0.6" d="M504.32 151.64H559.6C562.87 151.64 565.53 154.3 565.53 157.57V161.11H498.39V157.57C498.39 154.3 501.05 151.64 504.32 151.64Z" fill="url(#paint10_linear_2452_1445)"/>
<path opacity="0.6" d="M504.32 171.21H559.6C562.87 171.21 565.53 173.87 565.53 177.14V180.68H498.39V177.14C498.39 173.87 501.05 171.21 504.32 171.21Z" fill="url(#paint11_linear_2452_1445)"/>
<path opacity="0.6" d="M504.32 228.03H559.6C562.87 228.03 565.53 230.69 565.53 233.96V237.5H498.39V233.96C498.39 230.69 501.05 228.03 504.32 228.03Z" fill="url(#paint12_linear_2452_1445)"/>
<path opacity="0.6" d="M504.32 286.74H559.6C562.87 286.74 565.53 289.4 565.53 292.67V296.21H498.39V292.67C498.39 289.4 501.05 286.74 504.32 286.74Z" fill="url(#paint13_linear_2452_1445)"/>
<path opacity="0.6" d="M504.32 306.31H559.6C562.87 306.31 565.53 308.97 565.53 312.24V315.78H498.39V312.24C498.39 308.97 501.05 306.31 504.32 306.31Z" fill="url(#paint14_linear_2452_1445)"/>
</g>
<path d="M488.5 26.2501C493.1 29.2401 509.51 39.0701 531.62 36.3701C559.17 33.0101 574.16 12.8001 576.62 9.37012" stroke="#188AA9" stroke-width="0.37" stroke-miterlimit="10"/>
<path d="M485.939 32.9799C490.539 35.9699 506.949 45.7999 529.059 43.1099C556.609 39.7499 571.599 19.5399 574.059 16.1099" stroke="#188AA9" stroke-width="0.37" stroke-miterlimit="10"/>
<path d="M421 157.507H229.75V636H421V157.507Z" fill="#188AA9"/>
<path d="M421 34.7358H272.5V157.688H421V34.7358Z" fill="#188AA9"/>
<g opacity="0.27">
<g opacity="0.49">
<path opacity="0.6" d="M283.75 170.703V174.691H241V164.435L283.75 170.703Z" fill="url(#paint15_linear_2452_1445)"/>
<path opacity="0.6" d="M241 182.098V178.11H283.75V188.366L241 182.098Z" fill="url(#paint16_linear_2452_1445)"/>
<path opacity="0.6" d="M241 204.889V200.9H283.75V211.156L241 204.889Z" fill="url(#paint17_linear_2452_1445)"/>
</g>
<g opacity="0.49">
<path opacity="0.6" d="M283.4 238.696V242.684H240.65V232.428L283.4 238.696Z" fill="url(#paint18_linear_2452_1445)"/>
<path opacity="0.6" d="M283.4 285.417V289.406H240.65V279.15L283.4 285.417Z" fill="url(#paint19_linear_2452_1445)"/>
</g>
</g>
<path opacity="0.21" d="M407.5 73.7202H286.75V157.687H407.5V73.7202Z" fill="url(#paint20_linear_2452_1445)"/>
<path d="M268.74 157.508H234.26C234.35 148.071 242.04 140.444 251.5 140.444C260.96 140.444 268.65 148.071 268.74 157.508Z" fill="#188AA9"/>
<path d="M381.83 30.2671V35.0352" stroke="#188AA9" stroke-width="0.75" stroke-miterlimit="10"/>
<path d="M399.96 30.2671V35.0352" stroke="#188AA9" stroke-width="0.75" stroke-miterlimit="10"/>
<path d="M401.4 26.7188H380.4V31.4869H401.4V26.7188Z" fill="#188AA9"/>
<path d="M381.85 23V27.7681" stroke="#188AA9" stroke-width="0.75" stroke-miterlimit="10" stroke-linecap="round"/>
<path d="M218.07 34.5659L273.68 73.2508V34.7059L218.07 34.5659Z" fill="#188AA9"/>
<path d="M196.75 144.497V636H0.25V83H51.96V144.497H196.75Z" fill="#188AA9"/>
<path d="M136.77 144.497H51.96V83L136.77 144.497Z" fill="#188AA9"/>
<g opacity="0.21">
<g opacity="0.46">
<path d="M81.6099 131.438C81.6099 134.168 79.3998 136.378 76.6698 136.378H16.7798C14.0498 136.378 11.8398 134.168 11.8398 131.438C11.8398 128.708 14.0498 126.498 16.7798 126.498H76.6698C79.3998 126.498 81.6099 128.708 81.6099 131.448V131.438Z" fill="url(#paint21_linear_2452_1445)"/>
<path d="M114.25 148.507C114.25 151.237 112.04 153.447 109.31 153.447H86.5396C83.8096 153.447 81.5996 151.237 81.5996 148.497C81.5996 145.767 83.8096 143.557 86.5396 143.557H109.31C112.04 143.557 114.25 145.767 114.25 148.497V148.507Z" fill="url(#paint22_linear_2452_1445)"/>
<path d="M81.5704 182.645C81.5704 185.375 79.3605 187.585 76.6305 187.585H51.1304C48.4004 187.585 46.1904 185.375 46.1904 182.645C46.1904 179.915 48.4004 177.705 51.1304 177.705H76.6305C79.3605 177.705 81.5704 179.915 81.5704 182.655V182.645Z" fill="url(#paint23_linear_2452_1445)"/>
<path d="M81.54 216.783C81.54 219.513 79.3301 221.723 76.6001 221.723H16.7701C14.0401 221.723 11.8301 219.513 11.8301 216.783C11.8301 214.053 14.0401 211.843 16.7701 211.843H76.6001C79.3301 211.843 81.54 214.053 81.54 216.793V216.783Z" fill="url(#paint24_linear_2452_1445)"/>
<path d="M41.2498 245.971H16.7798C14.0516 245.971 11.8398 248.183 11.8398 250.911C11.8398 253.639 14.0516 255.851 16.7798 255.851H41.2498C43.9781 255.851 46.1898 253.639 46.1898 250.911C46.1898 248.183 43.9781 245.971 41.2498 245.971Z" fill="url(#paint25_linear_2452_1445)"/>
<path d="M109.31 263.04H51.1304C48.4021 263.04 46.1904 265.252 46.1904 267.98C46.1904 270.708 48.4021 272.92 51.1304 272.92H109.31C112.039 272.92 114.25 270.708 114.25 267.98C114.25 265.252 112.039 263.04 109.31 263.04Z" fill="url(#paint26_linear_2452_1445)"/>
<path d="M76.5498 280.099H16.7798C14.0516 280.099 11.8398 282.311 11.8398 285.039C11.8398 287.767 14.0516 289.979 16.7798 289.979H76.5498C79.2781 289.979 81.4899 287.767 81.4899 285.039C81.4899 282.311 79.2781 280.099 76.5498 280.099Z" fill="url(#paint27_linear_2452_1445)"/>
</g>
<g opacity="0.46">
<path d="M176.18 156.736H146.99C145.659 156.736 144.58 157.815 144.58 159.146C144.58 160.477 145.659 161.556 146.99 161.556H176.18C177.511 161.556 178.59 160.477 178.59 159.146C178.59 157.815 177.511 156.736 176.18 156.736Z" fill="url(#paint28_linear_2452_1445)"/>
<path d="M192.09 165.046H181C179.669 165.046 178.59 166.125 178.59 167.456C178.59 168.787 179.669 169.866 181 169.866H192.09C193.421 169.866 194.5 168.787 194.5 167.456C194.5 166.125 193.421 165.046 192.09 165.046Z" fill="url(#paint29_linear_2452_1445)"/>
<path d="M192.09 190.004H163.74C162.409 190.004 161.33 191.083 161.33 192.414C161.33 193.745 162.409 194.824 163.74 194.824H192.09C193.421 194.824 194.5 193.745 194.5 192.414C194.5 191.083 193.421 190.004 192.09 190.004Z" fill="url(#paint30_linear_2452_1445)"/>
<path d="M176.15 198.324H146.99C145.659 198.324 144.58 199.403 144.58 200.734C144.58 202.065 145.659 203.144 146.99 203.144H176.15C177.481 203.144 178.56 202.065 178.56 200.734C178.56 199.403 177.481 198.324 176.15 198.324Z" fill="url(#paint31_linear_2452_1445)"/>
<path d="M158.91 214.963H146.99C145.659 214.963 144.58 216.042 144.58 217.373C144.58 218.704 145.659 219.783 146.99 219.783H158.91C160.241 219.783 161.32 218.704 161.32 217.373C161.32 216.042 160.241 214.963 158.91 214.963Z" fill="url(#paint32_linear_2452_1445)"/>
<path d="M176.12 231.602H146.99C145.659 231.602 144.58 232.681 144.58 234.012C144.58 235.343 145.659 236.422 146.99 236.422H176.12C177.451 236.422 178.53 235.343 178.53 234.012C178.53 232.681 177.451 231.602 176.12 231.602Z" fill="url(#paint33_linear_2452_1445)"/>
</g>
<g opacity="0.46">
<path d="M173.18 245.981H143.99C142.659 245.981 141.58 247.06 141.58 248.391C141.58 249.722 142.659 250.801 143.99 250.801H173.18C174.511 250.801 175.59 249.722 175.59 248.391C175.59 247.06 174.511 245.981 173.18 245.981Z" fill="url(#paint34_linear_2452_1445)"/>
<path d="M189.09 254.291H178C176.669 254.291 175.59 255.37 175.59 256.701C175.59 258.032 176.669 259.111 178 259.111H189.09C190.421 259.111 191.5 258.032 191.5 256.701C191.5 255.37 190.421 254.291 189.09 254.291Z" fill="url(#paint35_linear_2452_1445)"/>
<path d="M189.09 279.25H160.74C159.409 279.25 158.33 280.329 158.33 281.66C158.33 282.991 159.409 284.07 160.74 284.07H189.09C190.421 284.07 191.5 282.991 191.5 281.66C191.5 280.329 190.421 279.25 189.09 279.25Z" fill="url(#paint36_linear_2452_1445)"/>
<path d="M173.15 287.569H143.99C142.659 287.569 141.58 288.648 141.58 289.979C141.58 291.31 142.659 292.389 143.99 292.389H173.15C174.481 292.389 175.56 291.31 175.56 289.979C175.56 288.648 174.481 287.569 173.15 287.569Z" fill="url(#paint37_linear_2452_1445)"/>
<path d="M155.91 304.208H143.99C142.659 304.208 141.58 305.287 141.58 306.618C141.58 307.949 142.659 309.028 143.99 309.028H155.91C157.241 309.028 158.32 307.949 158.32 306.618C158.32 305.287 157.241 304.208 155.91 304.208Z" fill="url(#paint38_linear_2452_1445)"/>
<path d="M189.09 312.527H160.74C159.409 312.527 158.33 313.606 158.33 314.937C158.33 316.268 159.409 317.347 160.74 317.347H189.09C190.421 317.347 191.5 316.268 191.5 314.937C191.5 313.606 190.421 312.527 189.09 312.527Z" fill="url(#paint39_linear_2452_1445)"/>
<path d="M173.12 320.848H143.99C142.659 320.848 141.58 321.927 141.58 323.258C141.58 324.589 142.659 325.668 143.99 325.668H173.12C174.451 325.668 175.53 324.589 175.53 323.258C175.53 321.927 174.451 320.848 173.12 320.848Z" fill="url(#paint40_linear_2452_1445)"/>
</g>
</g>
<defs>
<linearGradient id="paint0_linear_2452_1445" x1="448.75" y1="38.63" x2="484" y2="38.63" gradientUnits="userSpaceOnUse">
<stop stop-color="#24BDDE"/>
<stop offset="1" stop-color="#188AA9" stop-opacity="0"/>
</linearGradient>
<linearGradient id="paint1_linear_2452_1445" x1="448.75" y1="72.8302" x2="484" y2="72.8302" gradientUnits="userSpaceOnUse">
<stop stop-color="#24BDDE"/>
<stop offset="1" stop-color="#188AA9" stop-opacity="0"/>
</linearGradient>
<linearGradient id="paint2_linear_2452_1445" x1="448.75" y1="139.58" x2="484" y2="139.58" gradientUnits="userSpaceOnUse">
<stop stop-color="#24BDDE"/>
<stop offset="1" stop-color="#188AA9" stop-opacity="0"/>
</linearGradient>
<linearGradient id="paint3_linear_2452_1445" x1="448.75" y1="207.98" x2="484" y2="207.98" gradientUnits="userSpaceOnUse">
<stop stop-color="#24BDDE"/>
<stop offset="1" stop-color="#188AA9" stop-opacity="0"/>
</linearGradient>
<linearGradient id="paint4_linear_2452_1445" x1="578.84" y1="79.6698" x2="614.09" y2="79.6698" gradientUnits="userSpaceOnUse">
<stop stop-color="#24BDDE"/>
<stop offset="1" stop-color="#188AA9" stop-opacity="0"/>
</linearGradient>
<linearGradient id="paint5_linear_2452_1445" x1="578.84" y1="96.7699" x2="614.09" y2="96.7699" gradientUnits="userSpaceOnUse">
<stop stop-color="#24BDDE"/>
<stop offset="1" stop-color="#188AA9" stop-opacity="0"/>
</linearGradient>
<linearGradient id="paint6_linear_2452_1445" x1="578.84" y1="146.41" x2="614.09" y2="146.41" gradientUnits="userSpaceOnUse">
<stop stop-color="#24BDDE"/>
<stop offset="1" stop-color="#188AA9" stop-opacity="0"/>
</linearGradient>
<linearGradient id="paint7_linear_2452_1445" x1="578.84" y1="197.71" x2="614.09" y2="197.71" gradientUnits="userSpaceOnUse">
<stop stop-color="#24BDDE"/>
<stop offset="1" stop-color="#188AA9" stop-opacity="0"/>
</linearGradient>
<linearGradient id="paint8_linear_2452_1445" x1="578.84" y1="214.81" x2="614.09" y2="214.81" gradientUnits="userSpaceOnUse">
<stop stop-color="#24BDDE"/>
<stop offset="1" stop-color="#188AA9" stop-opacity="0"/>
</linearGradient>
<linearGradient id="paint9_linear_2452_1445" x1="498.4" y1="117.23" x2="565.53" y2="117.23" gradientUnits="userSpaceOnUse">
<stop stop-color="#24BDDE"/>
<stop offset="1" stop-color="#188AA9" stop-opacity="0"/>
</linearGradient>
<linearGradient id="paint10_linear_2452_1445" x1="498.4" y1="156.37" x2="565.53" y2="156.37" gradientUnits="userSpaceOnUse">
<stop stop-color="#24BDDE"/>
<stop offset="1" stop-color="#188AA9" stop-opacity="0"/>
</linearGradient>
<linearGradient id="paint11_linear_2452_1445" x1="498.4" y1="175.94" x2="565.53" y2="175.94" gradientUnits="userSpaceOnUse">
<stop stop-color="#24BDDE"/>
<stop offset="1" stop-color="#188AA9" stop-opacity="0"/>
</linearGradient>
<linearGradient id="paint12_linear_2452_1445" x1="498.4" y1="232.76" x2="565.53" y2="232.76" gradientUnits="userSpaceOnUse">
<stop stop-color="#24BDDE"/>
<stop offset="1" stop-color="#188AA9" stop-opacity="0"/>
</linearGradient>
<linearGradient id="paint13_linear_2452_1445" x1="498.4" y1="291.48" x2="565.53" y2="291.48" gradientUnits="userSpaceOnUse">
<stop stop-color="#24BDDE"/>
<stop offset="1" stop-color="#188AA9" stop-opacity="0"/>
</linearGradient>
<linearGradient id="paint14_linear_2452_1445" x1="498.4" y1="311.05" x2="565.53" y2="311.05" gradientUnits="userSpaceOnUse">
<stop stop-color="#24BDDE"/>
<stop offset="1" stop-color="#188AA9" stop-opacity="0"/>
</linearGradient>
<linearGradient id="paint15_linear_2452_1445" x1="241" y1="169.563" x2="283.75" y2="169.563" gradientUnits="userSpaceOnUse">
<stop stop-color="#24BDDE"/>
<stop offset="1" stop-color="#188AA9" stop-opacity="0"/>
</linearGradient>
<linearGradient id="paint16_linear_2452_1445" x1="-959.93" y1="183.238" x2="-958.93" y2="183.238" gradientUnits="userSpaceOnUse">
<stop stop-color="#24BDDE"/>
<stop offset="1" stop-color="#188AA9" stop-opacity="0"/>
</linearGradient>
<linearGradient id="paint17_linear_2452_1445" x1="-959.93" y1="206.028" x2="-958.93" y2="206.028" gradientUnits="userSpaceOnUse">
<stop stop-color="#24BDDE"/>
<stop offset="1" stop-color="#188AA9" stop-opacity="0"/>
</linearGradient>
<linearGradient id="paint18_linear_2452_1445" x1="240.65" y1="237.556" x2="283.4" y2="237.556" gradientUnits="userSpaceOnUse">
<stop stop-color="#24BDDE"/>
<stop offset="1" stop-color="#188AA9" stop-opacity="0"/>
</linearGradient>
<linearGradient id="paint19_linear_2452_1445" x1="240.65" y1="284.278" x2="283.4" y2="284.278" gradientUnits="userSpaceOnUse">
<stop stop-color="#24BDDE"/>
<stop offset="1" stop-color="#188AA9" stop-opacity="0"/>
</linearGradient>
<linearGradient id="paint20_linear_2452_1445" x1="347.12" y1="157.687" x2="347.12" y2="73.7202" gradientUnits="userSpaceOnUse">
<stop stop-color="#24BDDE"/>
<stop offset="1" stop-color="#188AA9" stop-opacity="0"/>
</linearGradient>
<linearGradient id="paint21_linear_2452_1445" x1="11.8398" y1="131.438" x2="81.6099" y2="131.438" gradientUnits="userSpaceOnUse">
<stop stop-color="#24BDDE"/>
<stop offset="1" stop-color="#188AA9" stop-opacity="0"/>
</linearGradient>
<linearGradient id="paint22_linear_2452_1445" x1="81.5996" y1="148.507" x2="114.25" y2="148.507" gradientUnits="userSpaceOnUse">
<stop stop-color="#24BDDE"/>
<stop offset="1" stop-color="#188AA9" stop-opacity="0"/>
</linearGradient>
<linearGradient id="paint23_linear_2452_1445" x1="46.1904" y1="182.635" x2="81.5704" y2="182.635" gradientUnits="userSpaceOnUse">
<stop stop-color="#24BDDE"/>
<stop offset="1" stop-color="#188AA9" stop-opacity="0"/>
</linearGradient>
<linearGradient id="paint24_linear_2452_1445" x1="11.8401" y1="216.773" x2="81.54" y2="216.773" gradientUnits="userSpaceOnUse">
<stop stop-color="#24BDDE"/>
<stop offset="1" stop-color="#188AA9" stop-opacity="0"/>
</linearGradient>
<linearGradient id="paint25_linear_2452_1445" x1="11.8398" y1="250.911" x2="46.1898" y2="250.911" gradientUnits="userSpaceOnUse">
<stop stop-color="#24BDDE"/>
<stop offset="1" stop-color="#188AA9" stop-opacity="0"/>
</linearGradient>
<linearGradient id="paint26_linear_2452_1445" x1="46.1904" y1="267.98" x2="114.25" y2="267.98" gradientUnits="userSpaceOnUse">
<stop stop-color="#24BDDE"/>
<stop offset="1" stop-color="#188AA9" stop-opacity="0"/>
</linearGradient>
<linearGradient id="paint27_linear_2452_1445" x1="11.8398" y1="285.049" x2="81.4799" y2="285.049" gradientUnits="userSpaceOnUse">
<stop stop-color="#24BDDE"/>
<stop offset="1" stop-color="#188AA9" stop-opacity="0"/>
</linearGradient>
<linearGradient id="paint28_linear_2452_1445" x1="144.58" y1="159.136" x2="178.59" y2="159.136" gradientUnits="userSpaceOnUse">
<stop stop-color="#24BDDE"/>
<stop offset="1" stop-color="#188AA9" stop-opacity="0"/>
</linearGradient>
<linearGradient id="paint29_linear_2452_1445" x1="178.59" y1="167.456" x2="194.5" y2="167.456" gradientUnits="userSpaceOnUse">
<stop stop-color="#24BDDE"/>
<stop offset="1" stop-color="#188AA9" stop-opacity="0"/>
</linearGradient>
<linearGradient id="paint30_linear_2452_1445" x1="161.33" y1="192.414" x2="194.5" y2="192.414" gradientUnits="userSpaceOnUse">
<stop stop-color="#24BDDE"/>
<stop offset="1" stop-color="#188AA9" stop-opacity="0"/>
</linearGradient>
<linearGradient id="paint31_linear_2452_1445" x1="144.58" y1="200.734" x2="178.56" y2="200.734" gradientUnits="userSpaceOnUse">
<stop stop-color="#24BDDE"/>
<stop offset="1" stop-color="#188AA9" stop-opacity="0"/>
</linearGradient>
<linearGradient id="paint32_linear_2452_1445" x1="144.58" y1="217.373" x2="161.33" y2="217.373" gradientUnits="userSpaceOnUse">
<stop stop-color="#24BDDE"/>
<stop offset="1" stop-color="#188AA9" stop-opacity="0"/>
</linearGradient>
<linearGradient id="paint33_linear_2452_1445" x1="144.58" y1="234.012" x2="178.53" y2="234.012" gradientUnits="userSpaceOnUse">
<stop stop-color="#24BDDE"/>
<stop offset="1" stop-color="#188AA9" stop-opacity="0"/>
</linearGradient>
<linearGradient id="paint34_linear_2452_1445" x1="141.58" y1="248.381" x2="175.59" y2="248.381" gradientUnits="userSpaceOnUse">
<stop stop-color="#24BDDE"/>
<stop offset="1" stop-color="#188AA9" stop-opacity="0"/>
</linearGradient>
<linearGradient id="paint35_linear_2452_1445" x1="175.59" y1="256.701" x2="191.5" y2="256.701" gradientUnits="userSpaceOnUse">
<stop stop-color="#24BDDE"/>
<stop offset="1" stop-color="#188AA9" stop-opacity="0"/>
</linearGradient>
<linearGradient id="paint36_linear_2452_1445" x1="158.33" y1="281.66" x2="191.5" y2="281.66" gradientUnits="userSpaceOnUse">
<stop stop-color="#24BDDE"/>
<stop offset="1" stop-color="#188AA9" stop-opacity="0"/>
</linearGradient>
<linearGradient id="paint37_linear_2452_1445" x1="141.58" y1="289.979" x2="175.56" y2="289.979" gradientUnits="userSpaceOnUse">
<stop stop-color="#24BDDE"/>
<stop offset="1" stop-color="#188AA9" stop-opacity="0"/>
</linearGradient>
<linearGradient id="paint38_linear_2452_1445" x1="141.58" y1="306.618" x2="158.33" y2="306.618" gradientUnits="userSpaceOnUse">
<stop stop-color="#24BDDE"/>
<stop offset="1" stop-color="#188AA9" stop-opacity="0"/>
</linearGradient>
<linearGradient id="paint39_linear_2452_1445" x1="158.33" y1="314.937" x2="191.5" y2="314.937" gradientUnits="userSpaceOnUse">
<stop stop-color="#24BDDE"/>
<stop offset="1" stop-color="#188AA9" stop-opacity="0"/>
</linearGradient>
<linearGradient id="paint40_linear_2452_1445" x1="141.58" y1="323.258" x2="175.53" y2="323.258" gradientUnits="userSpaceOnUse">
<stop stop-color="#24BDDE"/>
<stop offset="1" stop-color="#188AA9" stop-opacity="0"/>
</linearGradient>
</defs>
</svg>
