<svg width="592" height="575" viewBox="0 0 592 575" fill="none" xmlns="http://www.w3.org/2000/svg">
<path d="M375.471 164.58C377.051 187.44 379.571 199.02 383.051 199.31C385.051 199.48 387.371 195.9 390.001 188.57" stroke="#0C5775" stroke-width="0.75" stroke-miterlimit="10"/>
<path d="M375.73 289.24C377.9 303.06 380.12 309.98 382.4 310C386.19 310.03 390.15 291 394.26 252.9" stroke="#0C5775" stroke-width="0.56" stroke-miterlimit="10"/>
<path d="M374.48 308.94C376.65 322.76 378.87 329.68 381.15 329.7C384.94 329.73 388.9 310.7 393.01 272.6" stroke="#0C5775" stroke-width="0.56" stroke-miterlimit="10"/>
<path d="M591.62 174.89H388.74V575H591.62V174.89Z" fill="#0C5775"/>
<path d="M591.62 112.615V174.89H388.74L591.62 112.615Z" fill="#0C5775"/>
<path d="M556.44 116.438H473.34V153.901H556.44V116.438Z" fill="#0C5775"/>
<path d="M514.51 129.18C534.768 129.18 551.19 123.476 551.19 116.439C551.19 109.402 534.768 103.698 514.51 103.698C494.252 103.698 477.83 109.402 477.83 116.439C477.83 123.476 494.252 129.18 514.51 129.18Z" fill="#0C5775"/>
<path d="M514.141 107.821L514.511 61" stroke="#0C5775" stroke-width="0.75" stroke-miterlimit="10"/>
<g opacity="0.21">
<path d="M507.57 196.058C507.57 198.35 508.95 200.202 510.65 200.202H524.84C526.54 200.202 527.92 198.34 527.92 196.048C527.92 193.756 526.54 191.905 524.84 191.905H510.65C508.95 191.905 507.57 193.756 507.57 196.048V196.058Z" fill="url(#paint0_linear_2452_1598)"/>
<path d="M507.57 239.026C507.57 241.318 508.95 243.17 510.65 243.17H546.91C548.61 243.17 549.99 241.318 549.99 239.026C549.99 236.734 548.61 234.882 546.91 234.882H510.65C508.95 234.882 507.57 236.734 507.57 239.026Z" fill="url(#paint1_linear_2452_1598)"/>
<path d="M549.99 282.003C549.99 284.295 551.37 286.147 553.07 286.147H568.32C570.02 286.147 571.4 284.295 571.4 282.003C571.4 279.711 570.02 277.86 568.32 277.86H553.07C551.37 277.86 549.99 279.711 549.99 282.003Z" fill="url(#paint2_linear_2452_1598)"/>
<path d="M527.99 310.658C527.99 312.95 529.37 314.802 531.07 314.802H568.32C570.02 314.802 571.4 312.95 571.4 310.658C571.4 308.366 570.02 306.515 568.32 306.515H531.07C529.37 306.515 527.99 308.366 527.99 310.658Z" fill="url(#paint3_linear_2452_1598)"/>
</g>
<g opacity="0.21">
<path d="M405.931 209.82C404.231 209.82 402.851 207.969 402.851 205.677C402.851 203.385 404.231 201.533 405.931 201.533H443.26C444.96 201.533 446.341 203.395 446.341 205.687C446.341 207.979 444.96 209.83 443.26 209.83" fill="url(#paint4_linear_2452_1598)"/>
<path d="M466.68 219.99C466.68 222.282 465.3 224.133 463.6 224.133H449.41C447.71 224.133 446.33 222.272 446.33 219.98C446.33 217.688 447.71 215.836 449.41 215.836H463.6C465.3 215.836 466.68 217.688 466.68 219.98V219.99Z" fill="url(#paint5_linear_2452_1598)"/>
<path d="M446.311 248.645C446.311 250.937 444.931 252.788 443.231 252.788H427.341C425.641 252.788 424.261 250.937 424.261 248.645C424.261 246.353 425.641 244.501 427.341 244.501H443.231C444.931 244.501 446.311 246.363 446.311 248.655V248.645Z" fill="url(#paint6_linear_2452_1598)"/>
<path d="M463.601 258.824C465.301 258.824 466.681 260.675 466.681 262.967C466.681 265.259 465.301 267.111 463.601 267.111H427.341C425.641 267.111 424.261 265.259 424.261 262.967" fill="url(#paint7_linear_2452_1598)"/>
<path d="M424.26 305.945C424.26 308.237 422.881 310.089 421.181 310.089H405.931C404.231 310.089 402.851 308.237 402.851 305.945C402.851 303.653 404.231 301.801 405.931 301.801H421.181C422.881 301.801 424.26 303.653 424.26 305.945Z" fill="url(#paint8_linear_2452_1598)"/>
<path d="M466.681 320.267C466.681 322.559 465.301 324.411 463.601 324.411H427.341C425.641 324.411 424.261 322.559 424.261 320.267C424.261 317.975 425.641 316.124 427.341 316.124H463.601C465.301 316.124 466.681 317.975 466.681 320.267Z" fill="url(#paint9_linear_2452_1598)"/>
</g>
<g opacity="0.21">
<path d="M507.92 411.627C507.92 413.919 509.3 415.77 511 415.77H525.19C526.89 415.77 528.27 413.909 528.27 411.617C528.27 409.325 526.89 407.473 525.19 407.473H511C509.3 407.473 507.92 409.325 507.92 411.617V411.627Z" fill="url(#paint10_linear_2452_1598)"/>
<path d="M528.29 440.282C528.29 442.574 529.67 444.426 531.37 444.426H547.26C548.96 444.426 550.34 442.574 550.34 440.282C550.34 437.99 548.96 436.139 547.26 436.139H531.37C529.67 436.139 528.29 438 528.29 440.292V440.282Z" fill="url(#paint11_linear_2452_1598)"/>
<path d="M507.92 454.594C507.92 456.886 509.3 458.738 511 458.738H547.26C548.96 458.738 550.34 456.886 550.34 454.594C550.34 452.302 548.96 450.451 547.26 450.451H511C509.3 450.451 507.92 452.302 507.92 454.594Z" fill="url(#paint12_linear_2452_1598)"/>
<path d="M528.31 468.927C528.31 471.219 529.69 473.07 531.39 473.07H568.68C570.38 473.07 571.76 471.219 571.76 468.927C571.76 466.635 570.38 464.783 568.68 464.783H531.39C529.69 464.783 528.31 466.645 528.31 468.937V468.927Z" fill="url(#paint13_linear_2452_1598)"/>
<path d="M550.34 497.572C550.34 499.864 551.72 501.715 553.42 501.715H568.67C570.37 501.715 571.75 499.864 571.75 497.572C571.75 495.28 570.37 493.428 568.67 493.428H553.42C551.72 493.428 550.34 495.28 550.34 497.572Z" fill="url(#paint14_linear_2452_1598)"/>
<path d="M507.92 511.905C507.92 514.197 509.3 516.048 511 516.048H547.26C548.96 516.048 550.34 514.197 550.34 511.905C550.34 509.613 548.96 507.761 547.26 507.761H511C509.3 507.761 507.92 509.613 507.92 511.905Z" fill="url(#paint15_linear_2452_1598)"/>
<path d="M528.34 526.227C528.34 528.519 529.72 530.371 531.42 530.371H568.67C570.37 530.371 571.75 528.519 571.75 526.227C571.75 523.935 570.37 522.083 568.67 522.083H531.42C529.72 522.083 528.34 523.935 528.34 526.227Z" fill="url(#paint16_linear_2452_1598)"/>
</g>
<path d="M377.001 130.244V575H276.641V25.9927C276.641 11.6412 288.571 0 303.291 0H327.111V106.551L375.481 129.523L377.001 130.244Z" fill="#0C5775"/>
<g opacity="0.32">
<path opacity="0.6" d="M364.791 133.594V140.795H287.681V122.283L364.791 133.594Z" fill="url(#paint17_linear_2452_1598)"/>
<path opacity="0.6" d="M287.681 195.29V188.089H364.791V206.601L287.681 195.29Z" fill="url(#paint18_linear_2452_1598)"/>
<path opacity="0.6" d="M364.791 217.913V225.103H287.681V206.602L364.791 217.913Z" fill="url(#paint19_linear_2452_1598)"/>
</g>
<g opacity="0.32">
<path opacity="0.6" d="M288.021 296.091V288.891H365.132V307.403L288.021 296.091Z" fill="url(#paint20_linear_2452_1598)"/>
<path opacity="0.6" d="M288.021 337.215V330.015H365.132V348.527L288.021 337.215Z" fill="url(#paint21_linear_2452_1598)"/>
<path opacity="0.6" d="M365.132 359.838V367.038H288.021V348.526L365.132 359.838Z" fill="url(#paint22_linear_2452_1598)"/>
</g>
<g opacity="0.32">
<path opacity="0.6" d="M363.831 417.304V424.495H286.731V405.993L363.831 417.304Z" fill="url(#paint23_linear_2452_1598)"/>
<path opacity="0.6" d="M286.731 437.866V430.665H363.831V449.177L286.731 437.866Z" fill="url(#paint24_linear_2452_1598)"/>
<path opacity="0.6" d="M363.831 501.613V508.814H286.731V490.302L363.831 501.613Z" fill="url(#paint25_linear_2452_1598)"/>
</g>
<path opacity="0.24" d="M319.871 20.7622H284.291V102.571H319.871V20.7622Z" fill="url(#paint26_linear_2452_1598)"/>
<path d="M128.971 117.156H87.0508V136.602H128.971V117.156Z" fill="#0C5775"/>
<path d="M102.771 123.521V82" stroke="#0C5775" stroke-width="0.75" stroke-miterlimit="10"/>
<path d="M113.251 124.271V90.9736" stroke="#0C5775" stroke-width="0.75" stroke-miterlimit="10"/>
<path d="M143.951 186.738H0.210938V575H143.951V186.738Z" fill="#0C5775"/>
<path d="M12.291 181.901V186.658" stroke="#0C5775" stroke-width="0.75" stroke-miterlimit="10"/>
<path d="M30.3906 181.901V186.658" stroke="#0C5775" stroke-width="0.75" stroke-miterlimit="10"/>
<path d="M31.8214 178.363H10.8613V183.12H31.8214V178.363Z" fill="#0C5775"/>
<path d="M30.2812 173.896V178.663" stroke="#0C5775" stroke-width="0.75" stroke-miterlimit="10"/>
<path d="M143.951 126.889H72.0811V186.738H143.951V126.889Z" fill="#0C5775"/>
<g opacity="0.21">
<path d="M78.0715 306.425C78.0715 304.277 76.4616 302.548 74.4716 302.548H57.8716C55.8816 302.548 54.2715 304.287 54.2715 306.435C54.2715 308.574 55.8816 310.313 57.8716 310.313H74.4716C76.4616 310.313 78.0715 308.574 78.0715 306.435V306.425Z" fill="url(#paint27_linear_2452_1598)"/>
<path d="M79.5614 266.193C79.5614 264.044 77.9514 262.315 75.9614 262.315H33.5414C31.5514 262.315 29.9414 264.054 29.9414 266.193C29.9414 268.341 31.5514 270.07 33.5414 270.07H75.9614C77.9514 270.07 79.5614 268.331 79.5614 266.193Z" fill="url(#paint28_linear_2452_1598)"/>
<path d="M78.0712 212.56C78.0712 210.411 76.4612 208.683 74.4712 208.683H32.0511C30.0611 208.683 28.4512 210.421 28.4512 212.56C28.4512 214.708 30.0611 216.437 32.0511 216.437H74.4712C76.4612 216.437 78.0712 214.698 78.0712 212.56Z" fill="url(#paint29_linear_2452_1598)"/>
<path d="M54.1813 199.149C54.1813 197.001 52.5714 195.272 50.5814 195.272H7.00134C5.01134 195.272 3.40137 197.011 3.40137 199.149C3.40137 201.298 5.01134 203.027 7.00134 203.027H50.5814C52.5714 203.027 54.1813 201.288 54.1813 199.149Z" fill="url(#paint30_linear_2452_1598)"/>
<path d="M124.321 434.936C124.321 432.788 122.711 431.059 120.721 431.059H78.3011C76.3111 431.059 74.7012 432.798 74.7012 434.936C74.7012 437.085 76.3111 438.814 78.3011 438.814H120.721C122.711 438.814 124.321 437.075 124.321 434.936Z" fill="url(#paint31_linear_2452_1598)"/>
<path d="M124.321 381.294C124.321 379.145 122.711 377.417 120.721 377.417H78.3011C76.3111 377.417 74.7012 379.155 74.7012 381.294C74.7012 383.442 76.3111 385.171 78.3011 385.171H120.721C122.711 385.171 124.321 383.432 124.321 381.294Z" fill="url(#paint32_linear_2452_1598)"/>
<path d="M100.431 367.883C100.431 365.735 98.8214 364.006 96.8314 364.006H53.2514C51.2614 364.006 49.6514 365.745 49.6514 367.883C49.6514 370.032 51.2614 371.761 53.2514 371.761H96.8314C98.8214 371.761 100.431 370.022 100.431 367.883Z" fill="url(#paint33_linear_2452_1598)"/>
<path d="M136.432 154.64C136.432 152.492 134.822 150.763 132.832 150.763H116.232C114.242 150.763 112.632 152.502 112.632 154.65C112.632 156.789 114.242 158.527 116.232 158.527H132.832C134.822 158.527 136.432 156.789 136.432 154.65V154.64Z" fill="url(#paint34_linear_2452_1598)"/>
<path d="M102.091 199.289C102.091 197.141 100.481 195.412 98.4911 195.412H81.891C79.901 195.412 78.291 197.151 78.291 199.299C78.291 201.438 79.901 203.177 81.891 203.177H98.4911C100.481 203.177 102.091 201.438 102.091 199.299V199.289Z" fill="url(#paint35_linear_2452_1598)"/>
<path d="M131.222 252.503C131.222 250.354 129.612 248.625 127.622 248.625H85.2015C83.2115 248.625 81.6016 250.364 81.6016 252.503C81.6016 254.651 83.2115 256.38 85.2015 256.38H127.622C129.612 256.38 131.222 254.641 131.222 252.503Z" fill="url(#paint36_linear_2452_1598)"/>
</g>
<defs>
<linearGradient id="paint0_linear_2452_1598" x1="507.57" y1="196.058" x2="527.92" y2="196.058" gradientUnits="userSpaceOnUse">
<stop stop-color="#188AA9"/>
<stop offset="0.43" stop-color="#127290" stop-opacity="0.54"/>
<stop offset="0.82" stop-color="#0D5E7C" stop-opacity="0.15"/>
<stop offset="1" stop-color="#0C5775" stop-opacity="0"/>
</linearGradient>
<linearGradient id="paint1_linear_2452_1598" x1="507.57" y1="239.026" x2="549.99" y2="239.026" gradientUnits="userSpaceOnUse">
<stop stop-color="#188AA9"/>
<stop offset="0.43" stop-color="#127290" stop-opacity="0.54"/>
<stop offset="0.82" stop-color="#0D5E7C" stop-opacity="0.15"/>
<stop offset="1" stop-color="#0C5775" stop-opacity="0"/>
</linearGradient>
<linearGradient id="paint2_linear_2452_1598" x1="549.99" y1="282.003" x2="571.41" y2="282.003" gradientUnits="userSpaceOnUse">
<stop stop-color="#188AA9"/>
<stop offset="0.43" stop-color="#127290" stop-opacity="0.54"/>
<stop offset="0.82" stop-color="#0D5E7C" stop-opacity="0.15"/>
<stop offset="1" stop-color="#0C5775" stop-opacity="0"/>
</linearGradient>
<linearGradient id="paint3_linear_2452_1598" x1="527.99" y1="310.658" x2="571.4" y2="310.658" gradientUnits="userSpaceOnUse">
<stop stop-color="#188AA9"/>
<stop offset="0.43" stop-color="#127290" stop-opacity="0.54"/>
<stop offset="0.82" stop-color="#0D5E7C" stop-opacity="0.15"/>
<stop offset="1" stop-color="#0C5775" stop-opacity="0"/>
</linearGradient>
<linearGradient id="paint4_linear_2452_1598" x1="402.851" y1="205.667" x2="446.341" y2="205.667" gradientUnits="userSpaceOnUse">
<stop stop-color="#188AA9"/>
<stop offset="0.43" stop-color="#127290" stop-opacity="0.54"/>
<stop offset="0.82" stop-color="#0D5E7C" stop-opacity="0.15"/>
<stop offset="1" stop-color="#0C5775" stop-opacity="0"/>
</linearGradient>
<linearGradient id="paint5_linear_2452_1598" x1="446.33" y1="219.99" x2="466.68" y2="219.99" gradientUnits="userSpaceOnUse">
<stop stop-color="#188AA9"/>
<stop offset="0.43" stop-color="#127290" stop-opacity="0.54"/>
<stop offset="0.82" stop-color="#0D5E7C" stop-opacity="0.15"/>
<stop offset="1" stop-color="#0C5775" stop-opacity="0"/>
</linearGradient>
<linearGradient id="paint6_linear_2452_1598" x1="424.261" y1="248.645" x2="446.311" y2="248.645" gradientUnits="userSpaceOnUse">
<stop stop-color="#188AA9"/>
<stop offset="0.43" stop-color="#127290" stop-opacity="0.54"/>
<stop offset="0.82" stop-color="#0D5E7C" stop-opacity="0.15"/>
<stop offset="1" stop-color="#0C5775" stop-opacity="0"/>
</linearGradient>
<linearGradient id="paint7_linear_2452_1598" x1="424.261" y1="262.967" x2="466.681" y2="262.967" gradientUnits="userSpaceOnUse">
<stop stop-color="#188AA9"/>
<stop offset="0.43" stop-color="#127290" stop-opacity="0.54"/>
<stop offset="0.82" stop-color="#0D5E7C" stop-opacity="0.15"/>
<stop offset="1" stop-color="#0C5775" stop-opacity="0"/>
</linearGradient>
<linearGradient id="paint8_linear_2452_1598" x1="402.851" y1="305.945" x2="424.26" y2="305.945" gradientUnits="userSpaceOnUse">
<stop stop-color="#188AA9"/>
<stop offset="0.43" stop-color="#127290" stop-opacity="0.54"/>
<stop offset="0.82" stop-color="#0D5E7C" stop-opacity="0.15"/>
<stop offset="1" stop-color="#0C5775" stop-opacity="0"/>
</linearGradient>
<linearGradient id="paint9_linear_2452_1598" x1="424.261" y1="320.267" x2="466.681" y2="320.267" gradientUnits="userSpaceOnUse">
<stop stop-color="#188AA9"/>
<stop offset="0.43" stop-color="#127290" stop-opacity="0.54"/>
<stop offset="0.82" stop-color="#0D5E7C" stop-opacity="0.15"/>
<stop offset="1" stop-color="#0C5775" stop-opacity="0"/>
</linearGradient>
<linearGradient id="paint10_linear_2452_1598" x1="507.92" y1="411.627" x2="528.27" y2="411.627" gradientUnits="userSpaceOnUse">
<stop stop-color="#188AA9"/>
<stop offset="0.43" stop-color="#127290" stop-opacity="0.54"/>
<stop offset="0.82" stop-color="#0D5E7C" stop-opacity="0.15"/>
<stop offset="1" stop-color="#0C5775" stop-opacity="0"/>
</linearGradient>
<linearGradient id="paint11_linear_2452_1598" x1="528.29" y1="440.272" x2="550.34" y2="440.272" gradientUnits="userSpaceOnUse">
<stop stop-color="#188AA9"/>
<stop offset="0.43" stop-color="#127290" stop-opacity="0.54"/>
<stop offset="0.82" stop-color="#0D5E7C" stop-opacity="0.15"/>
<stop offset="1" stop-color="#0C5775" stop-opacity="0"/>
</linearGradient>
<linearGradient id="paint12_linear_2452_1598" x1="507.92" y1="454.594" x2="550.34" y2="454.594" gradientUnits="userSpaceOnUse">
<stop stop-color="#188AA9"/>
<stop offset="0.43" stop-color="#127290" stop-opacity="0.54"/>
<stop offset="0.82" stop-color="#0D5E7C" stop-opacity="0.15"/>
<stop offset="1" stop-color="#0C5775" stop-opacity="0"/>
</linearGradient>
<linearGradient id="paint13_linear_2452_1598" x1="528.3" y1="468.927" x2="571.75" y2="468.927" gradientUnits="userSpaceOnUse">
<stop stop-color="#188AA9"/>
<stop offset="0.43" stop-color="#127290" stop-opacity="0.54"/>
<stop offset="0.82" stop-color="#0D5E7C" stop-opacity="0.15"/>
<stop offset="1" stop-color="#0C5775" stop-opacity="0"/>
</linearGradient>
<linearGradient id="paint14_linear_2452_1598" x1="550.34" y1="497.572" x2="571.75" y2="497.572" gradientUnits="userSpaceOnUse">
<stop stop-color="#188AA9"/>
<stop offset="0.43" stop-color="#127290" stop-opacity="0.54"/>
<stop offset="0.82" stop-color="#0D5E7C" stop-opacity="0.15"/>
<stop offset="1" stop-color="#0C5775" stop-opacity="0"/>
</linearGradient>
<linearGradient id="paint15_linear_2452_1598" x1="507.92" y1="511.905" x2="550.34" y2="511.905" gradientUnits="userSpaceOnUse">
<stop stop-color="#188AA9"/>
<stop offset="0.43" stop-color="#127290" stop-opacity="0.54"/>
<stop offset="0.82" stop-color="#0D5E7C" stop-opacity="0.15"/>
<stop offset="1" stop-color="#0C5775" stop-opacity="0"/>
</linearGradient>
<linearGradient id="paint16_linear_2452_1598" x1="528.34" y1="526.227" x2="571.75" y2="526.227" gradientUnits="userSpaceOnUse">
<stop stop-color="#188AA9"/>
<stop offset="0.43" stop-color="#127290" stop-opacity="0.54"/>
<stop offset="0.82" stop-color="#0D5E7C" stop-opacity="0.15"/>
<stop offset="1" stop-color="#0C5775" stop-opacity="0"/>
</linearGradient>
<linearGradient id="paint17_linear_2452_1598" x1="287.681" y1="131.544" x2="364.791" y2="131.544" gradientUnits="userSpaceOnUse">
<stop stop-color="#188AA9"/>
<stop offset="0.43" stop-color="#127290" stop-opacity="0.54"/>
<stop offset="0.82" stop-color="#0D5E7C" stop-opacity="0.15"/>
<stop offset="1" stop-color="#0C5775" stop-opacity="0"/>
</linearGradient>
<linearGradient id="paint18_linear_2452_1598" x1="287.681" y1="197.34" x2="364.791" y2="197.34" gradientUnits="userSpaceOnUse">
<stop stop-color="#188AA9"/>
<stop offset="0.43" stop-color="#127290" stop-opacity="0.54"/>
<stop offset="0.82" stop-color="#0D5E7C" stop-opacity="0.15"/>
<stop offset="1" stop-color="#0C5775" stop-opacity="0"/>
</linearGradient>
<linearGradient id="paint19_linear_2452_1598" x1="287.681" y1="215.853" x2="364.791" y2="215.853" gradientUnits="userSpaceOnUse">
<stop stop-color="#188AA9"/>
<stop offset="0.43" stop-color="#127290" stop-opacity="0.54"/>
<stop offset="0.82" stop-color="#0D5E7C" stop-opacity="0.15"/>
<stop offset="1" stop-color="#0C5775" stop-opacity="0"/>
</linearGradient>
<linearGradient id="paint20_linear_2452_1598" x1="288.021" y1="298.142" x2="365.132" y2="298.142" gradientUnits="userSpaceOnUse">
<stop stop-color="#188AA9"/>
<stop offset="0.43" stop-color="#127290" stop-opacity="0.54"/>
<stop offset="0.82" stop-color="#0D5E7C" stop-opacity="0.15"/>
<stop offset="1" stop-color="#0C5775" stop-opacity="0"/>
</linearGradient>
<linearGradient id="paint21_linear_2452_1598" x1="288.021" y1="339.276" x2="365.132" y2="339.276" gradientUnits="userSpaceOnUse">
<stop stop-color="#188AA9"/>
<stop offset="0.43" stop-color="#127290" stop-opacity="0.54"/>
<stop offset="0.82" stop-color="#0D5E7C" stop-opacity="0.15"/>
<stop offset="1" stop-color="#0C5775" stop-opacity="0"/>
</linearGradient>
<linearGradient id="paint22_linear_2452_1598" x1="288.021" y1="357.777" x2="365.132" y2="357.777" gradientUnits="userSpaceOnUse">
<stop stop-color="#188AA9"/>
<stop offset="0.43" stop-color="#127290" stop-opacity="0.54"/>
<stop offset="0.82" stop-color="#0D5E7C" stop-opacity="0.15"/>
<stop offset="1" stop-color="#0C5775" stop-opacity="0"/>
</linearGradient>
<linearGradient id="paint23_linear_2452_1598" x1="286.731" y1="415.244" x2="363.831" y2="415.244" gradientUnits="userSpaceOnUse">
<stop stop-color="#188AA9"/>
<stop offset="0.43" stop-color="#127290" stop-opacity="0.54"/>
<stop offset="0.82" stop-color="#0D5E7C" stop-opacity="0.15"/>
<stop offset="1" stop-color="#0C5775" stop-opacity="0"/>
</linearGradient>
<linearGradient id="paint24_linear_2452_1598" x1="286.731" y1="439.926" x2="363.831" y2="439.926" gradientUnits="userSpaceOnUse">
<stop stop-color="#188AA9"/>
<stop offset="0.43" stop-color="#127290" stop-opacity="0.54"/>
<stop offset="0.82" stop-color="#0D5E7C" stop-opacity="0.15"/>
<stop offset="1" stop-color="#0C5775" stop-opacity="0"/>
</linearGradient>
<linearGradient id="paint25_linear_2452_1598" x1="286.731" y1="499.563" x2="363.831" y2="499.563" gradientUnits="userSpaceOnUse">
<stop stop-color="#188AA9"/>
<stop offset="0.43" stop-color="#127290" stop-opacity="0.54"/>
<stop offset="0.82" stop-color="#0D5E7C" stop-opacity="0.15"/>
<stop offset="1" stop-color="#0C5775" stop-opacity="0"/>
</linearGradient>
<linearGradient id="paint26_linear_2452_1598" x1="302.081" y1="102.571" x2="302.081" y2="20.7622" gradientUnits="userSpaceOnUse">
<stop stop-color="#188AA9"/>
<stop offset="0.43" stop-color="#127290" stop-opacity="0.54"/>
<stop offset="0.82" stop-color="#0D5E7C" stop-opacity="0.15"/>
<stop offset="1" stop-color="#0C5775" stop-opacity="0"/>
</linearGradient>
<linearGradient id="paint27_linear_2452_1598" x1="54.2615" y1="306.425" x2="78.0715" y2="306.425" gradientUnits="userSpaceOnUse">
<stop stop-color="#188AA9"/>
<stop offset="0.43" stop-color="#127290" stop-opacity="0.54"/>
<stop offset="0.82" stop-color="#0D5E7C" stop-opacity="0.15"/>
<stop offset="1" stop-color="#0C5775" stop-opacity="0"/>
</linearGradient>
<linearGradient id="paint28_linear_2452_1598" x1="29.9414" y1="266.193" x2="79.5614" y2="266.193" gradientUnits="userSpaceOnUse">
<stop stop-color="#188AA9"/>
<stop offset="0.43" stop-color="#127290" stop-opacity="0.54"/>
<stop offset="0.82" stop-color="#0D5E7C" stop-opacity="0.15"/>
<stop offset="1" stop-color="#0C5775" stop-opacity="0"/>
</linearGradient>
<linearGradient id="paint29_linear_2452_1598" x1="28.4412" y1="212.56" x2="-972.929" y2="212.56" gradientUnits="userSpaceOnUse">
<stop stop-color="#188AA9"/>
<stop offset="0.43" stop-color="#127290" stop-opacity="0.54"/>
<stop offset="0.82" stop-color="#0D5E7C" stop-opacity="0.15"/>
<stop offset="1" stop-color="#0C5775" stop-opacity="0"/>
</linearGradient>
<linearGradient id="paint30_linear_2452_1598" x1="3.40137" y1="199.149" x2="54.1813" y2="199.149" gradientUnits="userSpaceOnUse">
<stop stop-color="#188AA9"/>
<stop offset="0.43" stop-color="#127290" stop-opacity="0.54"/>
<stop offset="0.82" stop-color="#0D5E7C" stop-opacity="0.15"/>
<stop offset="1" stop-color="#0C5775" stop-opacity="0"/>
</linearGradient>
<linearGradient id="paint31_linear_2452_1598" x1="74.6912" y1="434.936" x2="124.321" y2="434.936" gradientUnits="userSpaceOnUse">
<stop stop-color="#188AA9"/>
<stop offset="0.43" stop-color="#127290" stop-opacity="0.54"/>
<stop offset="0.82" stop-color="#0D5E7C" stop-opacity="0.15"/>
<stop offset="1" stop-color="#0C5775" stop-opacity="0"/>
</linearGradient>
<linearGradient id="paint32_linear_2452_1598" x1="74.6912" y1="381.294" x2="124.321" y2="381.294" gradientUnits="userSpaceOnUse">
<stop stop-color="#188AA9"/>
<stop offset="0.43" stop-color="#127290" stop-opacity="0.54"/>
<stop offset="0.82" stop-color="#0D5E7C" stop-opacity="0.15"/>
<stop offset="1" stop-color="#0C5775" stop-opacity="0"/>
</linearGradient>
<linearGradient id="paint33_linear_2452_1598" x1="49.6514" y1="367.883" x2="100.431" y2="367.883" gradientUnits="userSpaceOnUse">
<stop stop-color="#188AA9"/>
<stop offset="0.43" stop-color="#127290" stop-opacity="0.54"/>
<stop offset="0.82" stop-color="#0D5E7C" stop-opacity="0.15"/>
<stop offset="1" stop-color="#0C5775" stop-opacity="0"/>
</linearGradient>
<linearGradient id="paint34_linear_2452_1598" x1="112.622" y1="154.64" x2="136.432" y2="154.64" gradientUnits="userSpaceOnUse">
<stop stop-color="#188AA9"/>
<stop offset="0.43" stop-color="#127290" stop-opacity="0.54"/>
<stop offset="0.82" stop-color="#0D5E7C" stop-opacity="0.15"/>
<stop offset="1" stop-color="#0C5775" stop-opacity="0"/>
</linearGradient>
<linearGradient id="paint35_linear_2452_1598" x1="78.281" y1="199.289" x2="102.091" y2="199.289" gradientUnits="userSpaceOnUse">
<stop stop-color="#188AA9"/>
<stop offset="0.43" stop-color="#127290" stop-opacity="0.54"/>
<stop offset="0.82" stop-color="#0D5E7C" stop-opacity="0.15"/>
<stop offset="1" stop-color="#0C5775" stop-opacity="0"/>
</linearGradient>
<linearGradient id="paint36_linear_2452_1598" x1="81.6016" y1="252.503" x2="131.222" y2="252.503" gradientUnits="userSpaceOnUse">
<stop stop-color="#188AA9"/>
<stop offset="0.43" stop-color="#127290" stop-opacity="0.54"/>
<stop offset="0.82" stop-color="#0D5E7C" stop-opacity="0.15"/>
<stop offset="1" stop-color="#0C5775" stop-opacity="0"/>
</linearGradient>
</defs>
</svg>
