<svg width="731" height="381" viewBox="0 0 731 381" fill="none" xmlns="http://www.w3.org/2000/svg">
<path d="M79.6206 269.14C78.6006 267.67 76.0206 264.39 71.3806 262.4C67.5706 260.77 64.1506 260.77 62.3906 260.9" stroke="#002440" stroke-width="3.74" stroke-miterlimit="10" stroke-linecap="round"/>
<path d="M59.0301 267.27C62.3383 267.27 65.0201 265.927 65.0201 264.27C65.0201 262.613 62.3383 261.27 59.0301 261.27C55.7219 261.27 53.04 262.613 53.04 264.27C53.04 265.927 55.7219 267.27 59.0301 267.27Z" fill="#002440" stroke="#002440" stroke-width="4.99" stroke-miterlimit="10" stroke-linecap="round"/>
<path d="M58.6501 269.89C61.9583 269.89 64.6401 268.547 64.6401 266.89C64.6401 265.233 61.9583 263.89 58.6501 263.89C55.342 263.89 52.6602 265.233 52.6602 266.89C52.6602 268.547 55.342 269.89 58.6501 269.89Z" fill="#F3F2FF"/>
<path opacity="0.4" d="M0.980469 378.49H64.6405V266.89H52.6605L0.980469 378.49Z" fill="url(#paint0_linear_2453_1905)"/>
<path d="M400.48 315.14C401.49 313.69 404.04 310.44 408.64 308.47C412.41 306.85 415.79 306.86 417.54 306.99" stroke="#002440" stroke-width="3.71" stroke-miterlimit="10" stroke-linecap="round"/>
<path d="M420.87 313.29C424.146 313.29 426.8 311.96 426.8 310.32C426.8 308.679 424.146 307.35 420.87 307.35C417.595 307.35 414.94 308.679 414.94 310.32C414.94 311.96 417.595 313.29 420.87 313.29Z" fill="#002440" stroke="#002440" stroke-width="4.94" stroke-miterlimit="10" stroke-linecap="round"/>
<path d="M421.241 315.89C424.516 315.89 427.171 314.56 427.171 312.92C427.171 311.279 424.516 309.95 421.241 309.95C417.966 309.95 415.311 311.279 415.311 312.92C415.311 314.56 417.966 315.89 421.241 315.89Z" fill="#F3F2FF"/>
<path opacity="0.4" d="M435.39 378.49H404.69L415.17 314.08H427.16L435.39 378.49Z" fill="url(#paint1_linear_2453_1905)"/>
<path d="M604.67 70.6498C605.69 69.1798 608.27 65.8998 612.91 63.9098C616.72 62.2798 620.14 62.2798 621.9 62.4098" stroke="#002440" stroke-width="3.74" stroke-miterlimit="10" stroke-linecap="round"/>
<path d="M625.26 68.79C628.568 68.79 631.25 67.4469 631.25 65.79C631.25 64.1332 628.568 62.79 625.26 62.79C621.951 62.79 619.27 64.1332 619.27 65.79C619.27 67.4469 621.951 68.79 625.26 68.79Z" fill="#002440" stroke="#002440" stroke-width="4.99" stroke-miterlimit="10" stroke-linecap="round"/>
<path d="M625.64 71.4097C628.949 71.4097 631.63 70.0665 631.63 68.4097C631.63 66.7528 628.949 65.4097 625.64 65.4097C622.332 65.4097 619.65 66.7528 619.65 68.4097C619.65 70.0665 622.332 71.4097 625.64 71.4097Z" fill="#F3F2FF"/>
<path opacity="0.4" d="M651.85 108.1H619.65V69.1602H631.63L651.85 108.1Z" fill="url(#paint2_linear_2453_1905)"/>
<path d="M259.761 118.22C252.631 145.35 229.431 163.61 205.081 163.16C178.961 162.68 163.331 140.89 161.641 138.44" stroke="#002440" stroke-width="0.75" stroke-miterlimit="10"/>
<path d="M259.761 134.689C259.051 136.809 247.511 169.349 214.071 177.379C187.491 183.769 166.561 169.979 163.141 167.639" stroke="#002440" stroke-width="0.75" stroke-miterlimit="10"/>
<path d="M712.151 253.78C698.771 287 688.411 302.96 681.061 301.68C677.471 301.05 674.611 296.32 672.461 287.49" stroke="#002440" stroke-width="0.75" stroke-miterlimit="10"/>
<path d="M731 175H710V381H731V175Z" fill="#002440"/>
<path d="M674.07 125.85V381H535.51V70.0454L604.72 51H605.16V108.056H656.3C666.11 108.056 674.07 116.027 674.07 125.85Z" fill="#002440"/>
<g opacity="0.43">
<path opacity="0.35" d="M568.11 92.3052H551.72V100.196H568.11V92.3052Z" fill="#F3F2FF"/>
<path opacity="0.35" d="M568.03 138.116H551.64V146.007H568.03V138.116Z" fill="#0C5775"/>
<path opacity="0.35" d="M658.36 161.247H642.14V169.138H658.36V161.247Z" fill="#F3F2FF"/>
<path opacity="0.35" d="M628.569 183.997H612.109V191.888H628.569V183.997Z" fill="#0C5775"/>
<path opacity="0.35" d="M658.329 230.259H642.109V238.149H658.329V230.259Z" fill="#0C5775"/>
<path opacity="0.35" d="M567.91 230.259H551.52V238.149H567.91V230.259Z" fill="#0C5775"/>
<path opacity="0.35" d="M598.029 276.08H581.569V283.971H598.029V276.08Z" fill="#F3F2FF"/>
<path opacity="0.35" d="M598.52 321.801H582.06V329.691H598.52V321.801Z" fill="#0C5775"/>
</g>
<path d="M536.501 219.989H436.141V381H536.501V219.989Z" fill="#002440"/>
<path d="M443.631 219.989C443.631 215.02 462.741 211 486.321 211C509.901 211 529.011 215.02 529.011 219.989H443.621H443.631Z" fill="#002440"/>
<g opacity="0.46">
<path d="M497.681 225.978H447.751C445.475 225.978 443.631 227.823 443.631 230.098C443.631 232.373 445.475 234.218 447.751 234.218H497.681C499.956 234.218 501.801 232.373 501.801 230.098C501.801 227.823 499.956 225.978 497.681 225.978Z" fill="url(#paint3_linear_2453_1905)"/>
<path d="M524.901 240.207H505.921C503.645 240.207 501.801 242.051 501.801 244.327C501.801 246.602 503.645 248.447 505.921 248.447H524.901C527.176 248.447 529.021 246.602 529.021 244.327C529.021 242.051 527.176 240.207 524.901 240.207Z" fill="url(#paint4_linear_2453_1905)"/>
<path d="M497.661 268.663H476.401C474.126 268.663 472.281 270.508 472.281 272.783C472.281 275.058 474.126 276.903 476.401 276.903H497.661C499.937 276.903 501.781 275.058 501.781 272.783C501.781 270.508 499.937 268.663 497.661 268.663Z" fill="#0C5775"/>
<path d="M524.901 282.891H476.401C474.126 282.891 472.281 284.736 472.281 287.011C472.281 289.287 474.126 291.131 476.401 291.131H524.901C527.177 291.131 529.021 289.287 529.021 287.011C529.021 284.736 527.177 282.891 524.901 282.891Z" fill="url(#paint5_linear_2453_1905)"/>
<path d="M497.631 297.12H447.751C445.475 297.12 443.631 298.964 443.631 301.24C443.631 303.515 445.475 305.36 447.751 305.36H497.631C499.906 305.36 501.751 303.515 501.751 301.24C501.751 298.964 499.906 297.12 497.631 297.12Z" fill="url(#paint6_linear_2453_1905)"/>
<path d="M468.151 325.576H447.751C445.475 325.576 443.631 327.421 443.631 329.696C443.631 331.972 445.475 333.816 447.751 333.816H468.151C470.426 333.816 472.271 331.972 472.271 329.696C472.271 327.421 470.426 325.576 468.151 325.576Z" fill="#0C5775"/>
<path d="M524.901 339.805H476.401C474.126 339.805 472.281 341.649 472.281 343.925C472.281 346.2 474.126 348.045 476.401 348.045H524.901C527.177 348.045 529.021 346.2 529.021 343.925C529.021 341.649 527.177 339.805 524.901 339.805Z" fill="url(#paint7_linear_2453_1905)"/>
<path d="M497.581 354.043H447.751C445.475 354.043 443.631 355.888 443.631 358.163C443.631 360.438 445.475 362.283 447.751 362.283H497.581C499.856 362.283 501.701 360.438 501.701 358.163C501.701 355.888 499.856 354.043 497.581 354.043Z" fill="url(#paint8_linear_2453_1905)"/>
</g>
<path d="M410.681 108.542C407.321 108.542 404.491 110.74 403.531 113.778V381H256.381V116.027C256.381 111.889 253.031 108.542 248.891 108.542H410.671H410.681Z" fill="#002440"/>
<path d="M397.951 71.8647C393.811 71.8647 390.461 75.2126 390.461 79.35V108.542H269.121V79.35C269.121 75.2126 265.771 71.8647 261.631 71.8647H397.951Z" fill="#002440"/>
<path d="M382.22 35.9277C378.08 35.9277 374.73 39.2757 374.73 43.4131V71.8551H284.85V43.4131C284.85 39.2757 281.5 35.9277 277.36 35.9277H382.22Z" fill="#002440"/>
<path d="M359.001 13.2417V35.9273H300.581V13.2417C300.581 5.92627 306.511 0 313.831 0H345.751C353.071 0 359.001 5.92627 359.001 13.2417Z" fill="#002440"/>
<path opacity="0.6" d="M389.711 120.514H269.121V229.795H389.711V120.514Z" fill="url(#paint9_linear_2453_1905)"/>
<path d="M246.65 261.513V381H175.49V252H181.13L246.65 261.513Z" fill="#002440"/>
<g opacity="0.49">
<path opacity="0.6" d="M239.16 270.004V275.251H182.98V261.753L239.16 270.004Z" fill="url(#paint10_linear_2453_1905)"/>
<path opacity="0.6" d="M182.98 285.004V279.757H239.16V293.255L182.98 285.004Z" fill="#0C5775"/>
<path opacity="0.6" d="M182.98 315.003V309.756H239.16V323.254L182.98 315.003Z" fill="url(#paint11_linear_2453_1905)"/>
<path opacity="0.6" d="M239.16 331.505V336.752H182.98V323.254L239.16 331.505Z" fill="url(#paint12_linear_2453_1905)"/>
</g>
<path d="M98.6708 82.4922H165.011V381H75.8809V105.313C75.8809 92.7162 86.0908 82.4922 98.6708 82.4922Z" fill="#002440"/>
<path d="M156.771 71.2476H134.301V93.7483H156.771V71.2476Z" fill="#002440"/>
<path d="M145.541 76.4943C150.506 76.4943 154.531 74.1451 154.531 71.2472C154.531 68.3492 150.506 66 145.541 66C140.576 66 136.551 68.3492 136.551 71.2472C136.551 74.1451 140.576 76.4943 145.541 76.4943Z" fill="#002440"/>
<g opacity="0.61">
<path opacity="0.6" d="M91.3811 104.623H149.511C153.101 104.623 156.021 107.547 156.021 111.141V115.417H84.8711V111.141C84.8711 107.547 87.7911 104.623 91.3811 104.623Z" fill="#0C5775"/>
<path opacity="0.6" d="M91.3811 149.244H149.511C153.101 149.244 156.021 152.168 156.021 155.763V160.038H84.8711V155.763C84.8711 152.168 87.7911 149.244 91.3811 149.244Z" fill="url(#paint13_linear_2453_1905)"/>
<path opacity="0.6" d="M91.3811 171.554H149.511C153.101 171.554 156.021 174.478 156.021 178.073V182.348H84.8711V178.073C84.8711 174.478 87.7911 171.554 91.3811 171.554Z" fill="#0C5775"/>
<path opacity="0.6" d="M91.3811 236.332H149.511C153.101 236.332 156.021 239.256 156.021 242.851V247.127H84.8711V242.851C84.8711 239.256 87.7911 236.332 91.3811 236.332Z" fill="url(#paint14_linear_2453_1905)"/>
<path opacity="0.6" d="M91.3811 303.264H149.511C153.101 303.264 156.021 306.188 156.021 309.783V314.059H84.8711V309.783C84.8711 306.188 87.7911 303.264 91.3811 303.264Z" fill="#0C5775"/>
<path opacity="0.6" d="M91.3811 325.574H149.511C153.101 325.574 156.021 328.498 156.021 332.093V336.369H84.8711V332.093C84.8711 328.498 87.7911 325.574 91.3811 325.574Z" fill="url(#paint15_linear_2453_1905)"/>
</g>
<defs>
<linearGradient id="paint0_linear_2453_1905" x1="32.8105" y1="266.89" x2="32.8105" y2="378.49" gradientUnits="userSpaceOnUse">
<stop stop-color="#F3F2FF"/>
<stop offset="1" stop-color="#188AA9" stop-opacity="0"/>
</linearGradient>
<linearGradient id="paint1_linear_2453_1905" x1="420.04" y1="314.08" x2="420.04" y2="378.49" gradientUnits="userSpaceOnUse">
<stop stop-color="#F3F2FF"/>
<stop offset="1" stop-color="#188AA9" stop-opacity="0"/>
</linearGradient>
<linearGradient id="paint2_linear_2453_1905" x1="635.75" y1="69.1602" x2="635.75" y2="108.1" gradientUnits="userSpaceOnUse">
<stop stop-color="#F3F2FF"/>
<stop offset="1" stop-color="#188AA9" stop-opacity="0"/>
</linearGradient>
<linearGradient id="paint3_linear_2453_1905" x1="443.631" y1="230.098" x2="501.801" y2="230.098" gradientUnits="userSpaceOnUse">
<stop stop-color="#F3F2FF"/>
<stop offset="1" stop-color="#002440" stop-opacity="0"/>
</linearGradient>
<linearGradient id="paint4_linear_2453_1905" x1="501.801" y1="244.327" x2="529.021" y2="244.327" gradientUnits="userSpaceOnUse">
<stop stop-color="#0C5775"/>
<stop offset="0.21" stop-color="#094B68" stop-opacity="0.77"/>
<stop offset="0.75" stop-color="#022F4B" stop-opacity="0.22"/>
<stop offset="1" stop-color="#002440" stop-opacity="0"/>
</linearGradient>
<linearGradient id="paint5_linear_2453_1905" x1="472.281" y1="287.011" x2="529.021" y2="287.011" gradientUnits="userSpaceOnUse">
<stop stop-color="#F3F2FF"/>
<stop offset="1" stop-color="#002440" stop-opacity="0"/>
</linearGradient>
<linearGradient id="paint6_linear_2453_1905" x1="443.631" y1="301.24" x2="501.751" y2="301.24" gradientUnits="userSpaceOnUse">
<stop stop-color="#0C5775"/>
<stop offset="0.21" stop-color="#094B68" stop-opacity="0.77"/>
<stop offset="0.75" stop-color="#022F4B" stop-opacity="0.22"/>
<stop offset="1" stop-color="#002440" stop-opacity="0"/>
</linearGradient>
<linearGradient id="paint7_linear_2453_1905" x1="472.281" y1="343.925" x2="529.021" y2="343.925" gradientUnits="userSpaceOnUse">
<stop stop-color="#0C5775"/>
<stop offset="0.21" stop-color="#094B68" stop-opacity="0.77"/>
<stop offset="0.75" stop-color="#022F4B" stop-opacity="0.22"/>
<stop offset="1" stop-color="#002440" stop-opacity="0"/>
</linearGradient>
<linearGradient id="paint8_linear_2453_1905" x1="443.631" y1="358.163" x2="501.701" y2="358.163" gradientUnits="userSpaceOnUse">
<stop stop-color="#F3F2FF"/>
<stop offset="1" stop-color="#002440" stop-opacity="0"/>
</linearGradient>
<linearGradient id="paint9_linear_2453_1905" x1="329.411" y1="229.795" x2="329.411" y2="120.514" gradientUnits="userSpaceOnUse">
<stop stop-color="#0C5775"/>
<stop offset="0.21" stop-color="#094B68" stop-opacity="0.77"/>
<stop offset="0.75" stop-color="#022F4B" stop-opacity="0.22"/>
<stop offset="1" stop-color="#002440" stop-opacity="0"/>
</linearGradient>
<linearGradient id="paint10_linear_2453_1905" x1="182.98" y1="268.502" x2="239.16" y2="268.502" gradientUnits="userSpaceOnUse">
<stop stop-color="#F3F2FF"/>
<stop offset="1" stop-color="#002440" stop-opacity="0"/>
</linearGradient>
<linearGradient id="paint11_linear_2453_1905" x1="182.98" y1="316.505" x2="239.16" y2="316.505" gradientUnits="userSpaceOnUse">
<stop stop-color="#0C5775"/>
<stop offset="0.21" stop-color="#094B68" stop-opacity="0.77"/>
<stop offset="0.75" stop-color="#022F4B" stop-opacity="0.22"/>
<stop offset="1" stop-color="#002440" stop-opacity="0"/>
</linearGradient>
<linearGradient id="paint12_linear_2453_1905" x1="182.98" y1="330.003" x2="239.16" y2="330.003" gradientUnits="userSpaceOnUse">
<stop stop-color="#0C5775"/>
<stop offset="0.21" stop-color="#094B68" stop-opacity="0.77"/>
<stop offset="0.75" stop-color="#022F4B" stop-opacity="0.22"/>
<stop offset="1" stop-color="#002440" stop-opacity="0"/>
</linearGradient>
<linearGradient id="paint13_linear_2453_1905" x1="84.8711" y1="154.641" x2="156.021" y2="154.641" gradientUnits="userSpaceOnUse">
<stop stop-color="#F3F2FF"/>
<stop offset="1" stop-color="#002440" stop-opacity="0"/>
</linearGradient>
<linearGradient id="paint14_linear_2453_1905" x1="84.8711" y1="241.729" x2="156.021" y2="241.729" gradientUnits="userSpaceOnUse">
<stop stop-color="#0C5775"/>
<stop offset="0.21" stop-color="#094B68" stop-opacity="0.77"/>
<stop offset="0.75" stop-color="#022F4B" stop-opacity="0.22"/>
<stop offset="1" stop-color="#002440" stop-opacity="0"/>
</linearGradient>
<linearGradient id="paint15_linear_2453_1905" x1="-847.929" y1="330.972" x2="-846.929" y2="330.972" gradientUnits="userSpaceOnUse">
<stop stop-color="#F3F2FF"/>
<stop offset="1" stop-color="#002440" stop-opacity="0"/>
</linearGradient>
</defs>
</svg>
