<svg width="115" height="70" viewBox="0 0 115 70" fill="none" xmlns="http://www.w3.org/2000/svg">
<path d="M60.0806 19.5104V16.8314C60.0806 15.7985 59.5001 14.9109 58.6455 14.459C58.2746 14.2653 57.8553 14.1523 57.42 14.1523H53.8887C53.8887 16.9121 55.9688 19.1715 58.6455 19.462C58.839 19.4781 59.0324 19.4942 59.2259 19.4942H60.0806V19.5104Z" fill="#094A68" stroke="#002440" stroke-width="0.02" stroke-miterlimit="10" stroke-linecap="round"/>
<path d="M58.6455 19.4781C58.839 19.4942 59.0325 19.5104 59.226 19.5104H60.0806V16.8314C60.0806 15.7985 59.5001 14.9109 58.6455 14.459V19.4781Z" fill="#002440"/>
<path d="M58.6779 17.8803C59.1766 17.8803 59.5809 17.4757 59.5809 16.9765C59.5809 16.4774 59.1766 16.0728 58.6779 16.0728C58.1792 16.0728 57.7749 16.4774 57.7749 16.9765C57.7749 17.4757 58.1792 17.8803 58.6779 17.8803Z" fill="#002440"/>
<path d="M60.0806 2.38696V5.06598C60.0806 6.09885 59.5001 6.98648 58.6455 7.43836C58.2746 7.63202 57.8553 7.74499 57.42 7.74499H53.8887C53.8887 4.98528 55.9688 2.72588 58.6455 2.43538C58.839 2.41924 59.0324 2.4031 59.2259 2.4031H60.0806V2.38696Z" fill="#094A68" stroke="#002440" stroke-width="0.02" stroke-miterlimit="10" stroke-linecap="round"/>
<path d="M58.6455 7.42249C59.5001 6.97061 60.0806 6.08298 60.0806 5.05011V2.37109H59.226C59.0325 2.37109 58.839 2.37109 58.6455 2.40337V7.42249Z" fill="#002440"/>
<path d="M58.6779 5.82486C59.1766 5.82486 59.5809 5.42023 59.5809 4.9211C59.5809 4.42196 59.1766 4.01733 58.6779 4.01733C58.1792 4.01733 57.7749 4.42196 57.7749 4.9211C57.7749 5.42023 58.1792 5.82486 58.6779 5.82486Z" fill="#002440"/>
<path d="M25.1865 20.6401H32.5394V21.2373C32.5394 21.9312 31.975 22.4799 31.2978 22.4799H26.4281C25.7348 22.4799 25.1865 21.9151 25.1865 21.2373V20.6401Z" fill="#094A68"/>
<path d="M26.8152 21.6406H26.4443V22.0118H26.8152V21.6406Z" fill="#1B97B7"/>
<path d="M27.5569 21.6406H27.186V22.0118H27.5569V21.6406Z" fill="#1B97B7"/>
<path d="M28.2825 21.6406H27.9116V22.0118H28.2825V21.6406Z" fill="#1B97B7"/>
<path d="M29.0242 21.6406H28.6533V22.0118H29.0242V21.6406Z" fill="#1B97B7"/>
<path d="M29.7659 21.6406H29.395V22.0118H29.7659V21.6406Z" fill="#1B97B7"/>
<path d="M30.4915 21.6406H30.1206V22.0118H30.4915V21.6406Z" fill="#1B97B7"/>
<path d="M31.2332 21.6406H30.8623V22.0118H31.2332V21.6406Z" fill="#1B97B7"/>
<path d="M61.274 10.7149L61.0966 10.5373C61.0966 10.5373 61.0966 10.5051 61.0966 10.4889C60.887 10.2307 60.6128 9.98862 60.2904 9.76268C56.5333 7.05139 45.2299 5.30842 31.4755 4.48535C19.898 3.80752 10.0297 5.74416 5.99854 8.26179V6.98684C9.91683 2.77465 19.898 -0.517635 31.6529 0.61207C45.4234 1.95158 56.7268 4.79198 60.4677 9.23011C60.7902 9.61743 61.0643 10.0209 61.274 10.4244C61.274 10.4566 61.274 10.6826 61.274 10.7149Z" fill="#1B97B7"/>
<path d="M61.2579 10.9892C61.2579 11.1668 61.2256 11.3443 61.1773 11.5218C61.0483 11.7962 60.887 12.0705 60.6935 12.3287C57.5008 16.7507 46.0201 19.7202 32.04 20.8661C20.0916 21.1727 9.90076 18.5098 5.93408 14.6043V13.2002C10.0136 15.5242 20.0916 17.1058 31.8626 16.9282C45.8427 16.2343 57.3235 14.4106 60.5161 11.6993C60.7096 11.5379 60.8709 11.3766 60.9999 11.199C61.0483 11.1022 61.0805 10.9892 61.0805 10.8763C61.0805 10.8117 61.0805 10.7633 61.0644 10.6987H61.2418C61.2418 10.7794 61.2579 10.8763 61.2579 10.9731V10.9892Z" fill="#002440"/>
<path d="M61.274 10.9085C61.274 11.0376 61.2418 11.1506 61.1934 11.2636C61.0644 11.4572 60.9032 11.6348 60.7097 11.8123C57.5008 14.8141 45.9878 16.8314 31.9432 17.6061C20.1238 17.8159 10.0298 16.0568 5.91797 13.4746V10.6987H61.2579C61.2579 10.6987 61.2579 10.8278 61.2579 10.8924L61.274 10.9085Z" fill="#094A68"/>
<path d="M61.274 10.7148H5.93408V8.181C9.98138 5.38902 19.8819 3.22644 31.5078 3.98495C45.3267 4.88872 56.6623 6.82536 60.4355 9.84328C60.758 10.1015 61.0321 10.3759 61.2418 10.6502C61.2418 10.6664 61.274 10.6986 61.274 10.7148Z" fill="#12718F"/>
<path d="M5.93387 7.16431V14.6204C5.01476 13.7166 4.43428 12.7644 4.24078 11.7638C4.19241 11.5056 4.16016 11.2635 4.16016 11.0053C4.16016 10.9085 4.16016 10.8278 4.16016 10.7309C4.17628 10.4566 4.22466 10.1822 4.30528 9.90787C4.54715 8.98797 5.11151 8.06807 5.91775 7.18045L5.93387 7.16431Z" fill="#002440"/>
<path d="M5.0309 11.215L0.0967481 10.8277C-0.0322494 10.8277 -0.0322494 10.6179 0.0967481 10.6018L5.0309 10.2144C5.74039 10.166 5.74039 11.2635 5.0309 11.215Z" fill="#002440"/>
<path d="M56.4686 11.3443C58.2764 11.3443 59.7419 11.0625 59.7419 10.7149C59.7419 10.3672 58.2764 10.0854 56.4686 10.0854C54.6608 10.0854 53.1953 10.3672 53.1953 10.7149C53.1953 11.0625 54.6608 11.3443 56.4686 11.3443Z" fill="#002440"/>
<path d="M29.0382 3.8656C29.0401 3.76758 28.8034 3.68349 28.5096 3.67779C28.2158 3.67209 27.976 3.74694 27.9741 3.84497C27.9722 3.94299 28.2089 4.02708 28.5027 4.03278C28.7965 4.03848 29.0363 3.96363 29.0382 3.8656Z" fill="#002440"/>
<path d="M28.5087 10.8924C28.8026 10.8924 29.0408 10.8129 29.0408 10.7149C29.0408 10.6168 28.8026 10.5374 28.5087 10.5374C28.2148 10.5374 27.9766 10.6168 27.9766 10.7149C27.9766 10.8129 28.2148 10.8924 28.5087 10.8924Z" fill="#002440"/>
<path d="M28.5087 17.816C28.8026 17.816 29.0408 17.7365 29.0408 17.6385C29.0408 17.5404 28.8026 17.4609 28.5087 17.4609C28.2148 17.4609 27.9766 17.5404 27.9766 17.6385C27.9766 17.7365 28.2148 17.816 28.5087 17.816Z" fill="#002440"/>
<path d="M10.2391 10.8439C10.4617 10.8439 10.6422 10.7861 10.6422 10.7148C10.6422 10.6435 10.4617 10.5857 10.2391 10.5857C10.0164 10.5857 9.83594 10.6435 9.83594 10.7148C9.83594 10.7861 10.0164 10.8439 10.2391 10.8439Z" fill="#002440"/>
<path d="M10.2726 6.29776C10.4838 6.22739 10.6368 6.11549 10.6143 6.04784C10.5918 5.98018 10.4023 5.98238 10.1911 6.05276C9.97984 6.12313 9.82683 6.23502 9.84933 6.30268C9.87183 6.37033 10.0613 6.36813 10.2726 6.29776Z" fill="#002440"/>
<path d="M10.5277 15.385C10.5498 15.3172 10.3961 15.2062 10.1844 15.1372C9.97276 15.0681 9.78327 15.067 9.76118 15.1348C9.7391 15.2026 9.89278 15.3136 10.1044 15.3826C10.3161 15.4517 10.5056 15.4528 10.5277 15.385Z" fill="#002440"/>
<path d="M51.4065 15.4697C51.626 15.4323 51.7942 15.345 51.7823 15.2747C51.7703 15.2044 51.5827 15.1778 51.3632 15.2152C51.1437 15.2526 50.9755 15.3399 50.9875 15.4102C50.9995 15.4805 51.1871 15.5072 51.4065 15.4697Z" fill="#002440"/>
<path d="M51.7196 6.52938C51.7347 6.45969 51.5705 6.36493 51.3529 6.31773C51.1353 6.27053 50.9467 6.28875 50.9316 6.35844C50.9165 6.42813 51.0807 6.52288 51.2983 6.57009C51.5158 6.61729 51.7045 6.59906 51.7196 6.52938Z" fill="#002440"/>
<path d="M51.3089 10.8439C51.5315 10.8439 51.712 10.7861 51.712 10.7148C51.712 10.6435 51.5315 10.5857 51.3089 10.5857C51.0862 10.5857 50.9058 10.6435 50.9058 10.7148C50.9058 10.7861 51.0862 10.8439 51.3089 10.8439Z" fill="#002440"/>
<path d="M30.9595 20.4788C38.2317 26.8051 53.8082 38.6025 76.8826 43.2343C92.3784 46.349 105.536 45.1063 114.002 43.5732" stroke="#002440" stroke-width="0.37" stroke-miterlimit="10"/>
<path d="M24.7026 20.4788C30.2657 28.6449 40.0211 40.6521 55.4685 50.8194C79.2847 66.49 102.94 68.7656 113.888 69.1206" stroke="#002440" stroke-width="0.37" stroke-miterlimit="10"/>
</svg>
