<svg viewBox="0 0 1036 187" fill="none" xmlns="http://www.w3.org/2000/svg"><path opacity=".3" d="M69.9365 58.8788 218.427 0h590.03L1013 87H7l62.9365-28.1212ZM13.651 148c-1.752 0-3.358-.438-4.818-1.314-1.41133-.925-2.555-2.117-3.431-3.577-.82733-1.509-1.241-3.115-1.241-4.818v-33.215c0-1.752.41367-3.358 1.241-4.818.876-1.46 2.01967-2.628 3.431-3.504 1.46-.876 3.066-1.314 4.818-1.314h33.58c1.7033 0 3.2607.438 4.672 1.314 1.46.876 2.628 2.044 3.504 3.504.876 1.46 1.314 3.066 1.314 4.818v33.215c0 1.703-.438 3.309-1.314 4.818-.876 1.46-2.044 2.652-3.504 3.577-1.4113.876-2.9687 1.314-4.672 1.314h-33.58Zm1.022-8.176h32.339c.4867 0 .9003-.17 1.241-.511.3893-.341.584-.754.584-1.241v-26.499l-34.164 28.251Zm-2.628-8.103 34.091-28.251H13.87c-.4867 0-.9247.195-1.314.584-.3407.341-.511.754-.511 1.241v26.426ZM77.3789 148v-42.121l-6.059 7.3h-10.366l14.892-17.739h9.417V148h-7.884Zm28.5151 0v-42.121l-6.0585 7.3h-10.366L104.361 95.44h9.417V148h-7.884Zm25.669 0c-1.752 0-3.358-.438-4.818-1.314-1.411-.925-2.555-2.117-3.431-3.577-.827-1.509-1.241-3.115-1.241-4.818v-33.215c0-1.752.414-3.358 1.241-4.818.876-1.46 2.02-2.628 3.431-3.504 1.46-.876 3.066-1.314 4.818-1.314h33.58c1.703 0 3.261.438 4.672 1.314 1.46.876 2.628 2.044 3.504 3.504.876 1.46 1.314 3.066 1.314 4.818v33.215c0 1.703-.438 3.309-1.314 4.818-.876 1.46-2.044 2.652-3.504 3.577-1.411.876-2.969 1.314-4.672 1.314h-33.58Zm1.022-8.176h32.339c.487 0 .9-.17 1.241-.511.389-.341.584-.754.584-1.241v-26.499l-34.164 28.251Zm-2.628-8.103 34.091-28.251h-32.266c-.487 0-.925.195-1.314.584-.341.341-.511.754-.511 1.241v26.426ZM192.444 148c-1.752 0-3.358-.438-4.818-1.314-1.411-.925-2.555-2.117-3.431-3.577-.827-1.509-1.241-3.115-1.241-4.818v-33.215c0-1.752.414-3.358 1.241-4.818.876-1.46 2.02-2.628 3.431-3.504 1.46-.876 3.066-1.314 4.818-1.314h33.58c1.703 0 3.261.438 4.672 1.314 1.46.876 2.628 2.044 3.504 3.504.876 1.46 1.314 3.066 1.314 4.818v33.215c0 1.703-.438 3.309-1.314 4.818-.876 1.46-2.044 2.652-3.504 3.577-1.411.876-2.969 1.314-4.672 1.314h-33.58Zm1.022-8.176h32.339c.487 0 .9-.17 1.241-.511.389-.341.584-.754.584-1.241v-26.499l-34.164 28.251Zm-2.628-8.103 34.091-28.251h-32.266c-.487 0-.925.195-1.314.584-.341.341-.511.754-.511 1.241v26.426ZM256.172 148v-42.121l-6.059 7.3h-10.366l14.892-17.739h9.417V148h-7.884Zm28.515 0v-42.121l-6.059 7.3h-10.366l14.892-17.739h9.417V148h-7.884Zm25.669 0c-1.752 0-3.358-.438-4.818-1.314-1.411-.925-2.555-2.117-3.431-3.577-.827-1.509-1.241-3.115-1.241-4.818v-33.215c0-1.752.414-3.358 1.241-4.818.876-1.46 2.02-2.628 3.431-3.504 1.46-.876 3.066-1.314 4.818-1.314h33.58c1.703 0 3.261.438 4.672 1.314 1.46.876 2.628 2.044 3.504 3.504.876 1.46 1.314 3.066 1.314 4.818v33.215c0 1.703-.438 3.309-1.314 4.818-.876 1.46-2.044 2.652-3.504 3.577-1.411.876-2.969 1.314-4.672 1.314h-33.58Zm1.022-8.176h32.339c.487 0 .9-.17 1.241-.511.389-.341.584-.754.584-1.241v-26.499l-34.164 28.251Zm-2.628-8.103 34.091-28.251h-32.266c-.487 0-.925.195-1.314.584-.341.341-.511.754-.511 1.241v26.426ZM392.41 148c-1.752 0-3.358-.438-4.818-1.314-1.412-.925-2.555-2.117-3.431-3.577-.828-1.509-1.241-3.115-1.241-4.818v-33.215c0-1.752.413-3.358 1.241-4.818.876-1.46 2.019-2.628 3.431-3.504 1.46-.876 3.066-1.314 4.818-1.314h33.58c1.703 0 3.26.438 4.672 1.314 1.46.876 2.628 2.044 3.504 3.504.876 1.46 1.314 3.066 1.314 4.818v33.215c0 1.703-.438 3.309-1.314 4.818-.876 1.46-2.044 2.652-3.504 3.577-1.412.876-2.969 1.314-4.672 1.314h-33.58Zm1.022-8.176h32.339c.486 0 .9-.17 1.241-.511.389-.341.584-.754.584-1.241v-26.499l-34.164 28.251Zm-2.628-8.103 34.091-28.251h-32.266c-.487 0-.925.195-1.314.584-.341.341-.511.754-.511 1.241v26.426ZM456.138 148v-42.121l-6.059 7.3h-10.366l14.892-17.739h9.417V148h-7.884Zm28.515 0v-42.121l-6.059 7.3h-10.366L483.12 95.44h9.417V148h-7.884Zm25.669 0c-1.752 0-3.358-.438-4.818-1.314-1.411-.925-2.555-2.117-3.431-3.577-.827-1.509-1.241-3.115-1.241-4.818v-33.215c0-1.752.414-3.358 1.241-4.818.876-1.46 2.02-2.628 3.431-3.504 1.46-.876 3.066-1.314 4.818-1.314h33.58c1.703 0 3.261.438 4.672 1.314 1.46.876 2.628 2.044 3.504 3.504.876 1.46 1.314 3.066 1.314 4.818v33.215c0 1.703-.438 3.309-1.314 4.818-.876 1.46-2.044 2.652-3.504 3.577-1.411.876-2.969 1.314-4.672 1.314h-33.58Zm1.022-8.176h32.339c.487 0 .9-.17 1.241-.511.389-.341.584-.754.584-1.241v-26.499l-34.164 28.251Zm-2.628-8.103 34.091-28.251h-32.266c-.487 0-.925.195-1.314.584-.341.341-.511.754-.511 1.241v26.426ZM574.05 148v-42.121l-6.059 7.3h-10.366l14.892-17.739h9.417V148h-7.884Zm28.515 0v-42.121l-6.059 7.3H586.14l14.892-17.739h9.417V148h-7.884Zm28.516 0v-42.121l-6.059 7.3h-10.366l14.892-17.739h9.417V148h-7.884Zm28.516 0v-42.121l-6.059 7.3h-10.366l14.892-17.739h9.417V148h-7.884Zm46.841 0c-1.752 0-3.358-.438-4.818-1.314-1.411-.925-2.555-2.117-3.431-3.577-.827-1.509-1.241-3.115-1.241-4.818v-33.215c0-1.752.414-3.358 1.241-4.818.876-1.46 2.02-2.628 3.431-3.504 1.46-.876 3.066-1.314 4.818-1.314h33.58c1.703 0 3.261.438 4.672 1.314 1.46.876 2.628 2.044 3.504 3.504.876 1.46 1.314 3.066 1.314 4.818v33.215c0 1.703-.438 3.309-1.314 4.818-.876 1.46-2.044 2.652-3.504 3.577-1.411.876-2.969 1.314-4.672 1.314h-33.58Zm1.022-8.176h32.339c.487 0 .9-.17 1.241-.511.389-.341.584-.754.584-1.241v-26.499l-34.164 28.251Zm-2.628-8.103 34.091-28.251h-32.266c-.487 0-.925.195-1.314.584-.341.341-.511.754-.511 1.241v26.426ZM770.166 148v-42.121l-6.059 7.3h-10.366l14.892-17.739h9.417V148h-7.884Zm28.516 0v-42.121l-6.059 7.3h-10.366l14.892-17.739h9.417V148h-7.884Zm25.668 0c-1.752 0-3.358-.438-4.818-1.314-1.411-.925-2.555-2.117-3.431-3.577-.827-1.509-1.241-3.115-1.241-4.818v-33.215c0-1.752.414-3.358 1.241-4.818.876-1.46 2.02-2.628 3.431-3.504 1.46-.876 3.066-1.314 4.818-1.314h33.58c1.704 0 3.261.438 4.672 1.314 1.46.876 2.628 2.044 3.504 3.504.876 1.46 1.314 3.066 1.314 4.818v33.215c0 1.703-.438 3.309-1.314 4.818-.876 1.46-2.044 2.652-3.504 3.577-1.411.876-2.968 1.314-4.672 1.314h-33.58Zm1.022-8.176h32.339c.487 0 .901-.17 1.241-.511.39-.341.584-.754.584-1.241v-26.499l-34.164 28.251Zm-2.628-8.103 34.091-28.251h-32.266c-.486 0-.924.195-1.314.584-.34.341-.511.754-.511 1.241v26.426ZM888.078 148v-42.121l-6.059 7.3h-10.366l14.892-17.739h9.417V148h-7.884Zm28.516 0v-42.121l-6.059 7.3h-10.366l14.892-17.739h9.417V148h-7.884Zm28.515 0v-42.121l-6.059 7.3h-10.366l14.892-17.739h9.417V148h-7.884Zm25.669 0c-1.752 0-3.358-.438-4.818-1.314-1.411-.925-2.555-2.117-3.431-3.577-.827-1.509-1.241-3.115-1.241-4.818v-33.215c0-1.752.414-3.358 1.241-4.818.876-1.46 2.02-2.628 3.431-3.504 1.46-.876 3.066-1.314 4.818-1.314h33.582c1.7 0 3.26.438 4.67 1.314 1.46.876 2.63 2.044 3.5 3.504.88 1.46 1.32 3.066 1.32 4.818v33.215c0 1.703-.44 3.309-1.32 4.818-.87 1.46-2.04 2.652-3.5 3.577-1.41.876-2.97 1.314-4.67 1.314h-33.582Zm1.022-8.176h32.34c.49 0 .9-.17 1.24-.511.39-.341.58-.754.58-1.241v-26.499l-34.16 28.251Zm-2.628-8.103 34.088-28.251h-32.263c-.487 0-.925.195-1.314.584-.341.341-.511.754-.511 1.241v26.426Z" fill="#24BDDE"/></svg>