<svg width="106" height="73" viewBox="0 0 106 73" fill="none" xmlns="http://www.w3.org/2000/svg">
<path d="M10.8626 68.6926H8.62061V71.6048H10.8626V68.6926Z" fill="#10B2F9" stroke="#10B2F9" stroke-width="0.02" stroke-miterlimit="10"/>
<path d="M2.49009 68.6926H0.248047V71.6048H2.49009V68.6926Z" fill="#10B2F9" stroke="#10B2F9" stroke-width="0.02" stroke-miterlimit="10"/>
<path d="M19.6657 70.2728C18.979 70.2728 18.433 70.0743 18.0441 69.6689C17.7877 69.4041 17.6139 69.0815 17.5229 68.6926H15.314C15.4381 69.6027 15.7938 70.3307 16.3978 70.885C17.1506 71.5717 18.102 71.9109 19.2437 71.9109C20.0297 71.9109 20.8405 71.7289 21.6595 71.3731C22.4868 71.0174 23.157 70.5706 23.6865 70.0412L23.9843 71.6048H25.8458V68.6926H23.4879C22.4124 69.7433 21.1383 70.2728 19.674 70.2728H19.6657Z" fill="#10B2F9" stroke="#10B2F9" stroke-width="0.02" stroke-miterlimit="10"/>
<path d="M39.9349 71.6048H42.7395L40.2245 68.6926H37.5522L39.9349 71.6048Z" fill="#10B2F9" stroke="#10B2F9" stroke-width="0.02" stroke-miterlimit="10"/>
<path d="M33.1009 68.6926H30.8589V71.6048H33.1009V68.6926Z" fill="#10B2F9" stroke="#10B2F9" stroke-width="0.02" stroke-miterlimit="10"/>
<path d="M49.9372 70.2728C49.2505 70.2728 48.7045 70.0743 48.3156 69.6689C48.0591 69.4041 47.8854 69.0815 47.7944 68.6926H45.5854C45.7095 69.6027 46.0653 70.3307 46.6692 70.885C47.4221 71.5717 48.3735 71.9109 49.5152 71.9109C50.3012 71.9109 51.112 71.7289 51.931 71.3731C52.7583 71.0174 53.4285 70.5706 53.9579 70.0412L54.2558 71.6048H56.1172V68.6926H53.7594C52.6839 69.7433 51.4098 70.2728 49.9454 70.2728H49.9372Z" fill="#10B2F9" stroke="#10B2F9" stroke-width="0.02" stroke-miterlimit="10"/>
<path d="M64.4897 70.3222C65.2591 71.1744 66.8062 71.6046 69.1309 71.6046H71.3978L71.5219 69.8838H69.0482C68.345 69.8838 67.7824 69.8341 67.377 69.7348C66.9634 69.6356 66.6324 69.4453 66.376 69.1557C66.2519 69.0233 66.1526 68.8661 66.0699 68.7007H63.7368C63.9023 69.4039 64.1505 69.9499 64.4897 70.3305V70.3222Z" fill="#10B2F9" stroke="#10B2F9" stroke-width="0.02" stroke-miterlimit="10"/>
<path d="M81.2097 70.1899C79.9108 70.1899 79.009 69.6852 78.4795 68.7007H76.1382C76.3202 69.1061 76.5436 69.4866 76.7918 69.8341C77.2633 70.4794 77.8673 70.9924 78.6284 71.3647C79.3813 71.737 80.2417 71.919 81.2179 71.919C83.0298 71.919 84.4693 71.2654 85.5283 69.9582C85.8344 69.5776 86.0991 69.1557 86.3143 68.709H84.0143C83.4021 69.7017 82.4672 70.1981 81.2179 70.1981L81.2097 70.1899Z" fill="#10B2F9" stroke="#10B2F9" stroke-width="0.02" stroke-miterlimit="10"/>
<path d="M93.4627 68.6926H91.2207V71.6048H93.4627V68.6926Z" fill="#10B2F9" stroke="#10B2F9" stroke-width="0.02" stroke-miterlimit="10"/>
<path d="M101.785 68.6926H99.543V71.6048H101.785V68.6926Z" fill="#10B2F9" stroke="#10B2F9" stroke-width="0.02" stroke-miterlimit="10"/>
<path d="M10.6146 66.8228H8.37256V68.6925H10.6146V66.8228Z" fill="#10B2F9" stroke="#10B2F9" stroke-width="0.02" stroke-miterlimit="10"/>
<path d="M2.24205 66.8228H0V68.6925H2.24205V66.8228Z" fill="#10B2F9" stroke="#10B2F9" stroke-width="0.02" stroke-miterlimit="10"/>
<path d="M23.3473 66.8228V68.585C23.3473 68.585 23.2728 68.6594 23.2314 68.6925H25.5893V66.8228H23.3473Z" fill="#10B2F9" stroke="#10B2F9" stroke-width="0.02" stroke-miterlimit="10"/>
<path d="M17.2002 68.0472C17.2002 67.5756 17.3326 67.1702 17.5808 66.8228H15.1815C15.0657 67.1702 15.0078 67.5508 15.0078 67.9727C15.0078 68.2209 15.0244 68.4609 15.0574 68.6925H17.2664C17.2168 68.4939 17.1919 68.2788 17.1919 68.0389L17.2002 68.0472Z" fill="#10B2F9" stroke="#10B2F9" stroke-width="0.02" stroke-miterlimit="10"/>
<path d="M32.8529 66.8228H30.6108V68.6925H32.8529V66.8228Z" fill="#10B2F9" stroke="#10B2F9" stroke-width="0.02" stroke-miterlimit="10"/>
<path d="M35.7734 66.8228L37.304 68.6925H39.9762L38.3547 66.8228H35.7734Z" fill="#10B2F9" stroke="#10B2F9" stroke-width="0.02" stroke-miterlimit="10"/>
<path d="M47.4717 68.0472C47.4717 67.5756 47.6041 67.1702 47.8523 66.8228H45.453C45.3372 67.1702 45.2793 67.5508 45.2793 67.9727C45.2793 68.2209 45.2958 68.4609 45.3289 68.6925H47.5379C47.4882 68.4939 47.4634 68.2788 47.4634 68.0389L47.4717 68.0472Z" fill="#10B2F9" stroke="#10B2F9" stroke-width="0.02" stroke-miterlimit="10"/>
<path d="M53.6105 66.8228V68.585C53.6105 68.585 53.536 68.6594 53.4946 68.6925H55.8525V66.8228H53.6105Z" fill="#10B2F9" stroke="#10B2F9" stroke-width="0.02" stroke-miterlimit="10"/>
<path d="M65.4823 66.8228H63.2568C63.2734 67.1123 63.2899 67.3853 63.3148 67.6253C63.3478 68.0141 63.4058 68.3698 63.4802 68.6925H65.8133C65.714 68.4939 65.6478 68.2788 65.5982 68.0306C65.5402 67.708 65.4989 67.3026 65.4823 66.8228Z" fill="#10B2F9" stroke="#10B2F9" stroke-width="0.02" stroke-miterlimit="10"/>
<path d="M84.4445 66.8228C84.37 67.1702 84.279 67.5094 84.1549 67.8486C84.0391 68.163 83.9067 68.4443 83.7495 68.6925H86.0495C86.3225 68.1217 86.5293 67.5012 86.6617 66.8228H84.4362H84.4445Z" fill="#10B2F9" stroke="#10B2F9" stroke-width="0.02" stroke-miterlimit="10"/>
<path d="M78.1653 68.585C77.9171 68.072 77.7268 67.4846 77.6027 66.8311H75.311C75.4351 67.5095 75.6337 68.13 75.8902 68.7008H78.2315C78.2315 68.7008 78.1901 68.6263 78.1653 68.585Z" fill="#10B2F9" stroke="#10B2F9" stroke-width="0.02" stroke-miterlimit="10"/>
<path d="M93.2142 66.8228H90.9722V68.6925H93.2142V66.8228Z" fill="#10B2F9" stroke="#10B2F9" stroke-width="0.02" stroke-miterlimit="10"/>
<path d="M101.537 66.8228H99.2949V68.6925H101.537V66.8228Z" fill="#10B2F9" stroke="#10B2F9" stroke-width="0.02" stroke-miterlimit="10"/>
<path d="M33.1009 55.447H30.8589V61.0066H33.1009V55.447Z" fill="#10B2F9" stroke="#10B2F9" stroke-width="0.02" stroke-miterlimit="10"/>
<path d="M33.1009 52.3364L30.8589 52.5763V55.0583H33.1009V52.3364Z" fill="#10B2F9" stroke="#10B2F9" stroke-width="0.02" stroke-miterlimit="10"/>
<path d="M65.7225 52.7749L63.4805 53.445V55.0583H65.7225V52.7749Z" fill="#10B2F9" stroke="#10B2F9" stroke-width="0.02" stroke-miterlimit="10"/>
<path d="M65.7225 55.447H63.4804V58.0945H59.9064L59.6582 59.8236H63.4804V61.0066H65.7225V59.8236H71.4062V58.0945H65.7225V55.447Z" fill="#10B2F9" stroke="#10B2F9" stroke-width="0.02" stroke-miterlimit="10"/>
<path d="M85.6445 59.6582C85.2888 59.1783 84.8668 58.7895 84.387 58.4834H78.24C77.7519 58.7812 77.3134 59.1701 76.9411 59.6416C76.6102 60.0553 76.3371 60.5103 76.1138 61.0067H78.4468C79.0508 59.9478 79.9691 59.4183 81.2184 59.4183C82.3187 59.4183 83.146 59.774 83.7086 60.4772C83.8409 60.6427 83.9568 60.8247 84.0726 61.0067H86.4139C86.2071 60.5186 85.9506 60.0719 85.6528 59.6582H85.6445Z" fill="#10B2F9" stroke="#10B2F9" stroke-width="0.02" stroke-miterlimit="10"/>
<path d="M83.6088 58.0946C82.9386 57.8299 82.1858 57.6892 81.3336 57.6892C80.4815 57.6892 79.7121 57.8299 79.0337 58.0946H83.6088Z" fill="#10B2F9" stroke="#10B2F9" stroke-width="0.02" stroke-miterlimit="10"/>
<path d="M82.3596 58.0945H77.7845C77.5032 58.202 77.2384 58.3344 76.9902 58.4833H83.1373C82.8973 58.3261 82.6326 58.202 82.3596 58.0945Z" fill="#10B2F9" stroke="#10B2F9" stroke-width="0.02" stroke-miterlimit="10"/>
<path d="M31.3719 55.0583H29.1299V55.4472H31.3719V55.0583Z" fill="#10B2F9" stroke="#10B2F9" stroke-width="0.02" stroke-miterlimit="10"/>
<path d="M63.993 55.0583H61.751V55.4472H63.993V55.0583Z" fill="#10B2F9" stroke="#10B2F9" stroke-width="0.02" stroke-miterlimit="10"/>
<path d="M8.43018 61.5281C8.55427 62.1154 8.62047 62.8435 8.62047 63.737V66.8229H10.8625V63.4474C10.8625 62.7359 10.8129 62.0989 10.7219 61.5198H8.43018V61.5281Z" fill="#10B2F9" stroke="#10B2F9" stroke-width="0.02" stroke-miterlimit="10"/>
<path d="M0.248047 61.5281V66.8312H2.49009V62.4216C2.49009 62.1155 2.55628 61.8176 2.67211 61.5281H0.248047Z" fill="#10B2F9" stroke="#10B2F9" stroke-width="0.02" stroke-miterlimit="10"/>
<path d="M6.71773 57.6892C4.95553 57.6892 3.54908 58.3676 2.49838 59.7327V52.3364L0.256348 52.5846V61.015H2.96168C3.1106 60.7999 3.29261 60.5848 3.51598 60.378C4.19439 59.741 4.98863 59.4266 5.90695 59.4266C6.82528 59.4266 7.4954 59.7244 7.95043 60.3283C8.09107 60.5104 8.19863 60.742 8.29791 61.0233H10.6227C10.118 58.8144 8.81912 57.7057 6.71773 57.7057V57.6892Z" fill="#10B2F9" stroke="#10B2F9" stroke-width="0.02" stroke-miterlimit="10"/>
<path d="M23.5457 61.5281C23.5788 61.768 23.5953 62.0162 23.5953 62.2975V63.7287L21.8001 63.9356C20.5922 64.0845 19.6159 64.2334 18.8631 64.3823C18.1102 64.5313 17.407 64.8125 16.7369 65.2262C16.0833 65.615 15.6531 66.1445 15.4297 66.8229H17.8289C18.1019 66.4506 18.5239 66.1528 19.0947 65.9377C19.5911 65.7557 20.4763 65.5737 21.7504 65.3999L23.5871 65.1435V66.8312H25.8291V61.8673C25.8291 61.7514 25.8291 61.6439 25.8126 61.5281H23.5292H23.5457Z" fill="#10B2F9" stroke="#10B2F9" stroke-width="0.02" stroke-miterlimit="10"/>
<path d="M24.4803 58.7151C23.5786 58.0367 22.3789 57.6892 20.8815 57.6892C19.384 57.6892 17.7873 57.9705 16.0913 58.5413L16.6208 60.1877C17.0014 60.0223 17.6549 59.8485 18.5815 59.6665C19.5164 59.4845 20.3686 59.3935 21.138 59.3935C22.3541 59.3935 23.1153 59.9313 23.4296 60.9985H25.7627C25.6138 60.0057 25.1836 59.2363 24.4721 58.7068L24.4803 58.7151Z" fill="#10B2F9" stroke="#10B2F9" stroke-width="0.02" stroke-miterlimit="10"/>
<path d="M35.343 61.5281L33.1009 63.5798V61.5281H31.1733H30.8589V66.8229H33.1009V65.7888L34.3088 64.7298L36.0214 66.8229H38.6026L35.8973 63.6957L38.2303 61.5281H35.6491H35.343Z" fill="#10B2F9" stroke="#10B2F9" stroke-width="0.02" stroke-miterlimit="10"/>
<path d="M39.0827 58.0945L35.9058 61.0067H36.2201H38.7931L41.9204 58.0945H39.0827Z" fill="#10B2F9" stroke="#10B2F9" stroke-width="0.02" stroke-miterlimit="10"/>
<path d="M54.7523 58.7151C53.8505 58.0367 52.6509 57.6892 51.1535 57.6892C49.656 57.6892 48.0593 57.9705 46.3633 58.5413L46.8928 60.1877C47.2733 60.0223 47.9269 59.8485 48.8535 59.6665C49.7884 59.4845 50.6405 59.3935 51.4099 59.3935C52.6261 59.3935 53.3872 59.9313 53.7016 60.9985H56.0347C55.8858 60.0057 55.4555 59.2363 54.7441 58.7068L54.7523 58.7151Z" fill="#10B2F9" stroke="#10B2F9" stroke-width="0.02" stroke-miterlimit="10"/>
<path d="M53.8089 61.5281C53.842 61.768 53.8585 62.0162 53.8585 62.2975V63.7287L52.0632 63.9356C50.8554 64.0845 49.8791 64.2334 49.1262 64.3823C48.3734 64.5313 47.6702 64.8125 47 65.2262C46.3465 65.615 45.9162 66.1445 45.6929 66.8229H48.0921C48.3651 66.4506 48.787 66.1528 49.3579 65.9377C49.8543 65.7557 50.7395 65.5737 52.0136 65.3999L53.8503 65.1435V66.8312H56.0923V61.8673C56.0923 61.7514 56.0923 61.6439 56.0758 61.5281H53.7923H53.8089Z" fill="#10B2F9" stroke="#10B2F9" stroke-width="0.02" stroke-miterlimit="10"/>
<path d="M63.48 61.5281V65.5985C63.48 66.0535 63.4882 66.4589 63.5048 66.8312H65.7303C65.7303 66.6244 65.7137 66.4093 65.7137 66.1694V61.5363H63.4717L63.48 61.5281Z" fill="#10B2F9" stroke="#10B2F9" stroke-width="0.02" stroke-miterlimit="10"/>
<path d="M84.8666 65.2674C84.8666 65.7969 84.8087 66.3098 84.7012 66.8227H86.9267C87.0342 66.2933 87.0921 65.7307 87.1087 65.135H84.8749C84.8749 65.1764 84.8749 65.2177 84.8749 65.2674H84.8666Z" fill="#10B2F9" stroke="#10B2F9" stroke-width="0.02" stroke-miterlimit="10"/>
<path d="M86.6037 61.5281H84.3203C84.5354 62.0245 84.6843 62.587 84.7671 63.2075C84.8167 63.5964 84.8498 64.1093 84.8581 64.7381H87.1001C87.1001 63.5385 86.9264 62.4712 86.6037 61.5281Z" fill="#10B2F9" stroke="#10B2F9" stroke-width="0.02" stroke-miterlimit="10"/>
<path d="M76.7669 64.7298H77.6439C77.6439 64.6471 77.6439 64.5643 77.6439 64.4816C77.6439 63.5467 77.7928 62.6532 78.0906 61.8011C78.1237 61.7018 78.1568 61.6108 78.1982 61.5281H75.9065C75.5673 62.4712 75.3853 63.5385 75.3853 64.7381C75.3853 65.4827 75.4514 66.1859 75.5673 66.8312H77.859C77.7597 66.31 77.6935 65.7474 77.6604 65.1435H76.7752V64.7381L76.7669 64.7298Z" fill="#10B2F9" stroke="#10B2F9" stroke-width="0.02" stroke-miterlimit="10"/>
<path d="M93.8263 61.0068C93.9835 60.7255 94.1986 60.4773 94.4634 60.2539C95.1252 59.6996 95.9443 59.4183 96.904 59.4183C97.8637 59.4183 98.5421 59.6913 98.964 60.2291C99.1212 60.4442 99.2453 60.7007 99.3446 61.0068H101.611C101.148 58.7978 99.8079 57.6892 97.6072 57.6892C95.7126 57.6892 94.3145 58.3097 93.421 59.559L93.2969 58.0946H91.2368V61.0068H93.8429H93.8263Z" fill="#10B2F9" stroke="#10B2F9" stroke-width="0.02" stroke-miterlimit="10"/>
<path d="M101.785 63.009C101.785 62.4712 101.752 61.9831 101.686 61.5281H99.4521C99.5183 61.9417 99.5431 62.5291 99.5431 63.282V64.7381H101.785V63.0173V63.009Z" fill="#10B2F9" stroke="#10B2F9" stroke-width="0.02" stroke-miterlimit="10"/>
<path d="M101.785 65.1433H99.543V66.831H101.785V65.1433Z" fill="#10B2F9" stroke="#10B2F9" stroke-width="0.02" stroke-miterlimit="10"/>
<path d="M93.4622 65.1433H91.2202V66.831H93.4622V65.1433Z" fill="#10B2F9" stroke="#10B2F9" stroke-width="0.02" stroke-miterlimit="10"/>
<path d="M93.4622 62.4712C93.4622 62.132 93.5119 61.8176 93.5946 61.5281H91.2202V64.7381H93.4622V62.4712Z" fill="#10B2F9" stroke="#10B2F9" stroke-width="0.02" stroke-miterlimit="10"/>
<path d="M10.9288 61.0066H8.604C8.66192 61.1638 8.70328 61.3375 8.74465 61.5278H11.0363C11.0032 61.3458 10.9701 61.1721 10.937 61.0066H10.9288Z" fill="#10B2F9" stroke="#10B2F9" stroke-width="0.02" stroke-miterlimit="10"/>
<path d="M0.5625 61.0066V61.5278H2.98655C3.061 61.3541 3.15202 61.1803 3.26784 61.0066H0.5625Z" fill="#10B2F9" stroke="#10B2F9" stroke-width="0.02" stroke-miterlimit="10"/>
<path d="M26.0855 61.0066H23.7524C23.8021 61.1638 23.8352 61.3375 23.86 61.5278H26.1434C26.1351 61.3458 26.1186 61.1721 26.0938 61.0066H26.0855Z" fill="#10B2F9" stroke="#10B2F9" stroke-width="0.02" stroke-miterlimit="10"/>
<path d="M33.4154 61.5278V61.0066H31.1733V61.5278H33.101H33.4154Z" fill="#10B2F9" stroke="#10B2F9" stroke-width="0.02" stroke-miterlimit="10"/>
<path d="M35.6489 61.5278H38.2302H38.5446L39.0989 61.0066H38.7927H36.2198L35.6489 61.5278Z" fill="#10B2F9" stroke="#10B2F9" stroke-width="0.02" stroke-miterlimit="10"/>
<path d="M56.6631 61.0066H54.3301C54.3797 61.1638 54.4128 61.3375 54.4376 61.5278H56.721C56.7128 61.3458 56.6962 61.1721 56.6714 61.0066H56.6631Z" fill="#10B2F9" stroke="#10B2F9" stroke-width="0.02" stroke-miterlimit="10"/>
<path d="M64.1011 61.5278H65.7226H66.3431V61.0066H64.1011V61.5278Z" fill="#10B2F9" stroke="#10B2F9" stroke-width="0.02" stroke-miterlimit="10"/>
<path d="M87.8529 61.5278C87.795 61.3458 87.7205 61.1803 87.6543 61.0066H85.313C85.404 61.1721 85.495 61.3458 85.5695 61.5278H87.8529Z" fill="#10B2F9" stroke="#10B2F9" stroke-width="0.02" stroke-miterlimit="10"/>
<path d="M79.4313 61.5278C79.5058 61.3458 79.5885 61.1721 79.6795 61.0066H77.3465C77.272 61.1721 77.1975 61.3458 77.1313 61.5278H79.423H79.4313Z" fill="#10B2F9" stroke="#10B2F9" stroke-width="0.02" stroke-miterlimit="10"/>
<path d="M101.942 61.5278H104.176C104.151 61.3458 104.118 61.1721 104.085 61.0066H101.818C101.843 61.0811 101.868 61.1555 101.885 61.2382C101.901 61.321 101.926 61.4203 101.942 61.5278Z" fill="#10B2F9" stroke="#10B2F9" stroke-width="0.02" stroke-miterlimit="10"/>
<path d="M93.7192 61.0066V61.5278H96.0936C96.1515 61.3458 96.226 61.1721 96.317 61.0066H93.7109H93.7192Z" fill="#10B2F9" stroke="#10B2F9" stroke-width="0.02" stroke-miterlimit="10"/>
<path d="M88.0433 64.7297H85.8013C85.8013 64.8621 85.8013 64.9945 85.8013 65.1351H88.035C88.035 65.0276 88.035 64.9118 88.035 64.8042C88.035 64.7794 88.035 64.7546 88.035 64.7297H88.0433Z" fill="#10B2F9" stroke="#10B2F9" stroke-width="0.02" stroke-miterlimit="10"/>
<path d="M77.7021 64.7297V65.1351H78.5874C78.5874 65.0028 78.5874 64.8621 78.5791 64.7297H77.7021Z" fill="#10B2F9" stroke="#10B2F9" stroke-width="0.02" stroke-miterlimit="10"/>
<path d="M102.72 64.7297H100.478V65.1351H102.72V64.7297Z" fill="#10B2F9" stroke="#10B2F9" stroke-width="0.02" stroke-miterlimit="10"/>
<path d="M94.3973 64.7297H92.1553V65.1351H94.3973V64.7297Z" fill="#10B2F9" stroke="#10B2F9" stroke-width="0.02" stroke-miterlimit="10"/>
<path d="M75.725 62.2312H73.5078V63.4391H75.725V62.2312Z" fill="#10B2F9" stroke="#10B2F9" stroke-width="0.02" stroke-miterlimit="10"/>
<path d="M74.6161 64.4153H74.0122V65.8465H74.6161V64.4153Z" fill="#10B2F9" stroke="#10B2F9" stroke-width="0.02" stroke-miterlimit="10"/>
<path d="M75.7248 66.4009H74.6162V67.2613H75.7248V66.4009Z" fill="#10B2F9" stroke="#10B2F9" stroke-width="0.02" stroke-miterlimit="10"/>
<path d="M95.4892 64.1753H93.7188V65.1433H95.4892V64.1753Z" fill="#10B2F9" stroke="#10B2F9" stroke-width="0.02" stroke-miterlimit="10"/>
<path d="M90.9722 67.0212H89.3672V67.1784H90.9722V67.0212Z" fill="#10B2F9" stroke="#10B2F9" stroke-width="0.02" stroke-miterlimit="10"/>
<path d="M91.5099 64.1753H90.6577V64.6551H91.5099V64.1753Z" fill="#10B2F9" stroke="#10B2F9" stroke-width="0.02" stroke-miterlimit="10"/>
<path d="M91.2206 65.8467H89.8721V65.9873H91.2206V65.8467Z" fill="#10B2F9" stroke="#10B2F9" stroke-width="0.02" stroke-miterlimit="10"/>
<path d="M63.8111 62.6199H60.4688V62.8763H63.8111V62.6199Z" fill="#10B2F9" stroke="#10B2F9" stroke-width="0.02" stroke-miterlimit="10"/>
<path d="M76.1053 65.3916H71.522V65.6398H76.1053V65.3916Z" fill="#10B2F9" stroke="#10B2F9" stroke-width="0.02" stroke-miterlimit="10"/>
<path d="M85.1317 66.4009H82.8979V66.6904H85.1317V66.4009Z" fill="#10B2F9" stroke="#10B2F9" stroke-width="0.02" stroke-miterlimit="10"/>
<path d="M101.049 63.2571H97.1274V63.4391H101.049V63.2571Z" fill="#10B2F9" stroke="#10B2F9" stroke-width="0.02" stroke-miterlimit="10"/>
<path d="M55.1331 71.9437H56.9945V71.5466H55.0586L55.1331 71.9437Z" fill="white" stroke="white" stroke-width="0.05" stroke-miterlimit="10" stroke-linecap="square"/>
<path d="M56.9942 69.0317H54.6364C53.5608 70.0824 52.2868 70.6119 50.8224 70.6119C50.1357 70.6119 49.5897 70.4134 49.2009 70.008C48.9444 69.7432 48.7707 69.4206 48.6796 69.0317H46.4707C46.5948 69.9418 46.9505 70.6698 47.5545 71.2241C48.3074 71.9108 49.2588 72.25 50.4005 72.25C51.1864 72.25 51.9972 72.068 52.8163 71.7123C53.6436 71.3565 54.3137 70.9098 54.8432 70.3803L54.9507 70.9428H57.0025V69.0317H56.9942Z" fill="white" stroke="white" stroke-width="0.05" stroke-miterlimit="10" stroke-linecap="square"/>
<path d="M55.5713 70.9429L55.6788 71.5468H57.6148V70.9429H55.5713Z" fill="white" stroke="white" stroke-width="0.05" stroke-miterlimit="10" stroke-linecap="square"/>
<path d="M103.887 63.4639H102.423V63.8031H103.887V63.4639Z" fill="white" stroke="white" stroke-width="0.05" stroke-miterlimit="10" stroke-linecap="square"/>
<path d="M103.531 63.8113H102.067V64.1505H103.531V63.8113Z" fill="white" stroke="white" stroke-width="0.05" stroke-miterlimit="10" stroke-linecap="square"/>
<path d="M104.483 62.4956H104.259V62.8431H104.483V62.4956Z" fill="white" stroke="white" stroke-width="0.05" stroke-miterlimit="10" stroke-linecap="square"/>
<path d="M100.561 61.8672H99.8081V62.3884H100.561V61.8672Z" fill="white" stroke="white" stroke-width="0.05" stroke-miterlimit="10" stroke-linecap="square"/>
<path d="M100.495 67.8237H99.8081V68.0967H100.495V67.8237Z" fill="white" stroke="white" stroke-width="0.05" stroke-miterlimit="10" stroke-linecap="square"/>
<path d="M33.9945 55.7861H32.2654H31.7524V61.3457H32.0585H33.9945V55.7861Z" fill="white" stroke="white" stroke-width="0.05" stroke-miterlimit="10" stroke-linecap="square"/>
<path d="M33.9945 55.3974V52.6672L31.7524 52.9154V55.3974H32.2654H33.9945Z" fill="white" stroke="white" stroke-width="0.05" stroke-miterlimit="10" stroke-linecap="square"/>
<path d="M66.6078 55.3974V53.114L64.3657 53.7759V55.3974H64.8869H66.6078Z" fill="white" stroke="white" stroke-width="0.05" stroke-miterlimit="10" stroke-linecap="square"/>
<path d="M66.6078 55.7861H64.8869H64.3657V58.4336H60.8L60.5518 60.1544H64.3657V61.3457H64.9945H66.6078V60.1544H72.2997V58.4336H66.6078V55.7861Z" fill="white" stroke="white" stroke-width="0.05" stroke-miterlimit="10" stroke-linecap="square"/>
<path d="M86.5298 59.9973C86.174 59.5175 85.7521 59.1286 85.2722 58.8225H79.1252C78.6371 59.1203 78.1986 59.5092 77.8263 59.9808C77.4954 60.3944 77.2224 60.8494 76.999 61.3458H79.3321C79.936 60.2869 80.8544 59.7574 82.1036 59.7574C83.2039 59.7574 84.0312 60.1131 84.5938 60.8164C84.7262 60.9818 84.842 61.1638 84.9579 61.3458H87.2992C87.0924 60.8577 86.8359 60.411 86.538 59.9973H86.5298Z" fill="white" stroke="white" stroke-width="0.05" stroke-miterlimit="10" stroke-linecap="square"/>
<path d="M84.5023 58.4337C83.8322 58.169 83.0793 58.0283 82.2272 58.0283C81.3751 58.0283 80.6056 58.169 79.9272 58.4337H84.5023Z" fill="white" stroke="white" stroke-width="0.05" stroke-miterlimit="10" stroke-linecap="square"/>
<path d="M83.2536 58.4336H78.6785C78.3972 58.5411 78.1325 58.6735 77.8843 58.8224H84.0313C83.7913 58.6652 83.5266 58.5411 83.2536 58.4336Z" fill="white" stroke="white" stroke-width="0.05" stroke-miterlimit="10" stroke-linecap="square"/>
<path d="M32.8861 55.3975H32.3731H30.644V55.7863H32.3731H32.8861V55.3975Z" fill="white" stroke="white" stroke-width="0.05" stroke-miterlimit="10" stroke-linecap="square"/>
<path d="M64.8871 55.3975H64.3658H62.645V55.7863H64.3658H64.8871V55.3975Z" fill="white" stroke="white" stroke-width="0.05" stroke-miterlimit="10" stroke-linecap="square"/>
<path d="M9.32373 61.8672C9.44783 62.4546 9.51401 63.1826 9.51401 64.0761V67.162H11.7561V63.7865C11.7561 63.0751 11.7064 62.438 11.6154 61.8589H9.32373V61.8672Z" fill="white" stroke="white" stroke-width="0.05" stroke-miterlimit="10" stroke-linecap="square"/>
<path d="M1.1416 61.8672V67.1703H3.38365V62.7607C3.38365 62.4546 3.44984 62.1568 3.56566 61.8672H1.1416Z" fill="white" stroke="white" stroke-width="0.05" stroke-miterlimit="10" stroke-linecap="square"/>
<path d="M7.60298 58.0283C5.84079 58.0283 4.43435 58.7067 3.38365 60.0718V52.6755L1.1416 52.9237V61.3541H3.84695C3.99586 61.139 4.17787 60.9239 4.40125 60.7171C5.07965 60.0801 5.87388 59.7657 6.79221 59.7657C7.71054 59.7657 8.38067 60.0635 8.83569 60.6675C8.97634 60.8495 9.08389 61.0811 9.18317 61.3624H11.5079C11.0033 59.1535 9.70438 58.0449 7.60298 58.0449V58.0283Z" fill="white" stroke="white" stroke-width="0.05" stroke-miterlimit="10" stroke-linecap="square"/>
<path d="M24.431 61.8672C24.4641 62.1071 24.4806 62.3553 24.4806 62.6366V64.0679L22.6853 64.2747C21.4774 64.4236 20.5012 64.5725 19.7483 64.7215C18.9955 64.8704 18.2922 65.1517 17.6221 65.5653C16.9685 65.9542 16.5383 66.4836 16.3149 67.162H18.7142C18.9872 66.7898 19.4091 66.4919 19.98 66.2768C20.4764 66.0948 21.3616 65.9128 22.6357 65.7391L24.4723 65.4826V67.1703H26.7144V62.2064C26.7144 62.0906 26.7144 61.983 26.6978 61.8672H24.4144H24.431Z" fill="white" stroke="white" stroke-width="0.05" stroke-miterlimit="10" stroke-linecap="square"/>
<path d="M25.3744 59.0459C24.4726 58.3675 23.273 58.02 21.7755 58.02C20.2781 58.02 18.6814 58.3013 16.9854 58.8722L17.5148 60.5185C17.8954 60.3531 18.549 60.1793 19.4756 59.9973C20.4105 59.8153 21.2626 59.7243 22.032 59.7243C23.2482 59.7243 24.0093 60.2621 24.3237 61.3293H26.6567C26.5078 60.3365 26.0776 59.5671 25.3661 59.0376L25.3744 59.0459Z" fill="white" stroke="white" stroke-width="0.05" stroke-miterlimit="10" stroke-linecap="square"/>
<path d="M36.9153 67.1619H39.4966L38.0322 65.4741H35.5337L36.9153 67.1619Z" fill="white" stroke="white" stroke-width="0.05" stroke-miterlimit="10" stroke-linecap="square"/>
<path d="M39.9762 58.4336L36.7993 61.3458H37.1137H39.6784L42.8057 58.4336H39.9762Z" fill="white" stroke="white" stroke-width="0.05" stroke-miterlimit="10" stroke-linecap="square"/>
<path d="M55.6371 59.0459C54.7353 58.3675 53.5357 58.02 52.0382 58.02C50.5408 58.02 48.9441 58.3013 47.248 58.8722L47.7775 60.5185C48.1581 60.3531 48.8117 60.1793 49.7383 59.9973C50.6732 59.8153 51.5253 59.7243 52.2947 59.7243C53.5109 59.7243 54.272 60.2621 54.5864 61.3293H56.9194C56.7705 60.3365 56.3403 59.5671 55.6288 59.0376L55.6371 59.0459Z" fill="white" stroke="white" stroke-width="0.05" stroke-miterlimit="10" stroke-linecap="square"/>
<path d="M54.7026 61.8672C54.7274 62.0327 54.7357 62.2064 54.744 62.3884H56.9943V62.2064C56.9943 62.0906 56.9943 61.983 56.9778 61.8672H54.6943H54.7026Z" fill="white" stroke="white" stroke-width="0.05" stroke-miterlimit="10" stroke-linecap="square"/>
<path d="M66.6078 62.8848H64.3657V65.9293C64.3657 66.3843 64.374 66.7897 64.3905 67.162H66.616C66.616 66.9552 66.5995 66.7401 66.5995 66.5002V62.893L66.6078 62.8848Z" fill="white" stroke="white" stroke-width="0.05" stroke-miterlimit="10" stroke-linecap="square"/>
<path d="M64.3657 61.8672V62.3801H66.6078V61.8672H64.9945H64.3657Z" fill="white" stroke="white" stroke-width="0.05" stroke-miterlimit="10" stroke-linecap="square"/>
<path d="M85.7602 65.4741C85.7602 65.5155 85.7602 65.5569 85.7602 65.6065C85.7602 66.136 85.7023 66.6489 85.5947 67.1619H87.8202C87.9277 66.6324 87.9857 66.0698 88.0022 65.4741H85.7685H85.7602Z" fill="white" stroke="white" stroke-width="0.05" stroke-miterlimit="10" stroke-linecap="square"/>
<path d="M87.4973 61.8672H85.2139C85.429 62.3636 85.5779 62.9262 85.6606 63.5466C85.7103 63.9355 85.7433 64.4484 85.7516 65.0772H87.9937C87.9937 63.8776 87.8199 62.8103 87.4973 61.8672Z" fill="white" stroke="white" stroke-width="0.05" stroke-miterlimit="10" stroke-linecap="square"/>
<path d="M77.6609 65.4743V65.0689H78.5379C78.5379 64.9862 78.5379 64.9034 78.5379 64.8207C78.5379 64.1506 78.6124 63.5135 78.7695 62.8848H76.5109C76.362 63.5549 76.2793 64.2829 76.2793 65.0689C76.2793 65.8548 76.3455 66.5167 76.4613 67.162H78.753C78.6537 66.6408 78.5875 66.0782 78.5544 65.4743H77.6692H77.6609Z" fill="white" stroke="white" stroke-width="0.05" stroke-miterlimit="10" stroke-linecap="square"/>
<path d="M76.7837 61.8672C76.7257 62.0327 76.6761 62.2147 76.6265 62.3884H78.9016C78.9264 62.3057 78.943 62.2229 78.9761 62.1485C79.0092 62.0492 79.0422 61.9582 79.0836 61.8755H76.7919L76.7837 61.8672Z" fill="white" stroke="white" stroke-width="0.05" stroke-miterlimit="10" stroke-linecap="square"/>
<path d="M98.4763 58.0283C96.5818 58.0283 95.1836 58.6488 94.2901 59.8981L94.166 58.4337H92.106V61.3459H94.712C94.8692 61.0646 95.0843 60.8164 95.349 60.593C96.0109 60.0387 96.83 59.7574 97.7897 59.7574C98.7493 59.7574 99.4277 60.0304 99.8497 60.5682C100.007 60.7833 100.131 61.0398 100.23 61.3459H102.497C102.034 59.1369 100.694 58.0283 98.4929 58.0283H98.4763Z" fill="white" stroke="white" stroke-width="0.05" stroke-miterlimit="10" stroke-linecap="square"/>
<path d="M102.679 63.3481C102.679 62.8103 102.646 62.3222 102.579 61.8672H100.346C100.412 62.2808 100.437 62.8682 100.437 63.6211V65.0772H102.679V63.3564V63.3481Z" fill="white" stroke="white" stroke-width="0.05" stroke-miterlimit="10" stroke-linecap="square"/>
<path d="M100.437 65.4741V67.1619H102.679V65.4741H101.371H100.437Z" fill="white" stroke="white" stroke-width="0.05" stroke-miterlimit="10" stroke-linecap="square"/>
<path d="M92.1138 65.4741V67.1619H94.3558V65.4741H93.0486H92.1138Z" fill="white" stroke="white" stroke-width="0.05" stroke-miterlimit="10" stroke-linecap="square"/>
<path d="M94.3558 62.802C94.3558 62.4628 94.4055 62.1484 94.4882 61.8589H92.1138V65.0689H94.3558V62.802Z" fill="white" stroke="white" stroke-width="0.05" stroke-miterlimit="10" stroke-linecap="square"/>
<path d="M11.8223 61.3457H9.49756C9.55547 61.5029 9.59684 61.6766 9.6382 61.8669H11.9299C11.8968 61.6849 11.8637 61.5112 11.8306 61.3457H11.8223Z" fill="white" stroke="white" stroke-width="0.05" stroke-miterlimit="10" stroke-linecap="square"/>
<path d="M1.44775 61.3457V61.8669H3.87181C3.94627 61.6932 4.03727 61.5194 4.1531 61.3457H1.44775Z" fill="white" stroke="white" stroke-width="0.05" stroke-miterlimit="10" stroke-linecap="square"/>
<path d="M26.9707 61.3457H24.6377C24.6873 61.5029 24.7204 61.6766 24.7452 61.8669H27.0287C27.0204 61.6849 27.0038 61.5112 26.979 61.3457H26.9707Z" fill="white" stroke="white" stroke-width="0.05" stroke-miterlimit="10" stroke-linecap="square"/>
<path d="M34.3006 61.8669V61.3457H33.9945H32.0586V61.8669H33.9945H34.3006Z" fill="white" stroke="white" stroke-width="0.05" stroke-miterlimit="10" stroke-linecap="square"/>
<path d="M36.543 61.8669H39.1242H39.4303L39.9929 61.3457H39.6785H37.1138L36.543 61.8669Z" fill="white" stroke="white" stroke-width="0.05" stroke-miterlimit="10" stroke-linecap="square"/>
<path d="M64.9946 61.8669H66.6079H67.2367V61.3457H66.6079H64.9946V61.8669Z" fill="white" stroke="white" stroke-width="0.05" stroke-miterlimit="10" stroke-linecap="square"/>
<path d="M88.7469 61.8669C88.689 61.6849 88.6145 61.5194 88.5483 61.3457H86.207C86.298 61.5112 86.389 61.6849 86.4635 61.8669H88.7469Z" fill="white" stroke="white" stroke-width="0.05" stroke-miterlimit="10" stroke-linecap="square"/>
<path d="M78.2483 61.3457C78.1739 61.5112 78.0994 61.6849 78.0332 61.8669H80.3249C80.3993 61.6849 80.4821 61.5112 80.5731 61.3457H78.24H78.2483Z" fill="white" stroke="white" stroke-width="0.05" stroke-miterlimit="10" stroke-linecap="square"/>
<path d="M102.836 61.8669H105.07C105.045 61.6849 105.012 61.5112 104.979 61.3457H102.712C102.737 61.4202 102.762 61.4946 102.778 61.5774C102.795 61.6601 102.819 61.7594 102.836 61.8669Z" fill="white" stroke="white" stroke-width="0.05" stroke-miterlimit="10" stroke-linecap="square"/>
<path d="M94.604 61.3457V61.8669H96.9784C97.0363 61.6849 97.1108 61.5112 97.2018 61.3457H94.5957H94.604Z" fill="white" stroke="white" stroke-width="0.05" stroke-miterlimit="10" stroke-linecap="square"/>
<path d="M87.9942 65.0688H86.687C86.687 65.2012 86.687 65.3336 86.687 65.4742H88.9208C88.9208 65.3667 88.9208 65.2509 88.9208 65.1433C88.9208 65.1185 88.9208 65.0937 88.9208 65.0688H87.9859H87.9942Z" fill="white" stroke="white" stroke-width="0.05" stroke-miterlimit="10" stroke-linecap="square"/>
<path d="M78.5957 65.0688V65.4742H79.4809C79.4809 65.3419 79.4809 65.2012 79.4727 65.0688H78.5957Z" fill="white" stroke="white" stroke-width="0.05" stroke-miterlimit="10" stroke-linecap="square"/>
<path d="M101.372 65.0688V65.4742H102.679H103.614V65.0688H102.679H101.372Z" fill="white" stroke="white" stroke-width="0.05" stroke-miterlimit="10" stroke-linecap="square"/>
<path d="M92.7759 65.0688V65.4742H94.083H95.0179V65.0688H94.083H92.7759Z" fill="white" stroke="white" stroke-width="0.05" stroke-miterlimit="10" stroke-linecap="square"/>
<path d="M73.772 62.8845H76.0305C76.0719 62.7108 76.1216 62.5453 76.1712 62.3799H73.8961C73.8464 62.5453 73.8051 62.7108 73.772 62.8845Z" fill="white" stroke="white" stroke-width="0.05" stroke-miterlimit="10" stroke-linecap="square"/>
<path d="M54.7521 64.0596L52.9568 64.2664C51.7489 64.4153 50.7727 64.5642 50.0198 64.7131C49.2669 64.8621 48.5637 65.1433 47.8936 65.557C47.24 65.9459 46.8098 66.4753 46.5864 67.1537H48.9857C49.2587 66.7814 49.6806 66.4836 50.2515 66.2685C50.7478 66.0865 51.6331 65.9045 52.9072 65.7307L54.7438 65.4743V67.162H56.9858V62.8848H54.7438V64.0596H54.7521Z" fill="white" stroke="white" stroke-width="0.05" stroke-miterlimit="10" stroke-linecap="square"/>
<path d="M57.5489 61.3457H55.2158C55.2655 61.5029 55.2986 61.6766 55.3234 61.8669H57.6068C57.5985 61.6849 57.582 61.5112 57.5571 61.3457H57.5489Z" fill="white" stroke="white" stroke-width="0.05" stroke-miterlimit="10" stroke-linecap="square"/>
<path d="M54.2969 62.3799C54.3134 62.4626 54.3465 62.5453 54.3465 62.6281V62.8845H56.4231V62.3799H54.2969Z" fill="white" stroke="white" stroke-width="0.05" stroke-miterlimit="10" stroke-linecap="square"/>
<path d="M63.8939 62.3799H61.6519V62.8845H63.8939V62.3799Z" fill="white" stroke="white" stroke-width="0.05" stroke-miterlimit="10" stroke-linecap="square"/>
<path d="M36.2283 61.8672L33.9945 63.9107V61.8672H32.0585H31.7524V67.162H33.9945V66.1279L35.1114 65.1434V65.0689H35.1941H37.6843L36.7826 64.0348L39.1239 61.8672H36.5426H36.2283Z" fill="white" stroke="white" stroke-width="0.05" stroke-miterlimit="10" stroke-linecap="square"/>
<path d="M36.2445 65.4742H38.7513L38.3955 65.0688H35.9136L36.2445 65.4742Z" fill="white" stroke="white" stroke-width="0.05" stroke-miterlimit="10" stroke-linecap="square"/>
<path d="M35.1113 65.0688V65.1433L35.1941 65.0688H35.1113Z" fill="white" stroke="white" stroke-width="0.05" stroke-miterlimit="10" stroke-linecap="square"/>
<path d="M11.7562 69.0317H9.51416V71.9439H11.7562V69.0317Z" fill="white" stroke="white" stroke-width="0.05" stroke-miterlimit="10" stroke-linecap="square"/>
<path d="M3.38365 69.0317H1.1416V71.9439H3.38365V69.0317Z" fill="white" stroke="white" stroke-width="0.05" stroke-miterlimit="10" stroke-linecap="square"/>
<path d="M20.5592 70.6119C19.8725 70.6119 19.3265 70.4134 18.9377 70.008C18.6812 69.7432 18.5075 69.4206 18.4165 69.0317H16.2075C16.3316 69.9418 16.6874 70.6698 17.2913 71.2241C18.0442 71.9108 18.9956 72.25 20.1373 72.25C20.9233 72.25 21.734 72.068 22.5531 71.7123C23.3804 71.3565 24.0505 70.9098 24.58 70.3803L24.8778 71.9439H26.7393V69.0317H24.3814C23.3059 70.0824 22.0319 70.6119 20.5675 70.6119H20.5592Z" fill="white" stroke="white" stroke-width="0.05" stroke-miterlimit="10" stroke-linecap="square"/>
<path d="M40.8285 71.9439H43.6331L41.1181 69.0317H38.4458L40.8285 71.9439Z" fill="white" stroke="white" stroke-width="0.05" stroke-miterlimit="10" stroke-linecap="square"/>
<path d="M33.9945 69.0317H31.7524V71.9439H33.9945V69.0317Z" fill="white" stroke="white" stroke-width="0.05" stroke-miterlimit="10" stroke-linecap="square"/>
<path d="M65.3749 70.6616C66.1443 71.5137 67.6914 71.9439 70.0162 71.9439H72.2831L72.4072 70.2231H69.9335C69.2302 70.2231 68.6677 70.1735 68.2623 70.0742C67.8486 69.9749 67.5177 69.7846 67.2612 69.4951C67.1371 69.3627 67.0379 69.2055 66.9551 69.04H64.6221C64.7875 69.7433 65.0357 70.2893 65.3749 70.6699V70.6616Z" fill="white" stroke="white" stroke-width="0.05" stroke-miterlimit="10" stroke-linecap="square"/>
<path d="M82.1032 70.5292C80.8043 70.5292 79.9025 70.0246 79.373 69.04H77.0317C77.2137 69.4454 77.4371 69.826 77.6853 70.1735C78.1569 70.8188 78.7608 71.3317 79.522 71.704C80.2748 72.0763 81.1352 72.2583 82.1115 72.2583C83.9233 72.2583 85.3629 71.6047 86.4218 70.2976C86.728 69.917 86.9927 69.4951 87.2078 69.0483H84.9078C84.2956 70.0411 83.3607 70.5375 82.1115 70.5375L82.1032 70.5292Z" fill="white" stroke="white" stroke-width="0.05" stroke-miterlimit="10" stroke-linecap="square"/>
<path d="M11.5081 67.1619H9.26611V69.0316H11.5081V67.1619Z" fill="white" stroke="white" stroke-width="0.05" stroke-miterlimit="10" stroke-linecap="square"/>
<path d="M3.1356 67.1619H0.893555V69.0316H3.1356V67.1619Z" fill="white" stroke="white" stroke-width="0.05" stroke-miterlimit="10" stroke-linecap="square"/>
<path d="M24.232 67.1619V68.9241C24.232 68.9241 24.1576 68.9985 24.1162 69.0316H26.4741V67.1619H24.232Z" fill="white" stroke="white" stroke-width="0.05" stroke-miterlimit="10" stroke-linecap="square"/>
<path d="M18.0938 68.3863C18.0938 67.9147 18.2261 67.5093 18.4743 67.1619H16.0751C15.9593 67.5093 15.9014 67.8899 15.9014 68.3118C15.9014 68.56 15.9179 68.8 15.951 69.0316H18.16C18.1103 68.8331 18.0855 68.618 18.0855 68.378L18.0938 68.3863Z" fill="white" stroke="white" stroke-width="0.05" stroke-miterlimit="10" stroke-linecap="square"/>
<path d="M33.7464 67.1619H31.5044V69.0316H33.7464V67.1619Z" fill="white" stroke="white" stroke-width="0.05" stroke-miterlimit="10" stroke-linecap="square"/>
<path d="M36.6587 67.1619L38.1892 69.0316H40.8615L39.2482 67.1619H36.6587Z" fill="white" stroke="white" stroke-width="0.05" stroke-miterlimit="10" stroke-linecap="square"/>
<path d="M48.357 68.3863C48.357 67.9147 48.4893 67.5093 48.7375 67.1619H46.3383C46.2225 67.5093 46.1646 67.8899 46.1646 68.3118C46.1646 68.56 46.1811 68.8 46.2142 69.0316H48.4231C48.3735 68.8331 48.3487 68.618 48.3487 68.378L48.357 68.3863Z" fill="white" stroke="white" stroke-width="0.05" stroke-miterlimit="10" stroke-linecap="square"/>
<path d="M54.504 67.1619V68.9241C54.504 68.9241 54.6364 69.0316 54.3882 69.0316H56.7461V67.1619H54.504Z" fill="white" stroke="white" stroke-width="0.05" stroke-miterlimit="10" stroke-linecap="square"/>
<path d="M66.3759 67.1619H64.1504C64.1669 67.4514 64.1835 67.7244 64.2083 67.9644C64.2414 68.3532 64.2993 68.709 64.3738 69.0316H66.7068C66.6075 68.8331 66.5414 68.618 66.4917 68.3698C66.4338 68.0471 66.3924 67.6417 66.3759 67.1619Z" fill="white" stroke="white" stroke-width="0.05" stroke-miterlimit="10" stroke-linecap="square"/>
<path d="M85.338 67.1619C85.2636 67.5093 85.1726 67.8485 85.0485 68.1877C84.9326 68.5021 84.8003 68.7834 84.6431 69.0316H86.943C87.216 68.4608 87.4229 67.8403 87.5553 67.1619H85.3298H85.338Z" fill="white" stroke="white" stroke-width="0.05" stroke-miterlimit="10" stroke-linecap="square"/>
<path d="M79.0506 68.9158C78.8024 68.4028 78.6121 67.8154 78.488 67.1619H76.1963C76.3204 67.8403 76.519 68.4608 76.7754 69.0316H79.1167C79.1167 69.0316 79.0754 68.9572 79.0506 68.9158Z" fill="white" stroke="white" stroke-width="0.05" stroke-miterlimit="10" stroke-linecap="square"/>
<path d="M94.1 67.1619H91.8579V69.0316H94.1V67.1619Z" fill="white" stroke="white" stroke-width="0.05" stroke-miterlimit="10" stroke-linecap="square"/>
<path d="M102.431 67.1619H100.188V69.0316H102.431V67.1619Z" fill="white" stroke="white" stroke-width="0.05" stroke-miterlimit="10" stroke-linecap="square"/>
<path d="M94.3558 69.0317H92.1138V70.2231H94.3558V69.0317Z" fill="white" stroke="white" stroke-width="0.05" stroke-miterlimit="10" stroke-linecap="square"/>
<path d="M102.679 69.0317H100.437V70.2231H102.679V69.0317Z" fill="white" stroke="white" stroke-width="0.05" stroke-miterlimit="10" stroke-linecap="square"/>
<path d="M102.679 70.4878H100.437V71.9439H102.679V70.4878Z" fill="white" stroke="white" stroke-width="0.05" stroke-miterlimit="10" stroke-linecap="square"/>
<path d="M91.8578 70.2312H89.6157V70.4877H91.8578V70.2312Z" fill="white" stroke="white" stroke-width="0.05" stroke-miterlimit="10" stroke-linecap="square"/>
<path d="M100.18 70.2312H97.938V70.4877H100.18V70.2312Z" fill="white" stroke="white" stroke-width="0.05" stroke-miterlimit="10" stroke-linecap="square"/>
<path d="M94.3558 70.4878H92.1138V71.9439H94.3558V70.4878Z" fill="white" stroke="white" stroke-width="0.05" stroke-miterlimit="10" stroke-linecap="square"/>
<path d="M103.085 9.72915C102.067 8.695 94.1165 9.72915 94.1165 9.72915C94.1165 9.72915 94.2654 23.14 93.8434 30.0647L81.6487 9.57196C81.6487 9.57196 77.2887 9.95253 74.5668 12.36C73.905 12.9392 74.1284 13.6258 73.8719 14.1967C75.9071 18.2837 77.0736 22.9994 77.0736 28.0212C77.0736 33.3906 75.7416 38.4041 73.4334 42.6896L72.7964 47.6205H82.4264L82.5009 29.2953C82.5009 29.2953 92.1143 46.4043 93.1733 47.1489C93.5787 47.4302 103.085 47.728 103.507 47.2813C104.019 46.727 104.259 10.937 103.076 9.73743L103.085 9.72915Z" fill="white"/>
<path d="M47.861 2.77173C34.4418 2.77173 23.5708 13.651 23.5708 27.0619C23.5708 40.4728 34.4501 51.352 47.861 51.352C61.2718 51.352 72.1511 40.4728 72.1511 27.0619C72.1511 13.651 61.2718 2.77173 47.861 2.77173ZM47.861 49.2176C35.6249 49.2176 25.7053 39.298 25.7053 27.0619C25.7053 14.8258 35.6249 4.90622 47.861 4.90622C60.097 4.90622 70.0166 14.8258 70.0166 27.0619C70.0166 39.298 60.097 49.2176 47.861 49.2176Z" fill="url(#paint0_linear_736_1092)"/>
<path d="M30.1975 34.5737C28.2947 30.0482 28.1127 24.803 30.1065 19.897C31.968 15.3302 35.3931 11.8637 39.5049 9.86987" stroke="url(#paint1_linear_736_1092)" stroke-width="0.47" stroke-miterlimit="10" stroke-linecap="round"/>
<path d="M55.0915 9.36523C64.8953 13.3612 69.611 24.5466 65.6233 34.3503C61.2302 45.1386 49.4326 48.4562 40.6382 44.8821" stroke="url(#paint2_linear_736_1092)" stroke-width="0.47" stroke-miterlimit="10" stroke-linecap="round"/>
<path d="M65.3997 8.86067C67.6831 6.90819 70.0906 5.09636 72.6553 3.51618C72.9779 3.32589 73.3089 3.13561 73.6481 2.96187C73.8218 2.87914 73.9873 2.79641 74.1775 2.73022C74.2686 2.69713 74.3678 2.66403 74.4837 2.65576C74.5167 2.65576 74.5498 2.65576 74.5829 2.65576C74.6243 2.67231 74.6822 2.69713 74.6988 2.73022C74.7484 2.79641 74.7649 2.86259 74.7649 2.9205C74.7401 3.37553 74.5333 3.68991 74.3596 4.02912C74.1775 4.36004 73.979 4.6827 73.7722 4.99708C72.9448 6.26288 72.0431 7.4625 71.133 8.65384C69.3129 11.0448 67.4101 13.3696 65.4741 15.6778C63.4968 17.9447 61.5444 20.2281 59.5009 22.4287L59.4678 22.4039C61.3458 20.0543 63.29 17.7709 65.1763 15.4296C67.0957 13.1214 69.0151 10.8131 70.8848 8.47183C71.8114 7.28876 72.7297 6.10569 73.5653 4.86471C73.7722 4.5586 73.9707 4.23595 74.161 3.91329C74.3347 3.59891 74.5333 3.24316 74.5499 2.93705C74.5499 2.89569 74.5498 2.87914 74.5333 2.87087H74.4919C74.4175 2.87087 74.3347 2.89569 74.252 2.92878C74.0783 2.98669 73.9128 3.06115 73.7473 3.14388C73.4164 3.30935 73.0855 3.49136 72.7628 3.67337C70.1816 5.19564 67.7493 6.97438 65.4328 8.87722L65.4079 8.84413L65.3997 8.86067Z" fill="url(#paint3_linear_736_1092)"/>
<path d="M47.8851 16.8938C47.9761 19.1689 47.6948 21.444 47.2315 23.6695C46.7682 25.895 46.0898 28.0957 45.0474 30.1226C42.9956 34.2179 39.827 37.6099 36.5756 40.7537C34.9458 42.3256 33.3656 43.9885 31.4959 45.3205C29.6509 46.6773 27.6074 47.7529 25.4812 48.5802C24.4057 48.969 23.3385 49.391 22.1389 49.4406C21.9899 49.4406 21.8327 49.4323 21.6673 49.3744C21.5845 49.3496 21.5018 49.3082 21.4274 49.2503C21.386 49.2255 21.3612 49.1759 21.3281 49.1428C21.2867 49.0849 21.2702 48.9856 21.2784 48.9442C21.3363 48.5885 21.4935 48.3651 21.6259 48.1003C21.9072 47.5957 22.2216 47.1158 22.536 46.6442C23.8266 44.7662 25.2579 42.9875 26.8794 41.3908L26.9042 41.4156C25.3654 43.0868 24.0003 44.8986 22.7428 46.7849C22.4367 47.2565 22.1306 47.7363 21.8741 48.2327C21.75 48.4726 21.6094 48.7539 21.5763 48.9525C21.5928 48.969 21.6011 48.9856 21.6259 49.0021C21.659 49.0269 21.7087 49.0518 21.7666 49.0683C21.8741 49.1014 22.0065 49.1097 22.1389 49.1097C23.2226 49.0435 24.2982 48.605 25.3406 48.2079C27.442 47.3888 29.4524 46.3299 31.2725 44.9979C33.1257 43.7073 34.7141 42.0774 36.3605 40.5138C39.6367 37.4031 42.8053 34.0607 44.8736 30.0151C45.9326 28.013 46.6193 25.8371 47.1157 23.6282C47.6038 21.4192 47.9099 19.1524 47.8437 16.8855H47.8851V16.8938Z" fill="url(#paint4_linear_736_1092)"/>
<path d="M56.1916 20.4928L47.8604 0L39.5376 20.4928L47.8108 14.4119L56.1916 20.4928Z" fill="white"/>
<path d="M10.5317 28.6252V22.4948C11.1687 22.1059 13.1377 21.4524 14.3042 21.138C15.0157 20.9477 15.901 20.7409 16.9269 20.683H19.4502C20.5505 16.3892 22.6271 12.8896 25.44 9.62994C25.4069 9.49757 25.3738 9.40656 25.3324 9.39002C23.4875 8.7778 15.992 9.39002 15.992 9.39002C14.3952 9.43966 10.1428 9.77886 6.01448 12.8234C2.49009 15.4212 0.248047 20.1535 0.248047 20.1535V47.7529H10.5399V34.6564H19.3426C18.8711 32.6626 18.6146 30.5943 18.5898 28.468C15.8017 28.4846 10.5399 28.6252 10.5399 28.6252H10.5317Z" fill="white"/>
<defs>
<linearGradient id="paint0_linear_736_1092" x1="23.5708" y1="27.0619" x2="72.1594" y2="27.0619" gradientUnits="userSpaceOnUse">
<stop stop-color="#0093F9"/>
<stop offset="0.09" stop-color="#0896F9"/>
<stop offset="0.23" stop-color="#1E9FF9" stop-opacity="0.99"/>
<stop offset="0.39" stop-color="#43AFFA" stop-opacity="0.97"/>
<stop offset="0.58" stop-color="#76C5FB" stop-opacity="0.95"/>
<stop offset="0.78" stop-color="#B7E0FD" stop-opacity="0.93"/>
<stop offset="0.98" stop-color="white" stop-opacity="0.9"/>
</linearGradient>
<linearGradient id="paint1_linear_736_1092" x1="34.0942" y1="34.764" x2="34.0942" y2="9.67959" gradientUnits="userSpaceOnUse">
<stop stop-color="#10B2F9" stop-opacity="0.8"/>
<stop offset="0.06" stop-color="#1FB7F9" stop-opacity="0.8"/>
<stop offset="0.16" stop-color="#49C4FA" stop-opacity="0.8"/>
<stop offset="0.3" stop-color="#8CDAFC" stop-opacity="0.8"/>
<stop offset="0.47" stop-color="#E9F7FE" stop-opacity="0.8"/>
<stop offset="0.5" stop-color="white" stop-opacity="0.8"/>
<stop offset="0.52" stop-color="#F2FAFE" stop-opacity="0.8"/>
<stop offset="0.65" stop-color="#A2E1FC" stop-opacity="0.8"/>
<stop offset="0.76" stop-color="#63CCFB" stop-opacity="0.8"/>
<stop offset="0.86" stop-color="#35BEF9" stop-opacity="0.8"/>
<stop offset="0.94" stop-color="#1AB5F9" stop-opacity="0.8"/>
<stop offset="0.99" stop-color="#10B2F9" stop-opacity="0.8"/>
</linearGradient>
<linearGradient id="paint2_linear_736_1092" x1="47.6975" y1="27.0503" x2="65.812" y2="34.4242" gradientUnits="userSpaceOnUse">
<stop stop-color="#0093F9" stop-opacity="0.8"/>
<stop offset="0.52" stop-color="white" stop-opacity="0.8"/>
<stop offset="0.97" stop-color="#0094F9" stop-opacity="0.8"/>
</linearGradient>
<linearGradient id="paint3_linear_736_1092" x1="56.9775" y1="18.2342" x2="77.0484" y2="6.64346" gradientUnits="userSpaceOnUse">
<stop stop-color="white"/>
<stop offset="0.22" stop-color="white"/>
<stop offset="0.38" stop-color="#C2E5FD" stop-opacity="0.98"/>
<stop offset="0.75" stop-color="#2CA6FA" stop-opacity="0.94"/>
<stop offset="0.85" stop-color="#0094F9" stop-opacity="0.93"/>
<stop offset="0.87" stop-color="#0094F9" stop-opacity="0.94"/>
<stop offset="1" stop-color="#0094F9"/>
</linearGradient>
<linearGradient id="paint4_linear_736_1092" x1="21.2453" y1="33.1672" x2="48.0671" y2="33.1672" gradientUnits="userSpaceOnUse">
<stop stop-color="#0094F9"/>
<stop offset="0.07" stop-color="#059DF9"/>
<stop offset="0.22" stop-color="#0DABFA"/>
<stop offset="0.35" stop-color="#10B0FB"/>
<stop offset="0.39" stop-color="#15B1FB"/>
<stop offset="0.44" stop-color="#24B6FB"/>
<stop offset="0.49" stop-color="#3EBFFB"/>
<stop offset="0.55" stop-color="#62CBFC"/>
<stop offset="0.61" stop-color="#8FDAFD"/>
<stop offset="0.67" stop-color="#C6ECFE"/>
<stop offset="0.72" stop-color="white"/>
</linearGradient>
</defs>
</svg>
