<svg width="53" height="70" viewBox="0 0 53 70" fill="none" xmlns="http://www.w3.org/2000/svg">
<path d="M21.5667 45.6718C21.5667 43.4318 21.8975 41.4999 22.6227 39.7198C24.5 35.1119 27.5 32.9999 29 31.4999C36.5 23.9999 36.5 23.9999 36.5427 20.9038C36.5896 17.5002 33.8493 13.2238 26.1747 13.2238C18.5 13.2238 13.7907 18.0878 12.2547 20.3278L0.638672 13.5118C3.19867 9.60783 6.64627 6.28518 11.2947 4.19983C24 -1.5 35.9168 0.921301 40.4787 2.75982C51 7.00012 51.8925 13.5001 52.1907 18.4078C52.5 23.4999 49.9659 27.8201 48.0627 30.0238C46.1595 32.2276 44.0307 33.9649 40.2867 37.5118C36.5427 41.0588 36.0627 43.9438 36.0627 45.6718H21.5667ZM28.8627 69.7678C23.9036 69.7678 19.5917 65.9906 19.6467 61.0318C19.7011 56.1243 23.9549 52.4878 28.8627 52.4878C33.7705 52.4878 38.0243 56.1243 38.0787 61.0318C38.1337 65.9906 33.8217 69.7678 28.8627 69.7678Z" fill="white"/>
</svg>
