<svg width="426" height="426" viewBox="0 0 426 426" fill="none" xmlns="http://www.w3.org/2000/svg">
<g clip-path="url(#clip0_2615_21)">
<path d="M98.8891 243.5C103.189 243.75 107.599 243.95 112.049 244.07V167.51H125.069V155.13H85.8691V167.51H98.8891V243.5Z" fill="#ED1C2B"/>
<path d="M157.239 242.79L159.579 232.15H145.939V155.28H132.779V244.2C141.239 243.95 149.529 243.44 157.239 242.79Z" fill="#ED1C2B"/>
<path d="M176.609 240.81L179.439 224.53H193.629L195.999 238.13C198.579 237.72 200.009 237.47 200.009 237.47C200.009 237.47 203.389 236.87 209.149 236.02L192.349 155.27H180.739L162.629 242.31C167.639 241.84 172.339 241.32 176.609 240.81ZM186.539 183.01L191.569 212.16H181.509L186.539 183.01Z" fill="#ED1C2B"/>
<path d="M229.859 233.43V192.55L244.369 232.05C249.319 231.65 254.489 231.3 259.789 231.05V155.28H246.629V207L228.439 155.28H216.699V235.03C220.579 234.51 225.009 233.96 229.859 233.43Z" fill="#ED1C2B"/>
<path d="M280.44 230.59C284.85 230.62 289.26 230.73 293.6 230.91V167.66H306.62V155.28H267.42V167.66H280.44V230.59Z" fill="#ED1C2B"/>
<path d="M327.48 233.45V155.27H314.32V232.17C318.95 232.57 323.36 233 327.48 233.45Z" fill="#ED1C2B"/>
<path d="M356.769 237.47C356.769 237.47 364.099 238.77 375.569 240.24C380.049 235.94 382.669 229.36 382.669 221.42V214.84H369.509V221.03C369.509 228.77 366.539 233.28 361.509 233.28C356.479 233.28 353.509 228.77 353.509 221.03V178.98C353.509 171.24 356.479 166.73 361.509 166.73C366.409 166.73 369.509 171.24 369.509 178.98V183.88H382.669V178.59C382.669 164.53 374.029 154.34 361.519 154.34C348.879 154.34 340.369 164.27 340.369 178.59V221.41C340.369 226.82 341.589 231.6 343.779 235.46C351.859 236.6 356.769 237.47 356.769 237.47Z" fill="#ED1C2B"/>
<path d="M44.2895 237.34C44.2895 237.34 48.5695 238.1 55.7095 239.12L58.2695 224.41H72.4595L75.4495 241.56C79.8295 242.02 84.5195 242.47 89.4195 242.85L71.1695 155.14H59.5595L42.5195 237.03C43.6695 237.23 44.2895 237.34 44.2895 237.34ZM65.3695 182.87L70.3995 212.02H60.3395L65.3695 182.87Z" fill="#ED1C2B"/>
<path d="M232.259 269.64C230.759 270.36 228.419 270.84 226.159 270.84C219.399 270.84 216.699 267.24 216.699 259.22C216.699 251.05 219.639 247.57 226.309 247.57C228.229 247.57 230.369 247.96 231.839 248.59L231.449 252.1C230.039 251.5 228.269 251.14 226.519 251.14C222.279 251.14 220.749 252.88 220.749 259.19C220.749 265.47 222.189 267.21 226.069 267.21C227.089 267.21 227.989 267.09 228.799 266.82V258.35H232.249V269.64H232.259Z" fill="#5D6770"/>
<path d="M251.95 260.63L256.97 270.45H252.49L248.43 261.38H245.13V270.45H241.26V247.92H248.35C253.28 247.92 255.65 249.96 255.65 254.62C255.64 257.95 254.35 260.03 251.95 260.63ZM248.4 251.35H245.13V258.29H248.31C250.65 258.29 251.64 257.51 251.64 254.78C251.65 252.16 250.69 251.35 248.4 251.35Z" fill="#5D6770"/>
<path d="M280.29 262.82C280.29 268.29 277.53 270.84 272.3 270.84C267.07 270.84 264.25 268.29 264.25 262.82V247.92H268.12V262.76C268.12 265.82 269.41 267.15 272.3 267.15C275.18 267.15 276.45 265.86 276.45 262.76V247.92H280.29V262.82Z" fill="#5D6770"/>
<path d="M296.7 262.43H293.55V270.45H289.68V247.92H296.71C302.18 247.92 304.43 250.08 304.43 255.25C304.42 260.03 302.23 262.43 296.7 262.43ZM296.7 251.35H293.52V259.16H296.7C299.28 259.16 300.45 258.41 300.45 255.23C300.45 252.25 299.4 251.35 296.7 251.35Z" fill="#5D6770"/>
<path d="M321.68 265.55H313.75L312.43 270.45H308.34L315.43 247.92H320.15L327.33 270.45H323L321.68 265.55ZM317.15 253.27L314.69 262.13H320.79L318.42 253.27L317.85 250.9H317.76L317.15 253.27Z" fill="#5D6770"/>
</g>
<defs>
<clipPath id="clip0_2615_21">
<rect width="425.2" height="425.2" fill="white"/>
</clipPath>
</defs>
</svg>
