<svg width="842" height="596" viewBox="0 0 842 596" fill="none" xmlns="http://www.w3.org/2000/svg">
<g clip-path="url(#clip0_2615_63)">
<path d="M386.351 427.906C385.966 427.906 384.367 427.863 381.585 427.82H378.688L376.976 427.806C376.562 427.806 376.319 427.792 376.219 427.735C376.105 427.692 376.062 427.578 376.062 427.421C376.062 427.178 376.248 427.035 376.633 427.035C377.361 427.035 377.875 426.921 378.231 426.664C378.56 426.422 378.774 425.951 378.874 425.309C378.959 424.652 379.031 423.325 379.102 421.356C379.173 419.373 379.216 417.56 379.216 415.905C379.216 413.565 379.102 412.124 378.874 411.61C378.66 411.054 378.089 410.768 377.204 410.74C376.876 410.711 376.719 410.568 376.719 410.34C376.719 410.098 376.862 409.983 377.147 409.983C377.304 409.983 377.875 410.04 378.845 410.14C379.915 410.226 380.672 410.269 381.085 410.269L386.094 410.14C387.763 410.14 389.376 410.454 390.931 411.096C392.487 411.724 393.714 412.78 394.627 414.236C395.54 415.691 395.997 417.346 395.997 419.173C395.997 420.543 395.726 421.813 395.198 423.011C394.656 424.182 393.899 425.166 392.872 425.965C391.859 426.779 390.86 427.307 389.847 427.563C388.862 427.777 387.692 427.906 386.351 427.906ZM385.452 426.95C387.293 426.95 388.748 426.308 389.818 425.009C390.888 423.711 391.431 421.856 391.431 419.43C391.431 416.975 390.846 414.963 389.69 413.38C388.534 411.781 386.893 410.982 384.767 410.982C384.053 410.982 383.597 411.025 383.468 411.111C383.297 411.182 383.211 411.282 383.183 411.353C383.154 411.439 383.097 412.452 383.026 414.336L382.869 418.83C382.855 419.944 382.841 421.313 382.841 422.954C382.841 424.182 382.898 425.038 383.012 425.48C383.112 425.951 383.354 426.308 383.711 426.579C384.053 426.85 384.638 426.95 385.452 426.95Z" fill="#939598"/>
<path d="M427.619 418.716C428.818 418.887 429.803 419.244 430.573 419.8C431.358 420.343 431.929 421.456 432.328 423.082C432.671 424.624 433.042 425.651 433.47 426.136C433.884 426.607 434.483 426.878 435.225 426.921C435.653 426.949 435.867 427.078 435.867 427.32C435.867 427.592 435.525 427.72 434.854 427.72L429.746 427.577C429.218 427.035 428.847 426.093 428.661 424.738C428.418 422.997 428.162 421.77 427.891 421.056C427.634 420.343 427.22 419.829 426.692 419.515C426.15 419.215 425.55 419.073 424.851 419.073C424.651 419.073 424.366 419.073 424.023 419.116C424.023 422.241 424.024 424.167 424.052 424.895C424.081 425.608 424.209 426.136 424.48 426.45C424.751 426.764 425.265 426.935 426.021 426.964C426.392 427.007 426.606 427.135 426.606 427.378C426.606 427.62 426.435 427.734 426.078 427.734L422.04 427.592C421.498 427.592 420.799 427.62 419.942 427.663C419.172 427.706 418.658 427.734 418.458 427.734C418.087 427.734 417.916 427.606 417.916 427.349C417.916 427.092 418.073 426.964 418.387 426.964C418.872 426.964 419.329 426.864 419.743 426.607C420.156 426.364 420.37 425.308 420.37 423.453L420.356 420.999L420.37 416.233C420.37 413.779 420.256 412.28 420.042 411.738C419.828 411.196 419.257 410.911 418.33 410.896C417.973 410.882 417.773 410.768 417.773 410.511C417.773 410.268 418.002 410.14 418.515 410.14C420.998 410.14 423.11 410.097 424.808 409.983C425.579 409.912 426.278 409.897 426.892 409.897C428.889 409.897 430.459 410.297 431.586 411.096C432.714 411.895 433.284 412.937 433.284 414.221C433.284 415.077 433.028 415.876 432.471 416.547C431.943 417.218 431.258 417.746 430.459 418.074C429.646 418.416 428.704 418.616 427.619 418.716ZM424.023 418.159C424.252 418.174 424.423 418.174 424.537 418.174C425.308 418.174 426.078 418.017 426.863 417.746C427.634 417.46 428.19 417.004 428.518 416.362C428.832 415.734 429.004 415.063 429.004 414.35C429.004 413.251 428.675 412.38 428.019 411.767C427.363 411.139 426.535 410.839 425.493 410.839C425.065 410.839 424.58 410.925 424.023 411.096V418.159Z" fill="#939598"/>
<path d="M465.59 409.897C467.374 409.897 468.929 410.254 470.27 410.968C471.597 411.681 472.682 412.723 473.481 414.064C474.294 415.42 474.694 416.889 474.694 418.488C474.694 420.956 473.781 423.14 471.926 425.052C470.071 426.949 467.802 427.906 465.076 427.906C462.593 427.906 460.467 427.121 458.712 425.551C456.943 423.981 456.072 421.855 456.072 419.158C456.072 416.618 456.985 414.449 458.798 412.623C460.638 410.811 462.893 409.897 465.59 409.897ZM470.228 418.901C470.228 416.233 469.771 414.207 468.872 412.866C467.959 411.524 466.789 410.839 465.39 410.839C464.006 410.839 462.836 411.524 461.923 412.866C461.009 414.221 460.539 416.233 460.539 418.901C460.539 421.47 460.995 423.453 461.866 424.852C462.736 426.279 463.906 426.95 465.39 426.95C466.703 426.95 467.83 426.322 468.786 425.052C469.757 423.767 470.228 421.727 470.228 418.901Z" fill="#939598"/>
<path d="M514.463 411.453L514.834 415.306C514.849 415.477 514.863 415.634 514.863 415.734C514.863 416.02 514.749 416.148 514.506 416.148C514.292 416.148 514.121 416.005 513.964 415.677C513.279 414.25 512.38 413.066 511.253 412.181C510.125 411.282 508.841 410.826 507.371 410.826C505.488 410.826 504.004 411.61 502.948 413.194C501.878 414.778 501.35 416.648 501.35 418.802C501.35 421.214 501.949 423.169 503.119 424.696C504.289 426.237 505.673 426.993 507.257 426.993C507.928 426.993 508.599 426.85 509.312 426.522C510.011 426.208 510.468 425.88 510.653 425.509C510.853 425.152 510.953 424.639 510.953 423.968C510.953 422.484 510.882 421.556 510.782 421.2C510.653 420.829 510.468 420.572 510.183 420.429C509.911 420.286 509.355 420.158 508.513 420.058C508.185 420.029 508.028 419.915 508.028 419.701C508.028 419.444 508.185 419.316 508.484 419.316H510.482L516.575 419.188C516.861 419.188 516.989 419.302 516.989 419.53C516.989 419.658 516.932 419.758 516.832 419.801C516.732 419.858 516.361 419.944 515.719 420.058C515.234 420.186 514.934 420.329 514.806 420.543C514.677 420.757 514.563 422.07 514.492 424.524C514.478 425.067 514.463 425.366 514.435 425.423C514.421 425.495 513.907 425.794 512.879 426.322C511.852 426.865 510.796 427.264 509.712 427.535C508.613 427.778 507.543 427.92 506.472 427.92C504.66 427.92 503.034 427.549 501.607 426.85C500.194 426.137 499.038 425.138 498.168 423.825C497.311 422.527 496.869 420.971 496.869 419.173C496.869 416.633 497.74 414.436 499.48 412.581C501.236 410.74 503.633 409.812 506.658 409.812C507.728 409.812 508.699 409.955 509.569 410.198C510.439 410.455 511.41 410.826 512.523 411.311C512.751 411.411 512.922 411.453 513.094 411.453C513.265 411.453 513.407 411.325 513.522 411.068C513.636 410.74 513.793 410.569 514.007 410.569C514.264 410.612 514.421 410.897 514.463 411.453Z" fill="#939598"/>
<path d="M552.776 410.226C553.047 411.61 553.332 412.994 553.603 414.364C553.603 414.621 553.475 414.749 553.232 414.749C553.104 414.749 552.947 414.635 552.79 414.378C551.862 413.051 551.035 412.195 550.278 411.767C549.508 411.353 548.409 411.139 546.982 411.139C546.183 411.139 545.398 411.196 544.656 411.339C544.499 412.894 544.414 414.606 544.414 416.447C544.414 416.761 544.428 417.303 544.442 418.045L545.455 418.06C546.083 418.06 546.625 417.974 547.082 417.803C547.539 417.632 547.924 417.261 548.238 416.69C548.566 416.148 548.723 415.791 548.78 415.634C548.866 415.363 549.008 415.22 549.208 415.22C549.465 415.22 549.593 415.32 549.593 415.548C549.593 415.605 549.579 415.662 549.565 415.748C549.451 416.305 549.408 417.931 549.408 420.642C549.408 421.013 549.436 421.356 549.522 421.67C549.536 421.755 549.536 421.827 549.536 421.898C549.536 422.141 549.379 422.269 549.108 422.269C548.909 422.269 548.752 422.041 548.637 421.57C548.466 420.742 548.067 420.114 547.439 419.701C546.811 419.273 545.826 419.044 544.471 419.03C544.428 420.514 544.414 421.499 544.414 421.955C544.414 423.981 544.428 425.166 544.499 425.551C544.556 425.936 544.77 426.25 545.17 426.464C545.555 426.707 546.212 426.821 547.139 426.821C550.492 426.821 552.718 425.751 553.774 423.61C553.931 423.311 554.088 423.154 554.26 423.154C554.516 423.154 554.645 423.268 554.645 423.468C554.645 423.61 554.616 423.796 554.574 424.01L553.703 427.806L548.937 427.791C547.596 427.791 546.34 427.749 545.17 427.706C544 427.649 543.087 427.62 542.416 427.62C541.688 427.62 540.575 427.663 539.077 427.749C538.891 427.763 538.763 427.777 538.663 427.777C538.249 427.777 538.035 427.62 538.035 427.349C538.035 427.078 538.206 426.95 538.535 426.95C539.376 426.95 539.947 426.721 540.233 426.279C540.518 425.808 540.675 424.866 540.675 423.439L540.746 416.618C540.746 414.292 540.704 412.866 540.661 412.338C540.604 411.81 540.461 411.453 540.204 411.267C539.962 411.082 539.505 410.925 538.834 410.825C538.549 410.796 538.406 410.682 538.406 410.468C538.406 410.197 538.577 410.083 538.891 410.083L542.088 410.169L552.776 410.226Z" fill="#939598"/>
<path d="M585.512 418.716C586.725 418.887 587.695 419.244 588.48 419.8C589.251 420.343 589.821 421.456 590.221 423.082C590.578 424.624 590.934 425.651 591.377 426.136C591.791 426.607 592.376 426.878 593.132 426.921C593.56 426.949 593.76 427.078 593.76 427.32C593.76 427.592 593.417 427.72 592.761 427.72L587.638 427.577C587.124 427.035 586.753 426.093 586.568 424.738C586.325 422.997 586.054 421.77 585.783 421.056C585.526 420.343 585.141 419.829 584.599 419.515C584.056 419.215 583.457 419.073 582.744 419.073C582.544 419.073 582.273 419.073 581.916 419.116C581.916 422.241 581.93 424.167 581.959 424.895C581.973 425.608 582.116 426.136 582.387 426.45C582.658 426.764 583.157 426.935 583.899 426.964C584.313 427.007 584.513 427.135 584.513 427.378C584.513 427.62 584.342 427.734 583.985 427.734L579.933 427.592C579.39 427.592 578.691 427.62 577.835 427.663C577.064 427.706 576.565 427.734 576.351 427.734C575.994 427.734 575.809 427.606 575.809 427.349C575.809 427.092 575.966 426.964 576.294 426.964C576.779 426.964 577.236 426.864 577.649 426.607C578.063 426.364 578.277 425.308 578.277 423.453L578.263 420.999L578.277 416.233C578.277 413.779 578.177 412.28 577.949 411.738C577.735 411.196 577.164 410.911 576.223 410.896C575.852 410.882 575.666 410.768 575.666 410.511C575.666 410.268 575.909 410.14 576.408 410.14C578.891 410.14 580.989 410.097 582.715 409.983C583.471 409.912 584.171 409.897 584.784 409.897C586.782 409.897 588.352 410.297 589.479 411.096C590.606 411.895 591.177 412.937 591.177 414.221C591.177 415.077 590.906 415.876 590.378 416.547C589.836 417.218 589.165 417.746 588.352 418.074C587.538 418.416 586.596 418.616 585.512 418.716ZM581.916 418.159C582.144 418.174 582.316 418.174 582.43 418.174C583.2 418.174 583.971 418.017 584.756 417.746C585.54 417.46 586.083 417.004 586.411 416.362C586.739 415.734 586.896 415.063 586.896 414.35C586.896 413.251 586.568 412.38 585.926 411.767C585.255 411.139 584.413 410.839 583.386 410.839C582.943 410.839 582.458 410.925 581.916 411.096V418.159Z" fill="#939598"/>
<path d="M615.306 410.098C615.62 410.098 616.248 410.112 617.204 410.169C617.946 410.212 618.516 410.226 618.944 410.226L623.011 410.098C623.354 410.098 623.525 410.198 623.525 410.426C623.525 410.64 623.368 410.768 623.054 410.797C622.355 410.868 621.898 411.011 621.67 411.196C621.427 411.382 621.256 411.824 621.128 412.509C620.999 413.208 620.928 414.764 620.928 417.204C620.928 419.986 620.971 422.141 621.056 423.654C621.142 425.195 621.342 426.137 621.599 426.493C621.87 426.85 622.312 427.021 622.954 427.021C623.382 427.021 623.611 427.135 623.611 427.364C623.611 427.663 623.368 427.835 622.911 427.835C622.783 427.835 622.569 427.835 622.312 427.82C620.643 427.692 619.515 427.649 618.887 427.649C617.546 427.649 616.547 427.678 615.919 427.749C615.591 427.778 615.349 427.792 615.206 427.792C614.878 427.792 614.721 427.649 614.721 427.406C614.721 427.207 614.849 427.064 615.134 427.036C615.891 426.95 616.404 426.736 616.647 426.422C616.918 426.079 617.075 425.323 617.118 424.096C617.175 422.869 617.204 420.971 617.204 418.402C617.204 415.677 617.147 413.865 617.061 412.952C616.975 412.024 616.804 411.468 616.576 411.253C616.347 411.039 615.919 410.925 615.306 410.854C614.963 410.84 614.792 410.711 614.792 410.44C614.821 410.198 614.978 410.098 615.306 410.098Z" fill="#939598"/>
<path d="M659.399 410.226C659.67 411.61 659.956 412.994 660.227 414.364C660.227 414.621 660.098 414.749 659.842 414.749C659.713 414.749 659.556 414.635 659.385 414.378C658.472 413.051 657.63 412.195 656.873 411.767C656.117 411.353 655.018 411.139 653.592 411.139C652.792 411.139 652.022 411.196 651.266 411.339C651.109 412.894 651.037 414.606 651.037 416.447C651.037 416.761 651.037 417.303 651.066 418.045L652.065 418.06C652.707 418.06 653.249 417.974 653.691 417.803C654.148 417.632 654.533 417.261 654.833 416.69C655.147 416.148 655.332 415.791 655.375 415.634C655.461 415.363 655.603 415.22 655.803 415.22C656.046 415.22 656.174 415.32 656.174 415.548C656.174 415.605 656.16 415.662 656.146 415.748C656.032 416.305 655.974 417.931 655.974 420.642C655.974 421.013 656.017 421.356 656.089 421.67C656.117 421.755 656.132 421.827 656.132 421.898C656.132 422.141 655.975 422.269 655.689 422.269C655.489 422.269 655.347 422.041 655.247 421.57C655.061 420.742 654.647 420.114 654.034 419.701C653.406 419.273 652.421 419.044 651.066 419.03C651.023 420.514 651.009 421.499 651.009 421.955C651.009 423.981 651.037 425.166 651.094 425.551C651.151 425.936 651.38 426.25 651.779 426.464C652.165 426.707 652.821 426.821 653.748 426.821C657.102 426.821 659.314 425.751 660.355 423.61C660.512 423.311 660.683 423.154 660.855 423.154C661.126 423.154 661.24 423.268 661.24 423.468C661.24 423.61 661.211 423.796 661.169 424.01L660.298 427.806L655.518 427.791C654.177 427.791 652.907 427.749 651.751 427.706C650.581 427.649 649.667 427.62 649.011 427.62C648.269 427.62 647.156 427.663 645.672 427.749C645.486 427.763 645.344 427.777 645.272 427.777C644.844 427.777 644.645 427.62 644.645 427.349C644.645 427.078 644.802 426.95 645.13 426.95C645.972 426.95 646.542 426.721 646.842 426.279C647.113 425.808 647.27 424.866 647.27 423.439L647.341 416.618C647.341 414.292 647.313 412.866 647.27 412.338C647.199 411.81 647.056 411.453 646.814 411.267C646.571 411.082 646.1 410.925 645.444 410.825C645.158 410.796 645.03 410.682 645.03 410.468C645.03 410.197 645.187 410.083 645.515 410.083L648.697 410.169L659.399 410.226Z" fill="#939598"/>
<path d="M419.785 372.041C414.748 376.964 408.427 379.433 400.821 379.433C393.201 379.433 386.923 376.95 382.014 372.041C377.105 367.118 374.637 360.825 374.637 353.191V178.904C374.637 171.255 377.105 164.977 382.014 160.054C386.923 155.116 393.201 152.662 400.821 152.662C408.641 152.662 415.005 155.074 419.928 159.911C424.851 164.734 427.305 171.07 427.305 178.904V353.191C427.305 360.825 424.794 367.118 419.785 372.041Z" fill="#009BDF"/>
<path d="M466.862 211.324C458.229 211.324 450.894 208.327 444.872 202.291C438.851 196.27 435.84 188.949 435.84 180.302C435.84 171.669 438.851 164.349 444.872 158.313C450.894 152.305 458.229 149.28 466.862 149.28C475.495 149.28 482.815 152.305 488.851 158.313C494.873 164.335 497.898 171.669 497.898 180.302C497.898 188.949 494.887 196.27 488.851 202.291C482.815 208.327 475.495 211.324 466.862 211.324ZM485.854 372.027C480.846 376.964 474.524 379.447 466.905 379.447C459.285 379.447 453.006 376.964 448.097 372.027C443.189 367.104 440.734 360.811 440.734 353.148V239.863C440.734 232.214 443.174 225.922 448.097 220.984C453.006 216.061 459.285 213.593 466.905 213.593C474.724 213.593 481.088 216.004 486.011 220.842C490.906 225.679 493.389 232.029 493.389 239.877V353.163C493.374 360.811 490.877 367.09 485.854 372.027Z" fill="#009BDF"/>
<path d="M552.22 372.041C547.197 376.964 540.876 379.433 533.256 379.433C525.651 379.433 519.372 376.95 514.463 372.041C509.54 367.118 507.086 360.825 507.086 353.191V178.904C507.086 171.255 509.54 164.977 514.463 160.054C519.372 155.116 525.651 152.662 533.256 152.662C541.076 152.662 547.454 155.074 552.363 159.911C557.286 164.734 559.755 171.07 559.755 178.904V353.191C559.74 360.825 557.229 367.118 552.22 372.041Z" fill="#009BDF"/>
<path d="M618.287 372.041C613.264 376.964 606.942 379.433 599.323 379.433C591.703 379.433 585.438 376.95 580.515 372.041C575.607 367.118 573.152 360.825 573.152 353.191V178.904C573.152 171.255 575.607 164.977 580.515 160.054C585.438 155.116 591.703 152.662 599.323 152.662C607.142 152.662 613.506 155.074 618.429 159.911C623.338 164.734 625.792 171.07 625.792 178.904V353.191C625.807 360.825 623.31 367.118 618.287 372.041Z" fill="#009BDF"/>
<path d="M728.732 377.421C723.082 378.762 717.103 379.433 710.839 379.433C690.405 379.433 673.367 372.626 659.711 359.042C646.041 345.443 639.234 328.476 639.234 308.128V239.863C639.234 232.214 641.689 225.922 646.597 220.984C651.492 216.061 657.77 213.593 665.39 213.593C673.224 213.593 679.574 216.004 684.497 220.856C689.406 225.693 691.874 232.057 691.874 239.92V308.328C691.874 313.579 693.644 317.96 697.197 321.499C700.75 325.023 705.174 326.793 710.453 326.793C715.719 326.793 720.1 325.023 723.538 321.499C726.977 317.96 728.718 313.579 728.718 308.328V239.92C728.718 232.257 731.23 225.95 736.238 220.999C741.247 216.061 747.568 213.593 755.202 213.593C762.822 213.593 769.087 216.061 773.995 220.984C778.918 225.936 781.387 232.229 781.387 239.877V374.667C781.387 394.815 774.523 411.739 760.853 425.452C747.169 439.15 730.274 446 710.139 446H708.927C701.292 446 694.942 443.531 689.92 438.594C684.882 433.671 682.371 427.364 682.371 419.715C682.371 412.053 684.911 405.703 689.991 400.666C695.071 395.643 701.478 393.131 709.212 393.131H710.439C714.92 393.131 718.929 391.604 722.483 388.594C726.036 385.568 728.119 381.844 728.732 377.421Z" fill="#009BDF"/>
<path d="M234.253 378.505C255.086 377.021 305.928 361.467 324.108 350.437C332.983 345.057 347.11 332.714 338.72 315.776C331.728 301.678 315.318 302.905 305.229 305.36C284.567 310.425 236.622 334.284 221.838 349.053C202.86 368.031 211.807 380.075 234.253 378.505Z" fill="#009BDF"/>
<path d="M219.611 342.789C232.625 326.436 255.556 278.476 259.723 257.614C261.763 247.44 262.234 228.69 244.083 223.425C228.972 219.016 218.769 231.944 213.761 241.033C203.501 259.669 188.632 311.125 189.531 332.001C190.673 358.828 205.584 360.383 219.611 342.789Z" fill="#FFD400"/>
<path d="M183.412 329.404C180.187 308.771 160.366 259.427 147.824 242.246C141.716 233.856 128.217 220.828 112.05 230.631C98.6081 238.793 101.205 255.046 104.516 264.878C111.308 285.026 139.148 330.789 155.115 344.245C175.635 361.554 186.893 351.65 183.412 329.404Z" fill="#009BDF"/>
<path d="M149.064 347.027C131.684 335.44 81.9549 316.647 60.8075 314.264C50.505 313.108 31.7691 314.236 28.0448 332.757C24.9626 348.168 38.7041 357.258 48.1933 361.482C67.6283 370.101 120.169 380.56 140.874 377.906C167.5 374.496 167.8 359.498 149.064 347.027Z" fill="#009BDF"/>
</g>
<defs>
<clipPath id="clip0_2615_63">
<rect width="841.89" height="595.27" fill="white"/>
</clipPath>
</defs>
</svg>
