<svg width="567" height="187" viewBox="0 0 567 187" fill="none" xmlns="http://www.w3.org/2000/svg">
<path d="M15.5 20.7598V167.38H162.12V20.7598H15.5ZM153.05 29.4498C150.88 43.8898 138.48 59.6198 125.39 76.1798C121.04 81.6798 116.65 87.3898 112.34 93.2298C109.94 83.0498 107.14 73.1698 110.6 63.0498C113.53 54.4698 122.93 48.5498 122.93 48.5498C119.74 46.0898 117.72 43.2998 114.33 37.4498C112.82 34.8498 111.23 32.0198 109.07 29.4498H153.05ZM68.9 29.4498C64.98 33.7698 62.27 39.7998 61.91 47.7298C61.75 51.2098 61.73 54.9498 61.71 58.8998C61.66 68.6498 61.56 77.7798 59.27 85.1798C56.91 82.1298 54.54 79.1398 52.22 76.1898C39.13 59.6198 26.74 43.8998 24.56 29.4498H68.9ZM24.19 158.68V124.73C28.99 132.78 35.33 140.8 42.13 149.38C44.52 152.39 46.96 155.49 49.41 158.68H24.19ZM60.34 158.68C56.47 153.5 52.65 148.65 48.95 143.98C35.12 126.54 24.2 112.76 24.2 97.2398V52.1698C29.8 61.8098 37.48 71.5498 45.41 81.5798C63.04 103.89 82.87 129.07 84.33 158.68H60.34ZM93.02 158.68C91.94 133.78 79.5 112.43 65.39 93.2698C70.21 83.5098 70.33 71.5998 70.4 58.9398C70.42 55.0798 70.44 51.4298 70.59 48.1198C71.01 38.8198 76.15 28.7798 88.58 28.7798C99.27 28.7798 102.84 33.6498 106.7 41.5998C108.07 44.4198 110.03 46.7598 112.23 48.5498C108.48 50.7198 104 54.9198 102.19 60.8498C98.34 73.4498 101.52 85.0598 104.1 96.1398C108.35 114.41 112.26 132.82 93.17 158.68H93.02ZM153.42 158.68H128.19C130.76 155.35 133.31 152.1 135.79 148.97C142.46 140.56 148.69 132.69 153.42 124.77V158.68ZM153.42 97.2498C153.42 112.76 142.63 126.35 128.98 143.57C125.19 148.35 121.26 153.34 117.28 158.69H103.07C117.78 136.86 117.6 119.7 114.82 104.61C120.35 96.6398 126.38 88.9798 132.22 81.5898C140.14 71.5598 147.83 61.8198 153.43 52.1798V97.2498H153.42ZM88.81 41.7898C85.92 41.7898 83.58 44.1298 83.58 47.0198C83.58 49.9098 85.92 52.2498 88.81 52.2498C91.7 52.2498 94.04 49.9098 94.04 47.0198C94.04 44.1298 91.7 41.7898 88.81 41.7898Z" fill="#9EACB2"/>
<g opacity="0.4">
<path d="M222.72 50.3491L222.67 30.3191L212.74 46.8991H210.23L200.3 30.5791V50.3591H195V20.1191H199.62L211.58 40.1091L223.41 20.1191H227.98L228.07 50.3491H222.72Z" fill="#9EACB2"/>
<path d="M262.481 20.1191L249.351 44.5191C248.201 46.6791 246.831 48.2991 245.231 49.3791C243.631 50.4591 241.901 50.9991 240.031 50.9991C238.541 50.9991 237.051 50.6791 235.581 50.0491L236.961 45.6491C238.141 46.0191 239.121 46.2091 239.891 46.2091C241.701 46.2091 243.201 45.2691 244.381 43.3991L244.861 42.6691L232.811 20.1291H238.811L247.751 37.8791L256.951 20.1291H262.481V20.1191Z" fill="#9EACB2"/>
<path d="M286.819 37.3796C287.839 38.6596 288.359 40.1696 288.359 41.8896C288.359 43.6996 287.769 45.2796 286.589 46.6196C285.409 47.9596 283.829 48.9896 281.859 49.7096C279.889 50.4296 277.739 50.7896 275.409 50.7896C273.389 50.7896 271.369 50.5096 269.339 49.9496C267.309 49.3896 265.429 48.5496 263.699 47.4196L265.509 43.3196C266.829 44.2096 268.299 44.8996 269.909 45.3696C271.519 45.8496 273.119 46.0796 274.699 46.0796C276.969 46.0796 278.869 45.6296 280.379 44.7396C281.889 43.8496 282.649 42.6196 282.649 41.0696C282.649 39.7496 282.099 38.7396 281.009 38.0496C279.919 37.3596 278.409 37.0096 276.479 37.0096H269.439V32.6096H276.049C277.719 32.6096 279.029 32.2596 279.979 31.5696C280.929 30.8796 281.409 29.9396 281.409 28.7596C281.409 27.3496 280.769 26.2596 279.489 25.4796C278.209 24.6996 276.569 24.3096 274.589 24.3096C273.239 24.3096 271.839 24.4996 270.399 24.8896C268.959 25.2796 267.609 25.8496 266.339 26.5996L264.569 22.0696C266.119 21.2396 267.769 20.6096 269.509 20.1896C271.249 19.7696 272.979 19.5596 274.709 19.5596C276.949 19.5596 279.019 19.9096 280.909 20.5996C282.789 21.2896 284.299 22.2796 285.419 23.5596C286.539 24.8396 287.099 26.3496 287.099 28.0696C287.099 29.5696 286.689 30.8796 285.889 31.9996C285.079 33.1196 283.969 33.9896 282.559 34.5896C284.379 35.1696 285.799 36.0996 286.819 37.3796Z" fill="#9EACB2"/>
<path d="M317.359 45.6391V50.3491H294.699V20.1191H316.759V24.8291H300.309V32.6891H314.899V37.3091H300.309V45.6391H317.359Z" fill="#9EACB2"/>
<path d="M324.041 49.6391C322.411 48.8791 321.081 47.8091 320.051 46.4191L323.241 42.5791C324.911 44.8791 326.911 46.0291 329.241 46.0291C332.381 46.0291 333.951 44.1691 333.951 40.4591V24.8291H323.201V20.1191H339.561V40.1591C339.561 43.6991 338.701 46.3591 336.971 48.1291C335.241 49.8991 332.711 50.7891 329.371 50.7891C327.441 50.7791 325.661 50.3991 324.041 49.6391Z" fill="#9EACB2"/>
<path d="M379.97 24.8791H364.99L365.03 50.3491H359.5V20.1191H380.01L379.97 24.8791Z" fill="#9EACB2"/>
<path d="M404.001 21.4191C405.951 22.2791 407.441 23.5191 408.471 25.1291C409.511 26.7391 410.021 28.6591 410.021 30.8691C410.021 33.0591 409.501 34.9591 408.471 36.5891C407.431 38.2191 405.941 39.4591 404.001 40.3291C402.061 41.1891 399.781 41.6291 397.161 41.6291H390.341V50.3491H384.721V20.1191H397.151C399.781 20.1191 402.061 20.5591 404.001 21.4191ZM402.471 35.3191C403.741 34.2791 404.371 32.7991 404.371 30.8691C404.371 28.9391 403.741 27.4591 402.471 26.4191C401.201 25.3791 399.351 24.8691 396.901 24.8691H390.341V36.8691H396.901C399.341 36.8791 401.201 36.3591 402.471 35.3191Z" fill="#9EACB2"/>
<path d="M433.86 43.3491H418.75L415.77 50.3491H409.98L423.58 20.1191H429.1L442.75 50.3491H436.88L433.86 43.3491ZM432 38.9491L426.3 25.7391L420.64 38.9491H432Z" fill="#9EACB2"/>
<path d="M477.551 45.5991V50.3491H472.371H449.181H443.961L444.001 45.5991H445.291C447.191 45.5091 448.521 44.1091 449.291 41.3891C450.051 38.6691 450.521 34.7791 450.691 29.7091L451.041 20.1191H473.191V45.5991H477.551ZM454.671 40.0091C454.181 42.6091 453.401 44.4791 452.341 45.5991H467.671V24.8791H455.841L455.621 30.2291C455.471 34.1391 455.161 37.3991 454.671 40.0091Z" fill="#9EACB2"/>
<path d="M503.069 43.3491H487.959L484.979 50.3491H479.189L492.789 20.1191H498.309L511.959 50.3491H506.089L503.069 43.3491ZM501.219 38.9491L495.519 25.7391L489.859 38.9491H501.219Z" fill="#9EACB2"/>
</g>
<g opacity="0.4">
<path d="M195 58.9902H218.53V63.6102H200.53V71.0402H209.47C213.1 71.0402 215.86 71.8002 217.74 73.3102C219.63 74.8202 220.57 77.0002 220.57 79.8502C220.57 82.8402 219.53 85.1502 217.46 86.7802C215.39 88.4102 212.43 89.2202 208.61 89.2202H195V58.9902ZM208.3 84.9002C210.46 84.9002 212.1 84.4802 213.22 83.6502C214.34 82.8202 214.9 81.6102 214.9 80.0202C214.9 76.9102 212.7 75.3602 208.29 75.3602H200.52V84.9002H208.3Z" fill="#9EACB2"/>
<path d="M249.359 84.5102V89.2202H226.689V58.9902H248.749V63.7002H232.299V71.5602H246.889V76.1802H232.299V84.5102H249.359Z" fill="#9EACB2"/>
<path d="M261.149 87.6398C258.679 86.2998 256.729 84.4498 255.319 82.0698C253.909 79.6998 253.199 77.0398 253.199 74.0998C253.199 71.1598 253.909 68.5098 255.319 66.1298C256.729 63.7498 258.669 61.8998 261.149 60.5598C263.629 59.2198 266.399 58.5498 269.479 58.5498C272.559 58.5498 275.339 59.2198 277.809 60.5598C280.279 61.8998 282.229 63.7498 283.639 66.1098C285.049 68.4698 285.749 71.1398 285.749 74.0998C285.749 77.0698 285.049 79.7298 283.639 82.0898C282.229 84.4498 280.289 86.2998 277.809 87.6398C275.329 88.9798 272.559 89.6498 269.479 89.6498C266.399 89.6498 263.629 88.9798 261.149 87.6398ZM274.919 83.3598C276.529 82.4498 277.799 81.1898 278.719 79.5598C279.639 77.9398 280.099 76.1098 280.099 74.0998C280.099 72.0898 279.639 70.2598 278.719 68.6398C277.799 67.0098 276.529 65.7498 274.919 64.8398C273.309 63.9298 271.499 63.4798 269.479 63.4798C267.459 63.4798 265.649 63.9298 264.039 64.8398C262.429 65.7498 261.159 67.0098 260.239 68.6398C259.319 70.2698 258.859 72.0898 258.859 74.0998C258.859 76.1098 259.319 77.9398 260.239 79.5598C261.159 81.1898 262.429 82.4498 264.039 83.3598C265.649 84.2698 267.459 84.7198 269.479 84.7198C271.499 84.7198 273.309 84.2698 274.919 83.3598Z" fill="#9EACB2"/>
<path d="M312.49 63.7402H297.51L297.55 89.2102H292.02V58.9902H312.53L312.49 63.7402Z" fill="#9EACB2"/>
<path d="M336.51 60.2902C338.46 61.1502 339.95 62.3902 340.98 64.0002C342.02 65.6102 342.53 67.5302 342.53 69.7402C342.53 71.9302 342.01 73.8302 340.98 75.4602C339.94 77.0902 338.45 78.3302 336.51 79.2002C334.57 80.0602 332.29 80.5002 329.67 80.5002H322.85V89.2202H317.23V58.9902H329.66C332.29 58.9902 334.57 59.4202 336.51 60.2902ZM334.98 74.1902C336.25 73.1502 336.88 71.6702 336.88 69.7402C336.88 67.8102 336.25 66.3302 334.98 65.2902C333.71 64.2502 331.86 63.7402 329.41 63.7402H322.85V75.7402H329.41C331.86 75.7402 333.71 75.2202 334.98 74.1902Z" fill="#9EACB2"/>
<path d="M366.37 82.2202H351.26L348.28 89.2202H342.49L356.09 58.9902H361.62L375.27 89.2202H369.4L366.37 82.2202ZM364.52 77.8202L358.82 64.6102L353.16 77.8202H364.52Z" fill="#9EACB2"/>
<path d="M410.07 84.4702V89.2202H404.89H381.7H376.48L376.52 84.4702H377.81C379.71 84.3802 381.04 82.9802 381.81 80.2602C382.57 77.5402 383.04 73.6502 383.21 68.5802L383.56 58.9902H405.71V84.4702H410.07ZM387.18 78.8702C386.69 81.4702 385.91 83.3402 384.85 84.4602H400.18V63.7402H388.35L388.13 69.0902C387.99 73.0102 387.67 76.2702 387.18 78.8702Z" fill="#9EACB2"/>
<path d="M435.591 82.2202H420.481L417.501 89.2202H411.711L425.311 58.9902H430.831L444.481 89.2202H438.611L435.591 82.2202ZM433.731 77.8202L428.031 64.6102L422.371 77.8202H433.731Z" fill="#9EACB2"/>
</g>
<g opacity="0.4">
<path d="M220.39 115.11C221.37 116.39 221.86 117.98 221.86 119.88C221.86 122.5 220.85 124.52 218.84 125.95C216.82 127.38 213.89 128.09 210.03 128.09H195V97.8496H209.16C212.73 97.8496 215.48 98.5496 217.41 99.9396C219.33 101.34 220.3 103.26 220.3 105.7C220.3 107.2 219.96 108.52 219.26 109.67C218.57 110.82 217.62 111.71 216.41 112.35C218.09 112.91 219.41 113.83 220.39 115.11ZM200.61 102.26V110.59H208.55C210.51 110.59 212.01 110.24 213.06 109.53C214.11 108.83 214.64 107.8 214.64 106.44C214.64 105.06 214.12 104.02 213.06 103.31C212.01 102.6 210.5 102.25 208.55 102.25H200.61V102.26ZM216.2 119.32C216.2 116.41 214.03 114.96 209.68 114.96H200.62V123.68H209.68C214.03 123.68 216.2 122.22 216.2 119.32Z" fill="#9EACB2"/>
<path d="M250.529 123.37V128.08H227.859V97.8496H249.919V102.56H233.469V110.42H248.059V115.04H233.469V123.37H250.529Z" fill="#9EACB2"/>
<path d="M256.789 97.8496H262.409V123.33H278.209V128.08H256.789V97.8496Z" fill="#9EACB2"/>
<path d="M302.729 112.619H308.039V124.669C306.489 125.909 304.669 126.859 302.599 127.519C300.529 128.179 298.389 128.509 296.209 128.509C293.129 128.509 290.349 127.839 287.879 126.499C285.399 125.159 283.459 123.309 282.049 120.949C280.639 118.589 279.939 115.929 279.939 112.959C279.939 109.999 280.639 107.329 282.049 104.969C283.459 102.609 285.409 100.759 287.899 99.4192C290.389 98.0792 293.189 97.4092 296.299 97.4092C298.839 97.4092 301.139 97.8292 303.209 98.6592C305.279 99.4992 307.019 100.719 308.439 102.329L304.899 105.779C302.599 103.479 299.819 102.329 296.569 102.329C294.439 102.329 292.539 102.779 290.889 103.669C289.239 104.559 287.939 105.809 287.009 107.429C286.069 109.039 285.609 110.879 285.609 112.959C285.609 114.979 286.079 116.789 287.009 118.399C287.939 120.009 289.239 121.279 290.889 122.199C292.539 123.119 294.419 123.579 296.529 123.579C298.889 123.579 300.959 123.059 302.749 122.029V112.619H302.729Z" fill="#9EACB2"/>
<path d="M335.2 128.08L329.03 119.23C328.77 119.26 328.38 119.27 327.86 119.27H321.04V128.08H315.42V97.8496H327.85C330.47 97.8496 332.75 98.2796 334.69 99.1496C336.64 100.01 338.12 101.25 339.16 102.86C340.2 104.47 340.72 106.39 340.72 108.6C340.72 110.87 340.17 112.83 339.06 114.47C337.95 116.11 336.36 117.33 334.29 118.14L341.24 128.07H335.2V128.08ZM333.17 104.16C331.9 103.12 330.05 102.61 327.6 102.61H321.04V114.66H327.6C330.05 114.66 331.9 114.13 333.17 113.08C334.44 112.03 335.07 110.54 335.07 108.61C335.07 106.68 334.44 105.2 333.17 104.16Z" fill="#9EACB2"/>
<path d="M366.591 121.089H351.481L348.501 128.089H342.711L356.311 97.8594H361.841L375.481 128.089H369.611L366.591 121.089ZM364.731 116.679L359.031 103.469L353.371 116.679H364.731Z" fill="#9EACB2"/>
<path d="M379.33 97.8496H392.54C395.76 97.8496 398.63 98.4796 401.13 99.7296C403.63 100.98 405.58 102.75 406.96 105.04C408.34 107.33 409.03 109.97 409.03 112.96C409.03 115.95 408.34 118.6 406.96 120.88C405.58 123.17 403.63 124.94 401.13 126.19C398.63 127.44 395.76 128.07 392.54 128.07H379.33V97.8496ZM392.28 123.33C394.5 123.33 396.45 122.9 398.13 122.06C399.81 121.21 401.11 120 402.02 118.43C402.93 116.86 403.38 115.04 403.38 112.97C403.38 110.9 402.93 109.08 402.02 107.51C401.11 105.94 399.82 104.73 398.13 103.88C396.45 103.03 394.5 102.61 392.28 102.61H384.94V123.34H392.28V123.33Z" fill="#9EACB2"/>
<path d="M437.66 123.37V128.08H414.99V97.8496H437.05V102.56H420.6V110.42H435.19V115.04H420.6V123.37H437.66Z" fill="#9EACB2"/>
<path d="M461.56 126.499C459.1 125.159 457.17 123.309 455.77 120.949C454.37 118.589 453.68 115.929 453.68 112.959C453.68 109.999 454.38 107.329 455.79 104.969C457.2 102.609 459.14 100.759 461.6 99.4192C464.06 98.0792 466.82 97.4092 469.87 97.4092C472.35 97.4092 474.6 97.8392 476.65 98.6992C478.69 99.5592 480.42 100.819 481.84 102.459L478.21 105.869C476.02 103.509 473.33 102.329 470.14 102.329C468.07 102.329 466.21 102.779 464.57 103.689C462.93 104.599 461.65 105.859 460.72 107.469C459.8 109.079 459.34 110.909 459.34 112.949C459.34 114.989 459.8 116.819 460.72 118.429C461.64 120.039 462.92 121.299 464.57 122.209C466.21 123.119 468.07 123.569 470.14 123.569C473.33 123.569 476.03 122.379 478.21 119.989L481.84 123.439C480.43 125.079 478.69 126.329 476.63 127.199C474.57 128.059 472.31 128.499 469.83 128.499C466.78 128.509 464.02 127.839 461.56 126.499Z" fill="#9EACB2"/>
<path d="M487.23 97.8496H492.85V128.08H487.23V97.8496Z" fill="#9EACB2"/>
<path d="M507.129 102.609H497.109V97.8594H522.759V102.609H512.749V128.079H507.129V102.609Z" fill="#9EACB2"/>
<path d="M539.599 117.42V128.09H533.979V117.5L522.109 97.8496H528.109L536.959 112.57L545.899 97.8496H551.419L539.599 117.42Z" fill="#9EACB2"/>
</g>
<g opacity="0.4">
<path d="M222.76 166.95L222.71 146.92L212.78 163.5H210.27L200.34 147.18V166.96H195V136.73H199.62L211.62 156.77L223.41 136.73H228.03L228.08 166.96H222.76V166.95Z" fill="#9EACB2"/>
<path d="M239.471 163.86C237.141 161.52 235.971 158.15 235.971 153.78V136.72H241.581V153.56C241.581 159.49 244.141 162.45 249.271 162.45C254.361 162.45 256.911 159.49 256.911 153.56V136.72H262.441V153.78C262.441 158.16 261.281 161.52 258.971 163.86C256.651 166.21 253.401 167.38 249.231 167.38C245.061 167.38 241.801 166.2 239.471 163.86Z" fill="#9EACB2"/>
<path d="M272.92 166.38C270.75 165.72 269.03 164.84 267.76 163.75L269.7 159.39C270.94 160.37 272.46 161.17 274.26 161.79C276.06 162.41 277.86 162.72 279.68 162.72C281.92 162.72 283.6 162.36 284.71 161.64C285.82 160.92 286.37 159.97 286.37 158.79C286.37 157.93 286.06 157.21 285.44 156.65C284.82 156.09 284.04 155.65 283.09 155.33C282.14 155.01 280.84 154.65 279.2 154.25C276.89 153.7 275.03 153.16 273.61 152.61C272.18 152.06 270.96 151.21 269.94 150.04C268.92 148.87 268.41 147.3 268.41 145.31C268.41 143.64 268.86 142.12 269.77 140.76C270.68 139.39 272.04 138.31 273.87 137.5C275.7 136.7 277.93 136.29 280.58 136.29C282.42 136.29 284.24 136.52 286.02 136.98C287.81 137.44 289.35 138.1 290.64 138.97L288.87 143.33C287.55 142.55 286.17 141.96 284.73 141.56C283.29 141.16 281.9 140.96 280.54 140.96C278.32 140.96 276.67 141.33 275.59 142.08C274.51 142.83 273.97 143.82 273.97 145.06C273.97 145.92 274.28 146.63 274.9 147.18C275.52 147.73 276.3 148.16 277.25 148.48C278.2 148.8 279.5 149.16 281.14 149.56C283.38 150.08 285.23 150.62 286.67 151.18C288.11 151.74 289.34 152.6 290.36 153.75C291.38 154.9 291.89 156.46 291.89 158.41C291.89 160.08 291.44 161.59 290.53 162.94C289.62 164.29 288.25 165.37 286.41 166.18C284.57 166.99 282.32 167.39 279.68 167.39C277.34 167.38 275.09 167.05 272.92 166.38Z" fill="#9EACB2"/>
<path d="M320.131 162.24V166.95H297.461V136.72H319.521V141.43H303.071V149.29H317.661V153.91H303.071V162.24H320.131Z" fill="#9EACB2"/>
<path d="M329.631 163.86C327.301 161.52 326.131 158.15 326.131 153.78V136.72H331.741V153.56C331.741 159.49 334.301 162.45 339.431 162.45C344.521 162.45 347.071 159.49 347.071 153.56V136.72H352.591V153.78C352.591 158.16 351.431 161.52 349.121 163.86C346.801 166.21 343.551 167.38 339.381 167.38C335.211 167.38 331.961 166.2 329.631 163.86Z" fill="#9EACB2"/>
<path d="M388.219 166.95L388.169 146.92L378.239 163.5H375.729L365.799 147.18V166.96H360.449V136.73H365.069L377.069 156.77L388.859 136.73H393.479L393.529 166.96H388.219V166.95Z" fill="#9EACB2"/>
</g>
</svg>
