<svg width="460" height="460" viewBox="0 0 460 460" fill="none" xmlns="http://www.w3.org/2000/svg">
<path d="M230.17 423.3C336.86 423.3 423.34 336.82 423.34 230.15C423.34 123.47 336.85 37 230.17 37C123.48 37 37 123.48 37 230.15C36.99 336.82 123.48 423.3 230.17 423.3Z" fill="white"/>
<path d="M230.169 405.2C326.849 405.2 405.219 326.83 405.219 230.15C405.219 133.47 326.849 55.0996 230.169 55.0996C133.489 55.0996 55.1191 133.47 55.1191 230.15C55.1191 326.83 133.489 405.2 230.169 405.2Z" fill="#00C2E8"/>
<path d="M200.929 179.9C198.089 179.87 195.569 179.99 194.319 180.11C191.829 180.34 190.969 182.7 191.129 185.02C193.459 218.69 185.709 257.8 177.279 257.72C171.009 257.66 169.409 239.35 169.559 223.06C169.639 213.44 170.269 204.17 170.569 195.98C170.679 192.94 169.579 192.36 167.389 192.08C164.069 191.65 161.689 191.63 158.379 192.33C155.849 192.87 155.239 194.94 152.529 201.22C139.039 232.53 126.069 257.67 126.069 257.67C122.919 232.33 127.459 207.82 131.299 189.94C131.829 187.47 130.659 186.01 128.639 186.02C124.819 186.05 118.969 186.13 116.309 187.83C113.819 189.43 112.879 191.16 112.129 194.73C107.859 215.22 104.979 240.93 108.919 260.87C109.769 265.18 110.759 266.2 112.569 267.35C114.379 268.49 122.159 269.57 125.189 269.6C128.619 269.63 131.769 268.74 134.429 264.27C140.049 254.83 144.569 245.39 153.099 227.19C153.759 250.99 156.949 269.7 173.669 269.85C195.829 270.04 210.609 214.81 210.839 188.17C210.889 181.15 207.399 179.96 200.929 179.9Z" fill="white"/>
<path d="M233.5 261.16C228.58 261.12 225.33 256.85 225.41 248.44C225.55 232.31 231.44 215.01 241.75 215.11C242.91 215.12 243.93 215.28 244.84 215.65C244.67 216.27 244.54 216.79 244.49 217.07C242.87 226.21 244.7 232.05 249.04 235.31C246.68 249.46 240.32 261.22 233.5 261.16ZM352.02 210.58C352.02 210.58 344.54 210.12 335.92 209.66C335.92 209.66 337.75 200.11 338.63 196.21C339.07 194.31 338.07 192.4 335.67 191.79C333.28 191.19 327.78 191.1 325.92 191.3C324.38 191.46 322.87 192.37 322.51 193.97C321.6 197.96 320.66 202.77 319.53 208.92C316.33 208.81 313.22 208.76 311.07 208.78C309.06 208.8 308.1 209.82 307.68 211.47C307.25 213.12 306.89 215.48 306.73 217.93C306.61 219.78 308.63 220.68 310.71 220.62C310.71 220.62 313.26 220.53 317.27 220.37C316.5 223.87 314.93 233.26 314.32 239.1C310.6 251.22 303.02 260.12 296.55 260.06C292.59 260.03 290.25 257.65 290.31 250.53C290.4 240.66 292.77 228.2 296.19 215.72C300.95 204.54 303.74 192.09 303.79 186.43C303.81 184.3 303.18 181.92 300.64 181.39C296.05 180.43 291.67 180.57 288.6 181.49C285.85 182.32 285.27 185.19 284.93 186.72C283.28 194.09 280.58 207.14 278.67 218.59C274.61 223.43 269.95 226.81 264.94 227.61C264.29 212.42 255.52 205.83 243.35 205.72C221.98 205.53 208.2 224.45 208.01 245.82C207.86 263.13 217.24 270.43 230.99 270.56C247.22 270.7 259.4 259.28 264.1 238.2C268.71 237.3 272.71 235.11 276.18 232.04C276.18 232.04 273.48 245.11 273.41 252.79C273.3 264.44 278.25 270.98 289.99 271.08C299.65 271.17 308.14 264.43 313.48 256.19C314.8 267.02 320.41 271.35 329.59 271.43C338.02 271.5 346.19 266.23 352.01 256.6C353.17 254.68 354.02 253 353.31 252.15C351.66 250.22 348.49 249.2 347.6 250.78C343.75 257.68 339.66 260.44 335.23 260.4C331.72 260.37 328.9 258.26 328.96 252.18C329.03 243.42 334.17 219.8 334.17 219.8C338.5 219.68 343.32 219.57 347.9 219.51C351.92 219.45 354.77 218.25 355.5 214.44C355.92 212.18 354.6 210.72 352.02 210.58Z" fill="white"/>
<path d="M164.219 294.54C164.219 293.46 164.959 292.74 165.929 292.74H170.829C177.649 292.74 181.709 296.46 181.709 302.72C181.709 308.98 177.559 312.8 170.669 312.8H165.989C164.999 312.8 164.219 311.99 164.219 311.03V294.54ZM178.479 302.75C178.479 298.19 175.599 295.5 170.759 295.5H167.379V310.04H170.729C175.629 310.04 178.479 307.37 178.479 302.75Z" fill="white"/>
<path d="M191.679 297.511C195.989 297.511 198.839 300.551 198.839 305.011V305.261C198.839 305.911 198.619 306.161 197.909 306.161H186.899C186.899 306.351 186.929 306.531 186.959 306.721C187.389 309.171 189.349 310.781 191.979 310.781C194.579 310.781 195.889 309.631 196.659 308.301C196.719 308.241 198.269 308.521 198.269 309.821C198.269 310.471 197.709 311.311 196.629 311.991C195.539 312.671 193.959 313.201 191.919 313.201C187.209 313.201 184.039 310.071 184.039 305.421C184.059 300.891 187.279 297.511 191.679 297.511ZM191.649 299.841C189.199 299.841 187.309 301.611 186.939 304.091H195.869C195.709 301.511 194.129 299.841 191.649 299.841Z" fill="white"/>
<path d="M201.818 311.471V291.841C201.818 291.751 202.348 291.501 202.938 291.501C203.898 291.501 204.888 292.001 204.888 294.131V311.461C204.888 312.581 204.328 312.921 203.528 312.921H203.218C202.408 312.921 201.818 312.581 201.818 311.471Z" fill="white"/>
<path d="M210.559 291.311C211.709 291.311 212.359 291.991 212.359 293.111C212.359 294.231 211.709 294.881 210.529 294.881C209.379 294.881 208.699 294.201 208.699 293.111C208.699 292.001 209.379 291.311 210.559 291.311ZM208.949 299.221C208.949 298.101 209.539 297.731 210.349 297.731H210.659C211.469 297.731 212.019 298.071 212.019 299.221V311.471C212.019 312.591 211.459 312.931 210.659 312.931H210.349C209.539 312.931 208.949 312.591 208.949 311.471V299.221Z" fill="white"/>
<path d="M214.469 298.63C214.409 298.44 215.089 297.73 216.079 297.73C216.949 297.73 217.509 298.1 218.029 299.56L221.779 310.07L225.659 299.56C226.189 298.1 226.779 297.73 227.549 297.73C228.509 297.73 229.189 298.47 229.129 298.63L223.699 312.02C223.419 312.7 222.799 312.98 221.809 312.98C220.759 312.98 220.229 312.76 219.949 312.08L214.469 298.63Z" fill="white"/>
<path d="M237.749 297.511C242.059 297.511 244.909 300.551 244.909 305.011V305.261C244.909 305.911 244.689 306.161 243.979 306.161H232.969C232.969 306.351 232.999 306.531 233.029 306.721C233.459 309.171 235.419 310.781 238.049 310.781C240.649 310.781 241.959 309.631 242.729 308.301C242.789 308.241 244.339 308.521 244.339 309.821C244.339 310.471 243.779 311.311 242.699 311.991C241.619 312.671 240.029 313.201 237.989 313.201C233.279 313.201 230.109 310.071 230.109 305.421C230.119 300.891 233.349 297.511 237.749 297.511ZM237.719 299.841C235.269 299.841 233.379 301.611 233.009 304.091H241.939C241.779 301.511 240.199 299.841 237.719 299.841Z" fill="white"/>
<path d="M257.03 299.501C257.03 300.681 256.16 301.141 256.1 301.081C255.63 300.711 255.05 300.431 254.21 300.431C251.79 300.431 250.83 302.791 250.83 306.231V311.471C250.83 312.591 250.24 312.931 249.47 312.931H249.13C248.32 312.931 247.77 312.591 247.77 311.471V298.081C247.77 297.991 248.27 297.741 248.89 297.741C249.6 297.741 250.38 298.051 250.69 299.231C250.75 299.541 250.81 299.911 250.81 300.351C251.46 298.521 252.7 297.531 254.59 297.531C256.13 297.511 257.03 298.261 257.03 299.501Z" fill="white"/>
<path d="M265.118 297.511C269.428 297.511 272.279 300.551 272.279 305.011V305.261C272.279 305.911 272.059 306.161 271.349 306.161H260.339C260.339 306.351 260.368 306.531 260.398 306.721C260.828 309.171 262.789 310.781 265.419 310.781C268.019 310.781 269.329 309.631 270.099 308.301C270.159 308.241 271.709 308.521 271.709 309.821C271.709 310.471 271.149 311.311 270.069 311.991C268.979 312.671 267.399 313.201 265.359 313.201C260.649 313.201 257.479 310.071 257.479 305.421C257.489 300.891 260.718 297.511 265.118 297.511ZM265.089 299.841C262.639 299.841 260.749 301.611 260.379 304.091H269.309C269.149 301.511 267.569 299.841 265.089 299.841Z" fill="white"/>
<path d="M274.229 305.361C274.229 300.651 277.179 297.521 281.299 297.521C283.719 297.521 285.549 298.641 286.419 299.971V291.851C286.419 291.761 286.949 291.511 287.539 291.511C288.499 291.511 289.489 292.011 289.489 294.141V311.471C289.489 312.591 288.929 312.931 288.129 312.931H287.819C287.009 312.931 286.459 312.591 286.459 311.471V310.321C285.279 312.121 283.579 313.201 281.219 313.201C277.209 313.201 274.229 310.071 274.229 305.361ZM286.449 303.131C285.669 301.241 284.159 300.061 281.859 300.061C279.069 300.061 277.209 302.171 277.209 305.361C277.209 308.461 279.129 310.661 281.799 310.661C284.279 310.661 286.449 308.831 286.449 306.291V303.131Z" fill="white"/>
<path d="M292.93 310.971C292.93 309.891 293.49 309.261 294.6 309.261H295C296.15 309.261 296.71 309.881 296.71 310.971V311.341C296.71 312.421 296.12 313.011 295 313.011H294.6C293.51 313.011 292.93 312.421 292.93 311.341V310.971Z" fill="white"/>
</svg>
