<svg width="28" height="28" viewBox="0 0 28 28" fill="none" xmlns="http://www.w3.org/2000/svg">
<path d="M27.3414 14.0001C27.3414 12.2494 26.996 10.5147 26.3264 8.89738C25.6556 7.28005 24.6739 5.81077 23.4349 4.5721C22.1959 3.33344 20.7262 2.35206 19.1084 1.6814C17.4906 1.01206 15.7554 0.666748 14.0042 0.666748C10.4672 0.666748 7.07416 2.0721 4.57344 4.5721C2.07271 7.0721 0.666992 10.4641 0.666992 14.0001C0.666992 17.5361 2.07271 20.9281 4.57344 23.4281C7.07416 25.9281 10.4672 27.3334 14.0042 27.3334C17.5412 27.3334 20.9342 25.9281 23.4349 23.4281C25.9356 20.9281 27.3414 17.5361 27.3414 14.0001ZM24.5806 12.6667H20.6728C20.4527 9.53075 19.3777 6.51478 17.5652 3.94678C19.4271 4.60811 21.0703 5.7734 22.3079 7.3134C23.547 8.85339 24.3338 10.7067 24.5806 12.6667ZM10.1097 15.3334H18.0054C17.6639 18.6281 16.2595 21.7214 14.0042 24.1467C11.7502 21.7307 10.3778 18.6254 10.1097 15.3334ZM10.1097 12.6667C10.4205 9.38941 11.7875 6.30145 14.0042 3.86678C16.2782 6.27478 17.6853 9.37075 18.0054 12.6667H10.1097ZM10.5899 3.90674C8.76801 6.4894 7.6757 9.51608 7.42896 12.6667H3.4278C3.67988 10.6814 4.48545 8.80804 5.75115 7.25871C7.01818 5.71071 8.69466 4.54807 10.5899 3.90674ZM3.4278 15.3334H7.42896C7.64903 18.4814 8.73335 21.5081 10.5632 24.0801C8.67466 23.4347 7.00483 22.2734 5.74313 20.7281C4.48276 19.1814 3.67988 17.3121 3.4278 15.3334ZM17.4985 24.0667C19.3231 21.4947 20.4207 18.4774 20.6728 15.3334H24.6073C24.3552 17.3067 23.5563 19.1708 22.2999 20.7148C21.0435 22.2574 19.3804 23.4187 17.4985 24.0667Z" fill="#F3F2FF"/>
</svg>
