<svg width="38" height="38" viewBox="0 0 38 38" fill="none" xmlns="http://www.w3.org/2000/svg">
<path d="M7.13714 0H30.8629C34.7884 0 38 3.21162 38 7.13714V30.8629C38 34.7884 34.7884 38 30.8629 38H7.13714C3.21162 38 0 34.7884 0 30.8629V7.1365C0 3.21162 3.21162 0 7.13714 0Z" fill="#F3F2FF"/>
<path d="M8.2774 14.801C8.30542 13.3942 8.52258 12.0148 9.32246 10.8029C10.0625 9.68078 11.0751 8.92421 12.3558 8.4937C13.6097 8.07147 14.9 8.07083 16.1928 8.06892C18.6758 8.06446 21.1595 8.06892 23.6426 8.09248C25.0386 8.10586 26.3734 8.40072 27.5535 9.18595C28.8832 10.0718 29.6939 11.3328 29.9652 12.8949C30.1251 13.8177 30.2021 14.7654 30.2066 15.7015C30.2187 18.3737 30.1894 21.0453 30.1474 23.7175C30.1283 24.8925 29.8665 26.0223 29.2475 27.0399C28.5043 28.2608 27.4465 29.0708 26.0779 29.5122C24.8342 29.9134 23.5592 29.9268 22.281 29.9293C19.8438 29.935 17.4066 29.928 14.9694 29.9121C13.6906 29.9038 12.4481 29.6873 11.3196 29.0524C10.002 28.3111 9.12378 27.2074 8.67162 25.7554C8.36657 24.7766 8.30862 23.7716 8.26277 22.7616C8.25258 22.5827 8.23664 16.8491 8.2774 14.801ZM10.4064 24.3404C10.5172 25.3905 10.9598 26.3267 11.8457 27.0094C12.7105 27.6768 13.7218 27.8793 14.7529 27.9041C18.0339 27.9818 21.3168 28.1028 24.5947 27.801C25.3328 27.7328 26.0053 27.4755 26.5995 27.0329C27.7344 26.1885 28.1254 24.9645 28.1578 23.6411C28.219 21.1822 28.2069 18.7215 28.198 16.262C28.1948 15.3818 28.1521 14.4972 28.0585 13.6222C27.956 12.665 27.5643 11.8238 26.8313 11.1653C26.0193 10.4361 25.0322 10.1559 23.9827 10.1349C21.3124 10.0814 18.6408 10.0431 15.9699 10.061C14.991 10.068 13.9988 10.0756 13.0372 10.3832C11.4088 10.9035 10.5229 12.1403 10.4038 13.6719C10.2542 15.5926 10.2752 23.103 10.4064 24.3404Z" fill="#002440"/>
<path d="M19.2572 13.3791C22.309 13.3555 24.9054 15.866 24.8933 19.0375C24.8812 22.1918 22.2466 24.6659 19.2063 24.6411C16.0985 24.6162 13.5409 22.0771 13.5765 18.9528C13.6122 15.8252 16.1424 13.3415 19.2572 13.3791ZM22.8809 19.0489C22.9426 17.1212 21.2811 15.3807 19.2457 15.3794C17.2441 15.3781 15.5972 17.0212 15.5979 18.9661C15.5979 21.027 17.2123 22.6439 19.2725 22.6407C21.2391 22.6369 22.8802 21.004 22.8809 19.0489Z" fill="#002440"/>
<path d="M25.0927 14.4603C24.3604 14.5278 23.777 13.868 23.7573 13.1713C23.7375 12.4567 24.3827 11.8256 25.1042 11.8358C25.8449 11.8466 26.4715 12.4625 26.4428 13.1834C26.4161 13.8483 25.8773 14.5259 25.0927 14.4603Z" fill="#002440"/>
</svg>
