<svg width="39" height="39" viewBox="0 0 39 39" fill="none" xmlns="http://www.w3.org/2000/svg">
<path d="M7.18685 0H31.0778C35.0307 0 38.2646 3.23399 38.2646 7.18685V31.0778C38.2646 35.0307 35.0307 38.2647 31.0778 38.2647H7.18685C3.23399 38.2647 0 35.0307 0 31.0778V7.18685C0 3.23399 3.23399 0 7.18685 0Z" fill="#F3F2FF"/>
<path d="M11.2082 8.94458C9.79737 8.94458 8.65332 10.0886 8.65332 11.4995C8.65332 12.9103 9.79737 14.0543 11.2082 14.0543C12.619 14.0543 13.7631 12.9103 13.7631 11.4995C13.7631 10.088 12.619 8.94458 11.2082 8.94458Z" fill="#002440"/>
<path d="M13.5147 15.7654H8.90137V29.8037H13.5147V15.7654Z" fill="#002440"/>
<path d="M24.4789 15.4346C22.7039 15.4346 21.4566 16.2811 20.5851 17.3629V15.7655H15.9717V29.8038H20.5851V21.5774C20.7101 19.81 21.9715 19.3489 22.8667 19.3489C23.8094 19.3489 24.9996 19.8081 24.9996 22.3873V29.8038H29.613V22.3873V19.9152C29.613 19.9152 29.4065 15.4346 24.4789 15.4346Z" fill="#002440"/>
</svg>
