<svg width="31" height="42" viewBox="0 0 31 42" fill="none" xmlns="http://www.w3.org/2000/svg">
<path d="M15.4501 41.4414L3.02588 24.6345C0.827048 21.6602 -0.232352 17.9906 0.0427491 14.3017C0.31785 10.6129 1.90975 7.14095 4.52533 4.52546C7.44352 1.60718 11.3234 0 15.4501 0C19.5768 0 23.4567 1.60718 26.375 4.52546C27.8428 5.99326 28.9818 7.70772 29.7604 9.62121C30.5168 11.4803 30.9004 13.4431 30.9004 15.455C30.9004 18.7821 29.854 21.9563 27.8743 24.6345L15.4501 41.4414ZM15.4501 2.34637C11.9501 2.34637 8.65946 3.70951 6.18444 6.18458C3.96608 8.40289 2.6159 11.3475 2.38264 14.4762C2.14928 17.6048 3.04784 20.7171 4.91266 23.2397L15.4501 37.4942L25.9875 23.2398C27.6664 20.9684 28.554 18.2764 28.554 15.455C28.554 11.952 27.1909 8.65969 24.7158 6.18462C22.2407 3.70951 18.9501 2.34637 15.4501 2.34637Z" fill="#F3F2FF"/>
<path d="M15.4501 23.3387C19.8069 23.3387 23.3387 19.8069 23.3387 15.4501C23.3387 11.0934 19.8069 7.56152 15.4501 7.56152C11.0934 7.56152 7.56152 11.0934 7.56152 15.4501C7.56152 19.8069 11.0934 23.3387 15.4501 23.3387Z" fill="#F3F2FF"/>
</svg>
