<svg width="38" height="38" viewBox="0 0 38 38" fill="none" xmlns="http://www.w3.org/2000/svg">
<path d="M7.13714 0H30.8629C34.7884 0 38 3.21162 38 7.13714V30.8629C38 34.7884 34.7884 38 30.8629 38H7.13714C3.21162 38 0 34.7884 0 30.8629V7.13714C0 3.21162 3.21162 0 7.13714 0Z" fill="#F3F2FF"/>
<mask id="mask0_747_219" style="mask-type:luminance" maskUnits="userSpaceOnUse" x="5" y="5" width="28" height="28">
<path d="M32.4871 5.09473H5.09473V32.4791H32.4871V5.09473Z" fill="white"/>
</mask>
<g mask="url(#mask0_747_219)">
<path d="M26.7808 9.65894H10.802C9.89346 9.65894 9.02261 10.0195 8.38117 10.6619C7.73859 11.3031 7.37793 12.1737 7.37793 13.082V24.4922C7.37793 25.4004 7.73859 26.271 8.38117 26.9123C9.02261 27.5546 9.89346 27.9152 10.802 27.9152H26.7808C27.6894 27.9152 28.5602 27.5546 29.2016 26.9123C29.8442 26.271 30.2049 25.4004 30.2049 24.4922V13.082C30.2049 12.1737 29.8442 11.3031 29.2016 10.6619C28.5602 10.0195 27.6894 9.65894 26.7808 9.65894ZM26.0162 11.941L18.7914 17.3608L11.5667 11.941H26.0162ZM26.7808 25.6332H10.802C10.4995 25.6332 10.2085 25.5134 9.99504 25.2989C9.78047 25.0855 9.66062 24.7945 9.66062 24.4922V13.3672L18.1066 19.6999C18.304 19.8482 18.5449 19.9281 18.7914 19.9281C19.0379 19.9281 19.2787 19.8482 19.4762 19.6999L27.9222 13.3672V24.4922C27.9222 24.7945 27.8023 25.0855 27.5877 25.2989C27.3743 25.5134 27.0833 25.6332 26.7808 25.6332Z" fill="#002440"/>
</g>
</svg>
