<svg width="38" height="38" viewBox="0 0 38 38" fill="none" xmlns="http://www.w3.org/2000/svg">
<path d="M7.13714 0H30.8629C34.7884 0 38 3.21162 38 7.13714V30.8629C38 34.7884 34.7884 38 30.8629 38H7.13714C3.21162 38 0 34.7884 0 30.8629V7.13714C0 3.21162 3.21162 0 7.13714 0Z" fill="#F3F2FF"/>
<path d="M18.4749 15.9306V20.597C18.4749 20.597 13.6391 20.1981 13.6391 24.9839C13.6391 29.4393 20.9127 28.7325 20.9127 24.784C20.9127 20.8355 20.9127 6 20.9127 6H25.6701C25.6701 6 25.3163 12.4609 32 12.3015V17.3214C32 17.3214 27.9897 17.3263 25.7485 15.2923V26.2201C25.7485 26.2201 24.7264 33 17.4528 33C10.1793 33 9 27.3768 9 24.3856C8.99956 21.3947 10.9653 15.9306 18.4749 15.9306Z" fill="#002440"/>
</svg>
